<?xml version="1.0" encoding="UTF-8"?>
<svg width="22px" height="21px" viewBox="0 0 22 21" version="1.1" xmlns="http://www.w3.org/2000/svg" xmlns:xlink="http://www.w3.org/1999/xlink">
    <title>100-percent@2x</title>
    <g id="Page-1" stroke="none" stroke-width="1" fill="none" fill-rule="evenodd">
        <g id="Artboard" transform="translate(-128.000000, -151.000000)" fill="#FFFFFF" fill-rule="nonzero">
            <g id="100-percent" transform="translate(129.000000, 152.000000)">
                <path d="M19,5.89655172 L18.946,5.89655172 C18.9413333,5.88508621 18.939,5.87231034 18.934,5.86117241 C18.7363671,5.50399777 18.4345429,5.21308166 18.0673333,5.02582759 C17.8534662,4.91000627 17.6627193,4.75706532 17.5043333,4.57441379 C17.3908446,4.35861682 17.3184333,4.12425679 17.2906667,3.88287931 C17.2547543,3.47955843 17.0964806,3.09611688 16.8363333,2.78218966 C16.5168384,2.52641456 16.1265275,2.37085924 15.716,2.33568966 C15.4703878,2.30840174 15.2319162,2.23723888 15.0123333,2.1257069 C14.8265546,1.97006362 14.6710382,1.78259917 14.5533333,1.57241379 C14.3629604,1.21139082 14.0662785,0.915143619 13.702,0.722327586 C13.3091413,0.605020361 12.8893067,0.607647634 12.498,0.729862069 C12.2590898,0.797847804 12.0094906,0.822055357 11.7616667,0.801275862 C11.5335125,0.72878921 11.3206241,0.616244405 11.1333333,0.469103448 C10.8125211,0.203696523 10.4173572,0.0401323061 10,0 C9.58264285,0.0401323061 9.18747888,0.203696523 8.86666667,0.469103448 C8.67956223,0.616311069 8.46692108,0.729066524 8.239,0.801931034 C7.99079188,0.821586841 7.74101155,0.797061658 7.50166667,0.729534483 C7.11034643,0.6078115 6.69079478,0.604729388 6.29766667,0.720689655 C5.9341643,0.914943814 5.63804453,1.21154793 5.44733333,1.57241379 C5.32949382,1.78279057 5.17374245,1.9703769 4.98766667,2.12603448 C4.76808378,2.23756647 4.52961217,2.30872932 4.284,2.33601724 C3.87374149,2.37122094 3.48368455,2.52665349 3.16433333,2.78218966 C2.90418607,3.09611688 2.74591232,3.47955843 2.71,3.88287931 C2.68228761,4.12401716 2.60999008,4.35815248 2.49666667,4.57375862 C2.33829768,4.7564697 2.14740836,4.90932333 1.93333333,5.02484483 C1.56429797,5.21373416 1.26214124,5.50805445 1.06666667,5.86903448 C1.06333333,5.87787931 1.06133333,5.88737931 1.058,5.89655172 L1,5.89655172 C0.44771525,5.89655172 0,6.33654775 0,6.87931034 L0,12.1206897 C0,12.6634523 0.44771525,13.1034483 1,13.1034483 L1.054,13.1034483 C1.05866667,13.1149138 1.061,13.1276897 1.066,13.1388276 C1.26371499,13.4959413 1.56551749,13.7868365 1.93266667,13.9741724 C2.14653383,14.0899937 2.33728067,14.2429347 2.49566667,14.4255862 C2.60915536,14.6413832 2.68156668,14.8757432 2.70933333,15.1171207 C2.74524565,15.5204416 2.9035194,15.9038831 3.16366667,16.2178103 C3.48297775,16.4734645 3.87303834,16.6290126 4.28333333,16.6643103 C4.5289455,16.6915983 4.76741712,16.7627611 4.987,16.8742931 C5.17301771,17.0298789 5.32876301,17.2173469 5.44666667,17.4275862 C5.63703964,17.7886092 5.93372145,18.0848564 6.298,18.2776724 C6.69085869,18.3949796 7.11069326,18.3923524 7.502,18.2701379 C7.74080644,18.2016238 7.99050612,18.1774065 8.23833333,18.1987241 C8.46648751,18.2712108 8.6793759,18.3837556 8.86666667,18.5308966 C9.18747888,18.7963035 9.58264285,18.9598677 10,19 C10.4173572,18.9598677 10.8125211,18.7963035 11.1333333,18.5308966 C11.3204378,18.3836889 11.5330789,18.2709335 11.761,18.198069 C12.0092126,18.1779327 12.2590808,18.2024665 12.4983333,18.2704655 C12.8900542,18.3923275 13.3100073,18.3956374 13.7036667,18.2799655 C14.067169,18.0857114 14.3632888,17.7891072 14.554,17.4282414 C14.6718395,17.2178646 14.8275909,17.0302783 15.0136667,16.8746207 C15.2332495,16.7630887 15.4717212,16.6919258 15.7173333,16.6646379 C16.1276283,16.6293402 16.5176889,16.4737921 16.837,16.2181379 C17.0971473,15.9042107 17.255421,15.5207692 17.2913333,15.1174483 C17.3190457,14.8763104 17.3913433,14.6421751 17.5046667,14.426569 C17.6626103,14.2438648 17.8530407,14.0909059 18.0666667,13.9751552 C18.435702,13.7862658 18.7378588,13.4919456 18.9333333,13.1309655 C18.9366667,13.1221207 18.9386667,13.1126207 18.942,13.1034483 L19,13.1034483 C19.5522847,13.1034483 20,12.6634523 20,12.1206897 L20,6.87931034 C20,6.33654775 19.5522847,5.89655172 19,5.89655172 Z M2.3,5.57387931 C2.59123939,5.41365505 2.84683255,5.19766818 3.05166667,4.93868966 C3.21937901,4.6512116 3.32639968,4.33345685 3.36633333,4.00441379 C3.38670623,3.7323445 3.48010016,3.47044448 3.637,3.24539655 C3.8658711,3.09120003 4.13225955,2.99941333 4.409,2.97939655 C4.74400653,2.94032298 5.06750053,2.8350194 5.36,2.66982759 C5.62410156,2.46832409 5.84424803,2.21665748 6.00733333,1.92981034 C6.1327606,1.68432942 6.32176719,1.47564554 6.55533333,1.32475862 C6.82539177,1.26928875 7.10559064,1.28522753 7.36733333,1.37094828 C7.69315717,1.46062543 8.03386378,1.48579075 8.36966667,1.44498276 C8.68857413,1.35936285 8.98662989,1.21140028 9.246,1.00994828 C9.46026379,0.827156426 9.72075778,0.704587487 10,0.655172414 C10.2797133,0.704363422 10.5406954,0.826945236 10.7553333,1.00994828 C11.0151981,1.21159562 11.3138391,1.35956732 11.6333333,1.44498276 C11.969345,1.48751708 12.3106405,1.46277912 12.6366667,1.37225862 C12.8979677,1.28635846 13.1779636,1.2710839 13.4473333,1.32803448 C13.6813504,1.47817137 13.8703997,1.68691635 13.995,1.93275862 C14.1580352,2.21897664 14.3778113,2.47016303 14.6413333,2.67146552 C14.9339297,2.83638557 15.2573889,2.94156639 15.5923333,2.9807069 C15.8690738,3.00072368 16.1354622,3.09251037 16.3643333,3.2467069 C16.5212332,3.47175483 16.6146271,3.73365484 16.635,4.00572414 C16.674994,4.33500645 16.7821283,4.65298496 16.95,4.94065517 C17.1550474,5.1998087 17.411005,5.41581619 17.7026667,5.57584483 C17.8593782,5.67012314 18.0075864,5.77741745 18.1456667,5.89655172 L16.7293333,5.89655172 C15.3883046,3.47379571 12.8065643,1.96564915 10.0001667,1.96564915 C7.19376906,1.96564915 4.61202877,3.47379571 3.271,5.89655172 L1.855,5.89655172 C1.99367009,5.77668473 2.1425494,5.66873137 2.3,5.57387931 Z M15.962,5.89655172 L4.038,5.89655172 C5.31190745,3.86165663 7.56890891,2.62204448 10,2.62204448 C12.4310911,2.62204448 14.6880926,3.86165663 15.962,5.89655172 L15.962,5.89655172 Z M17.7,13.4261207 C17.4087606,13.5863449 17.1531674,13.8023318 16.9483333,14.0613103 C16.780621,14.3487884 16.6736003,14.6665432 16.6336667,14.9955862 C16.6132938,15.2676555 16.5198998,15.5295555 16.363,15.7546034 C16.1341289,15.9088 15.8677405,16.0005867 15.591,16.0206034 C15.2559935,16.059677 14.9324995,16.1649806 14.64,16.3301724 C14.3758984,16.5316759 14.155752,16.7833425 13.9926667,17.0701897 C13.8672394,17.3156706 13.6782328,17.5243545 13.4446667,17.6752414 C13.1746082,17.7307112 12.8944094,17.7147725 12.6326667,17.6290517 C12.3068987,17.5390628 11.9661284,17.5138928 11.6303333,17.5550172 C11.3114259,17.6406371 11.0133701,17.7885997 10.754,17.9900517 C10.5397362,18.1728436 10.2792422,18.2954125 10,18.3448276 C9.72028666,18.2956366 9.45930461,18.1730548 9.24466667,17.9900517 C8.98529656,17.7885997 8.6872408,17.6406371 8.36833333,17.5550172 C8.03231763,17.5126279 7.6910518,17.5373637 7.365,17.6277414 C7.10360061,17.713135 6.82374382,17.728402 6.55433333,17.6719655 C6.31970338,17.5220512 6.1300606,17.3132862 6.005,17.0672414 C5.84196479,16.7810234 5.62218868,16.529837 5.35866667,16.3285345 C5.06607028,16.1636144 4.7426111,16.0584336 4.40766667,16.0192931 C4.13092622,15.9992763 3.86453776,15.9074896 3.63566667,15.7532931 C3.47876682,15.5282452 3.38537289,15.2663452 3.365,14.9942759 C3.32500604,14.6649936 3.21787168,14.347015 3.05,14.0593448 C2.84495264,13.8001913 2.58899501,13.5841838 2.29733333,13.4241552 C2.1406218,13.3298769 1.99241364,13.2225825 1.85433333,13.1034483 L3.271,13.1034483 C4.61202877,15.5262043 7.19376906,17.0343508 10.0001667,17.0343508 C12.8065643,17.0343508 15.3883046,15.5262043 16.7293333,13.1034483 L18.145,13.1034483 C18.0063299,13.2233153 17.8574506,13.3312686 17.7,13.4261207 L17.7,13.4261207 Z M4.038,13.1034483 L15.962,13.1034483 C14.6880926,15.1383434 12.4310911,16.3779555 10,16.3779555 C7.56890891,16.3779555 5.31190745,15.1383434 4.038,13.1034483 L4.038,13.1034483 Z M19.3333333,12.1206897 C19.3333333,12.3016105 19.1840949,12.4482759 19,12.4482759 L1,12.4482759 C0.815905083,12.4482759 0.666666667,12.3016105 0.666666667,12.1206897 L0.666666667,6.87931034 C0.666666667,6.69838948 0.815905083,6.55172414 1,6.55172414 L19,6.55172414 C19.1840949,6.55172414 19.3333333,6.69838948 19.3333333,6.87931034 L19.3333333,12.1206897 Z" id="Shape" stroke="#FFFFFF" stroke-width="0.1"></path>
                <path d="M3.33333333,11.137931 L3,11.137931 L3,7.53448276 C2.99997122,7.40200824 2.9187575,7.28259057 2.79421819,7.23189859 C2.66967887,7.18120662 2.52633142,7.20921982 2.431,7.30287931 L1.76433333,7.95805172 C1.63800926,8.08658964 1.63981588,8.29090708 1.76839381,8.41726815 C1.89697174,8.54362923 2.1048737,8.54540469 2.23566667,8.42125862 L2.33333333,8.32527586 L2.33333333,11.137931 L2,11.137931 C1.81590508,11.137931 1.66666667,11.2845964 1.66666667,11.4655172 C1.66666667,11.6464381 1.81590508,11.7931034 2,11.7931034 L3.33333333,11.7931034 C3.51742825,11.7931034 3.66666667,11.6464381 3.66666667,11.4655172 C3.66666667,11.2845964 3.51742825,11.137931 3.33333333,11.137931 Z" id="Path"></path>
                <path d="M6.33333333,7.20689655 C5.23033333,7.20689655 4.33333333,8.23551724 4.33333333,9.5 C4.33333333,10.7644828 5.23033333,11.7931034 6.33333333,11.7931034 C7.43633333,11.7931034 8.33333333,10.7644828 8.33333333,9.5 C8.33333333,8.23551724 7.43633333,7.20689655 6.33333333,7.20689655 Z M6.33333333,11.137931 C5.598,11.137931 5,10.4031552 5,9.5 C5,8.59684483 5.598,7.86206897 6.33333333,7.86206897 C7.06866667,7.86206897 7.66666667,8.59684483 7.66666667,9.5 C7.66666667,10.4031552 7.06866667,11.137931 6.33333333,11.137931 Z" id="Shape"></path>
                <path d="M11,7.20689655 C9.897,7.20689655 9,8.23551724 9,9.5 C9,10.7644828 9.897,11.7931034 11,11.7931034 C12.103,11.7931034 13,10.7644828 13,9.5 C13,8.23551724 12.103,7.20689655 11,7.20689655 Z M11,11.137931 C10.2646667,11.137931 9.66666667,10.4031552 9.66666667,9.5 C9.66666667,8.59684483 10.2646667,7.86206897 11,7.86206897 C11.7353333,7.86206897 12.3333333,8.59684483 12.3333333,9.5 C12.3333333,10.4031552 11.7353333,11.137931 11,11.137931 Z" id="Shape"></path>
                <path d="M15.6666667,8.18965517 C15.6666667,7.64689257 15.2189514,7.20689655 14.6666667,7.20689655 C14.1143819,7.20689655 13.6666667,7.64689257 13.6666667,8.18965517 C13.6666667,8.73241777 14.1143819,9.17241379 14.6666667,9.17241379 C15.2189514,9.17241379 15.6666667,8.73241777 15.6666667,8.18965517 Z M14.3333333,8.18965517 C14.3333333,8.00873431 14.4825718,7.86206897 14.6666667,7.86206897 C14.8507616,7.86206897 15,8.00873431 15,8.18965517 C15,8.37057604 14.8507616,8.51724138 14.6666667,8.51724138 C14.4825718,8.51724138 14.3333333,8.37057604 14.3333333,8.18965517 Z" id="Shape"></path>
                <path d="M17.3333333,9.82758621 C16.7810486,9.82758621 16.3333333,10.2675822 16.3333333,10.8103448 C16.3333333,11.3531074 16.7810486,11.7931034 17.3333333,11.7931034 C17.8856181,11.7931034 18.3333333,11.3531074 18.3333333,10.8103448 C18.3333333,10.2675822 17.8856181,9.82758621 17.3333333,9.82758621 L17.3333333,9.82758621 Z M17.3333333,11.137931 C17.1492384,11.137931 17,10.9912657 17,10.8103448 C17,10.629424 17.1492384,10.4827586 17.3333333,10.4827586 C17.5174282,10.4827586 17.6666667,10.629424 17.6666667,10.8103448 C17.6666667,10.9912657 17.5174282,11.137931 17.3333333,11.137931 Z" id="Shape"></path>
                <path d="M17.9023333,7.63046552 C17.7721667,7.50258178 17.5611666,7.50258178 17.431,7.63046552 L14.0976667,10.9063276 C14.0110145,10.9885761 13.9762625,11.1103738 14.0067676,11.2249076 C14.0372728,11.3394414 14.1282877,11.4288871 14.2448309,11.4588663 C14.361374,11.4888455 14.4853085,11.4546927 14.569,11.3695345 L17.9023333,8.09367241 C18.0324606,7.96575005 18.0324606,7.75838788 17.9023333,7.63046552 Z" id="Path"></path>
            </g>
        </g>
    </g>
</svg>