<?xml version="1.0" encoding="UTF-8"?>
<svg width="20px" height="20px" viewBox="0 0 20 20" version="1.1" xmlns="http://www.w3.org/2000/svg" xmlns:xlink="http://www.w3.org/1999/xlink">
    <title>user@2x</title>
    <g id="Page-1" stroke="none" stroke-width="1" fill="none" fill-rule="evenodd">
        <g id="Artboard" transform="translate(-35.000000, -58.000000)" fill="#FFFFFF" fill-rule="nonzero">
            <g id="user" transform="translate(35.000000, 58.000000)">
                <path d="M11.5556336,16.5155029 C11.7086792,16.2512207 11.796875,15.9448242 11.796875,15.6179809 L11.796875,15.078125 C11.796875,14.0873718 10.9907532,13.28125 10,13.28125 C9.00924684,13.28125 8.203125,14.0873718 8.203125,15.078125 L8.203125,15.6179809 C8.203125,15.9448242 8.29132078,16.2512207 8.44436645,16.5155029 C7.2277832,16.8363953 6.328125,17.9457092 6.328125,19.2616272 L6.328125,19.609375 C6.328125,19.8251343 6.5029907,20 6.71875,20 L13.28125,20 C13.4970093,20 13.671875,19.8251343 13.671875,19.609375 L13.671875,19.2616272 C13.671875,17.9457092 12.7722168,16.8363953 11.5556336,16.5155029 L11.5556336,16.5155029 Z M8.984375,15.078125 C8.984375,14.5181274 9.44000242,14.0625 10,14.0625 C10.5599976,14.0625 11.015625,14.5181274 11.015625,15.078125 L11.015625,15.6179809 C11.015625,16.1779785 10.5599976,16.6336059 10,16.6336059 C9.44000242,16.6336059 8.984375,16.1779785 8.984375,15.6179809 L8.984375,15.078125 Z M7.10983277,19.21875 C7.13272094,18.107605 8.04031371,17.2102356 9.15512086,17.2033691 C9.29641723,17.2789002 9.44885254,17.3358154 9.609375,17.3716736 L9.609375,18.0273438 C9.609375,18.243103 9.7842407,18.4179688 10,18.4179688 C10.2157593,18.4179688 10.390625,18.243103 10.390625,18.0273438 L10.390625,17.3716736 C10.5509949,17.3358154 10.7035828,17.2789002 10.8447266,17.2033691 C11.9596863,17.2102356 12.8672791,18.107605 12.8901672,19.21875 L7.10983277,19.21875 Z" id="Shape"></path>
                <path d="M17.8837586,10.5848694 C18.0368042,10.3205871 18.125,10.0141907 18.125,9.68734742 L18.125,9.14749145 C18.125,8.15673828 17.3188782,7.35061645 16.328125,7.35061645 C15.4814148,7.35061645 14.77005,7.93945313 14.5809937,8.72909547 L12.5706482,6.71875 L13.28125,6.71875 C13.4970093,6.71875 13.671875,6.5438843 13.671875,6.328125 L13.671875,5.98037719 C13.671875,4.66445922 12.7722168,3.55514527 11.5556336,3.23425293 C11.7086792,2.9699707 11.796875,2.66357422 11.796875,2.33673094 L11.796875,1.796875 C11.796875,0.806121836 10.9907532,0 10,0 C9.00924684,0 8.203125,0.806121836 8.203125,1.796875 L8.203125,2.33673094 C8.203125,2.66357422 8.29132078,2.9699707 8.44436645,3.23425293 C7.2277832,3.55514527 6.328125,4.66445922 6.328125,5.98037719 L6.328125,6.328125 C6.328125,6.5438843 6.5029907,6.71875 6.71875,6.71875 L7.4293518,6.71875 L5.41900633,8.72909547 C5.22994996,7.9396057 4.5185852,7.35061645 3.671875,7.35061645 C2.68112184,7.35061645 1.875,8.15673828 1.875,9.14749145 L1.875,9.68734742 C1.875,10.0141907 1.96319578,10.3205871 2.11624145,10.5848694 C0.899658203,10.9057617 0,12.0150757 0,13.3309937 L0,13.6787414 C0,13.8945007 0.174865703,14.0693664 0.390625,14.0693664 L6.953125,14.0693664 C7.1688843,14.0693664 7.34375,13.8945007 7.34375,13.6787414 L7.34375,13.3309937 C7.34375,12.0150757 6.4440918,10.9057617 5.22750855,10.5848694 C5.36499023,10.3477478 5.44998168,10.0765991 5.46585082,9.78713988 L8.5342407,6.71875 L9.609375,6.71875 L9.609375,10.15625 C9.609375,10.3720093 9.7842407,10.546875 10,10.546875 C10.2157593,10.546875 10.390625,10.3720093 10.390625,10.15625 L10.390625,6.71875 L11.4657593,6.71875 L14.5341492,9.78713988 C14.5500183,10.0765991 14.6350098,10.3477478 14.7724914,10.5848694 C13.5560608,10.9057617 12.65625,12.0152283 12.65625,13.3309937 L12.65625,13.6787414 C12.65625,13.8945007 12.8311157,14.0693664 13.046875,14.0693664 L19.609375,14.0693664 C19.8251343,14.0693664 20,13.8945007 20,13.6787414 L20,13.3309937 C20,12.0150757 19.1003418,10.9057617 17.8837586,10.5848694 L17.8837586,10.5848694 Z M2.65625,9.14749145 C2.65625,8.58749391 3.11187742,8.13186645 3.671875,8.13186645 C4.23187258,8.13186645 4.6875,8.58749391 4.6875,9.14749145 L4.6875,9.68734742 C4.6875,10.2474976 4.23187258,10.7029724 3.671875,10.7029724 C3.11187742,10.7029724 2.65625,10.2474976 2.65625,9.68734742 L2.65625,9.14749145 Z M6.56204223,13.2881164 L0.781707773,13.2881164 C0.804595938,12.177124 1.71218871,11.279602 2.82699586,11.2727356 C2.96829223,11.3482666 3.12072754,11.4053345 3.28125,11.44104 L3.28125,12.0967102 C3.28125,12.3124695 3.4561157,12.4873352 3.671875,12.4873352 C3.8876343,12.4873352 4.0625,12.3124695 4.0625,12.0967102 L4.0625,11.44104 C4.22286988,11.4053345 4.37545777,11.3482666 4.51660156,11.2727356 C5.63156129,11.279602 6.53915406,12.177124 6.56204223,13.2881164 Z M8.984375,1.796875 C8.984375,1.23687742 9.44000242,0.78125 10,0.78125 C10.5599976,0.78125 11.015625,1.23687742 11.015625,1.796875 L11.015625,2.33673094 C11.015625,2.89672852 10.5599976,3.35235594 10,3.35235594 C9.44000242,3.35235594 8.984375,2.89672852 8.984375,2.33673094 L8.984375,1.796875 Z M9.15527344,3.92211914 C9.29641723,3.99765016 9.44900512,4.05456543 9.609375,4.09042359 L9.609375,4.74609375 C9.609375,4.96185305 9.7842407,5.13671875 10,5.13671875 C10.2157593,5.13671875 10.390625,4.96185305 10.390625,4.74609375 L10.390625,4.09042359 C10.5511475,4.05456543 10.7035828,3.99765016 10.8447266,3.92211914 C11.9596863,3.92898559 12.8672791,4.826355 12.8901672,5.9375 L7.10983277,5.9375 C7.13272094,4.826355 8.04031371,3.92898559 9.15527344,3.92211914 Z M15.3125,9.14749145 C15.3125,8.58749391 15.7681274,8.13186645 16.328125,8.13186645 C16.8881226,8.13186645 17.34375,8.58749391 17.34375,9.14749145 L17.34375,9.68734742 C17.34375,10.2474976 16.8881226,10.7029724 16.328125,10.7029724 C15.7681274,10.7029724 15.3125,10.2474976 15.3125,9.68734742 L15.3125,9.14749145 Z M13.4379578,13.2881164 C13.4608459,12.177124 14.3684387,11.279602 15.4832459,11.2727356 C15.6245422,11.3482666 15.7769775,11.4053345 15.9375,11.44104 L15.9375,12.0967102 C15.9375,12.3124695 16.1123657,12.4873352 16.328125,12.4873352 C16.5438843,12.4873352 16.71875,12.3124695 16.71875,12.0967102 L16.71875,11.44104 C16.8791199,11.4053345 17.0317078,11.3482666 17.1728516,11.2727356 C18.2878113,11.279602 19.1954041,12.177124 19.2182922,13.2881164 L13.4379578,13.2881164 Z" id="Shape"></path>
                <path d="M10.2761841,12.1902466 C10.3488159,12.1176148 10.390625,12.0167541 10.390625,11.9140625 C10.390625,11.8113709 10.3488159,11.7105102 10.2761841,11.6378784 C10.2035523,11.5652466 10.1026916,11.5234375 10,11.5234375 C9.89730836,11.5234375 9.79644773,11.5652466 9.72381594,11.6378784 C9.65118406,11.7105102 9.609375,11.8113709 9.609375,11.9140625 C9.609375,12.0167541 9.65118406,12.1176148 9.72381594,12.1902466 C9.79644773,12.2628784 9.89730836,12.3046875 10,12.3046875 C10.1026916,12.3046875 10.2035523,12.2628784 10.2761841,12.1902466 Z" id="Path"></path>
            </g>
        </g>
    </g>
</svg>