<?xml version="1.0" encoding="UTF-8"?>
<svg width="22px" height="17px" viewBox="0 0 22 17" version="1.1" xmlns="http://www.w3.org/2000/svg" xmlns:xlink="http://www.w3.org/1999/xlink">
    <title>Group@2x</title>
    <g id="Page-1" stroke="none" stroke-width="1" fill="none" fill-rule="evenodd">
        <g id="Artboard" transform="translate(-90.000000, -153.000000)" fill="#FFFFFF" fill-rule="nonzero">
            <g id="Group" transform="translate(91.000000, 154.000000)">
                <path d="M17.0833333,5.83333333 C18.691625,5.83333333 20,4.52491667 20,2.91666667 C20,1.30841667 18.691625,0 17.0833333,0 L2.91666667,0 C1.30841667,0 0,1.30841667 0,2.91666667 C0,4.52491667 1.30841667,5.83333333 2.91666667,5.83333333 L4.58333333,5.83333333 L4.58333333,14.2083333 C4.58333333,15.104375 5.31229167,15.8333333 6.20833333,15.8333333 L13.7916667,15.8333333 C14.6877083,15.8333333 15.4166667,15.104375 15.4166667,14.2083333 L15.4166667,5.83333333 L17.0833333,5.83333333 Z M2.91666667,5 C1.76791667,5 0.833333333,4.06541667 0.833333333,2.91666667 C0.833333333,1.76791667 1.76791667,0.833333333 2.91666667,0.833333333 L17.0833333,0.833333333 C18.2320833,0.833333333 19.1666667,1.76791667 19.1666667,2.91666667 C19.1666667,4.06541667 18.2320833,5 17.0833333,5 L15.4166667,5 L15.4166667,3.33333333 L16.25,3.33333333 C16.4800833,3.33333333 16.6666667,3.14679167 16.6666667,2.91666667 C16.6666667,2.68654167 16.4800833,2.5 16.25,2.5 C14.3590417,2.5 4.31154167,2.5 3.75,2.5 C3.519875,2.5 3.33333333,2.68654167 3.33333333,2.91666667 C3.33333333,3.14679167 3.519875,3.33333333 3.75,3.33333333 L4.58333333,3.33333333 L4.58333333,5 L2.91666667,5 Z M7.08333333,3.33333333 L12.9166667,3.33333333 L12.9166667,12.1360833 C12.3318333,12.287125 11.8704583,12.7485 11.7194167,13.3333333 L8.280625,13.3333333 C8.12958333,12.7485 7.66816667,12.287125 7.08333333,12.1360833 L7.08333333,3.33333333 L7.08333333,3.33333333 Z M14.5833333,14.2083333 C14.5833333,14.644875 14.2282083,15 13.7916667,15 L6.20833333,15 C5.77179167,15 5.41666667,14.644875 5.41666667,14.2083333 L5.41666667,3.33333333 L6.25,3.33333333 L6.25,12.5 C6.25,12.7300833 6.43654167,12.9166667 6.66666667,12.9166667 C7.12616667,12.9166667 7.5,13.2905 7.5,13.75 C7.5,13.9800833 7.68654167,14.1666667 7.91666667,14.1666667 L12.0833333,14.1666667 C12.3134167,14.1666667 12.5,13.9800833 12.5,13.75 C12.5,13.2905 12.8738333,12.9166667 13.3333333,12.9166667 C13.5634167,12.9166667 13.75,12.7300833 13.75,12.5 L13.75,3.33333333 L14.5833333,3.33333333 L14.5833333,14.2083333 Z" id="Shape" stroke="#FFFFFF" stroke-width="0.1"></path>
                <path d="M10,8.75 C11.14875,8.75 12.0833333,7.81541667 12.0833333,6.66666667 C12.0833333,5.51791667 11.14875,4.58333333 10,4.58333333 C8.85125,4.58333333 7.91666667,5.51791667 7.91666667,6.66666667 C7.91666667,7.81541667 8.85125,8.75 10,8.75 Z M10,5.41666667 C10.68925,5.41666667 11.25,5.97741667 11.25,6.66666667 C11.25,7.35591667 10.68925,7.91666667 10,7.91666667 C9.31075,7.91666667 8.75,7.35591667 8.75,6.66666667 C8.75,5.97741667 9.31075,5.41666667 10,5.41666667 Z" id="Shape"></path>
            </g>
        </g>
    </g>
</svg>