<?xml version="1.0" encoding="UTF-8"?>
<svg width="20px" height="19px" viewBox="0 0 20 19" version="1.1" xmlns="http://www.w3.org/2000/svg" xmlns:xlink="http://www.w3.org/1999/xlink">
    <title>no@2x</title>
    <g id="Page-1" stroke="none" stroke-width="1" fill="none" fill-rule="evenodd">
        <g id="Artboard" transform="translate(-61.000000, -155.000000)" fill="#FFFFFF" fill-rule="nonzero">
            <g id="no" transform="translate(61.000000, 155.000000)">
                <path d="M19.3105001,0.982758613 L15.1735007,0.982758613 C15.1735007,0.440034014 14.7104113,0 14.1392509,0 L11.3812513,0 C10.8100908,0 10.3470014,0.440034014 10.3470014,0.982758613 L6.21000204,0.982758613 C5.8292284,0.982758613 5.52050215,1.27611464 5.52050215,1.63793103 L5.52050215,6.30059605 C3.92637028,5.52241883 1.97637838,5.91190732 0.847019306,7.23424873 C-0.282339769,8.55659013 -0.282339769,10.4498081 0.847019306,11.7721494 C1.97637838,13.0944908 3.92637028,13.4839793 5.52050215,12.7058021 L5.52050215,18.3448276 C5.52050215,18.706804 5.8292284,19 6.21000204,19 L19.3105001,19 C19.6912737,19 20,18.706804 20,18.3448276 L20,1.63793103 C20,1.27611464 19.6912737,0.982758613 19.3105001,0.982758613 Z M17.9315003,14.7413793 L16.2284558,14.7413793 C15.8364037,14.7418592 15.5185873,15.0436928 15.5182507,15.4162261 L15.5182507,17.0344828 L7.58900184,17.0344828 L7.58900184,2.94827586 L10.3470014,2.94827586 C10.3470014,3.31025223 10.6557277,3.60344827 11.0365013,3.60344827 L14.4840008,3.60344827 C14.8647744,3.60344827 15.1735007,3.31025223 15.1735007,2.94827586 L17.9315003,2.94827586 L17.9315003,14.7413793 Z M17.4440023,15.3965517 L16.215999,16.5634176 L16.2284558,15.3965517 L17.4440023,15.3965517 Z M11.0365013,0.982758613 C11.0365013,0.801850399 11.1908645,0.655172406 11.3812513,0.655172406 L14.1392509,0.655172406 C14.3296377,0.655172406 14.4840008,0.801850399 14.4840008,0.982758613 L14.4840008,2.94827586 L11.0365013,2.94827586 L11.0365013,0.982758613 Z M6.21000204,6.72511449 L6.21000204,1.63793103 L10.3470014,1.63793103 L10.3470014,2.29310344 L7.58900184,2.29310344 C7.20822819,2.29310344 6.89950194,2.58645947 6.89950194,2.94827586 L6.89950194,7.42779329 C6.87677671,7.39692214 6.85051646,7.36845031 6.82678125,7.33837892 C6.80742272,7.31406588 6.78806419,7.2905526 6.76820069,7.26655945 C6.68150819,7.16194943 6.5885873,7.06197806 6.48994301,6.96712519 C6.4820313,6.95928744 6.47479289,6.95112981 6.46654449,6.94361195 C6.38439704,6.86699388 6.29888289,6.79357489 6.21000204,6.72511449 Z M0.693997523,9.5 C0.692656181,8.38447941 1.3548858,7.36397159 2.40479083,6.86443461 C3.45452744,6.36489762 4.71114777,6.4722269 5.65045672,7.14147529 C5.65432843,7.14435448 5.65735844,7.14835333 5.6615668,7.15123248 C5.70600722,7.18210363 5.74691262,7.21681373 5.78933303,7.24960433 C5.84219018,7.29183224 5.89555238,7.33342033 5.9452112,7.37868738 C5.97483815,7.40523976 6.00278173,7.4333917 6.031062,7.46090382 C6.09553429,7.52440567 6.15731318,7.59190632 6.21589378,7.66004683 C6.23474729,7.68228044 6.25444247,7.70419415 6.27245431,7.72546809 C6.34753167,7.81920123 6.41654902,7.91709321 6.47916957,8.01866414 L6.48337798,8.02458243 C6.7562489,8.47309401 6.89983859,8.98206831 6.89950253,9.5 C6.89899693,9.60780915 6.89243185,9.71545832 6.87980676,9.82246767 C6.87509334,9.86661503 6.86600328,9.90996263 6.85876486,9.95347017 C6.84950643,10.0128132 6.8395747,10.0719962 6.82644456,10.1303795 C6.81331445,10.1886029 6.79782764,10.240428 6.78166749,10.2941726 C6.76921068,10.3370404 6.75608058,10.3795882 6.74160375,10.421976 C6.72073022,10.4827586 6.69766834,10.5427415 6.67258645,10.6017645 C6.65878296,10.6345551 6.64396949,10.6673458 6.62881936,10.6999764 C6.59919241,10.7629984 6.56855544,10.8252206 6.53438343,10.8858432 C6.52024334,10.910956 6.50441984,10.935269 6.48960636,10.9597421 C6.45139432,11.0234038 6.41267731,11.0865857 6.36992021,11.1472084 C6.36402852,11.1550461 6.35712676,11.162564 6.35140339,11.1707216 C6.27716765,11.2710129 6.19670357,11.3669854 6.11001107,11.4576795 C6.06136228,11.5095047 6.01237681,11.5611699 5.95968798,11.6101158 C5.93628942,11.6317097 5.9110392,11.6517039 5.88696729,11.6726579 C5.82215835,11.728322 5.75566604,11.7827064 5.68530206,11.8340517 C4.74986479,12.521055 3.48449108,12.6421404 2.42364434,12.1461224 C1.36279755,11.6501044 0.691814517,10.6235183 0.693997523,9.5 Z M19.3105001,18.3448276 L6.21000204,18.3448276 L6.21000204,12.2776047 C6.30881466,12.1995471 6.40341887,12.1168508 6.49330975,12.0296757 C6.54397856,11.9815295 6.58993398,11.9314639 6.63673107,11.8796387 C6.67123977,11.8420495 6.70810509,11.80526 6.74025707,11.7659113 C6.79614427,11.70049 6.84748646,11.6349087 6.89781857,11.5658085 L6.89781857,17.0344828 C6.89781857,17.3964591 7.20654486,17.6896552 7.58731847,17.6896552 L15.8630006,17.6896552 C15.9544065,17.6894952 16.0419406,17.6551051 16.1067496,17.5936827 L18.5199992,15.3005792 C18.5487845,15.2727472 18.5721831,15.2402765 18.5888482,15.2046067 C18.5937299,15.1945296 18.5965916,15.1846124 18.600295,15.1742154 C18.6102268,15.1467033 18.6162868,15.1180715 18.6183068,15.0889598 C18.6183068,15.0820818 18.6223469,15.0758436 18.6223469,15.0689655 L18.6223469,2.94827586 C18.6223469,2.58645947 18.3136206,2.29310344 17.932847,2.29310344 L15.1735007,2.29310344 L15.1735007,1.63793103 L19.3105001,1.63793103 L19.3105001,18.3448276 Z" id="Shape"></path>
                <path d="M14.4840008,13.7586207 L11.0365013,13.7586207 C10.8461145,13.7586207 10.6917514,13.9052987 10.6917514,14.0862069 C10.6917514,14.2672751 10.8461145,14.4137931 11.0365013,14.4137931 L14.4840008,14.4137931 C14.6743876,14.4137931 14.8287508,14.2672751 14.8287508,14.0862069 C14.8287508,13.9052987 14.6743876,13.7586207 14.4840008,13.7586207 Z" id="Path"></path>
                <path d="M14.4840008,15.0689655 L11.0365013,15.0689655 C10.8461145,15.0689655 10.6917514,15.2156435 10.6917514,15.3965517 C10.6917514,15.5776199 10.8461145,15.7241379 11.0365013,15.7241379 L14.4840008,15.7241379 C14.6743876,15.7241379 14.8287508,15.5776199 14.8287508,15.3965517 C14.8287508,15.2156435 14.6743876,15.0689655 14.4840008,15.0689655 Z" id="Path"></path>
                <path d="M13.9244555,7.75170058 C14.4488188,7.2955112 14.6243921,6.58003606 14.3668397,5.95045632 C14.1092872,5.32071659 13.4712978,4.90595535 12.7602511,4.90595535 C12.0492043,4.90595535 11.4112149,5.32071659 11.1536624,5.95045632 C10.8959416,6.58003606 11.0716833,7.2955112 11.5960467,7.75170058 C10.4256139,8.20293138 9.65918486,9.28262227 9.65750153,10.4827586 C9.65766986,10.5536183 9.68191009,10.6225586 9.72651883,10.6793423 C10.4426157,11.5867625 11.566588,12.1206897 12.7602511,12.1206897 C13.9539141,12.1206897 15.0778865,11.5867625 15.7939833,10.6793423 C15.838592,10.6225586 15.8628322,10.5536183 15.8630006,10.4827586 C15.8613172,9.28262227 15.0948883,8.20293138 13.9244555,7.75170058 L13.9244555,7.75170058 Z M11.7260012,6.55172413 C11.7260012,6.00899953 12.1890906,5.56896551 12.7602511,5.56896551 C13.3314115,5.56896551 13.7945009,6.00899953 13.7945009,6.55172413 C13.7945009,7.09460872 13.3314115,7.53448275 12.7602511,7.53448275 C12.1890906,7.53448275 11.7260012,7.09460872 11.7260012,6.55172413 Z M12.7602511,11.4655172 C11.8236355,11.469836 10.9360054,11.0678711 10.3496948,10.3736699 C10.4113054,9.15129983 11.4723205,8.19029498 12.7602511,8.19029498 C14.0481817,8.19029498 15.1091967,9.15129983 15.1708074,10.3736699 C14.5844968,11.0678711 13.6968667,11.469996 12.7602511,11.4655172 Z" id="Shape"></path>
                <path d="M5.02610241,7.67348295 C5.00758558,7.56919285 4.93722156,7.47961849 4.83723063,7.4333917 C4.08982351,7.0939689 3.21162016,7.14259498 2.51067349,7.56199488 C1.80989514,7.98139482 1.38434442,8.71302532 1.38348633,9.5 C1.38215608,9.84262192 1.46363019,10.1809251 1.62169666,10.4886769 C1.67051381,10.5838497 1.76461305,10.6507106 1.87436743,10.6683055 C1.89338927,10.6713446 1.91241111,10.6729442 1.93160131,10.6727951 C2.02300715,10.6727951 2.11070968,10.6382341 2.1753503,10.5768117 L4.92998319,7.9594811 C5.00876394,7.88446255 5.04461927,7.77793307 5.02610241,7.67348295 L5.02610241,7.67348295 Z M2.08983615,9.73161368 C2.07872602,9.65499565 2.07300149,9.57757777 2.07300149,9.5 C2.07232932,8.94959759 2.36388543,8.43598464 2.84835335,8.13399111 C3.12879937,7.95532227 3.4590725,7.86062938 3.7967524,7.86205279 C3.87822651,7.86222895 3.95970062,7.86750742 4.04050139,7.87822432 L2.08983615,9.73161368 Z" id="Shape"></path>
                <path d="M6.21001844,9.5 C6.21134872,9.15753806 6.12970629,8.81923491 5.9718081,8.51148302 C5.92299094,8.4163103 5.82889175,8.34944943 5.71913737,8.33185448 C5.60921462,8.31489932 5.4972719,8.34880961 5.4181545,8.42334825 L2.66352161,11.0406789 C2.58474086,11.1155374 2.54888553,11.222067 2.56740235,11.326517 C2.58575085,11.4309671 2.65611487,11.5203815 2.75627417,11.5667683 C3.08031891,11.7169652 3.43634731,11.7943831 3.7967524,11.7931191 C5.12895506,11.7916639 6.208487,10.7658776 6.21001844,9.5 L6.21001844,9.5 Z M3.7967524,11.137931 C3.71527829,11.137931 3.63380418,11.1326526 3.55300341,11.1219356 L5.50366865,9.2685463 C5.51477874,9.34516433 5.52050215,9.42258216 5.52050215,9.5 C5.51932379,10.4042211 4.74834978,11.1369713 3.7967524,11.137931 Z" id="Shape"></path>
            </g>
        </g>
    </g>
</svg>