<?xml version="1.0" encoding="UTF-8"?>
<svg width="22px" height="21px" viewBox="0 0 22 21" version="1.1" xmlns="http://www.w3.org/2000/svg" xmlns:xlink="http://www.w3.org/1999/xlink">
    <title>Group 13@2x</title>
    <g id="Page-1" stroke="none" stroke-width="1" fill="none" fill-rule="evenodd">
        <g id="Artboard" transform="translate(-186.000000, -110.000000)">
            <g id="Group-13" transform="translate(187.000000, 111.000000)">
                <path d="M4.5002649,0 C6.7642649,0 8.6002649,1.836 8.6002649,4.1 C8.6002649,6.364 6.7642649,8.2 4.5002649,8.2 C2.2362649,8.2 0.400264899,6.364 0.400264899,4.1 C0.400264899,1.836 2.2362649,0 4.5002649,0 Z" id="Stroke-1" stroke="#FFFFFF" stroke-width="0.8"></path>
                <path d="M5.7382649,3.044 L5.3552649,3.044 C5.3242649,2.942 5.2852649,2.843 5.2372649,2.748 L5.7382649,2.748 C5.9562649,2.744 6.1332649,2.554 6.1332649,2.322 C6.1332649,2.09 5.9562649,1.9 5.7382649,1.9 L3.1952649,1.9 C2.9782649,1.9 2.8002649,2.09 2.8002649,2.322 C2.8002649,2.554 2.9782649,2.744 3.1952649,2.744 L3.9222649,2.744 C4.1482649,2.747 4.3602649,2.856 4.4942649,3.039 L3.1942649,3.039 C2.9782649,3.039 2.8002649,3.229 2.8002649,3.461 C2.8002649,3.694 2.9782649,3.883 3.1952649,3.883 L4.4982649,3.883 C4.3762649,4.086 4.1582649,4.214 3.9212649,4.221 L3.1952649,4.221 C2.9782649,4.221 2.8002649,4.411 2.8002649,4.643 C2.8002649,4.761 2.8432649,4.871 2.9222649,4.951 L4.7432649,6.787 C4.9012649,6.947 5.1532649,6.934 5.3002649,6.766 C5.4462649,6.594 5.4392649,6.339 5.2842649,6.175 L4.1672649,5.048 C4.4772649,4.992 4.7592649,4.837 4.9722649,4.605 C4.9722649,4.605 4.9722649,4.597 4.9762649,4.597 C5.1662649,4.402 5.2962649,4.157 5.3562649,3.887 L5.7382649,3.887 C5.9562649,3.887 6.1332649,3.697 6.1332649,3.466 C6.1332649,3.234 5.9562649,3.044 5.7382649,3.044" id="Fill-3" fill="#FFFFFF"></path>
                <path d="M1.3392649,11.266 C10.1962649,11.266 16.7332649,3.705 17.9952649,2.136 L17.9952649,3.934 C18.0052649,4.368 18.6522649,4.368 18.6612649,3.934 L18.6612649,1.267 C18.6602649,1.083 18.5112649,0.934 18.3272649,0.934994996 L15.6462649,0.934994996 C15.2212649,0.985 15.2502649,1.587 15.6622649,1.599 L17.5672649,1.599 C16.7632649,2.617 10.1882649,10.599 1.3392649,10.599 C0.885264899,10.589 0.885264899,11.276 1.3392649,11.266" id="Fill-5" fill="#FFFFFF"></path>
                <path d="M1.3392649,11.266 C10.1962649,11.266 16.7332649,3.705 17.9952649,2.136 L17.9952649,3.934 C18.0052649,4.368 18.6522649,4.368 18.6612649,3.934 L18.6612649,1.267 C18.6602649,1.083 18.5112649,0.934 18.3272649,0.934994996 L15.6462649,0.934994996 C15.2212649,0.985 15.2502649,1.587 15.6622649,1.599 L17.5672649,1.599 C16.7632649,2.617 10.1882649,10.599 1.3392649,10.599 C0.885264899,10.589 0.885264899,11.276 1.3392649,11.266 Z" id="Stroke-7" stroke="#FFFFFF" stroke-width="0.2"></path>
                <path d="M17.9952649,18.933 L15.9962649,18.933 L15.9962649,8.267 L17.9962649,8.267 L17.9962649,10.598 C17.9962649,10.599 17.9952649,10.599 17.9952649,10.6 L17.9952649,18.933 Z M13.3312649,18.934 L11.3312649,18.934 L11.3322649,10.934 L13.3312649,10.934 L13.3312649,18.934 Z M8.6692649,18.933 L6.6692649,18.933 L6.6702649,13.599 L8.6692649,13.599 L8.6692649,18.933 Z M2.0052649,18.933 L4.0052649,18.933 L4.0052649,16.266 L2.0052649,16.266 L2.0052649,18.933 Z M19.6602649,18.933 L18.6612649,18.933 L18.6612649,12.266 L18.6612649,10.599995 L18.6612649,7.932 C18.6602649,7.748 18.5112649,7.599 18.3272649,7.599995 L15.6622649,7.599995 C15.4792649,7.601 15.3302649,7.749 15.3292649,7.932 L15.3292649,18.933 L13.9972649,18.933 L13.9972649,10.599995 C13.9962649,10.417 13.8482649,10.269 13.6652649,10.268 L10.9832649,10.268 C10.8062649,10.277 10.6662649,10.423 10.6652649,10.599995 L10.6652649,18.933 L9.3322649,18.933 L9.3322649,13.267 C9.3332649,13.083 9.1852649,12.933 9.0012649,12.932 L9.0012649,12.932 L6.3352649,12.932 C6.1512649,12.933 6.0022649,13.082 6.0032649,13.266 L6.0032649,13.267 L6.0032649,18.933 L4.6702649,18.933 L4.6702649,15.934 C4.6712649,15.75 4.5232649,15.599995 4.3392649,15.599 L4.3362649,15.599 L1.6732649,15.599 C1.4892649,15.598 1.3402649,15.747 1.3392649,15.931 L1.3392649,15.934 L1.3392649,18.934 L0.323264899,18.934 C-0.126735101,18.966 -0.0937351013,19.611 0.340264899,19.599995 L19.6602649,19.599995 C20.1142649,19.61 20.1142649,18.923 19.6602649,18.933 L19.6602649,18.933 Z" id="Fill-9" fill="#FFFFFF"></path>
                <path d="M17.9952649,18.933 L15.9962649,18.933 L15.9962649,8.267 L17.9962649,8.267 L17.9962649,10.598 C17.9962649,10.599 17.9952649,10.599 17.9952649,10.6 L17.9952649,18.933 Z M13.3312649,18.934 L11.3312649,18.934 L11.3322649,10.934 L13.3312649,10.934 L13.3312649,18.934 Z M8.6692649,18.933 L6.6692649,18.933 L6.6702649,13.599 L8.6692649,13.599 L8.6692649,18.933 Z M2.0052649,18.933 L4.0052649,18.933 L4.0052649,16.266 L2.0052649,16.266 L2.0052649,18.933 Z M19.6602649,18.933 L18.6612649,18.933 L18.6612649,12.266 L18.6612649,10.599995 L18.6612649,7.932 C18.6602649,7.748 18.5112649,7.599 18.3272649,7.599995 L15.6622649,7.599995 C15.4792649,7.601 15.3302649,7.749 15.3292649,7.932 L15.3292649,18.933 L13.9972649,18.933 L13.9972649,10.599995 C13.9962649,10.417 13.8482649,10.269 13.6652649,10.268 L10.9832649,10.268 C10.8062649,10.277 10.6662649,10.423 10.6652649,10.599995 L10.6652649,18.933 L9.3322649,18.933 L9.3322649,13.267 C9.3332649,13.083 9.1852649,12.933 9.0012649,12.932 L9.0012649,12.932 L6.3352649,12.932 C6.1512649,12.933 6.0022649,13.082 6.0032649,13.266 L6.0032649,13.267 L6.0032649,18.933 L4.6702649,18.933 L4.6702649,15.934 C4.6712649,15.75 4.5232649,15.599995 4.3392649,15.599 L4.3362649,15.599 L1.6732649,15.599 C1.4892649,15.598 1.3402649,15.747 1.3392649,15.931 L1.3392649,15.934 L1.3392649,18.934 L0.323264899,18.934 C-0.126735101,18.966 -0.0937351013,19.611 0.340264899,19.599995 L19.6602649,19.599995 C20.1142649,19.61 20.1142649,18.923 19.6602649,18.933 Z" id="Stroke-11" stroke="#FFFFFF" stroke-width="0.2"></path>
            </g>
        </g>
    </g>
</svg>