<?xml version="1.0" encoding="UTF-8"?>
<svg width="21px" height="22px" viewBox="0 0 21 22" version="1.1" xmlns="http://www.w3.org/2000/svg" xmlns:xlink="http://www.w3.org/1999/xlink">
    <title>rating@2x</title>
    <g id="Page-1" stroke="none" stroke-width="1" fill="none" fill-rule="evenodd">
        <g id="Artboard" transform="translate(-122.000000, -98.000000)" fill="#FFFFFF" fill-rule="nonzero" stroke="#FFFFFF">
            <g id="rating" transform="translate(122.614123, 99.000000)">
                <path d="M18.7914905,19.4140625 L18.464668,19.4140625 L18.464668,7.18185426 C18.464668,7.02011109 18.3359742,6.88888551 18.1773515,6.88888551 L15.1063573,6.88888551 C14.9477346,6.88888551 14.8190408,7.02011109 14.8190408,7.18185426 L14.8190408,17.808075 C14.8190408,17.9698181 14.9477346,18.1010437 15.1063573,18.1010437 C15.2651296,18.1010437 15.3936737,17.9698181 15.3936737,17.808075 L15.3936737,7.47482301 L17.890035,7.47482301 L17.890035,19.4140625 L15.3936737,19.4140625 L15.3936737,9.06066895 C15.3936737,8.89892578 15.2651296,8.7677002 15.1063573,8.7677002 C14.9477346,8.7677002 14.8190408,8.89892578 14.8190408,9.06066895 L14.8190408,19.4140625 L13.8583263,19.4140625 L13.8583263,10.3131104 C13.8583263,10.1513672 13.7296324,10.0201416 13.5710098,10.0201416 L10.5000155,10.0201416 C10.3413929,10.0201416 10.212699,10.1513672 10.212699,10.3131104 L10.212699,19.4140625 L9.25198452,19.4140625 L9.25198452,13.4443664 C9.25198452,13.2826233 9.12329067,13.1513977 8.96466803,13.1513977 L5.89367378,13.1513977 C5.7350511,13.1513977 5.60635729,13.2826233 5.60635729,13.4443664 L5.60635729,19.4140625 L4.64564274,19.4140625 L4.64564274,18.4544373 C4.64564274,18.2926941 4.51694894,18.1614685 4.35832625,18.1614685 C4.19955397,18.1614685 4.07100976,18.2926941 4.07100976,18.4544373 L4.07100976,19.4140625 L1.5746485,19.4140625 L1.5746485,16.8687439 L4.07086013,16.8687439 L4.07086013,19.2018433 C4.07086013,19.363739 4.19955397,19.494812 4.35817662,19.494812 C4.51694894,19.494812 4.64549311,19.363739 4.64549311,19.2018433 L4.64549311,16.5757752 C4.64549311,16.4138794 4.51694894,16.2828064 4.35817662,16.2828064 L1.28733201,16.2828064 C1.12870936,16.2828064 1.00001552,16.4138794 1.00001552,16.5757752 L1.00001552,19.4140625 L0.673193011,19.4140625 C0.514570366,19.4140625 0.385876522,19.5452881 0.385876522,19.7070312 C0.385876522,19.8687744 0.514570366,20 0.673193011,20 L18.7914905,20 C18.9501132,20 19.078807,19.8687744 19.078807,19.7070312 C19.078807,19.5452881 18.9501132,19.4140625 18.7914905,19.4140625 Z M10.787332,10.6060791 L13.2835436,10.6060791 L13.2835436,19.4140625 L10.787332,19.4140625 L10.787332,10.6060791 Z M6.18099027,13.7373352 L8.67735154,13.7373352 L8.67735154,19.4140625 L6.18099027,19.4140625 L6.18099027,13.7373352 Z" id="Shape" stroke-width="0.2"></path>
                <path d="M19.09856,0.626220703 L18.1574489,0.626220703 L18.1574489,0.29296875 C18.1574489,0.131225586 18.0289047,0 17.8701324,0 L15.4134268,0 C15.2548041,0 15.1261103,0.131225586 15.1261103,0.29296875 L15.1261103,0.626220703 L14.1851488,0.626220703 C14.0263765,0.626220703 13.8978323,0.757446289 13.8978323,0.919189453 L13.8978323,1.2322998 C13.8978323,1.99264527 14.4390947,2.625885 15.1493051,2.75375367 C15.2571984,3.38333129 15.7403989,3.88275148 16.3545379,4.00253297 L16.3545379,5.63629148 L15.7206459,5.63629148 C15.5618736,5.63629148 15.4333294,5.76751711 15.4333294,5.92926023 C15.4333294,6.09115602 15.5618736,6.22222898 15.7206459,6.22222898 L17.5632125,6.22222898 C17.7218352,6.22222898 17.850529,6.09115602 17.850529,5.92926023 C17.850529,5.76751711 17.7218352,5.63629148 17.5632125,5.63629148 L16.9291709,5.63629148 L16.9291709,4.00253297 C17.5433099,3.88275148 18.0265104,3.38333129 18.1345534,2.75375367 C18.8446142,2.625885 19.3858765,1.99264527 19.3858765,1.2322998 L19.3858765,0.919189453 C19.3858765,0.757446289 19.2571827,0.626220703 19.09856,0.626220703 L19.09856,0.626220703 Z M14.4724653,1.2322998 L14.4724653,1.2121582 L15.1261103,1.2121582 L15.1261103,2.14599609 C14.7473613,2.02194215 14.4724653,1.6592407 14.4724653,1.2322998 Z M17.5828159,2.4873352 C17.5828159,3.01513672 17.1617177,3.44436645 16.6442487,3.44436645 L16.6393105,3.44436645 C16.1218415,3.44436645 15.7007433,3.01513672 15.7007433,2.4873352 L15.7007433,0.5859375 L17.5828159,0.5859375 L17.5828159,2.4873352 Z M18.8112435,1.2322998 C18.8112435,1.6592407 18.5361978,2.02178953 18.1574489,2.14599609 L18.1574489,1.2121582 L18.8112435,1.2121582 L18.8112435,1.2322998 Z" id="Shape" stroke-width="0.1"></path>
                <path d="M0.287631275,13.502655 C0.342401,13.502655 0.397769263,13.4866333 0.446702862,13.4533691 L12.5205797,5.2458191 L11.8709751,6.53854371 C11.7986971,6.68258668 11.8545143,6.85913086 11.9956286,6.93283082 C12.0376785,6.95480348 12.0824221,6.96517945 12.1264175,6.96517945 C12.230869,6.96517945 12.3315794,6.90689086 12.3824583,6.80572508 L13.5113727,4.5588684 C13.5583609,4.46533203 13.5526745,4.35317992 13.4962587,4.26513672 C13.4399925,4.17709352 13.3416764,4.12658691 13.2387213,4.13284301 L10.7672009,4.28176879 C10.6088776,4.29122926 10.4879653,4.42993164 10.4973928,4.59152223 C10.5066707,4.7529602 10.6423979,4.87579344 10.8011701,4.8666382 L12.1630802,4.7845459 L0.127961151,12.9658508 C-0.00402488042,13.0555725 -0.0397897688,13.2374573 0.0483505404,13.3720398 C0.103718803,13.4567261 0.194702358,13.502655 0.287631275,13.502655 Z" id="Path" stroke-width="0.2"></path>
            </g>
        </g>
    </g>
</svg>