<?xml version="1.0" encoding="UTF-8"?><svg xmlns="http://www.w3.org/2000/svg" xmlns:xlink="http://www.w3.org/1999/xlink" viewBox="0 0 199.88 230.41"><defs><style>.d,.e,.f{fill:none;}.g{fill:#eff4ef;}.h{fill:#32bc41;}.e{stroke:#eff4ef;stroke-width:2px;}.e,.f{stroke-miterlimit:10;}.f{stroke:#70ed7d;}.i{clip-path:url(#c);}</style><clipPath id="c"><rect class="d" width="199.88" height="230.41"/></clipPath></defs><g id="a"/><g id="b"><g class="i"><g><circle class="e" cx="226.42" cy="112.1" r="112.1"/><circle class="f" cx="152.47" cy="188.97" r="26.05" transform="translate(-58.64 308.92) rotate(-80.71)"/><circle class="h" cx="132.47" cy="168.97" r="26.05" transform="translate(-62.17 259.58) rotate(-76.87)"/><g><rect class="g" x="1.03" y="203.31" width="2.07" height="2.07"/><rect class="g" x="1.03" y="215.82" width="2.07" height="2.07"/><rect class="g" x="1.03" y="228.34" width="2.07" height="2.07"/><rect class="g" x="12.36" y="203.31" width="2.07" height="2.07"/><rect class="g" x="12.36" y="215.82" width="2.07" height="2.07"/><rect class="g" x="12.36" y="228.34" width="2.07" height="2.07"/><rect class="g" x="23.69" y="203.31" width="2.07" height="2.07"/><rect class="g" x="23.69" y="215.82" width="2.07" height="2.07"/><rect class="g" x="23.69" y="228.34" width="2.07" height="2.07"/><rect class="g" x="35.02" y="203.31" width="2.07" height="2.07"/><rect class="g" x="35.02" y="215.82" width="2.07" height="2.07"/><rect class="g" x="35.02" y="228.34" width="2.07" height="2.07"/><rect class="g" x="46.35" y="203.31" width="2.07" height="2.07"/><rect class="g" x="46.35" y="215.82" width="2.07" height="2.07"/><rect class="g" x="46.35" y="228.34" width="2.07" height="2.07"/><rect class="g" x="57.68" y="203.31" width="2.07" height="2.07"/><rect class="g" x="57.68" y="215.82" width="2.07" height="2.07"/><rect class="g" x="57.68" y="228.34" width="2.07" height="2.07"/><rect class="g" x="69.01" y="203.31" width="2.07" height="2.07"/><rect class="g" x="69.01" y="215.82" width="2.07" height="2.07"/><rect class="g" x="69.01" y="228.34" width="2.07" height="2.07"/><rect class="g" x="80.34" y="203.31" width="2.07" height="2.07"/><rect class="g" x="80.34" y="215.82" width="2.07" height="2.07"/><rect class="g" x="80.34" y="228.34" width="2.07" height="2.07"/><rect class="g" x="91.67" y="203.31" width="2.07" height="2.07"/><rect class="g" x="91.67" y="215.82" width="2.07" height="2.07"/><rect class="g" x="91.67" y="228.34" width="2.07" height="2.07"/><rect class="g" x="103" y="203.31" width="2.07" height="2.07"/><rect class="g" x="103" y="215.82" width="2.07" height="2.07"/><rect class="g" x="103" y="228.34" width="2.07" height="2.07"/><rect class="g" x="114.33" y="203.31" width="2.07" height="2.07"/><rect class="g" x="114.33" y="215.82" width="2.07" height="2.07"/><rect class="g" x="114.33" y="228.34" width="2.07" height="2.07"/></g></g></g></g></svg>