<svg xmlns="http://www.w3.org/2000/svg" width="209.43" height="62.054" viewBox="0 0 209.43 62.054">
  <g id="Download_on_the_App_Store_Badge_US-UK_RGB_blk_092917" transform="translate(0 0)">
    <g id="Group_1491" data-name="Group 1491" transform="translate(0 0)">
      <g id="Group_1489" data-name="Group 1489">
        <path id="Path_14983" data-name="Path 14983" d="M192.752,0H16.687c-.642,0-1.276,0-1.916,0-.536,0-1.067.012-1.608.02A26.019,26.019,0,0,0,9.656.3a12.734,12.734,0,0,0-3.327.973A11.315,11.315,0,0,0,3.5,3.1,9.854,9.854,0,0,0,1.434,5.613,9.452,9.452,0,0,0,.34,8.566a17.932,17.932,0,0,0-.314,3.106C.01,12.147.009,12.624,0,13.1V48.958c.009.482.01.948.027,1.43A17.932,17.932,0,0,0,.34,53.494a9.432,9.432,0,0,0,1.094,2.954,9.781,9.781,0,0,0,2.062,2.5,11.028,11.028,0,0,0,2.833,1.829,12.8,12.8,0,0,0,3.327.979,26.492,26.492,0,0,0,3.507.274c.541.011,1.072.017,1.608.017.64,0,1.274,0,1.916,0H192.752c.629,0,1.268,0,1.9,0,.533,0,1.08-.006,1.613-.017a26.145,26.145,0,0,0,3.5-.274,13,13,0,0,0,3.34-.979,11.033,11.033,0,0,0,2.83-1.829,10.081,10.081,0,0,0,2.068-2.5,9.45,9.45,0,0,0,1.084-2.954,18.644,18.644,0,0,0,.325-3.106c.007-.482.007-.948.007-1.43.014-.564.014-1.124.014-1.7V14.794c0-.568,0-1.132-.014-1.694,0-.476,0-.953-.007-1.429a18.644,18.644,0,0,0-.325-3.106A9.47,9.47,0,0,0,208,5.613a10.763,10.763,0,0,0-4.9-4.343A12.933,12.933,0,0,0,199.763.3a25.682,25.682,0,0,0-3.5-.274c-.533-.008-1.08-.017-1.613-.02-.629,0-1.268,0-1.9,0Z" transform="translate(0 0)" fill="#a6a6a6"/>
        <path id="Path_14984" data-name="Path 14984" d="M14.147,60.214c-.534,0-1.055-.006-1.585-.017a25.065,25.065,0,0,1-3.277-.253,11.273,11.273,0,0,1-2.9-.85,9.52,9.52,0,0,1-2.449-1.577,8.389,8.389,0,0,1-1.789-2.166,8.183,8.183,0,0,1-.952-2.571A17.1,17.1,0,0,1,.9,49.871c-.011-.327-.026-1.417-.026-1.417V12.618S.889,11.545.9,11.23a17.043,17.043,0,0,1,.29-2.9,8.23,8.23,0,0,1,.953-2.578,8.463,8.463,0,0,1,1.78-2.169A9.8,9.8,0,0,1,6.38,1.992a11.16,11.16,0,0,1,2.9-.844A24.865,24.865,0,0,1,12.566.894L14.148.875H194.311l1.6.02a24.468,24.468,0,0,1,3.258.252A11.383,11.383,0,0,1,202.1,2a9.319,9.319,0,0,1,4.234,3.754,8.236,8.236,0,0,1,.938,2.558,17.911,17.911,0,0,1,.3,2.928c.005.439.005.911.005,1.381.014.582.014,1.135.014,1.694V46.779c0,.564,0,1.114-.014,1.668,0,.5,0,.967-.007,1.442a17.543,17.543,0,0,1-.3,2.875,8.2,8.2,0,0,1-.947,2.591,8.644,8.644,0,0,1-1.78,2.15,9.527,9.527,0,0,1-2.453,1.586,11.233,11.233,0,0,1-2.924.853,24.779,24.779,0,0,1-3.277.253c-.513.011-1.051.017-1.573.017l-1.9,0Z" transform="translate(0.481 0.483)"/>
      </g>
      <g id="_Group_" data-name="&lt;Group&gt;" transform="translate(15.469 13.528)">
        <g id="_Group_2" data-name="&lt;Group&gt;">
          <g id="_Group_3" data-name="&lt;Group&gt;">
            <path id="_Path_" data-name="&lt;Path&gt;" d="M32.927,23.789a7.677,7.677,0,0,1,3.656-6.441A7.859,7.859,0,0,0,30.391,14c-2.605-.273-5.131,1.559-6.458,1.559-1.353,0-3.4-1.532-5.6-1.486A8.246,8.246,0,0,0,11.4,18.305c-3,5.195-.762,12.829,2.112,17.028,1.438,2.056,3.118,4.353,5.317,4.271,2.152-.089,2.955-1.372,5.553-1.372,2.573,0,3.327,1.372,5.571,1.32,2.309-.037,3.764-2.065,5.151-4.141a17.006,17.006,0,0,0,2.356-4.8A7.419,7.419,0,0,1,32.927,23.789Z" transform="translate(-9.972 -5.824)" fill="#fff"/>
            <path id="_Path_2" data-name="&lt;Path&gt;" d="M23.827,14.135A7.559,7.559,0,0,0,25.556,8.72a7.691,7.691,0,0,0-4.976,2.575,7.193,7.193,0,0,0-1.774,5.215A6.359,6.359,0,0,0,23.827,14.135Z" transform="translate(-5.109 -8.72)" fill="#fff"/>
          </g>
        </g>
        <g id="Group_1490" data-name="Group 1490" transform="translate(47.939 14.196)">
          <path id="Path_14985" data-name="Path 14985" d="M46.644,32.136H39.3l-1.763,5.207h-3.11l6.955-19.265h3.231l6.955,19.265H48.406Zm-6.583-2.4h5.821l-2.869-8.451h-.08Z" transform="translate(-34.427 -17.757)" fill="#fff"/>
          <path id="Path_14986" data-name="Path 14986" d="M59.862,28.519c0,4.365-2.336,7.169-5.861,7.169a4.762,4.762,0,0,1-4.419-2.457h-.067v6.957H46.631V21.5h2.791v2.336h.053a4.982,4.982,0,0,1,4.472-2.483C57.512,21.349,59.862,24.166,59.862,28.519Zm-2.963,0c0-2.844-1.47-4.713-3.712-4.713-2.2,0-3.684,1.909-3.684,4.713,0,2.83,1.482,4.725,3.684,4.725C55.429,33.244,56.9,31.388,56.9,28.519Z" transform="translate(-27.699 -15.955)" fill="#fff"/>
          <path id="Path_14987" data-name="Path 14987" d="M69.827,28.519c0,4.365-2.336,7.169-5.861,7.169a4.762,4.762,0,0,1-4.419-2.457h-.067v6.957H56.6V21.5h2.791v2.336h.053a4.982,4.982,0,0,1,4.472-2.483C67.477,21.349,69.827,24.166,69.827,28.519Zm-2.963,0c0-2.844-1.47-4.713-3.712-4.713-2.2,0-3.684,1.909-3.684,4.713,0,2.83,1.482,4.725,3.684,4.725,2.242,0,3.712-1.856,3.712-4.725Z" transform="translate(-22.205 -15.955)" fill="#fff"/>
          <path id="Path_14988" data-name="Path 14988" d="M72.759,32.089c.214,1.91,2.069,3.165,4.606,3.165,2.43,0,4.178-1.254,4.178-2.977,0-1.5-1.054-2.391-3.551-3l-2.5-.6c-3.537-.854-5.18-2.509-5.18-5.193,0-3.324,2.9-5.607,7.01-5.607,4.071,0,6.861,2.283,6.955,5.607H81.37C81.2,21.555,79.607,20.4,77.285,20.4s-3.912,1.174-3.912,2.883c0,1.362,1.015,2.163,3.5,2.777l2.122.521c3.953.935,5.595,2.522,5.595,5.34,0,3.6-2.871,5.861-7.437,5.861-4.272,0-7.157-2.2-7.343-5.689Z" transform="translate(-14.92 -17.871)" fill="#fff"/>
          <path id="Path_14989" data-name="Path 14989" d="M85.1,19.3v3.324h2.671v2.283H85.1V32.65c0,1.2.535,1.763,1.709,1.763a9.008,9.008,0,0,0,.948-.067v2.269a7.918,7.918,0,0,1-1.6.133c-2.844,0-3.953-1.068-3.953-3.792V24.907H80.163V22.624H82.2V19.3Z" transform="translate(-9.212 -17.083)" fill="#fff"/>
          <path id="Path_14990" data-name="Path 14990" d="M86.065,28.527c0-4.419,2.6-7.2,6.661-7.2s6.663,2.777,6.663,7.2-2.577,7.2-6.663,7.2S86.065,32.959,86.065,28.527Zm10.387,0c0-3.031-1.389-4.821-3.725-4.821S89,25.509,89,28.527c0,3.044,1.388,4.819,3.724,4.819s3.725-1.776,3.725-4.819Z" transform="translate(-5.957 -15.963)" fill="#fff"/>
          <path id="Path_14991" data-name="Path 14991" d="M96.186,21.5h2.75v2.391H99a3.35,3.35,0,0,1,3.378-2.538,4.446,4.446,0,0,1,.988.108v2.7a4.03,4.03,0,0,0-1.3-.174,2.905,2.905,0,0,0-3,3.231v8.331H96.186Z" transform="translate(-0.377 -15.955)" fill="#fff"/>
          <path id="Path_14992" data-name="Path 14992" d="M113.887,31.424c-.388,2.55-2.871,4.3-6.048,4.3-4.086,0-6.622-2.738-6.622-7.129s2.55-7.263,6.5-7.263c3.886,0,6.33,2.669,6.33,6.928v.988h-9.92v.174a3.658,3.658,0,0,0,3.778,3.978,3.178,3.178,0,0,0,3.244-1.976Zm-9.746-4.192h7.022a3.378,3.378,0,0,0-3.445-3.565,3.556,3.556,0,0,0-3.577,3.565Z" transform="translate(2.397 -15.963)" fill="#fff"/>
        </g>
      </g>
    </g>
    <g id="_Group_4" data-name="&lt;Group&gt;" transform="translate(65.338 13.089)">
      <g id="Group_1492" data-name="Group 1492">
        <path id="Path_14993" data-name="Path 14993" d="M39.014,8.735a4.095,4.095,0,0,1,4.356,4.6c0,2.957-1.6,4.657-4.356,4.657H35.671V8.735Zm-1.906,7.948h1.745a2.91,2.91,0,0,0,3.053-3.329,2.918,2.918,0,0,0-3.053-3.31H37.109Z" transform="translate(-35.671 -8.279)" fill="#fff"/>
        <path id="Path_14994" data-name="Path 14994" d="M41.686,13.732a3.309,3.309,0,1,1,6.589,0,3.31,3.31,0,1,1-6.589,0Zm5.171,0c0-1.514-.68-2.4-1.874-2.4s-1.872.886-1.872,2.4.674,2.405,1.872,2.405,1.874-.885,1.874-2.405Z" transform="translate(-32.363 -7.516)" fill="#fff"/>
        <path id="Path_14995" data-name="Path 14995" d="M54.332,17.18H52.9l-1.444-5.145h-.109L49.911,17.18H48.495l-1.926-6.986h1.4l1.251,5.33h.1l1.436-5.33h1.323l1.436,5.33h.109l1.245-5.33H56.25Z" transform="translate(-29.662 -7.468)" fill="#fff"/>
        <path id="Path_14996" data-name="Path 14996" d="M53.854,10.245h1.327v1.11h.1a2.091,2.091,0,0,1,2.085-1.245,2.272,2.272,0,0,1,2.418,2.6v4.522H58.408V13.055c0-1.123-.488-1.681-1.507-1.681a1.6,1.6,0,0,0-1.668,1.77v4.087H53.854Z" transform="translate(-25.646 -7.518)" fill="#fff"/>
        <path id="Path_14997" data-name="Path 14997" d="M59.094,8.437h1.379V18.15H59.094Z" transform="translate(-22.757 -8.437)" fill="#fff"/>
        <path id="Path_14998" data-name="Path 14998" d="M61.223,13.733a3.31,3.31,0,1,1,6.589,0,3.31,3.31,0,1,1-6.589,0Zm5.171,0c0-1.514-.68-2.4-1.874-2.4s-1.872.886-1.872,2.4.674,2.405,1.872,2.405,1.874-.885,1.874-2.405Z" transform="translate(-21.592 -7.516)" fill="#fff"/>
        <path id="Path_14999" data-name="Path 14999" d="M66.4,15.253c0-1.257.936-1.982,2.6-2.085l1.892-.109v-.6c0-.738-.488-1.154-1.43-1.154-.77,0-1.3.283-1.456.776H66.671c.141-1.2,1.27-1.969,2.854-1.969,1.751,0,2.739.872,2.739,2.347v4.773H70.937v-.982h-.109a2.35,2.35,0,0,1-2.1,1.1A2.11,2.11,0,0,1,66.4,15.253Zm4.49-.6v-.584l-1.706.109c-.962.064-1.4.392-1.4,1.007s.545.995,1.3.995a1.647,1.647,0,0,0,1.809-1.527Z" transform="translate(-18.728 -7.516)" fill="#fff"/>
        <path id="Path_15000" data-name="Path 15000" d="M71.348,14.654c0-2.207,1.135-3.606,2.9-3.606a2.3,2.3,0,0,1,2.142,1.226h.1V8.437h1.379V18.15H76.551v-1.1h-.109a2.424,2.424,0,0,1-2.194,1.219C72.471,18.265,71.348,16.866,71.348,14.654Zm1.424,0c0,1.482.7,2.373,1.866,2.373s1.88-.9,1.88-2.367-.726-2.373-1.88-2.373-1.867.9-1.867,2.367Z" transform="translate(-16.001 -8.437)" fill="#fff"/>
        <path id="Path_15001" data-name="Path 15001" d="M79.236,13.732a3.309,3.309,0,1,1,6.589,0,3.31,3.31,0,1,1-6.589,0Zm5.171,0c0-1.514-.68-2.4-1.874-2.4s-1.872.886-1.872,2.4.674,2.405,1.872,2.405S84.406,15.253,84.406,13.732Z" transform="translate(-11.661 -7.516)" fill="#fff"/>
        <path id="Path_15002" data-name="Path 15002" d="M84.669,10.245H86v1.11h.1a2.091,2.091,0,0,1,2.085-1.245,2.272,2.272,0,0,1,2.418,2.6v4.522H89.223V13.055c0-1.123-.488-1.681-1.507-1.681a1.6,1.6,0,0,0-1.668,1.77v4.087H84.669Z" transform="translate(-8.656 -7.518)" fill="#fff"/>
        <path id="Path_15003" data-name="Path 15003" d="M94.4,9.074v1.771h1.513v1.161H94.4V15.6c0,.732.3,1.052.988,1.052a4.6,4.6,0,0,0,.526-.032v1.148a4.523,4.523,0,0,1-.75.07c-1.533,0-2.144-.539-2.144-1.886V12.006H91.911V10.845H93.02V9.074Z" transform="translate(-4.664 -8.086)" fill="#fff"/>
        <path id="Path_15004" data-name="Path 15004" d="M95.7,8.437h1.367v3.85h.109a2.15,2.15,0,0,1,2.13-1.251,2.3,2.3,0,0,1,2.406,2.6v4.51h-1.38V13.98c0-1.116-.52-1.681-1.494-1.681a1.632,1.632,0,0,0-1.759,1.771v4.08H95.7Z" transform="translate(-2.572 -8.437)" fill="#fff"/>
        <path id="Path_15005" data-name="Path 15005" d="M106.994,15.342a2.836,2.836,0,0,1-3.027,2.021,3.173,3.173,0,0,1-3.227-3.606,3.222,3.222,0,0,1,3.221-3.65c1.944,0,3.116,1.328,3.116,3.522v.481h-4.933v.077a1.846,1.846,0,0,0,1.86,2,1.674,1.674,0,0,0,1.662-.847Zm-4.849-2.251h3.528a1.685,1.685,0,0,0-1.72-1.81,1.787,1.787,0,0,0-1.809,1.81Z" transform="translate(0.188 -7.516)" fill="#fff"/>
      </g>
    </g>
  </g>
</svg>
