<?xml version="1.0" encoding="UTF-8"?><svg id="a" xmlns="http://www.w3.org/2000/svg" viewBox="0 0 370 495"><defs><style>.b{fill:#002323;}.c{fill:#eff4ef;}.d{fill:#0f0f0f;}.e{opacity:.2;}</style></defs><rect class="c" width="370" height="495"/><g class="e"><path class="c" d="M223.31,455.32c4.42-7.02,6.99-15.33,6.99-24.25,0-25.18-20.38-45.56-45.56-45.56s-45.56,20.38-45.56,45.56c0,8.92,2.57,17.23,6.99,24.25h77.14Z"/><g><path class="d" d="M147.4,455.32c-4.55-6.98-7.21-15.31-7.21-24.25,0-24.56,19.98-44.55,44.55-44.55s44.55,19.98,44.55,44.55c0,8.94-2.66,17.27-7.21,24.25h2.4c4.33-7.07,6.83-15.37,6.83-24.25,0-25.68-20.89-46.57-46.57-46.57s-46.57,20.89-46.57,46.57c0,8.88,2.5,17.18,6.83,24.25h2.4Z"/><path class="d" d="M158.94,455.32c-5.97-6.34-9.64-14.88-9.64-24.25,0-19.54,15.9-35.44,35.44-35.44s35.44,15.9,35.44,35.44c0,9.38-3.67,17.91-9.64,24.25h2.71c5.57-6.54,8.95-15.01,8.95-24.25,0-20.65-16.8-37.46-37.46-37.46s-37.46,16.8-37.46,37.46c0,9.25,3.37,17.71,8.95,24.25h2.71Z"/><path class="d" d="M170.08,455.32h4.42c-9.45-4-16.09-13.37-16.09-24.25,0-14.52,11.81-26.32,26.32-26.32s26.32,11.81,26.32,26.32c0,10.89-6.64,20.25-16.09,24.25h4.42c8.2-4.97,13.69-13.98,13.69-24.25,0-15.63-12.72-28.35-28.35-28.35s-28.35,12.72-28.35,28.35c0,10.27,5.49,19.28,13.69,24.25Z"/><path class="d" d="M184.74,450.3c-10.61,0-19.23-8.63-19.23-19.23s8.63-19.23,19.23-19.23,19.23,8.63,19.23,19.23-8.63,19.23-19.23,19.23Zm0-36.45c-9.49,0-17.21,7.72-17.21,17.21s7.72,17.21,17.21,17.21,17.21-7.72,17.21-17.21-7.72-17.21-17.21-17.21Z"/><path class="d" d="M184.74,441.19c-5.58,0-10.12-4.54-10.12-10.12s4.54-10.12,10.12-10.12,10.12,4.54,10.12,10.12-4.54,10.12-10.12,10.12Zm0-18.22c-4.47,0-8.1,3.63-8.1,8.1s3.63,8.1,8.1,8.1,8.1-3.63,8.1-8.1-3.63-8.1-8.1-8.1Z"/></g><path class="c" d="M177.36,476.69c4.42-7.02,6.99-15.33,6.99-24.25,0-25.18-20.38-45.56-45.56-45.56s-45.56,20.38-45.56,45.56c0,8.92,2.57,17.23,6.99,24.25h77.14Z"/><g><path class="d" d="M101.46,476.69c-4.55-6.98-7.21-15.31-7.21-24.25,0-24.56,19.98-44.55,44.55-44.55s44.55,19.98,44.55,44.55c0,8.94-2.66,17.27-7.21,24.25h2.4c4.33-7.07,6.83-15.37,6.83-24.25,0-25.68-20.89-46.57-46.57-46.57s-46.57,20.89-46.57,46.57c0,8.88,2.5,17.18,6.83,24.25h2.4Z"/><path class="d" d="M112.99,476.69c-5.97-6.34-9.64-14.88-9.64-24.25,0-19.54,15.9-35.44,35.44-35.44s35.44,15.9,35.44,35.44c0,9.38-3.67,17.91-9.64,24.25h2.71c5.57-6.54,8.95-15.01,8.95-24.25,0-20.65-16.8-37.46-37.46-37.46s-37.46,16.8-37.46,37.46c0,9.25,3.37,17.71,8.95,24.25h2.71Z"/><path class="d" d="M124.14,476.69h4.42c-9.45-4-16.09-13.37-16.09-24.25,0-14.52,11.81-26.32,26.32-26.32s26.32,11.81,26.32,26.32c0,10.89-6.64,20.25-16.09,24.25h4.42c8.2-4.97,13.69-13.98,13.69-24.25,0-15.63-12.72-28.35-28.35-28.35s-28.35,12.72-28.35,28.35c0,10.27,5.49,19.28,13.69,24.25Z"/><path class="d" d="M138.79,471.67c-10.61,0-19.23-8.63-19.23-19.23s8.63-19.23,19.23-19.23,19.23,8.63,19.23,19.23-8.63,19.23-19.23,19.23Zm0-36.45c-9.49,0-17.21,7.72-17.21,17.21s7.72,17.21,17.21,17.21,17.21-7.72,17.21-17.21-7.72-17.21-17.21-17.21Z"/><path class="d" d="M138.79,462.56c-5.58,0-10.12-4.54-10.12-10.12s4.54-10.12,10.12-10.12,10.12,4.54,10.12,10.12-4.54,10.12-10.12,10.12Zm0-18.22c-4.47,0-8.1,3.63-8.1,8.1s3.63,8.1,8.1,8.1,8.1-3.63,8.1-8.1-3.63-8.1-8.1-8.1Z"/></g><path class="c" d="M269.78,476.69c4.42-7.02,6.99-15.33,6.99-24.25,0-25.18-20.38-45.56-45.56-45.56s-45.56,20.38-45.56,45.56c0,8.92,2.57,17.23,6.99,24.25h77.14Z"/><g><path class="d" d="M193.87,476.69c-4.55-6.98-7.21-15.31-7.21-24.25,0-24.56,19.98-44.55,44.55-44.55s44.55,19.98,44.55,44.55c0,8.94-2.66,17.27-7.21,24.25h2.4c4.33-7.07,6.83-15.37,6.83-24.25,0-25.68-20.89-46.57-46.57-46.57s-46.57,20.89-46.57,46.57c0,8.88,2.5,17.18,6.83,24.25h2.4Z"/><path class="d" d="M205.41,476.69c-5.97-6.34-9.64-14.88-9.64-24.25,0-19.54,15.9-35.44,35.44-35.44s35.44,15.9,35.44,35.44c0,9.38-3.67,17.91-9.64,24.25h2.71c5.57-6.54,8.95-15.01,8.95-24.25,0-20.65-16.8-37.46-37.46-37.46s-37.46,16.8-37.46,37.46c0,9.25,3.37,17.71,8.95,24.25h2.71Z"/><path class="d" d="M216.55,476.69h4.42c-9.45-4-16.09-13.37-16.09-24.25,0-14.52,11.81-26.32,26.32-26.32s26.32,11.81,26.32,26.32c0,10.89-6.64,20.25-16.09,24.25h4.42c8.2-4.97,13.69-13.98,13.69-24.25,0-15.63-12.72-28.35-28.35-28.35s-28.35,12.72-28.35,28.35c0,10.27,5.49,19.28,13.69,24.25Z"/><path class="d" d="M231.21,471.67c-10.61,0-19.23-8.63-19.23-19.23s8.63-19.23,19.23-19.23,19.23,8.63,19.23,19.23-8.63,19.23-19.23,19.23Zm0-36.45c-9.49,0-17.21,7.72-17.21,17.21s7.72,17.21,17.21,17.21,17.21-7.72,17.21-17.21-7.72-17.21-17.21-17.21Z"/><path class="d" d="M231.21,462.56c-5.58,0-10.12-4.54-10.12-10.12s4.54-10.12,10.12-10.12,10.12,4.54,10.12,10.12-4.54,10.12-10.12,10.12Zm0-18.22c-4.47,0-8.1,3.63-8.1,8.1s3.63,8.1,8.1,8.1,8.1-3.63,8.1-8.1-3.63-8.1-8.1-8.1Z"/></g><path class="c" d="M134.44,495.5c2.2-5.35,3.45-11.19,3.45-17.34,0-25.18-20.38-45.56-45.56-45.56s-45.56,20.38-45.56,45.56c0,6.15,1.24,11.99,3.45,17.34h84.22Z"/><g><path class="d" d="M51.33,495.5c-2.27-5.33-3.55-11.18-3.55-17.34,0-24.56,19.98-44.55,44.55-44.55s44.55,19.98,44.55,44.55c0,6.15-1.28,12-3.55,17.34h2.2c2.16-5.36,3.38-11.21,3.38-17.34,0-25.68-20.89-46.57-46.57-46.57s-46.57,20.89-46.57,46.57c0,6.13,1.22,11.97,3.38,17.34h2.2Z"/><path class="d" d="M61.48,495.5c-2.9-5.13-4.59-11.03-4.59-17.34,0-19.54,15.9-35.44,35.44-35.44s35.44,15.9,35.44,35.44c0,6.3-1.69,12.2-4.59,17.34h2.3c2.73-5.19,4.31-11.08,4.31-17.34,0-20.65-16.8-37.46-37.46-37.46s-37.46,16.8-37.46,37.46c0,6.26,1.58,12.15,4.3,17.34h2.3Z"/><path class="d" d="M72.55,495.5c-4.07-4.64-6.55-10.7-6.55-17.34,0-14.52,11.81-26.32,26.32-26.32s26.32,11.81,26.32,26.32c0,6.64-2.48,12.7-6.55,17.34h2.62c3.72-4.8,5.94-10.81,5.94-17.34,0-15.63-12.72-28.35-28.35-28.35s-28.35,12.72-28.35,28.35c0,6.53,2.22,12.54,5.94,17.34h2.62Z"/><path class="d" d="M84.05,495.5h16.55c6.47-3.1,10.96-9.7,10.96-17.34,0-10.61-8.63-19.23-19.23-19.23s-19.23,8.63-19.23,19.23c0,7.64,4.49,14.23,10.96,17.34Zm8.28-34.55c9.49,0,17.21,7.72,17.21,17.21s-7.72,17.21-17.21,17.21-17.21-7.72-17.21-17.21,7.72-17.21,17.21-17.21Z"/><path class="d" d="M92.32,488.29c-5.58,0-10.12-4.54-10.12-10.12s4.54-10.12,10.12-10.12,10.12,4.54,10.12,10.12-4.54,10.12-10.12,10.12Zm0-18.22c-4.47,0-8.1,3.63-8.1,8.1s3.63,8.1,8.1,8.1,8.1-3.63,8.1-8.1-3.63-8.1-8.1-8.1Z"/></g><path class="c" d="M226.85,495.5c2.2-5.35,3.45-11.19,3.45-17.34,0-25.18-20.38-45.56-45.56-45.56s-45.56,20.38-45.56,45.56c0,6.15,1.24,11.99,3.45,17.34h84.22Z"/><g><path class="d" d="M143.74,495.5c-2.27-5.33-3.55-11.18-3.55-17.34,0-24.56,19.98-44.55,44.55-44.55s44.55,19.98,44.55,44.55c0,6.15-1.28,12-3.55,17.34h2.2c2.16-5.36,3.38-11.21,3.38-17.34,0-25.68-20.89-46.57-46.57-46.57s-46.57,20.89-46.57,46.57c0,6.13,1.22,11.97,3.38,17.34h2.2Z"/><path class="d" d="M153.89,495.5c-2.9-5.13-4.59-11.03-4.59-17.34,0-19.54,15.9-35.44,35.44-35.44s35.44,15.9,35.44,35.44c0,6.3-1.69,12.2-4.59,17.34h2.3c2.73-5.19,4.3-11.08,4.3-17.34,0-20.65-16.8-37.46-37.46-37.46s-37.46,16.8-37.46,37.46c0,6.26,1.58,12.15,4.3,17.34h2.3Z"/><path class="d" d="M164.96,495.5c-4.07-4.64-6.55-10.7-6.55-17.34,0-14.52,11.81-26.32,26.32-26.32s26.32,11.81,26.32,26.32c0,6.64-2.48,12.7-6.55,17.34h2.62c3.72-4.8,5.94-10.81,5.94-17.34,0-15.63-12.72-28.35-28.35-28.35s-28.35,12.72-28.35,28.35c0,6.53,2.22,12.54,5.94,17.34h2.62Z"/><path class="d" d="M176.46,495.5h16.55c6.47-3.1,10.96-9.7,10.96-17.34,0-10.61-8.63-19.23-19.23-19.23s-19.23,8.63-19.23,19.23c0,7.64,4.49,14.23,10.96,17.34Zm8.28-34.55c9.49,0,17.21,7.72,17.21,17.21s-7.72,17.21-17.21,17.21-17.21-7.72-17.21-17.21,7.72-17.21,17.21-17.21Z"/><path class="d" d="M184.74,488.29c-5.58,0-10.12-4.54-10.12-10.12s4.54-10.12,10.12-10.12,10.12,4.54,10.12,10.12-4.54,10.12-10.12,10.12Zm0-18.22c-4.47,0-8.1,3.63-8.1,8.1s3.63,8.1,8.1,8.1,8.1-3.63,8.1-8.1-3.63-8.1-8.1-8.1Z"/></g><path class="c" d="M319.26,495.5c2.2-5.35,3.45-11.19,3.45-17.34,0-25.18-20.38-45.56-45.56-45.56s-45.56,20.38-45.56,45.56c0,6.15,1.24,11.99,3.45,17.34h84.22Z"/><g><path class="d" d="M236.15,495.5c-2.27-5.33-3.55-11.18-3.55-17.34,0-24.56,19.98-44.55,44.55-44.55s44.55,19.98,44.55,44.55c0,6.15-1.28,12-3.55,17.34h2.2c2.16-5.36,3.38-11.21,3.38-17.34,0-25.68-20.89-46.57-46.57-46.57s-46.57,20.89-46.57,46.57c0,6.13,1.22,11.97,3.38,17.34h2.2Z"/><path class="d" d="M246.3,495.5c-2.9-5.13-4.59-11.03-4.59-17.34,0-19.54,15.9-35.44,35.44-35.44s35.44,15.9,35.44,35.44c0,6.3-1.69,12.2-4.59,17.34h2.3c2.73-5.19,4.31-11.08,4.31-17.34,0-20.65-16.8-37.46-37.46-37.46s-37.46,16.8-37.46,37.46c0,6.26,1.58,12.15,4.3,17.34h2.3Z"/><path class="d" d="M257.37,495.5c-4.07-4.64-6.55-10.7-6.55-17.34,0-14.52,11.81-26.32,26.32-26.32s26.32,11.81,26.32,26.32c0,6.64-2.48,12.7-6.55,17.34h2.62c3.72-4.8,5.94-10.81,5.94-17.34,0-15.63-12.72-28.35-28.35-28.35s-28.35,12.72-28.35,28.35c0,6.53,2.22,12.54,5.94,17.34h2.62Z"/><path class="d" d="M268.87,495.5h16.55c6.47-3.1,10.96-9.7,10.96-17.34,0-10.61-8.63-19.23-19.23-19.23s-19.23,8.63-19.23,19.23c0,7.64,4.49,14.23,10.96,17.34Zm8.28-34.55c9.49,0,17.21,7.72,17.21,17.21s-7.72,17.21-17.21,17.21-17.21-7.72-17.21-17.21,7.72-17.21,17.21-17.21Z"/><path class="d" d="M277.15,488.29c-5.58,0-10.12-4.54-10.12-10.12s4.54-10.12,10.12-10.12,10.12,4.54,10.12,10.12-4.54,10.12-10.12,10.12Zm0-18.22c-4.47,0-8.1,3.63-8.1,8.1s3.63,8.1,8.1,8.1,8.1-3.63,8.1-8.1-3.63-8.1-8.1-8.1Z"/></g><path class="c" d="M91.75,495.5c-2.04-23.29-21.55-41.52-45.37-41.52S3.05,472.22,1.01,495.5H91.75Z"/><g><path class="d" d="M2.03,495.5c2.05-22.68,21.15-40.51,44.36-40.51s42.31,17.83,44.36,40.51h2.03c-2.05-23.79-22.07-42.53-46.38-42.53S2.05,471.71,0,495.5H2.03Z"/><path class="b" d="M11.19,495.5c2.01-17.64,17.02-31.4,35.19-31.4s33.18,13.76,35.19,31.4h2.04c-2.02-18.76-17.94-33.42-37.23-33.42s-35.21,14.66-37.23,33.42h2.04Z"/><path class="b" d="M20.4,495.5c1.95-12.6,12.84-22.29,25.98-22.29s24.03,9.69,25.98,22.29h2.04c-1.97-13.72-13.77-24.31-28.02-24.31s-26.05,10.59-28.02,24.31h2.04Z"/><path class="b" d="M29.67,495.5c1.82-7.55,8.62-13.18,16.71-13.18s14.89,5.63,16.71,13.18h2.09c-1.86-8.67-9.58-15.2-18.8-15.2s-16.94,6.52-18.8,15.2h2.09Z"/><path class="b" d="M39.4,495.5c1.4-2.42,3.99-4.06,6.98-4.06s5.58,1.65,6.98,4.06h2.29c-1.56-3.58-5.13-6.09-9.27-6.09s-7.71,2.51-9.27,6.09h2.29Z"/></g><path class="c" d="M184.16,495.5c-2.04-23.29-21.55-41.52-45.37-41.52s-43.33,18.24-45.37,41.52h90.74Z"/><g><path class="d" d="M94.44,495.5c2.05-22.68,21.15-40.51,44.36-40.51s42.31,17.83,44.36,40.51h2.03c-2.05-23.79-22.07-42.53-46.38-42.53s-44.33,18.74-46.38,42.53h2.03Z"/><path class="d" d="M103.61,495.5c2.01-17.64,17.02-31.4,35.19-31.4s33.18,13.76,35.19,31.4h2.04c-2.02-18.76-17.94-33.42-37.23-33.42s-35.21,14.66-37.23,33.42h2.04Z"/><path class="d" d="M112.81,495.5c1.95-12.6,12.84-22.29,25.98-22.29s24.03,9.69,25.98,22.29h2.04c-1.97-13.72-13.77-24.31-28.02-24.31s-26.05,10.59-28.02,24.31h2.04Z"/><path class="d" d="M122.08,495.5c1.82-7.55,8.62-13.18,16.71-13.18s14.89,5.63,16.71,13.18h2.09c-1.86-8.67-9.58-15.2-18.8-15.2s-16.94,6.52-18.8,15.2h2.09Z"/><path class="d" d="M131.81,495.5c1.4-2.42,3.99-4.06,6.98-4.06s5.58,1.65,6.98,4.06h2.29c-1.56-3.58-5.13-6.09-9.27-6.09s-7.71,2.51-9.27,6.09h2.29Z"/></g><path class="c" d="M276.58,495.5c-2.04-23.29-21.55-41.52-45.37-41.52s-43.33,18.24-45.37,41.52h90.74Z"/><g><path class="d" d="M186.85,495.5c2.05-22.68,21.15-40.51,44.36-40.51s42.31,17.83,44.36,40.51h2.03c-2.05-23.79-22.07-42.53-46.38-42.53s-44.33,18.74-46.38,42.53h2.03Z"/><path class="d" d="M196.02,495.5c2.01-17.64,17.02-31.4,35.19-31.4s33.18,13.76,35.19,31.4h2.04c-2.02-18.76-17.94-33.42-37.23-33.42s-35.21,14.66-37.23,33.42h2.04Z"/><path class="d" d="M205.22,495.5c1.95-12.6,12.84-22.29,25.98-22.29s24.03,9.69,25.98,22.29h2.04c-1.97-13.72-13.77-24.31-28.02-24.31s-26.05,10.59-28.02,24.31h2.04Z"/><path class="d" d="M214.49,495.5c1.82-7.55,8.62-13.18,16.71-13.18s14.89,5.63,16.71,13.18h2.09c-1.86-8.67-9.58-15.2-18.8-15.2s-16.94,6.52-18.8,15.2h2.09Z"/><path class="d" d="M224.22,495.5c1.4-2.42,3.99-4.06,6.98-4.06s5.58,1.65,6.98,4.06h2.29c-1.56-3.58-5.13-6.09-9.27-6.09s-7.71,2.51-9.27,6.09h2.29Z"/></g><path class="c" d="M368.99,495.5c-2.04-23.29-21.55-41.52-45.37-41.52s-43.33,18.24-45.37,41.52h90.74Z"/><g><path class="d" d="M279.26,495.5c2.05-22.68,21.15-40.51,44.36-40.51s42.31,17.83,44.36,40.51h2.03c-2.05-23.79-22.07-42.53-46.38-42.53s-44.33,18.74-46.38,42.53h2.03Z"/><path class="d" d="M288.43,495.5c2.01-17.64,17.02-31.4,35.19-31.4s33.18,13.76,35.19,31.4h2.04c-2.02-18.76-17.94-33.42-37.23-33.42s-35.21,14.66-37.23,33.42h2.04Z"/><path class="d" d="M297.64,495.5c1.95-12.6,12.84-22.29,25.98-22.29s24.03,9.69,25.98,22.29h2.04c-1.97-13.72-13.77-24.31-28.02-24.31s-26.05,10.59-28.02,24.31h2.04Z"/><path class="d" d="M306.9,495.5c1.82-7.55,8.62-13.18,16.71-13.18s14.89,5.63,16.71,13.18h2.09c-1.86-8.67-9.58-15.2-18.8-15.2s-16.94,6.52-18.8,15.2h2.09Z"/><path class="d" d="M316.64,495.5c1.4-2.42,3.99-4.06,6.98-4.06s5.58,1.65,6.98,4.06h2.29c-1.56-3.58-5.13-6.09-9.27-6.09s-7.71,2.51-9.27,6.09h2.29Z"/></g><path class="c" d="M126.81,495.5c-8.35-9.67-20.69-15.79-34.49-15.79s-26.14,6.12-34.49,15.79H126.81Z"/><g><path class="d" d="M59.22,495.5c8.16-9.07,19.98-14.78,33.11-14.78s24.95,5.71,33.11,14.78h2.67c-8.55-10.26-21.41-16.8-35.78-16.8s-27.23,6.54-35.78,16.8h2.67Z"/><path class="d" d="M73.17,495.5c5.53-3.57,12.1-5.67,19.15-5.67s13.62,2.1,19.15,5.67h3.49c-6.3-4.8-14.13-7.69-22.64-7.69s-16.35,2.89-22.64,7.69h3.49Z"/></g><path class="c" d="M219.22,495.5c-8.35-9.67-20.69-15.79-34.49-15.79s-26.14,6.12-34.49,15.79h68.97Z"/><g><path class="d" d="M151.63,495.5c8.16-9.07,19.98-14.78,33.11-14.78s24.95,5.71,33.11,14.78h2.67c-8.55-10.26-21.41-16.8-35.78-16.8s-27.23,6.54-35.78,16.8h2.67Z"/><path class="d" d="M165.58,495.5c5.53-3.57,12.1-5.67,19.15-5.67s13.62,2.1,19.15,5.67h3.49c-6.3-4.8-14.13-7.69-22.64-7.69s-16.35,2.89-22.64,7.69h3.49Z"/></g><path class="c" d="M311.63,495.5c-8.35-9.67-20.69-15.79-34.49-15.79s-26.14,6.12-34.49,15.79h68.97Z"/><g><path class="d" d="M244.04,495.5c8.16-9.07,19.98-14.78,33.11-14.78s24.95,5.71,33.11,14.78h2.67c-8.55-10.26-21.41-16.8-35.78-16.8s-27.23,6.54-35.78,16.8h2.67Z"/><path class="d" d="M257.99,495.5c5.53-3.57,12.1-5.67,19.15-5.67s13.62,2.1,19.15,5.67h3.49c-6.3-4.8-14.13-7.69-22.64-7.69s-16.35,2.89-22.64,7.69h3.49Z"/></g></g></svg>