<?xml version="1.0"?>
<svg xmlns="http://www.w3.org/2000/svg" xmlns:xlink="http://www.w3.org/1999/xlink" xmlns:svgjs="http://svgjs.com/svgjs" version="1.1" width="512" height="512" x="0" y="0" viewBox="0 0 64 64" style="enable-background:new 0 0 512 512" xml:space="preserve" class=""><g><path xmlns="http://www.w3.org/2000/svg" d="m32 6a14 14 0 1 0 14 14 14 14 0 0 0 -14-14zm-7 8a2 2 0 1 1 2 2 2 2 0 0 1 -2-2zm4.55 11.391a2.08 2.08 0 0 1 -2.941-2.941l7.841-7.841a2.08 2.08 0 1 1 2.941 2.941zm7.45 2.609a2 2 0 1 1 2-2 2 2 0 0 1 -2 2z" fill="#c3fdc9" data-original="#f4b2b0" class=""/><g xmlns="http://www.w3.org/2000/svg" fill="#b3404a"><path d="m57.949 43.684-.285-.855a4.136 4.136 0 0 0 -5.772-2.393l-.892.445-.475-.237a6.25 6.25 0 0 0 -5.21-.1l-1.549-.387a5.453 5.453 0 0 0 -4.535.916l-2.564 1.927h-4.431l-1.436-.719a12.135 12.135 0 0 0 -12.158.757l-3.143 2.1-1.45.725-1.152-2.3a1 1 0 0 0 -1.342-.448l-4 2a1 1 0 0 0 -.448 1.342l8 16a1 1 0 0 0 1.342.448l4-2a1 1 0 0 0 .448-1.342l-1.064-2.127a13.8 13.8 0 0 1 9.377-1.244l1.819.4a17.386 17.386 0 0 0 13.8-2.769l12.751-9a1 1 0 0 0 .369-1.139zm-8.775-1.437-4.541 3.893a5.007 5.007 0 0 0 -1.23-1.782l1.821-1.458a4.207 4.207 0 0 1 3.95-.653zm-8.742.429a3.421 3.421 0 0 1 2.627-.6l-1.5 1.2a4.94 4.94 0 0 0 -1.559-.276zm-23.985 17.982-7.1-14.211 2.211-1.105 7.105 14.211zm27.225-8.474a15.392 15.392 0 0 1 -12.211 2.45l-1.82-.405a15.781 15.781 0 0 0 -10.7 1.41l-4-7.992 1.5-.752a1.168 1.168 0 0 0 .108-.063l3.2-2.13a10.135 10.135 0 0 1 10.151-.632l1.649.825a1 1 0 0 0 .451.105h8a3 3 0 0 1 2.816 2h-8.816v2h10a1 1 0 0 0 .651-.241l6.907-5.921 1.226-.613a2.158 2.158 0 0 1 .955-.225 2.133 2.133 0 0 1 2.027 1.461l.05.15z" fill="#32bc41" data-original="#b3404a" class=""/><path d="m13.121 22.163a19.305 19.305 0 0 0 .359 2.1l1.949-.446a17.591 17.591 0 0 1 -.321-1.879z" fill="#32bc41" data-original="#b3404a" class=""/><path d="m18.723 30.618a17.238 17.238 0 0 1 -1.107-1.552l-1.69 1.07a19.42 19.42 0 0 0 1.236 1.732z" fill="#32bc41" data-original="#b3404a" class=""/><path d="m16.692 27.4a16.822 16.822 0 0 1 -.732-1.757l-1.887.663a19.043 19.043 0 0 0 .819 1.966z" fill="#32bc41" data-original="#b3404a" class=""/><path d="m46.859 31.842-1.559-1.242a16.82 16.82 0 0 1 -1.269 1.42l1.413 1.415a18.986 18.986 0 0 0 1.415-1.593z" fill="#32bc41" data-original="#b3404a" class=""/><path d="m21.418 33.306a17.172 17.172 0 0 1 -1.418-1.268l-1.413 1.415a19.318 19.318 0 0 0 1.589 1.418z" fill="#32bc41" data-original="#b3404a" class=""/><path d="m38.29 37.934a18.833 18.833 0 0 0 1.967-.818l-.87-1.8a16.921 16.921 0 0 1 -1.758.731z" fill="#32bc41" data-original="#b3404a" class=""/><path d="m49.124 28.242-1.8-.869a17.073 17.073 0 0 1 -.923 1.668l1.694 1.064a19.223 19.223 0 0 0 1.029-1.863z" fill="#32bc41" data-original="#b3404a" class=""/><path d="m42.119 36.083a19.2 19.2 0 0 0 1.735-1.233l-1.249-1.563a16.925 16.925 0 0 1 -1.552 1.1z" fill="#32bc41" data-original="#b3404a" class=""/><path d="m34.145 38.881a19.044 19.044 0 0 0 2.1-.357l-.446-1.95a17.163 17.163 0 0 1 -1.878.32z" fill="#32bc41" data-original="#b3404a" class=""/><path d="m27.794 38.533.44-1.951a16.978 16.978 0 0 1 -1.831-.525l-.658 1.889a19.154 19.154 0 0 0 2.049.587z" fill="#32bc41" data-original="#b3404a" class=""/><path d="m23.774 37.131.868-1.8a17.27 17.27 0 0 1 -1.669-.922l-1.063 1.691a18.9 18.9 0 0 0 1.864 1.031z" fill="#32bc41" data-original="#b3404a" class=""/><path d="m30.113 36.9-.219 1.989c.7.076 1.4.105 2.023.112h.1l-.017-2.001a17.183 17.183 0 0 1 -1.887-.1z" fill="#32bc41" data-original="#b3404a" class=""/><path d="m45.39 6.52a18.893 18.893 0 0 0 -1.59-1.414l-1.244 1.567a16.919 16.919 0 0 1 1.424 1.266z" fill="#32bc41" data-original="#b3404a" class=""/><path d="m19.95 8.008-1.416-1.408a19 19 0 0 0 -1.416 1.591l1.566 1.244a17.347 17.347 0 0 1 1.266-1.427z" fill="#32bc41" data-original="#b3404a" class=""/><path d="m22.919 5.626-1.07-1.689a18.84 18.84 0 0 0 -1.732 1.237l1.252 1.56a17.106 17.106 0 0 1 1.55-1.108z" fill="#32bc41" data-original="#b3404a" class=""/><path d="m30.048 3.111-.229-1.987a19.242 19.242 0 0 0 -2.1.36l.449 1.95a16.945 16.945 0 0 1 1.88-.323z" fill="#32bc41" data-original="#b3404a" class=""/><path d="m26.34 3.965-.666-1.886a19.1 19.1 0 0 0 -1.965.821l.874 1.8a17.111 17.111 0 0 1 1.757-.735z" fill="#32bc41" data-original="#b3404a" class=""/><path d="m15.1 18.129-1.989-.216a19.387 19.387 0 0 0 -.111 2.087v.036l2-.036a17.194 17.194 0 0 1 .1-1.871z" fill="#32bc41" data-original="#b3404a" class=""/><path d="m17.583 10.988-1.695-1.062a18.989 18.989 0 0 0 -1.028 1.866l1.8.865a16.9 16.9 0 0 1 .923-1.669z" fill="#32bc41" data-original="#b3404a" class=""/><path d="m15.937 14.42-1.889-.658a19 19 0 0 0 -.585 2.05l1.952.439a16.612 16.612 0 0 1 .522-1.831z" fill="#32bc41" data-original="#b3404a" class=""/><path d="m48.03 14.324 1.886-.667a19.191 19.191 0 0 0 -.824-1.965l-1.8.876a16.96 16.96 0 0 1 .738 1.756z" fill="#32bc41" data-original="#b3404a" class=""/><path d="m48.888 18.031 1.986-.231a19.24 19.24 0 0 0 -.363-2.1l-1.948.451a17.377 17.377 0 0 1 .325 1.88z" fill="#32bc41" data-original="#b3404a" class=""/><path d="m33.854 3.1.215-1.989a19.5 19.5 0 0 0 -2.069-.111h-.053l.053 2a17.321 17.321 0 0 1 1.854.1z" fill="#32bc41" data-original="#b3404a" class=""/><path d="m51 19.979-.588-.029-1.412.05a17.188 17.188 0 0 1 -.1 1.9l1.987.222a19.361 19.361 0 0 0 .113-2.143z" fill="#32bc41" data-original="#b3404a" class=""/><path d="m50.528 24.225-1.95-.444a16.884 16.884 0 0 1 -.526 1.831l1.887.66a18.643 18.643 0 0 0 .589-2.047z" fill="#32bc41" data-original="#b3404a" class=""/><path d="m38.219 2.042a19.1 19.1 0 0 0 -2.049-.583l-.438 1.952a16.9 16.9 0 0 1 1.833.521z" fill="#32bc41" data-original="#b3404a" class=""/><path d="m46.365 10.905 1.689-1.072a18.98 18.98 0 0 0 -1.24-1.73l-1.558 1.252a17.2 17.2 0 0 1 1.109 1.55z" fill="#32bc41" data-original="#b3404a" class=""/><path d="m42.058 3.877a18.886 18.886 0 0 0 -1.867-1.025l-.863 1.8a17.054 17.054 0 0 1 1.672.922z" fill="#32bc41" data-original="#b3404a" class=""/><path d="m32 5a15 15 0 1 0 15 15 15.017 15.017 0 0 0 -15-15zm0 28a13 13 0 1 1 13-13 13.015 13.015 0 0 1 -13 13z" fill="#32bc41" data-original="#b3404a" class=""/><path d="m30 14a3 3 0 1 0 -3 3 3 3 0 0 0 3-3zm-4 0a1 1 0 1 1 1 1 1 1 0 0 1 -1-1z" fill="#32bc41" data-original="#b3404a" class=""/><path d="m37 23a3 3 0 1 0 3 3 3 3 0 0 0 -3-3zm0 4a1 1 0 1 1 1-1 1 1 0 0 1 -1 1z" fill="#32bc41" data-original="#b3404a" class=""/><path d="m33.742 13.9-7.842 7.843a3.079 3.079 0 0 0 4.355 4.357l7.845-7.845a3.079 3.079 0 0 0 -4.358-4.355zm2.941 2.94-7.842 7.842a1.079 1.079 0 0 1 -1.526-1.526l7.841-7.842a1.079 1.079 0 1 1 1.527 1.526z" fill="#32bc41" data-original="#b3404a" class=""/></g></g></svg>
