<?xml version="1.0"?>
<svg xmlns="http://www.w3.org/2000/svg" xmlns:xlink="http://www.w3.org/1999/xlink" xmlns:svgjs="http://svgjs.com/svgjs" version="1.1" width="512" height="512" x="0" y="0" viewBox="0 0 64 64" style="enable-background:new 0 0 512 512" xml:space="preserve" class=""><g><g xmlns="http://www.w3.org/2000/svg"><path d="m34 7v1c0 3.314-2.686 6-6 6h-6v-5c0-3.866 3.134-7 7-7h6c3.866 0 7 3.134 7 7v5h-5c-1.657 0-3-1.343-3-3z" fill="#c3fdc9" data-original="#f4b2b0" class=""/><g fill="#b3404a"><path d="m52.603 47.031c1.301-1.039 2.304-2.432 2.872-4.031h.525c2.206 0 4-1.794 4-4 0-1.474-.81-2.75-2-3.444v-4.556c0-4.411-3.589-8-8-8h-6c-2.089 0-3.988.812-5.414 2.128-.325-.047-.652-.079-.982-.097 1.301-1.039 2.303-2.431 2.871-4.03h.525c2.206 0 4-1.794 4-4 0-1.474-.81-2.75-2-3.444v-4.557c0-4.411-3.589-8-8-8h-6c-4.411 0-8 3.589-8 8v4.556c-1.19.694-2 1.97-2 3.444 0 2.206 1.794 4 4 4h.525c.568 1.599 1.57 2.991 2.871 4.03-.33.018-.657.05-.982.097-1.426-1.315-3.325-2.127-5.414-2.127h-6c-4.411 0-8 3.589-8 8v4.556c-1.19.694-2 1.97-2 3.444 0 2.206 1.794 4 4 4h.525c.568 1.599 1.57 2.991 2.872 4.031-5.785.316-10.397 5.107-10.397 10.969v4c0 .552.448 1 1 1h30 30c.552 0 1-.448 1-1v-4c0-5.862-4.612-10.653-10.397-10.969zm-40.083 1.969 3.141 3.926-3.046 3.046-1.387-6.933c.255-.022.511-.039.772-.039zm6.4 0-1.92 2.399-1.92-2.399zm2.56 0h.52c.261 0 .517.017.772.039l-1.387 6.933-3.046-3.046zm1.123-1.969c1.301-1.039 2.304-2.432 2.872-4.031h.525c1.474 0 2.75-.81 3.444-2h5.113c.694 1.19 1.97 2 3.444 2h.525c.568 1.599 1.57 2.991 2.872 4.031-4.18.228-7.74 2.792-9.397 6.414-1.658-3.622-5.218-6.186-9.398-6.414zm4.917-20.031 3.7 4.625c.189.237.476.375.78.375s.591-.138.781-.375l3.699-4.625h.52c.027 0 .053.004.08.004-.683 1.177-1.08 2.54-1.08 3.996v4.556c-1.19.694-2 1.97-2 3.444h-4c0-1.474-.81-2.75-2-3.444v-4.556c0-1.456-.397-2.819-1.08-3.996.027 0 .053-.004.08-.004zm6.4 0-1.92 2.399-1.92-2.399zm4.139 14h-.059c-1.103 0-2-.897-2-2s.897-2 2-2v3c0 .338.022.671.059 1zm-12.059-4c1.103 0 2 .897 2 2s-.897 2-2 2h-.059c.037-.329.059-.662.059-1zm22.92 12-1.92 2.399-1.92-2.399zm-6.92 0h.52l3.141 3.926-3.046 3.046-1.387-6.933c.255-.022.511-.039.772-.039zm9.48 0h.52c.261 0 .517.017.772.039l-1.387 6.933-3.046-3.046zm-4.48-2c-3.86 0-7-3.14-7-7v-3h3c2.124 0 4.027-.955 5.312-2.454.606 1.44 2.03 2.454 3.688 2.454h2v3c0 3.86-3.14 7-7 7zm9-6h-.059c.037-.329.059-.662.059-1v-3c1.103 0 2 .897 2 2s-.897 2-2 2zm-12-16h6c3.309 0 6 2.691 6 6v4h-1-3c-1.103 0-2-.897-2-2v-3-1h-2v1c0 2.757-2.243 5-5 5h-4-1v-4c0-3.309 2.691-6 6-6zm-3-6h-.059c.037-.329.059-.662.059-1v-3c1.103 0 2 .897 2 2s-.897 2-2 2zm-18-10c0-3.309 2.691-6 6-6h6c3.309 0 6 2.691 6 6v4h-1-3c-1.103 0-2-.897-2-2v-3-1h-2v1c0 2.757-2.243 5-5 5h-4-1zm0 10c-1.103 0-2-.897-2-2s.897-2 2-2v3c0 .338.022.671.059 1zm2-1v-3h3c2.124 0 4.027-.955 5.312-2.454.606 1.44 2.03 2.454 3.688 2.454h2v3c0 3.86-3.14 7-7 7s-7-3.14-7-7zm-17 13c0-3.309 2.691-6 6-6h6c3.309 0 6 2.691 6 6v4h-1-3c-1.103 0-2-.897-2-2v-3-1h-2v1c0 2.757-2.243 5-5 5h-4-1zm0 10c-1.103 0-2-.897-2-2s.897-2 2-2v3c0 .338.022.671.059 1zm2-1v-3h3c2.124 0 4.027-.955 5.312-2.454.606 1.44 2.03 2.454 3.688 2.454h2v3c0 3.86-3.14 7-7 7s-7-3.14-7-7zm-7 18c0-4.009 2.637-7.412 6.266-8.572l1.754 8.769c.072.361.338.654.691.761.095.028.192.042.289.042.261 0 .517-.103.707-.293l4.293-4.293 4.293 4.293c.19.19.446.293.707.293.097 0 .194-.014.29-.043.353-.107.619-.399.691-.761l1.754-8.769c3.628 1.161 6.265 4.564 6.265 8.573v3h-28zm58 3h-28v-3c0-4.009 2.637-7.412 6.266-8.572l1.754 8.769c.072.361.338.654.691.761.095.028.192.042.289.042.261 0 .517-.103.707-.293l4.293-4.293 4.293 4.293c.19.19.446.293.707.293.097 0 .194-.014.29-.043.353-.107.619-.399.691-.761l1.754-8.769c3.628 1.161 6.265 4.564 6.265 8.573z" fill="#32bc41" data-original="#b3404a" class=""/><path d="m54 1c-4.962 0-9 4.038-9 9s4.038 9 9 9 9-4.038 9-9-4.038-9-9-9zm0 16c-3.86 0-7-3.14-7-7s3.14-7 7-7 7 3.14 7 7-3.14 7-7 7z" fill="#32bc41" data-original="#b3404a" class=""/><path d="m55 5h-2v4h-4v2h4v4h2v-4h4v-2h-4z" fill="#32bc41" data-original="#b3404a" class=""/></g></g></g></svg>
