<?xml version="1.0"?>
<svg xmlns="http://www.w3.org/2000/svg" xmlns:xlink="http://www.w3.org/1999/xlink" xmlns:svgjs="http://svgjs.com/svgjs" version="1.1" width="512" height="512" x="0" y="0" viewBox="0 0 64 64" style="enable-background:new 0 0 512 512" xml:space="preserve" class=""><g><g xmlns="http://www.w3.org/2000/svg"><path d="m30 63 7-7 5 5 8-29-29 8 5 5-18 18z" fill="#c3fdc9" data-original="#f4b2b0" class=""/><path d="m17 2c-8.284 0-15 6.716-15 15s6.716 15 15 15 15-6.716 15-15-6.716-15-15-15zm7.379 10.621-11.758 11.758c-.397.397-.937.621-1.5.621-1.171 0-2.121-.95-2.121-2.121 0-.563.224-1.102.621-1.5l11.758-11.758c.398-.398.937-.621 1.5-.621 1.171 0 2.121.95 2.121 2.121 0 .563-.223 1.102-.621 1.5z" fill="#c3fdc9" data-original="#f4b2b0" class=""/><g fill="#b3404a"><path d="m1.707 52.707 20.649-20.649c4.515-1.611 8.091-5.188 9.702-9.702l6.649-6.649c.391-.391.391-1.023 0-1.414l-3.785-3.786 25.646-7.075-7.074 25.646-3.786-3.786c-.391-.391-1.023-.391-1.414 0l-8.48 8.48-19.078 5.263c-.344.095-.61.364-.701.709-.091.344.008.71.26.962l4.291 4.294-17.293 17.293 1.414 1.414 18-18c.391-.391.391-1.023 0-1.414l-3.785-3.786 25.646-7.074-7.074 25.646-3.786-3.785c-.391-.391-1.023-.391-1.414 0l-7 7 1.414 1.414 6.292-6.294 4.293 4.293c.251.252.618.352.962.26.345-.091.614-.357.709-.701l8-29c.096-.347-.002-.719-.257-.973-.256-.255-.626-.355-.973-.257l-6.016 1.66 5.282-5.282 4.293 4.293c.251.251.618.35.962.26.345-.091.614-.358.709-.701l8-29c.096-.347-.002-.719-.257-.973-.255-.255-.627-.354-.973-.257l-29 8c-.344.095-.61.364-.701.708s.008.711.26.962l4.293 4.294-3.675 3.675c.057-.551.089-1.109.089-1.675 0-8.822-7.178-16-16-16s-16 7.178-16 16 7.178 16 16 16c.566 0 1.124-.032 1.675-.089l-18.382 18.382zm1.293-35.707c0-7.72 6.28-14 14-14s14 6.28 14 14-6.28 14-14 14-14-6.28-14-14z" fill="#32bc41" data-original="#b3404a" class=""/><path d="m22.879 8c-.822 0-1.626.333-2.207.914l-11.758 11.758c-.59.589-.914 1.373-.914 2.207 0 1.721 1.4 3.121 3.121 3.121.822 0 1.626-.333 2.207-.914l11.758-11.758c.59-.589.914-1.373.914-2.207 0-1.721-1.4-3.121-3.121-3.121zm.793 3.914-11.758 11.758c-.209.208-.498.328-.793.328-.618 0-1.121-.503-1.121-1.121 0-.3.116-.581.328-.793l11.758-11.758c.209-.208.498-.328.793-.328.618 0 1.121.503 1.121 1.121 0 .3-.116.581-.328.793z" fill="#32bc41" data-original="#b3404a" class=""/><path d="m22 20c-1.654 0-3 1.346-3 3s1.346 3 3 3 3-1.346 3-3-1.346-3-3-3zm0 4c-.552 0-1-.449-1-1s.448-1 1-1 1 .449 1 1-.448 1-1 1z" fill="#32bc41" data-original="#b3404a" class=""/><path d="m12 14c1.654 0 3-1.346 3-3s-1.346-3-3-3-3 1.346-3 3 1.346 3 3 3zm0-4c.552 0 1 .449 1 1s-.448 1-1 1-1-.449-1-1 .448-1 1-1z" fill="#32bc41" data-original="#b3404a" class=""/></g></g></g></svg>
