<?xml version="1.0" encoding="UTF-8"?>
<svg width="400px" height="112px" viewBox="0 0 400 112" version="1.1" xmlns="http://www.w3.org/2000/svg" xmlns:xlink="http://www.w3.org/1999/xlink">
    <title>Group 5</title>
    <g id="Page-1" stroke="none" stroke-width="1" fill="none" fill-rule="evenodd">
        <g id="Group-5">
            <g id="Group-6" transform="translate(30.047000, 15.000000)" fill="#EFF4EF" fill-rule="nonzero">
                <g id="artificial-intelligence" transform="translate(17.953000, 0.000000)">
                    <path d="M19.357047,14.5138889 L16.6161074,14.5138889 C15.223777,14.5153433 14.0954394,15.6244836 14.0939597,16.993125 L14.0939597,23.6180556 C14.0939597,24.2738937 14.6348238,24.8055556 15.3020134,24.8055556 C15.9692031,24.8055556 16.5100671,24.2738937 16.5100671,23.6180556 L16.5100671,22.1666667 L19.4630872,22.1666667 L19.4630872,23.6180556 C19.4630872,24.2738937 20.0039513,24.8055556 20.6711409,24.8055556 C21.3383306,24.8055556 21.8791946,24.2738937 21.8791946,23.6180556 L21.8791946,16.993125 C21.877715,15.6244836 20.7493773,14.5153433 19.357047,14.5138889 Z M16.5100671,19.7916667 L16.5100671,16.993125 C16.5107909,16.9358543 16.5578454,16.8896004 16.6161074,16.8888889 L19.357047,16.8888889 C19.4153089,16.8896004 19.4623634,16.9358543 19.4630872,16.993125 L19.4630872,19.7916667 L16.5100671,19.7916667 Z" id="Shape"></path>
                    <path d="M24.6979866,14.5138889 C24.0307969,14.5138889 23.4899329,15.0455507 23.4899329,15.7013889 L23.4899329,23.6180556 C23.4899329,24.2738937 24.0307969,24.8055556 24.6979866,24.8055556 C25.3651762,24.8055556 25.9060403,24.2738937 25.9060403,23.6180556 L25.9060403,15.7013889 C25.9060403,15.0455507 25.3651762,14.5138889 24.6979866,14.5138889 Z" id="Path"></path>
                    <path d="M38.7919463,18.4722222 L33.4228188,18.4722222 C33.3775972,18.4784751 33.3327801,18.487286 33.2885906,18.4986111 L33.2885906,15.5430556 C33.3327801,15.5543807 33.3775972,15.5631916 33.4228188,15.5694444 L37.4496644,15.5694444 C38.1168541,15.5694444 38.6577181,15.0377826 38.6577181,14.3819444 C38.6577181,13.7261063 38.1168541,13.1944444 37.4496644,13.1944444 L33.4228188,13.1944444 C33.3775972,13.2006973 33.3327801,13.2095082 33.2885906,13.2208333 L33.2885906,10.4315278 C33.2856315,8.31459027 31.5401563,6.59940264 29.3865772,6.59722222 L26.5503356,6.59722222 C26.5621297,6.55384673 26.5710965,6.50977573 26.5771812,6.46527778 L26.5771812,2.50694444 C26.5771812,1.8511063 26.0363171,1.31944444 25.3691275,1.31944444 C24.7019379,1.31944444 24.1610738,1.8511063 24.1610738,2.50694444 L24.1610738,6.46527778 C24.1671586,6.50977573 24.1761253,6.55384673 24.1879195,6.59722222 L21.1812081,6.59722222 C21.1930022,6.55384673 21.201969,6.50977573 21.2080537,6.46527778 L21.2080537,1.1875 C21.2080537,0.53166186 20.6671896,0 20,0 C19.3328104,0 18.7919463,0.53166186 18.7919463,1.1875 L18.7919463,6.46527778 C18.798031,6.50977573 18.8069978,6.55384673 18.8187919,6.59722222 L15.8120805,6.59722222 C15.8238747,6.55384673 15.8328414,6.50977573 15.8389262,6.46527778 L15.8389262,2.50694444 C15.8389262,1.8511063 15.2980621,1.31944444 14.6308725,1.31944444 C13.9636829,1.31944444 13.4228188,1.8511063 13.4228188,2.50694444 L13.4228188,6.46527778 C13.4289035,6.50977573 13.4378703,6.55384673 13.4496644,6.59722222 L10.6120805,6.59722222 C8.45902558,6.6001294 6.71436689,8.31510466 6.7114094,10.4315278 L6.7114094,13.2208333 C6.66728314,13.2092399 6.62244934,13.2004257 6.57718121,13.1944444 L2.55033557,13.1944444 C1.88314594,13.1944444 1.34228188,13.7261063 1.34228188,14.3819444 C1.34228188,15.0377826 1.88314594,15.5694444 2.55033557,15.5694444 L6.57718121,15.5694444 C6.62244934,15.5634632 6.66728314,15.554649 6.7114094,15.5430556 L6.7114094,18.4986111 C6.66728314,18.4870176 6.62244934,18.4782034 6.57718121,18.4722222 L1.20805369,18.4722222 C0.540864061,18.4722222 0,19.0038841 0,19.6597222 C0,20.3155604 0.540864061,20.8472222 1.20805369,20.8472222 L6.57718121,20.8472222 C6.62244934,20.841241 6.66728314,20.8324268 6.7114094,20.8208333 L6.7114094,23.7763889 C6.66728314,23.7647954 6.62244934,23.7559812 6.57718121,23.75 L2.55033557,23.75 C1.88314594,23.75 1.34228188,24.2816619 1.34228188,24.9375 C1.34228188,25.5933381 1.88314594,26.125 2.55033557,26.125 L6.57718121,26.125 C6.62244934,26.1190188 6.66728314,26.1102046 6.7114094,26.0986111 L6.7114094,28.8879167 C6.71436689,31.0043398 8.45902558,32.719315 10.6120805,32.7222222 L13.4228188,32.7222222 L13.4228188,35.4930556 C13.4228188,36.1488937 13.9636829,36.6805556 14.6308725,36.6805556 C15.2980621,36.6805556 15.8389262,36.1488937 15.8389262,35.4930556 L15.8389262,32.7222222 L18.7919463,32.7222222 L18.7919463,36.8125 C18.7919463,37.4683381 19.3328104,38 20,38 C20.6671896,38 21.2080537,37.4683381 21.2080537,36.8125 L21.2080537,32.7222222 L24.1610738,32.7222222 L24.1610738,35.4930556 C24.1610738,36.1488937 24.7019379,36.6805556 25.3691275,36.6805556 C26.0363171,36.6805556 26.5771812,36.1488937 26.5771812,35.4930556 L26.5771812,32.7222222 L29.3865772,32.7222222 C31.5401563,32.7200418 33.2856315,31.0048542 33.2885906,28.8879167 L33.2885906,26.0986111 C33.3327801,26.1099362 33.3775972,26.1187472 33.4228188,26.125 L37.4496644,26.125 C38.1168541,26.125 38.6577181,25.5933381 38.6577181,24.9375 C38.6577181,24.2816619 38.1168541,23.75 37.4496644,23.75 L33.4228188,23.75 C33.3775972,23.7562528 33.3327801,23.7650638 33.2885906,23.7763889 L33.2885906,20.8208333 C33.3327801,20.8321585 33.3775972,20.8409694 33.4228188,20.8472222 L38.7919463,20.8472222 C39.4591359,20.8472222 40,20.3155604 40,19.6597222 C40,19.0038841 39.4591359,18.4722222 38.7919463,18.4722222 Z M30.8724832,28.8879167 C30.8717424,29.6940823 30.2066965,30.3472222 29.3865772,30.3472222 L10.6120805,30.3472222 C9.79248534,30.3464948 9.12825682,29.6935674 9.12751678,28.8879167 L9.12751678,10.4315278 C9.12825682,9.62587709 9.79248534,8.97294967 10.6120805,8.97222222 L29.3865772,8.97222222 C30.2066965,8.97222222 30.8717424,9.62536219 30.8724832,10.4315278 L30.8724832,28.8879167 Z" id="Shape"></path>
                </g>
                <g id="AI-powered-Auto-Crea" transform="translate(0.000000, 47.080000)">
                    <path d="M3.633,8.4 L8.813,8.4 L8.505,7 L3.955,7 L3.633,8.4 Z M6.195,3.892 L7.763,7.532 L7.791,7.938 L9.121,10.92 L10.997,10.92 L6.195,0.574 L1.407,10.92 L3.269,10.92 L4.627,7.854 L4.655,7.49 L6.195,3.892 Z" id="Shape"></path>
                    <polygon id="Path" points="12.117 1.12 12.117 10.92 13.797 10.92 13.797 1.12"></polygon>
                    <polygon id="Path" points="14.945 8.274 17.815 8.274 17.815 6.916 14.945 6.916"></polygon>
                    <path d="M20.321,14 L20.321,4.48 L18.795,4.48 L18.795,14 L20.321,14 Z M25.655,7.7 C25.655,6.972 25.5103333,6.35833333 25.221,5.859 C24.9316667,5.35966667 24.549,4.97466667 24.073,4.704 C23.597,4.43333333 23.079,4.298 22.519,4.298 C21.9776667,4.298 21.504,4.438 21.098,4.718 C20.692,4.998 20.377,5.39 20.153,5.894 C19.929,6.398 19.817,7 19.817,7.7 C19.817,8.39066667 19.929,8.99033333 20.153,9.499 C20.377,10.0076667 20.692,10.3996667 21.098,10.675 C21.504,10.9503333 21.9776667,11.088 22.519,11.088 C23.079,11.088 23.597,10.955 24.073,10.689 C24.549,10.423 24.9316667,10.0356667 25.221,9.527 C25.5103333,9.01833333 25.655,8.40933333 25.655,7.7 Z M24.087,7.7 C24.087,8.12933333 23.9983333,8.49333333 23.821,8.792 C23.6436667,9.09066667 23.4103333,9.31933333 23.121,9.478 C22.8316667,9.63666667 22.5096667,9.716 22.155,9.716 C21.8563333,9.716 21.567,9.639 21.287,9.485 C21.007,9.331 20.776,9.10466667 20.594,8.806 C20.412,8.50733333 20.321,8.13866667 20.321,7.7 C20.321,7.26133333 20.412,6.89266667 20.594,6.594 C20.776,6.29533333 21.007,6.069 21.287,5.915 C21.567,5.761 21.8563333,5.684 22.155,5.684 C22.5096667,5.684 22.8316667,5.761 23.121,5.915 C23.4103333,6.069 23.6436667,6.29766667 23.821,6.601 C23.9983333,6.90433333 24.087,7.27066667 24.087,7.7 Z" id="Shape"></path>
                    <path d="M26.607,7.7 C26.607,8.35333333 26.7586667,8.93433333 27.062,9.443 C27.3653333,9.95166667 27.7806667,10.3483333 28.308,10.633 C28.8353333,10.9176667 29.4256667,11.06 30.079,11.06 C30.7416667,11.06 31.3343333,10.9176667 31.857,10.633 C32.3796667,10.3483333 32.7926667,9.95166667 33.096,9.443 C33.3993333,8.93433333 33.551,8.35333333 33.551,7.7 C33.551,7.03733333 33.3993333,6.454 33.096,5.95 C32.7926667,5.446 32.3796667,5.05166667 31.857,4.767 C31.3343333,4.48233333 30.7416667,4.34 30.079,4.34 C29.4256667,4.34 28.8353333,4.48233333 28.308,4.767 C27.7806667,5.05166667 27.3653333,5.446 27.062,5.95 C26.7586667,6.454 26.607,7.03733333 26.607,7.7 Z M28.161,7.7 C28.161,7.29866667 28.245,6.944 28.413,6.636 C28.581,6.328 28.8096667,6.09 29.099,5.922 C29.3883333,5.754 29.715,5.67 30.079,5.67 C30.443,5.67 30.7696667,5.754 31.059,5.922 C31.3483333,6.09 31.577,6.328 31.745,6.636 C31.913,6.944 31.997,7.29866667 31.997,7.7 C31.997,8.10133333 31.913,8.45366667 31.745,8.757 C31.577,9.06033333 31.3483333,9.29833333 31.059,9.471 C30.7696667,9.64366667 30.443,9.73 30.079,9.73 C29.715,9.73 29.3883333,9.64366667 29.099,9.471 C28.8096667,9.29833333 28.581,9.06033333 28.413,8.757 C28.245,8.45366667 28.161,8.10133333 28.161,7.7 Z" id="Shape"></path>
                    <polygon id="Path" points="34.027 4.48 37.037 11.368 38.969 7.028 40.999 11.368 44.009 4.48 42.357 4.48 40.845 8.33 38.969 3.99 37.177 8.302 35.679 4.48"></polygon>
                    <path d="M47.775,11.06 C48.5216667,11.06 49.161,10.913 49.693,10.619 C50.225,10.325 50.6636667,9.88866667 51.009,9.31 L49.693,8.792 C49.497,9.13733333 49.245,9.394 48.937,9.562 C48.629,9.73 48.265,9.814 47.845,9.814 C47.453,9.814 47.1216667,9.73 46.851,9.562 C46.5803333,9.394 46.3726667,9.14666667 46.228,8.82 C46.0833333,8.49333333 46.0156667,8.10133333 46.025,7.644 C46.025,7.17733333 46.0973333,6.78533333 46.242,6.468 C46.3866667,6.15066667 46.592,5.908 46.858,5.74 C47.124,5.572 47.4483333,5.488 47.831,5.488 C48.1483333,5.488 48.426,5.558 48.664,5.698 C48.902,5.838 49.0886667,6.034 49.224,6.286 C49.3593333,6.538 49.427,6.83666667 49.427,7.182 C49.427,7.24733333 49.4106667,7.32666667 49.378,7.42 C49.3453333,7.51333333 49.315,7.588 49.287,7.644 L49.749,7 L45.395,7 L45.395,8.05 L51.051,8.05 C51.051,8.01266667 51.0533333,7.952 51.058,7.868 C51.0626667,7.784 51.065,7.70466667 51.065,7.63 C51.065,6.93933333 50.939,6.349 50.687,5.859 C50.435,5.369 50.0686667,4.99333333 49.588,4.732 C49.1073333,4.47066667 48.5263333,4.34 47.845,4.34 C47.1636667,4.34 46.571,4.47766667 46.067,4.753 C45.563,5.02833333 45.1733333,5.418 44.898,5.922 C44.6226667,6.426 44.485,7.01866667 44.485,7.7 C44.485,8.372 44.6203333,8.96 44.891,9.464 C45.1616667,9.968 45.5466667,10.36 46.046,10.64 C46.5453333,10.92 47.1216667,11.06 47.775,11.06 Z" id="Path"></path>
                    <path d="M54.019,4.48 L52.521,4.48 L52.521,10.92 L54.019,10.92 L54.019,4.48 Z M55.937,6.09 L56.679,4.816 C56.5296667,4.63866667 56.3523333,4.51266667 56.147,4.438 C55.9416667,4.36333333 55.7223333,4.326 55.489,4.326 C55.1623333,4.326 54.8473333,4.445 54.544,4.683 C54.2406667,4.921 53.9933333,5.23833333 53.802,5.635 C53.6106667,6.03166667 53.515,6.48666667 53.515,7 L54.019,7.294 C54.019,6.986 54.054,6.71766667 54.124,6.489 C54.194,6.26033333 54.3083333,6.08066667 54.467,5.95 C54.6256667,5.81933333 54.831,5.754 55.083,5.754 C55.2696667,5.754 55.426,5.782 55.552,5.838 C55.678,5.894 55.8063333,5.978 55.937,6.09 Z" id="Shape"></path>
                    <path d="M60.515,11.06 C61.2616667,11.06 61.901,10.913 62.433,10.619 C62.965,10.325 63.4036667,9.88866667 63.749,9.31 L62.433,8.792 C62.237,9.13733333 61.985,9.394 61.677,9.562 C61.369,9.73 61.005,9.814 60.585,9.814 C60.193,9.814 59.8616667,9.73 59.591,9.562 C59.3203333,9.394 59.1126667,9.14666667 58.968,8.82 C58.8233333,8.49333333 58.7556667,8.10133333 58.765,7.644 C58.765,7.17733333 58.8373333,6.78533333 58.982,6.468 C59.1266667,6.15066667 59.332,5.908 59.598,5.74 C59.864,5.572 60.1883333,5.488 60.571,5.488 C60.8883333,5.488 61.166,5.558 61.404,5.698 C61.642,5.838 61.8286667,6.034 61.964,6.286 C62.0993333,6.538 62.167,6.83666667 62.167,7.182 C62.167,7.24733333 62.1506667,7.32666667 62.118,7.42 C62.0853333,7.51333333 62.055,7.588 62.027,7.644 L62.489,7 L58.135,7 L58.135,8.05 L63.791,8.05 C63.791,8.01266667 63.7933333,7.952 63.798,7.868 C63.8026667,7.784 63.805,7.70466667 63.805,7.63 C63.805,6.93933333 63.679,6.349 63.427,5.859 C63.175,5.369 62.8086667,4.99333333 62.328,4.732 C61.8473333,4.47066667 61.2663333,4.34 60.585,4.34 C59.9036667,4.34 59.311,4.47766667 58.807,4.753 C58.303,5.02833333 57.9133333,5.418 57.638,5.922 C57.3626667,6.426 57.225,7.01866667 57.225,7.7 C57.225,8.372 57.3603333,8.96 57.631,9.464 C57.9016667,9.968 58.2866667,10.36 58.786,10.64 C59.2853333,10.92 59.8616667,11.06 60.515,11.06 Z" id="Path"></path>
                    <path d="M70.105,0 L70.105,10.92 L71.631,10.92 L71.631,0 L70.105,0 Z M64.771,7.7 C64.771,8.4 64.9156667,9.002 65.205,9.506 C65.4943333,10.01 65.8793333,10.395 66.36,10.661 C66.8406667,10.927 67.3563333,11.06 67.907,11.06 C68.4483333,11.06 68.922,10.9246667 69.328,10.654 C69.734,10.3833333 70.056,9.996 70.294,9.492 C70.532,8.988 70.651,8.39066667 70.651,7.7 C70.651,7 70.532,6.40033333 70.294,5.901 C70.056,5.40166667 69.734,5.01666667 69.328,4.746 C68.922,4.47533333 68.4483333,4.34 67.907,4.34 C67.3563333,4.34 66.8406667,4.473 66.36,4.739 C65.8793333,5.005 65.4943333,5.38766667 65.205,5.887 C64.9156667,6.38633333 64.771,6.99066667 64.771,7.7 Z M66.339,7.7 C66.339,7.27066667 66.4276667,6.902 66.605,6.594 C66.7823333,6.286 67.018,6.05266667 67.312,5.894 C67.606,5.73533333 67.9256667,5.656 68.271,5.656 C68.5696667,5.656 68.859,5.73533333 69.139,5.894 C69.419,6.05266667 69.65,6.28366667 69.832,6.587 C70.014,6.89033333 70.105,7.26133333 70.105,7.7 C70.105,8.13866667 70.014,8.50966667 69.832,8.813 C69.65,9.11633333 69.419,9.34733333 69.139,9.506 C68.859,9.66466667 68.5696667,9.744 68.271,9.744 C67.9256667,9.744 67.606,9.66466667 67.312,9.506 C67.018,9.34733333 66.7823333,9.114 66.605,8.806 C66.4276667,8.498 66.339,8.12933333 66.339,7.7 Z" id="Shape"></path>
                    <path d="M2.226,28.4 L7.406,28.4 L7.098,27 L2.548,27 L2.226,28.4 Z M4.788,23.892 L6.356,27.532 L6.384,27.938 L7.714,30.92 L9.59,30.92 L4.788,20.574 L0,30.92 L1.862,30.92 L3.22,27.854 L3.248,27.49 L4.788,23.892 Z" id="Shape"></path>
                    <path d="M12.138,28.4 L12.138,24.48 L10.584,24.48 L10.584,28.568 C10.584,29.3333333 10.7776667,29.94 11.165,30.388 C11.5523333,30.836 12.1053333,31.06 12.824,31.06 C13.272,31.06 13.657,30.9643333 13.979,30.773 C14.301,30.5816667 14.5646667,30.2993333 14.77,29.926 L14.77,30.92 L16.282,30.92 L16.282,24.48 L14.77,24.48 L14.77,28.4 C14.77,28.6893333 14.7093333,28.9413333 14.588,29.156 C14.4666667,29.3706667 14.2986667,29.5386667 14.084,29.66 C13.8693333,29.7813333 13.622,29.842 13.342,29.842 C12.9313333,29.842 12.628,29.716 12.432,29.464 C12.236,29.212 12.138,28.8573333 12.138,28.4 Z" id="Path"></path>
                    <path d="M17.318,24.48 L17.318,25.81 L20.972,25.81 L20.972,24.48 L17.318,24.48 Z M18.41,22.24 L18.41,30.92 L19.894,30.92 L19.894,22.24 L18.41,22.24 Z" id="Shape"></path>
                    <path d="M21.518,27.7 C21.518,28.3533333 21.6696667,28.9343333 21.973,29.443 C22.2763333,29.9516667 22.6916667,30.3483333 23.219,30.633 C23.7463333,30.9176667 24.3366667,31.06 24.99,31.06 C25.6526667,31.06 26.2453333,30.9176667 26.768,30.633 C27.2906667,30.3483333 27.7036667,29.9516667 28.007,29.443 C28.3103333,28.9343333 28.462,28.3533333 28.462,27.7 C28.462,27.0373333 28.3103333,26.454 28.007,25.95 C27.7036667,25.446 27.2906667,25.0516667 26.768,24.767 C26.2453333,24.4823333 25.6526667,24.34 24.99,24.34 C24.3366667,24.34 23.7463333,24.4823333 23.219,24.767 C22.6916667,25.0516667 22.2763333,25.446 21.973,25.95 C21.6696667,26.454 21.518,27.0373333 21.518,27.7 Z M23.072,27.7 C23.072,27.2986667 23.156,26.944 23.324,26.636 C23.492,26.328 23.7206667,26.09 24.01,25.922 C24.2993333,25.754 24.626,25.67 24.99,25.67 C25.354,25.67 25.6806667,25.754 25.97,25.922 C26.2593333,26.09 26.488,26.328 26.656,26.636 C26.824,26.944 26.908,27.2986667 26.908,27.7 C26.908,28.1013333 26.824,28.4536667 26.656,28.757 C26.488,29.0603333 26.2593333,29.2983333 25.97,29.471 C25.6806667,29.6436667 25.354,29.73 24.99,29.73 C24.626,29.73 24.2993333,29.6436667 24.01,29.471 C23.7206667,29.2983333 23.492,29.0603333 23.324,28.757 C23.156,28.4536667 23.072,28.1013333 23.072,27.7 Z" id="Shape"></path>
                    <path d="M35.462,26.02 C35.462,25.32 35.6183333,24.711 35.931,24.193 C36.2436667,23.675 36.652,23.2736667 37.156,22.989 C37.66,22.7043333 38.2106667,22.562 38.808,22.562 C39.2746667,22.562 39.697,22.6226667 40.075,22.744 C40.453,22.8653333 40.7913333,23.031 41.09,23.241 C41.3886667,23.451 41.65,23.6866667 41.874,23.948 L41.874,21.988 C41.4726667,21.6426667 41.0316667,21.3813333 40.551,21.204 C40.0703333,21.0266667 39.4706667,20.938 38.752,20.938 C38.0333333,20.938 37.3636667,21.0616667 36.743,21.309 C36.1223333,21.5563333 35.5833333,21.9063333 35.126,22.359 C34.6686667,22.8116667 34.3116667,23.3483333 34.055,23.969 C33.7983333,24.5896667 33.67,25.2733333 33.67,26.02 C33.67,26.7573333 33.7983333,27.4363333 34.055,28.057 C34.3116667,28.6776667 34.6686667,29.2166667 35.126,29.674 C35.5833333,30.1313333 36.1223333,30.4813333 36.743,30.724 C37.3636667,30.9666667 38.0333333,31.088 38.752,31.088 C39.4706667,31.088 40.0703333,30.9993333 40.551,30.822 C41.0316667,30.6446667 41.4726667,30.388 41.874,30.052 L41.874,28.078 C41.65,28.3486667 41.3886667,28.589 41.09,28.799 C40.7913333,29.009 40.453,29.1746667 40.075,29.296 C39.697,29.4173333 39.2746667,29.478 38.808,29.478 C38.2106667,29.478 37.66,29.3333333 37.156,29.044 C36.652,28.7546667 36.2436667,28.351 35.931,27.833 C35.6183333,27.315 35.462,26.7106667 35.462,26.02 Z" id="Path"></path>
                    <path d="M45.276,24.48 L43.778,24.48 L43.778,30.92 L45.276,30.92 L45.276,24.48 Z M47.194,26.09 L47.936,24.816 C47.7866667,24.6386667 47.6093333,24.5126667 47.404,24.438 C47.1986667,24.3633333 46.9793333,24.326 46.746,24.326 C46.4193333,24.326 46.1043333,24.445 45.801,24.683 C45.4976667,24.921 45.2503333,25.2383333 45.059,25.635 C44.8676667,26.0316667 44.772,26.4866667 44.772,27 L45.276,27.294 C45.276,26.986 45.311,26.7176667 45.381,26.489 C45.451,26.2603333 45.5653333,26.0806667 45.724,25.95 C45.8826667,25.8193333 46.088,25.754 46.34,25.754 C46.5266667,25.754 46.683,25.782 46.809,25.838 C46.935,25.894 47.0633333,25.978 47.194,26.09 Z" id="Shape"></path>
                    <path d="M51.772,31.06 C52.5186667,31.06 53.158,30.913 53.69,30.619 C54.222,30.325 54.6606667,29.8886667 55.006,29.31 L53.69,28.792 C53.494,29.1373333 53.242,29.394 52.934,29.562 C52.626,29.73 52.262,29.814 51.842,29.814 C51.45,29.814 51.1186667,29.73 50.848,29.562 C50.5773333,29.394 50.3696667,29.1466667 50.225,28.82 C50.0803333,28.4933333 50.0126667,28.1013333 50.022,27.644 C50.022,27.1773333 50.0943333,26.7853333 50.239,26.468 C50.3836667,26.1506667 50.589,25.908 50.855,25.74 C51.121,25.572 51.4453333,25.488 51.828,25.488 C52.1453333,25.488 52.423,25.558 52.661,25.698 C52.899,25.838 53.0856667,26.034 53.221,26.286 C53.3563333,26.538 53.424,26.8366667 53.424,27.182 C53.424,27.2473333 53.4076667,27.3266667 53.375,27.42 C53.3423333,27.5133333 53.312,27.588 53.284,27.644 L53.746,27 L49.392,27 L49.392,28.05 L55.048,28.05 C55.048,28.0126667 55.0503333,27.952 55.055,27.868 C55.0596667,27.784 55.062,27.7046667 55.062,27.63 C55.062,26.9393333 54.936,26.349 54.684,25.859 C54.432,25.369 54.0656667,24.9933333 53.585,24.732 C53.1043333,24.4706667 52.5233333,24.34 51.842,24.34 C51.1606667,24.34 50.568,24.4776667 50.064,24.753 C49.56,25.0283333 49.1703333,25.418 48.895,25.922 C48.6196667,26.426 48.482,27.0186667 48.482,27.7 C48.482,28.372 48.6173333,28.96 48.888,29.464 C49.1586667,29.968 49.5436667,30.36 50.043,30.64 C50.5423333,30.92 51.1186667,31.06 51.772,31.06 Z" id="Path"></path>
                    <path d="M57.47,28.918 C57.47,28.7126667 57.519,28.54 57.617,28.4 C57.715,28.26 57.862,28.1503333 58.058,28.071 C58.254,27.9916667 58.5106667,27.952 58.828,27.952 C59.192,27.952 59.5373333,27.9986667 59.864,28.092 C60.1906667,28.1853333 60.4986667,28.3346667 60.788,28.54 L60.788,27.77 C60.704,27.6673333 60.5593333,27.553 60.354,27.427 C60.1486667,27.301 59.8896667,27.1913333 59.577,27.098 C59.2643333,27.0046667 58.8933333,26.958 58.464,26.958 C57.6613333,26.958 57.0406667,27.1423333 56.602,27.511 C56.1633333,27.8796667 55.944,28.3766667 55.944,29.002 C55.944,29.4406667 56.0466667,29.814 56.252,30.122 C56.4573333,30.43 56.7326667,30.6633333 57.078,30.822 C57.4233333,30.9806667 57.7966667,31.06 58.198,31.06 C58.5713333,31.06 58.9376667,30.9923333 59.297,30.857 C59.6563333,30.7216667 59.955,30.514 60.193,30.234 C60.431,29.954 60.55,29.6086667 60.55,29.198 L60.326,28.358 C60.326,28.6846667 60.2513333,28.9646667 60.102,29.198 C59.9526667,29.4313333 59.7543333,29.611 59.507,29.737 C59.2596667,29.863 58.982,29.926 58.674,29.926 C58.4406667,29.926 58.233,29.8886667 58.051,29.814 C57.869,29.7393333 57.7266667,29.625 57.624,29.471 C57.5213333,29.317 57.47,29.1326667 57.47,28.918 Z M56.994,26.16 C57.0966667,26.0946667 57.2413333,26.013 57.428,25.915 C57.6146667,25.817 57.841,25.733 58.107,25.663 C58.373,25.593 58.6553333,25.558 58.954,25.558 C59.15,25.558 59.332,25.5766667 59.5,25.614 C59.668,25.6513333 59.815,25.712 59.941,25.796 C60.067,25.88 60.1626667,25.9873333 60.228,26.118 C60.2933333,26.2486667 60.326,26.4166667 60.326,26.622 L60.326,30.92 L61.81,30.92 L61.81,26.328 C61.81,25.8986667 61.6956667,25.5346667 61.467,25.236 C61.2383333,24.9373333 60.9186667,24.711 60.508,24.557 C60.0973333,24.403 59.6306667,24.326 59.108,24.326 C58.5013333,24.326 57.9693333,24.41 57.512,24.578 C57.0546667,24.746 56.6766667,24.9186667 56.378,25.096 L56.994,26.16 Z" id="Shape"></path>
                    <path d="M62.678,24.48 L62.678,25.81 L66.332,25.81 L66.332,24.48 L62.678,24.48 Z M63.77,22.24 L63.77,30.92 L65.254,30.92 L65.254,22.24 L63.77,22.24 Z" id="Shape"></path>
                    <path d="M70.168,31.06 C70.9146667,31.06 71.554,30.913 72.086,30.619 C72.618,30.325 73.0566667,29.8886667 73.402,29.31 L72.086,28.792 C71.89,29.1373333 71.638,29.394 71.33,29.562 C71.022,29.73 70.658,29.814 70.238,29.814 C69.846,29.814 69.5146667,29.73 69.244,29.562 C68.9733333,29.394 68.7656667,29.1466667 68.621,28.82 C68.4763333,28.4933333 68.4086667,28.1013333 68.418,27.644 C68.418,27.1773333 68.4903333,26.7853333 68.635,26.468 C68.7796667,26.1506667 68.985,25.908 69.251,25.74 C69.517,25.572 69.8413333,25.488 70.224,25.488 C70.5413333,25.488 70.819,25.558 71.057,25.698 C71.295,25.838 71.4816667,26.034 71.617,26.286 C71.7523333,26.538 71.82,26.8366667 71.82,27.182 C71.82,27.2473333 71.8036667,27.3266667 71.771,27.42 C71.7383333,27.5133333 71.708,27.588 71.68,27.644 L72.142,27 L67.788,27 L67.788,28.05 L73.444,28.05 C73.444,28.0126667 73.4463333,27.952 73.451,27.868 C73.4556667,27.784 73.458,27.7046667 73.458,27.63 C73.458,26.9393333 73.332,26.349 73.08,25.859 C72.828,25.369 72.4616667,24.9933333 71.981,24.732 C71.5003333,24.4706667 70.9193333,24.34 70.238,24.34 C69.5566667,24.34 68.964,24.4776667 68.46,24.753 C67.956,25.0283333 67.5663333,25.418 67.291,25.922 C67.0156667,26.426 66.878,27.0186667 66.878,27.7 C66.878,28.372 67.0133333,28.96 67.284,29.464 C67.5546667,29.968 67.9396667,30.36 68.439,30.64 C68.9383333,30.92 69.5146667,31.06 70.168,31.06 Z" id="Path"></path>
                </g>
            </g>
            <g id="Group-3" transform="translate(309.599000, 15.000000)" fill="#EFF4EF" fill-rule="nonzero">
                <g id="win-win" transform="translate(12.401000, 0.000000)">
                    <path d="M37.6910711,19.5676992 C37.3435587,18.9357266 36.7408675,18.4825469 36.0374555,18.3243125 C34.8041652,18.0467344 33.5530613,18.7325898 33.1269467,19.919125 C32.4224214,21.8810977 31.061319,23.6599727 29.2521319,25.042 C29.2919154,24.8120703 29.3138113,24.5761289 29.3138113,24.3350664 L29.3138113,23.3484766 C29.3138113,21.0668438 27.4574925,19.2106328 25.1758015,19.2106328 C22.8941104,19.2106328 21.0377175,21.0668438 21.0377175,23.3484766 L21.0377175,24.3350664 C21.0377175,25.3441445 21.401262,26.2696523 22.0037306,26.9885352 L15.9976006,26.9885352 C16.599995,26.2696523 16.9636137,25.3441445 16.9636137,24.3350664 L16.9636137,23.3484766 C16.9636137,21.0668438 15.107295,19.2106328 12.8255297,19.2106328 C10.5437645,19.2106328 8.68751997,21.0668438 8.68751997,23.3484766 L8.68751997,24.3350664 C8.68751997,24.5765742 8.70948999,24.8128867 8.749422,25.0432617 C6.93941847,23.6610859 5.57772223,21.8816914 4.87297428,19.919125 C4.4468597,18.7325898 3.19583003,18.0465859 1.96246546,18.3243125 C1.25905352,18.4825469 0.656362281,18.9357266 0.308849917,19.5676992 C-0.0350255166,20.1931406 -0.0947750794,20.9354023 0.144816956,21.6041875 C1.5264792,25.460668 4.07262703,28.8327969 7.00510588,30.7152813 L7.00510588,37.2578125 C7.00510588,37.6676484 7.33740252,38 7.74733647,38 L30.2517681,38 C30.661702,38 30.9939986,37.6676484 30.9939986,37.2578125 L30.9939986,30.7065977 C33.9320442,28.8163945 36.4779694,25.4485703 37.8553267,21.6041875 C38.0947703,20.9354023 38.0349465,20.1931406 37.6910711,19.5676992 L37.6910711,19.5676992 Z M22.5221044,23.3485508 C22.5221044,21.8854023 23.7124939,20.695082 25.1757272,20.695082 C26.6388864,20.695082 27.8292758,21.8854023 27.8292758,23.3485508 L27.8292758,24.3351406 C27.8292758,25.7982891 26.6388864,26.9886094 25.1757272,26.9886094 C23.7124939,26.9886094 22.5221044,25.7982891 22.5221044,24.3351406 L22.5221044,23.3485508 Z M10.1718327,23.3485508 C10.1718327,21.8854023 11.3622221,20.695082 12.8253813,20.695082 C14.2886147,20.695082 15.4790041,21.8854023 15.4790041,23.3485508 L15.4790041,24.3351406 C15.4790041,25.7982891 14.2886147,26.9886094 12.8253813,26.9886094 C11.3622221,26.9886094 10.1718327,25.7982891 10.1718327,24.3351406 L10.1718327,23.3485508 Z M15.6117892,36.515625 L8.48941862,36.515625 L8.48941862,30.3015117 C8.48941862,30.0395195 8.35128951,29.7969727 8.12602252,29.6632305 C5.32907498,28.0034766 2.86776411,24.8035352 1.54214027,21.1035078 C1.44446272,20.8309023 1.46836255,20.5394453 1.60946059,20.2828711 C1.75211731,20.0234023 1.99950276,19.8373359 2.28808202,19.7723945 C2.79190814,19.6595078 3.3022659,19.9378281 3.47565096,20.4207695 C4.61185756,23.5847891 7.44472906,26.3800898 10.8668574,27.9789844 C11.4474302,28.2898125 12.1221178,28.4728359 12.8253813,28.4728359 L18.1318847,28.4728359 C16.596358,29.7076875 15.6117149,31.6008594 15.6117149,33.7199531 L15.6117149,36.515625 L15.6117892,36.515625 Z M36.4576323,21.103582 C35.1344578,24.7966328 32.6677286,27.9965 29.8590538,29.6633047 C29.5876943,29.8243594 29.4495652,30.1378594 29.5093148,30.4435664 L29.5093148,36.515625 L20.8336041,36.515625 L20.8336041,33.2196445 C20.8336041,32.8098086 20.5013074,32.477457 20.0913735,32.477457 C19.6814395,32.477457 19.3491429,32.8098086 19.3491429,33.2196445 L19.3491429,36.515625 L17.0961761,36.515625 L17.0961761,33.7201016 C17.0961761,30.826832 19.4501605,28.4729844 22.343598,28.4729844 L25.175653,28.4729844 C25.8778774,28.4729844 26.6611533,28.25775 27.2428395,27.947293 C30.6649678,26.3483984 33.3877665,23.5849375 34.5239731,20.420918 C34.6973582,19.9379766 35.2080128,19.6595078 35.7115421,19.772543 C36.0001955,19.8374844 36.247581,20.0235508 36.3902377,20.2830195 C36.53141,20.5395195 36.5553098,20.8309766 36.4576323,21.103582 L36.4576323,21.103582 Z" id="Shape" stroke="#EFF4EF" stroke-width="0.5616"></path>
                    <path d="M18.9998492,0 C19.6896856,0 20.3090769,0.377983069 20.6246542,0.988808342 L20.6401788,1.01954297 L22.2806568,4.34328125 L25.9488346,4.87624609 C26.6429687,4.97718359 27.2087711,5.4541875 27.4254282,6.12119141 C27.6385473,6.77707858 27.4706418,7.48262742 26.9874154,7.97143874 L26.9625732,7.99610547 L24.3082081,10.5832227 L24.9347992,14.236418 C25.0534076,14.9276914 24.7745516,15.6131758 24.2071163,16.0253867 C23.6493715,16.430684 22.9265798,16.4889797 22.3124712,16.1808839 L22.2808053,16.1646211 L18.9998492,14.4398516 L15.718893,16.1646953 C15.4489438,16.3066016 15.1567276,16.3767383 14.8659959,16.3767383 C14.4883489,16.3767383 14.1132256,16.2584336 13.792582,16.0254609 C13.2344489,15.6200076 12.955511,14.9500953 13.0593859,14.2704799 L13.0648991,14.2364922 L13.6914902,10.5832969 L11.0371251,7.99610547 C10.5349319,7.50655859 10.3575388,6.78812109 10.5742701,6.12119141 C10.7875058,5.46494563 11.338643,4.99262024 12.0173812,4.88149357 L12.0508637,4.87632031 L15.7191157,4.34328125 L17.3595938,1.01954297 C17.6699946,0.3906875 18.2985155,0 18.9998492,0 Z M18.9998492,1.65217391 C18.9325526,1.65217391 18.8810167,1.68121977 18.8483416,1.73734739 L18.8411373,1.75077977 L16.8162397,5.85338253 L12.2884677,6.51131969 C12.2167294,6.52174496 12.1679633,6.562858 12.1455582,6.631811 C12.1248095,6.69565941 12.1364972,6.75356463 12.1797744,6.80196764 L12.1903218,6.81296726 L15.4667288,10.0064587 L14.6932725,14.5159179 C14.681042,14.587192 14.7050498,14.646214 14.7637366,14.6888468 C14.7976815,14.7135104 14.8317801,14.7245644 14.8659959,14.7245644 C14.888411,14.7245644 14.9115318,14.7197875 14.9355606,14.7092879 L14.9500885,14.7022938 L18.9998326,12.5732876 L23.0494283,14.7021242 C23.113743,14.7359251 23.1774007,14.7313272 23.2360776,14.6886884 C23.290488,14.6491622 23.3150575,14.5954923 23.3084765,14.530833 L23.3064043,14.515718 L22.532967,10.0063695 L25.8093883,6.81295577 C25.8612624,6.76239546 25.8765062,6.70064416 25.854072,6.63160144 C25.8333156,6.56770033 25.7897907,6.52769005 25.7262861,6.51395455 L25.7112778,6.51125232 L21.1835407,5.85339854 L19.1587236,1.75095886 C19.126601,1.68589568 19.0723477,1.65217391 18.9998492,1.65217391 Z" id="Path"></path>
                </g>
                <g id="4-out-of-5-Winners" transform="translate(0.000000, 46.898000)">
                    <polygon id="Path" points="0 9.226 8.064 9.226 8.064 7.798 6.062 7.798 5.824 7.91 2.422 7.91 4.942 4.256 4.942 8.484 4.83 8.638 4.83 11.102 6.524 11.102 6.524 1.302 5.53 1.302"></polygon>
                    <path d="M13.23,7.882 C13.23,8.53533333 13.3816667,9.11633333 13.685,9.625 C13.9883333,10.1336667 14.4036667,10.5303333 14.931,10.815 C15.4583333,11.0996667 16.0486667,11.242 16.702,11.242 C17.3646667,11.242 17.9573333,11.0996667 18.48,10.815 C19.0026667,10.5303333 19.4156667,10.1336667 19.719,9.625 C20.0223333,9.11633333 20.174,8.53533333 20.174,7.882 C20.174,7.21933333 20.0223333,6.636 19.719,6.132 C19.4156667,5.628 19.0026667,5.23366667 18.48,4.949 C17.9573333,4.66433333 17.3646667,4.522 16.702,4.522 C16.0486667,4.522 15.4583333,4.66433333 14.931,4.949 C14.4036667,5.23366667 13.9883333,5.628 13.685,6.132 C13.3816667,6.636 13.23,7.21933333 13.23,7.882 Z M14.784,7.882 C14.784,7.48066667 14.868,7.126 15.036,6.818 C15.204,6.51 15.4326667,6.272 15.722,6.104 C16.0113333,5.936 16.338,5.852 16.702,5.852 C17.066,5.852 17.3926667,5.936 17.682,6.104 C17.9713333,6.272 18.2,6.51 18.368,6.818 C18.536,7.126 18.62,7.48066667 18.62,7.882 C18.62,8.28333333 18.536,8.63566667 18.368,8.939 C18.2,9.24233333 17.9713333,9.48033333 17.682,9.653 C17.3926667,9.82566667 17.066,9.912 16.702,9.912 C16.338,9.912 16.0113333,9.82566667 15.722,9.653 C15.4326667,9.48033333 15.204,9.24233333 15.036,8.939 C14.868,8.63566667 14.784,8.28333333 14.784,7.882 Z" id="Shape"></path>
                    <path d="M23.17,8.582 L23.17,4.662 L21.616,4.662 L21.616,8.75 C21.616,9.51533333 21.8096667,10.122 22.197,10.57 C22.5843333,11.018 23.1373333,11.242 23.856,11.242 C24.304,11.242 24.689,11.1463333 25.011,10.955 C25.333,10.7636667 25.5966667,10.4813333 25.802,10.108 L25.802,11.102 L27.314,11.102 L27.314,4.662 L25.802,4.662 L25.802,8.582 C25.802,8.87133333 25.7413333,9.12333333 25.62,9.338 C25.4986667,9.55266667 25.3306667,9.72066667 25.116,9.842 C24.9013333,9.96333333 24.654,10.024 24.374,10.024 C23.9633333,10.024 23.66,9.898 23.464,9.646 C23.268,9.394 23.17,9.03933333 23.17,8.582 Z" id="Path"></path>
                    <path d="M28.35,4.662 L28.35,5.992 L32.004,5.992 L32.004,4.662 L28.35,4.662 Z M29.442,2.422 L29.442,11.102 L30.926,11.102 L30.926,2.422 L29.442,2.422 Z" id="Shape"></path>
                    <path d="M36.75,7.882 C36.75,8.53533333 36.9016667,9.11633333 37.205,9.625 C37.5083333,10.1336667 37.9236667,10.5303333 38.451,10.815 C38.9783333,11.0996667 39.5686667,11.242 40.222,11.242 C40.8846667,11.242 41.4773333,11.0996667 42,10.815 C42.5226667,10.5303333 42.9356667,10.1336667 43.239,9.625 C43.5423333,9.11633333 43.694,8.53533333 43.694,7.882 C43.694,7.21933333 43.5423333,6.636 43.239,6.132 C42.9356667,5.628 42.5226667,5.23366667 42,4.949 C41.4773333,4.66433333 40.8846667,4.522 40.222,4.522 C39.5686667,4.522 38.9783333,4.66433333 38.451,4.949 C37.9236667,5.23366667 37.5083333,5.628 37.205,6.132 C36.9016667,6.636 36.75,7.21933333 36.75,7.882 Z M38.304,7.882 C38.304,7.48066667 38.388,7.126 38.556,6.818 C38.724,6.51 38.9526667,6.272 39.242,6.104 C39.5313333,5.936 39.858,5.852 40.222,5.852 C40.586,5.852 40.9126667,5.936 41.202,6.104 C41.4913333,6.272 41.72,6.51 41.888,6.818 C42.056,7.126 42.14,7.48066667 42.14,7.882 C42.14,8.28333333 42.056,8.63566667 41.888,8.939 C41.72,9.24233333 41.4913333,9.48033333 41.202,9.653 C40.9126667,9.82566667 40.586,9.912 40.222,9.912 C39.858,9.912 39.5313333,9.82566667 39.242,9.653 C38.9526667,9.48033333 38.724,9.24233333 38.556,8.939 C38.388,8.63566667 38.304,8.28333333 38.304,7.882 Z" id="Shape"></path>
                    <path d="M44.604,4.662 L44.604,5.992 L48.3,5.992 L48.3,4.662 L44.604,4.662 Z M48.146,1.806 L48.846,0.63 C48.7713333,0.536666667 48.6686667,0.441 48.538,0.343 C48.4073333,0.245 48.2486667,0.163333333 48.062,0.098 C47.8753333,0.0326666667 47.656,0 47.404,0 C46.9466667,0 46.564,0.0886666667 46.256,0.266 C45.948,0.443333333 45.7123333,0.697666667 45.549,1.029 C45.3856667,1.36033333 45.304,1.778 45.304,2.282 L45.304,11.102 L46.802,11.102 L46.802,2.576 C46.802,2.30533333 46.83,2.086 46.886,1.918 C46.942,1.75 47.019,1.62866667 47.117,1.554 C47.215,1.47933333 47.334,1.442 47.474,1.442 C47.586,1.442 47.7026667,1.46533333 47.824,1.512 C47.9453333,1.55866667 48.0526667,1.65666667 48.146,1.806 Z" id="Shape"></path>
                    <path d="M60.494,7.91 C60.494,7.24733333 60.361,6.67333333 60.095,6.188 C59.829,5.70266667 59.472,5.32466667 59.024,5.054 C58.576,4.78333333 58.0813333,4.648 57.54,4.648 C57.2693333,4.648 57.0033333,4.676 56.742,4.732 C56.4806667,4.788 56.2286667,4.87666667 55.986,4.998 L56.602,2.758 L60.396,2.758 L60.396,1.302 L55.356,1.302 L54.026,6.692 C54.362,6.48666667 54.6723333,6.328 54.957,6.216 C55.2416667,6.104 55.5216667,6.027 55.797,5.985 C56.0723333,5.943 56.3546667,5.922 56.644,5.922 C57.0173333,5.922 57.3626667,5.99666667 57.68,6.146 C57.9973333,6.29533333 58.2493333,6.51 58.436,6.79 C58.6226667,7.07 58.716,7.41066667 58.716,7.812 C58.716,8.204 58.6343333,8.54233333 58.471,8.827 C58.3076667,9.11166667 58.072,9.331 57.764,9.485 C57.456,9.639 57.0826667,9.716 56.644,9.716 C56.336,9.716 56.0256667,9.653 55.713,9.527 C55.4003333,9.401 55.1133333,9.233 54.852,9.023 C54.5906667,8.813 54.362,8.57733333 54.166,8.316 L53.186,9.52 C53.438,9.828 53.732,10.115 54.068,10.381 C54.404,10.647 54.803,10.8593333 55.265,11.018 C55.727,11.1766667 56.2566667,11.256 56.854,11.256 C57.33,11.256 57.7826667,11.1883333 58.212,11.053 C58.6413333,10.9176667 59.0286667,10.7123333 59.374,10.437 C59.7193333,10.1616667 59.9923333,9.814 60.193,9.394 C60.3936667,8.974 60.494,8.47933333 60.494,7.91 Z" id="Path"></path>
                    <polygon id="Path" points="14.392 27.854 11.564 20.812 8.792 27.854 6.454 21.302 4.536 21.302 8.54 31.62 11.564 24.69 14.588 31.62 18.606 21.302 16.674 21.302"></polygon>
                    <path d="M19.614,22.1 C19.614,22.352 19.7096667,22.569 19.901,22.751 C20.0923333,22.933 20.314,23.024 20.566,23.024 C20.8366667,23.024 21.0653333,22.933 21.252,22.751 C21.4386667,22.569 21.532,22.352 21.532,22.1 C21.532,21.8386667 21.4386667,21.6193333 21.252,21.442 C21.0653333,21.2646667 20.8366667,21.176 20.566,21.176 C20.314,21.176 20.0923333,21.2646667 19.901,21.442 C19.7096667,21.6193333 19.614,21.8386667 19.614,22.1 Z M19.824,24.662 L19.824,31.102 L21.322,31.102 L21.322,24.662 L19.824,24.662 Z" id="Shape"></path>
                    <path d="M27.552,27.182 L27.552,31.102 L29.106,31.102 L29.106,27 C29.106,26.2346667 28.9146667,25.6303333 28.532,25.187 C28.1493333,24.7436667 27.594,24.522 26.866,24.522 C26.4273333,24.522 26.047,24.6153333 25.725,24.802 C25.403,24.9886667 25.1393333,25.2733333 24.934,25.656 L24.934,24.662 L23.408,24.662 L23.408,31.102 L24.934,31.102 L24.934,27.182 C24.934,26.8926667 24.9923333,26.6383333 25.109,26.419 C25.2256667,26.1996667 25.3913333,26.0316667 25.606,25.915 C25.8206667,25.7983333 26.0726667,25.74 26.362,25.74 C26.7633333,25.74 27.062,25.8613333 27.258,26.104 C27.454,26.3466667 27.552,26.706 27.552,27.182 Z" id="Path"></path>
                    <path d="M35.182,27.182 L35.182,31.102 L36.736,31.102 L36.736,27 C36.736,26.2346667 36.5446667,25.6303333 36.162,25.187 C35.7793333,24.7436667 35.224,24.522 34.496,24.522 C34.0573333,24.522 33.677,24.6153333 33.355,24.802 C33.033,24.9886667 32.7693333,25.2733333 32.564,25.656 L32.564,24.662 L31.038,24.662 L31.038,31.102 L32.564,31.102 L32.564,27.182 C32.564,26.8926667 32.6223333,26.6383333 32.739,26.419 C32.8556667,26.1996667 33.0213333,26.0316667 33.236,25.915 C33.4506667,25.7983333 33.7026667,25.74 33.992,25.74 C34.3933333,25.74 34.692,25.8613333 34.888,26.104 C35.084,26.3466667 35.182,26.706 35.182,27.182 Z" id="Path"></path>
                    <path d="M41.468,31.242 C42.2146667,31.242 42.854,31.095 43.386,30.801 C43.918,30.507 44.3566667,30.0706667 44.702,29.492 L43.386,28.974 C43.19,29.3193333 42.938,29.576 42.63,29.744 C42.322,29.912 41.958,29.996 41.538,29.996 C41.146,29.996 40.8146667,29.912 40.544,29.744 C40.2733333,29.576 40.0656667,29.3286667 39.921,29.002 C39.7763333,28.6753333 39.7086667,28.2833333 39.718,27.826 C39.718,27.3593333 39.7903333,26.9673333 39.935,26.65 C40.0796667,26.3326667 40.285,26.09 40.551,25.922 C40.817,25.754 41.1413333,25.67 41.524,25.67 C41.8413333,25.67 42.119,25.74 42.357,25.88 C42.595,26.02 42.7816667,26.216 42.917,26.468 C43.0523333,26.72 43.12,27.0186667 43.12,27.364 C43.12,27.4293333 43.1036667,27.5086667 43.071,27.602 C43.0383333,27.6953333 43.008,27.77 42.98,27.826 L43.442,27.182 L39.088,27.182 L39.088,28.232 L44.744,28.232 C44.744,28.1946667 44.7463333,28.134 44.751,28.05 C44.7556667,27.966 44.758,27.8866667 44.758,27.812 C44.758,27.1213333 44.632,26.531 44.38,26.041 C44.128,25.551 43.7616667,25.1753333 43.281,24.914 C42.8003333,24.6526667 42.2193333,24.522 41.538,24.522 C40.8566667,24.522 40.264,24.6596667 39.76,24.935 C39.256,25.2103333 38.8663333,25.6 38.591,26.104 C38.3156667,26.608 38.178,27.2006667 38.178,27.882 C38.178,28.554 38.3133333,29.142 38.584,29.646 C38.8546667,30.15 39.2396667,30.542 39.739,30.822 C40.2383333,31.102 40.8146667,31.242 41.468,31.242 Z" id="Path"></path>
                    <path d="M47.712,24.662 L46.214,24.662 L46.214,31.102 L47.712,31.102 L47.712,24.662 Z M49.63,26.272 L50.372,24.998 C50.2226667,24.8206667 50.0453333,24.6946667 49.84,24.62 C49.6346667,24.5453333 49.4153333,24.508 49.182,24.508 C48.8553333,24.508 48.5403333,24.627 48.237,24.865 C47.9336667,25.103 47.6863333,25.4203333 47.495,25.817 C47.3036667,26.2136667 47.208,26.6686667 47.208,27.182 L47.712,27.476 C47.712,27.168 47.747,26.8996667 47.817,26.671 C47.887,26.4423333 48.0013333,26.2626667 48.16,26.132 C48.3186667,26.0013333 48.524,25.936 48.776,25.936 C48.9626667,25.936 49.119,25.964 49.245,26.02 C49.371,26.076 49.4993333,26.16 49.63,26.272 Z" id="Shape"></path>
                    <path d="M51.702,28.974 L50.82,29.87 C51.0066667,30.1126667 51.24,30.3436667 51.52,30.563 C51.8,30.7823333 52.122,30.9596667 52.486,31.095 C52.85,31.2303333 53.256,31.298 53.704,31.298 C54.404,31.298 54.9616667,31.1136667 55.377,30.745 C55.7923333,30.3763333 56,29.8886667 56,29.282 C56,28.89 55.9113333,28.5726667 55.734,28.33 C55.5566667,28.0873333 55.3186667,27.882 55.02,27.714 C54.7213333,27.546 54.39,27.392 54.026,27.252 C53.7646667,27.1493333 53.529,27.0513333 53.319,26.958 C53.109,26.8646667 52.941,26.7596667 52.815,26.643 C52.689,26.5263333 52.626,26.3933333 52.626,26.244 C52.626,26.0666667 52.696,25.9313333 52.836,25.838 C52.976,25.7446667 53.158,25.698 53.382,25.698 C53.6993333,25.698 54.0073333,25.7773333 54.306,25.936 C54.6046667,26.0946667 54.8566667,26.3 55.062,26.552 L55.902,25.656 C55.7246667,25.4413333 55.51,25.25 55.258,25.082 C55.006,24.914 54.7236667,24.7786667 54.411,24.676 C54.0983333,24.5733333 53.7646667,24.522 53.41,24.522 C53.018,24.522 52.6516667,24.585 52.311,24.711 C51.9703333,24.837 51.6996667,25.0306667 51.499,25.292 C51.2983333,25.5533333 51.198,25.88 51.198,26.272 C51.198,26.6546667 51.289,26.972 51.471,27.224 C51.653,27.476 51.8863333,27.679 52.171,27.833 C52.4556667,27.987 52.7426667,28.12 53.032,28.232 C53.3213333,28.3346667 53.5733333,28.435 53.788,28.533 C54.0026667,28.631 54.1706667,28.7476667 54.292,28.883 C54.4133333,29.0183333 54.474,29.1793333 54.474,29.366 C54.474,29.5806667 54.397,29.7486667 54.243,29.87 C54.089,29.9913333 53.8766667,30.052 53.606,30.052 C53.3913333,30.052 53.1766667,30.01 52.962,29.926 C52.7473333,29.842 52.5373333,29.7206667 52.332,29.562 C52.1266667,29.4033333 51.9166667,29.2073333 51.702,28.974 Z" id="Path"></path>
                </g>
            </g>
            <g id="Group-4" transform="translate(167.510000, 17.000000)" fill="#EFF4EF" fill-rule="nonzero">
                <g id="Group-2" transform="translate(21.490000, 0.000000)">
                    <g id="Group" transform="translate(9.250000, 12.423077)">
                        <path d="M0.438120703,9.80769231 L0.438120703,8.23243446 L3.56149733,5.05452299 C3.95721925,4.63445423 4.24223326,4.26689407 4.41653934,3.9518425 C4.59084543,3.63679093 4.67799847,3.31945638 4.67799847,2.99983885 C4.67799847,2.17796519 4.15508021,1.76702836 3.1092437,1.76702836 C2.70409982,1.76702836 2.29895595,1.84236678 1.89381207,1.99304362 C1.48866819,2.14372046 1.09294627,2.37430168 0.706646295,2.68478728 L0,1.12322733 C0.414565826,0.776214009 0.925706646,0.502256124 1.53342246,0.301353674 C2.14113827,0.100451225 2.7653425,0 3.40603514,0 C4.51782531,0 5.36815635,0.23971315 5.95702827,0.71913945 C6.54590018,1.19856575 6.84033613,1.88117748 6.84033613,2.76697465 C6.84033613,3.35141813 6.70136236,3.91074882 6.42341482,4.4449667 C6.14546728,4.97918457 5.69085816,5.55677911 5.05958747,6.17775032 L3.13750955,8.06805973 L7.20779221,8.06805973 L7.20779221,9.80769231 L0.438120703,9.80769231 Z" id="Path"></path>
                        <path d="M12.0977846,9.80769231 C11.438248,9.80769231 10.7951999,9.70952407 10.1686402,9.51318758 C9.54208047,9.3168511 9.03565062,9.05887409 8.64935065,8.73925655 L9.34186402,7.13660292 C10.1898396,7.73931027 11.0943468,8.04066394 12.0553858,8.04066394 C12.592437,8.04066394 13.0093583,7.91281693 13.3061497,7.65712291 C13.6029412,7.40142888 13.7513369,7.05898152 13.7513369,6.62978083 C13.7513369,6.19144822 13.6076522,5.83986893 13.3202827,5.57504297 C13.0329132,5.31021702 12.6442577,5.17780404 12.1543163,5.17780404 C11.44767,5.17780404 10.8446651,5.43806403 10.3453018,5.95858401 L8.93200917,5.95858401 L8.93200917,0 L15.2352941,0 L15.2352941,1.73963257 L11.0378151,1.73963257 L11.0378151,3.90389987 C11.4994907,3.61167813 12.0553858,3.46556725 12.7055004,3.46556725 C13.3367711,3.46556725 13.8879552,3.59569725 14.3590527,3.85595724 C14.8301502,4.11621723 15.1976063,4.47921143 15.4614209,4.94493984 C15.7252355,5.41066824 15.8571429,5.94945208 15.8571429,6.56129136 C15.8571429,7.20965836 15.7063916,7.77583799 15.4048892,8.25983025 C15.1033868,8.74382252 14.6699771,9.12279759 14.10466,9.39675548 C13.539343,9.67071336 12.8703845,9.80769231 12.0977846,9.80769231 Z" id="Path"></path>
                    </g>
                    <path d="M26.5299594,10.6450669 L25.1806544,9.85912278 L30.8839022,0.0968695843 L32.2192968,0.882813698 L26.5299594,10.6450669 Z M25.125013,6.30169153 C24.3182121,6.30169153 23.6922458,6.03281592 23.2471143,5.49506468 C22.8019828,4.95731344 22.579417,4.23341755 22.579417,3.323377 C22.579417,2.41333645 22.8043011,1.69173863 23.2540695,1.15858356 C23.7038378,0.625428491 24.3274856,0.358850955 25.125013,0.358850955 C25.9225403,0.358850955 26.5461881,0.627726573 26.9959565,1.16547781 C27.4457248,1.70322904 27.6706089,2.42252877 27.6706089,3.323377 C27.6706089,4.23341755 27.4457248,4.95731344 26.9959565,5.49506468 C26.5461881,6.03281592 25.9225403,6.30169153 25.125013,6.30169153 Z M25.125013,4.97799618 C25.3939466,4.97799618 25.6049204,4.8470055 25.7579344,4.58502413 C25.9109483,4.32304276 25.9874553,3.90249371 25.9874553,3.323377 C25.9874553,2.74426028 25.9109483,2.3283074 25.7579344,2.07551836 C25.6049204,1.82272932 25.3939466,1.6963348 25.125013,1.6963348 C24.8468058,1.6963348 24.6335136,1.82043124 24.4851364,2.06862411 C24.3367592,2.31681699 24.2625706,2.73506795 24.2625706,3.323377 C24.2625706,3.92087837 24.3367592,4.34602358 24.4851364,4.59881262 C24.6335136,4.85160166 24.8468058,4.97799618 25.125013,4.97799618 Z M32.2888486,10.3830855 C31.4820477,10.3830855 30.8560815,10.1142099 30.41095,9.57645867 C29.9658184,9.03870744 29.7432527,8.31021538 29.7432527,7.3909825 C29.7432527,6.48094194 29.9681368,5.76164222 30.4179051,5.23308331 C30.8676735,4.7045244 31.4913213,4.44024495 32.2888486,4.44024495 C33.086376,4.44024495 33.7100238,4.70682248 34.1597921,5.23997755 C34.6095604,5.77313263 34.8344446,6.49013427 34.8344446,7.3909825 C34.8344446,8.31021538 34.6118788,9.03870744 34.1667473,9.57645867 C33.7216158,10.1142099 33.0956495,10.3830855 32.2888486,10.3830855 Z M32.2888486,9.04560168 C32.5670558,9.04560168 32.780348,8.91690908 32.9287252,8.65952387 C33.0771024,8.40213867 33.151291,7.97929154 33.151291,7.3909825 C33.151291,6.82105811 33.074784,6.40740331 32.92177,6.15001811 C32.7687561,5.8926329 32.5577823,5.7639403 32.2888486,5.7639403 C32.0106414,5.7639403 31.7973492,5.88803674 31.648972,6.13622961 C31.5005949,6.38442249 31.4264063,6.80267345 31.4264063,7.3909825 C31.4264063,7.98848387 31.5005949,8.41362908 31.648972,8.66641812 C31.7973492,8.91920716 32.0106414,9.04560168 32.2888486,9.04560168 Z" id="Shape"></path>
                    <path d="M33.969661,14.7677692 C33.452987,14.2564615 32.6178516,14.2564615 32.1011777,14.7677692 L29.4583441,17.3831538 C28.9416702,17.8944615 28.9416702,18.7209231 29.4583441,19.2322308 C29.9750181,19.7435385 30.8101535,19.7435385 31.3268274,19.2322308 L31.5554325,19.006 C30.56437,25.9890769 24.5043526,31.3846154 17.178418,31.3846154 C9.16402532,31.3846154 2.64283355,24.9311538 2.64283355,17 C2.64283355,9.06884615 9.16402532,2.61538462 17.178418,2.61538462 C17.9091615,2.61538462 18.4998348,2.02953846 18.4998348,1.30769231 C18.4998348,0.585846154 17.9091615,0 17.178418,0 C7.70650262,0 0,7.62646154 0,17 C0,26.3735385 7.70650262,34 17.178418,34 C26.0504103,34 33.3723806,27.3085385 34.2643369,18.7575385 L34.7440112,19.2322308 C35.0016875,19.4872308 35.3399702,19.6153846 35.6782529,19.6153846 C36.0165356,19.6153846 36.3548183,19.4872308 36.6124945,19.2322308 C37.1291685,18.7209231 37.1291685,17.8944615 36.6124945,17.3831538 L33.969661,14.7677692 Z" id="Path"></path>
                </g>
                <g id="25%-Returns-Guarante" transform="translate(0.000000, 46.004000)">
                    <path d="M0,9.996 L7.476,9.996 L7.476,8.456 L3.234,8.456 L6.006,5.726 C6.40733333,5.35266667 6.734,4.928 6.986,4.452 C7.238,3.976 7.364,3.48133333 7.364,2.968 C7.364,2.64133333 7.294,2.30533333 7.154,1.96 C7.014,1.61466667 6.80633333,1.29733333 6.531,1.008 C6.25566667,0.718666667 5.908,0.483 5.488,0.301 C5.068,0.119 4.57333333,0.028 4.004,0.028 C3.26666667,0.028 2.63666667,0.184333333 2.114,0.497 C1.59133333,0.809666667 1.197,1.239 0.931,1.785 C0.665,2.331 0.532,2.954 0.532,3.654 L2.17,3.654 C2.17,3.22466667 2.24233333,2.84666667 2.387,2.52 C2.53166667,2.19333333 2.73933333,1.94366667 3.01,1.771 C3.28066667,1.59833333 3.60266667,1.512 3.976,1.512 C4.24666667,1.512 4.48466667,1.55633333 4.69,1.645 C4.89533333,1.73366667 5.07033333,1.85266667 5.215,2.002 C5.35966667,2.15133333 5.467,2.317 5.537,2.499 C5.607,2.681 5.642,2.86533333 5.642,3.052 C5.642,3.31333333 5.6,3.56066667 5.516,3.794 C5.432,4.02733333 5.306,4.26066667 5.138,4.494 C4.97,4.72733333 4.76933333,4.97 4.536,5.222 L0,9.996 Z" id="Path"></path>
                    <path d="M15.974,6.804 C15.974,6.14133333 15.841,5.56733333 15.575,5.082 C15.309,4.59666667 14.952,4.21866667 14.504,3.948 C14.056,3.67733333 13.5613333,3.542 13.02,3.542 C12.7493333,3.542 12.4833333,3.57 12.222,3.626 C11.9606667,3.682 11.7086667,3.77066667 11.466,3.892 L12.082,1.652 L15.876,1.652 L15.876,0.196 L10.836,0.196 L9.506,5.586 C9.842,5.38066667 10.1523333,5.222 10.437,5.11 C10.7216667,4.998 11.0016667,4.921 11.277,4.879 C11.5523333,4.837 11.8346667,4.816 12.124,4.816 C12.4973333,4.816 12.8426667,4.89066667 13.16,5.04 C13.4773333,5.18933333 13.7293333,5.404 13.916,5.684 C14.1026667,5.964 14.196,6.30466667 14.196,6.706 C14.196,7.098 14.1143333,7.43633333 13.951,7.721 C13.7876667,8.00566667 13.552,8.225 13.244,8.379 C12.936,8.533 12.5626667,8.61 12.124,8.61 C11.816,8.61 11.5056667,8.547 11.193,8.421 C10.8803333,8.295 10.5933333,8.127 10.332,7.917 C10.0706667,7.707 9.842,7.47133333 9.646,7.21 L8.666,8.414 C8.918,8.722 9.212,9.009 9.548,9.275 C9.884,9.541 10.283,9.75333333 10.745,9.912 C11.207,10.0706667 11.7366667,10.15 12.334,10.15 C12.81,10.15 13.2626667,10.0823333 13.692,9.947 C14.1213333,9.81166667 14.5086667,9.60633333 14.854,9.331 C15.1993333,9.05566667 15.4723333,8.708 15.673,8.288 C15.8736667,7.868 15.974,7.37333333 15.974,6.804 Z" id="Path"></path>
                    <path d="M16.954,2.38 C16.954,2.81866667 17.0543333,3.21766667 17.255,3.577 C17.4556667,3.93633333 17.738,4.22333333 18.102,4.438 C18.466,4.65266667 18.8766667,4.76 19.334,4.76 C19.81,4.76 20.2276667,4.65266667 20.587,4.438 C20.9463333,4.22333333 21.2263333,3.93633333 21.427,3.577 C21.6276667,3.21766667 21.728,2.81866667 21.728,2.38 C21.728,1.94133333 21.6276667,1.54233333 21.427,1.183 C21.2263333,0.823666667 20.9463333,0.536666667 20.587,0.322 C20.2276667,0.107333333 19.81,0 19.334,0 C18.8766667,0 18.466,0.107333333 18.102,0.322 C17.738,0.536666667 17.4556667,0.823666667 17.255,1.183 C17.0543333,1.54233333 16.954,1.94133333 16.954,2.38 Z M18.256,2.38 C18.256,2.16533333 18.3003333,1.96933333 18.389,1.792 C18.4776667,1.61466667 18.6036667,1.47466667 18.767,1.372 C18.9303333,1.26933333 19.1193333,1.218 19.334,1.218 C19.5673333,1.218 19.7633333,1.26933333 19.922,1.372 C20.0806667,1.47466667 20.2066667,1.61466667 20.3,1.792 C20.3933333,1.96933333 20.44,2.16533333 20.44,2.38 C20.44,2.58533333 20.3933333,2.779 20.3,2.961 C20.2066667,3.143 20.0806667,3.28766667 19.922,3.395 C19.7633333,3.50233333 19.5673333,3.556 19.334,3.556 C19.1193333,3.556 18.9303333,3.50233333 18.767,3.395 C18.6036667,3.28766667 18.4776667,3.143 18.389,2.961 C18.3003333,2.779 18.256,2.58533333 18.256,2.38 Z M22.806,7.798 C22.806,8.23666667 22.9063333,8.638 23.107,9.002 C23.3076667,9.366 23.59,9.653 23.954,9.863 C24.318,10.073 24.7286667,10.178 25.186,10.178 C25.662,10.178 26.0773333,10.073 26.432,9.863 C26.7866667,9.653 27.0666667,9.366 27.272,9.002 C27.4773333,8.638 27.58,8.23666667 27.58,7.798 C27.58,7.35933333 27.4773333,6.96033333 27.272,6.601 C27.0666667,6.24166667 26.7866667,5.95466667 26.432,5.74 C26.0773333,5.52533333 25.662,5.418 25.186,5.418 C24.7286667,5.418 24.318,5.52533333 23.954,5.74 C23.59,5.95466667 23.3076667,6.24166667 23.107,6.601 C22.9063333,6.96033333 22.806,7.35933333 22.806,7.798 Z M24.094,7.798 C24.094,7.58333333 24.1383333,7.38966667 24.227,7.217 C24.3156667,7.04433333 24.4416667,6.90433333 24.605,6.797 C24.7683333,6.68966667 24.962,6.636 25.186,6.636 C25.4193333,6.636 25.6153333,6.68966667 25.774,6.797 C25.9326667,6.90433333 26.0563333,7.04666667 26.145,7.224 C26.2336667,7.40133333 26.278,7.59266667 26.278,7.798 C26.278,8.00333333 26.2336667,8.197 26.145,8.379 C26.0563333,8.561 25.9326667,8.70566667 25.774,8.813 C25.6153333,8.92033333 25.4193333,8.974 25.186,8.974 C24.962,8.974 24.7683333,8.92033333 24.605,8.813 C24.4416667,8.70566667 24.3156667,8.561 24.227,8.379 C24.1383333,8.197 24.094,8.00333333 24.094,7.798 Z M24.906,0.196 L18.116,9.996 L19.628,9.996 L26.418,0.196 L24.906,0.196 Z" id="Shape"></path>
                    <path d="M35.322,5.32 L38.43,9.996 L40.432,9.996 L37.1,5.32 L35.322,5.32 Z M33.292,0.196 L33.292,9.996 L34.944,9.996 L34.944,0.196 L33.292,0.196 Z M34.272,1.624 L36.246,1.624 C36.6286667,1.624 36.96,1.68933333 37.24,1.82 C37.52,1.95066667 37.7393333,2.13733333 37.898,2.38 C38.0566667,2.62266667 38.136,2.92133333 38.136,3.276 C38.136,3.62133333 38.0566667,3.91766667 37.898,4.165 C37.7393333,4.41233333 37.52,4.599 37.24,4.725 C36.96,4.851 36.6286667,4.914 36.246,4.914 L34.272,4.914 L34.272,6.286 L36.316,6.286 C37.0346667,6.286 37.6553333,6.16 38.178,5.908 C38.7006667,5.656 39.109,5.30133333 39.403,4.844 C39.697,4.38666667 39.844,3.85 39.844,3.234 C39.844,2.618 39.697,2.08366667 39.403,1.631 C39.109,1.17833333 38.7006667,0.826 38.178,0.574 C37.6553333,0.322 37.0346667,0.196 36.316,0.196 L34.272,0.196 L34.272,1.624 Z" id="Shape"></path>
                    <path d="M44.296,10.136 C45.0426667,10.136 45.682,9.989 46.214,9.695 C46.746,9.401 47.1846667,8.96466667 47.53,8.386 L46.214,7.868 C46.018,8.21333333 45.766,8.47 45.458,8.638 C45.15,8.806 44.786,8.89 44.366,8.89 C43.974,8.89 43.6426667,8.806 43.372,8.638 C43.1013333,8.47 42.8936667,8.22266667 42.749,7.896 C42.6043333,7.56933333 42.5366667,7.17733333 42.546,6.72 C42.546,6.25333333 42.6183333,5.86133333 42.763,5.544 C42.9076667,5.22666667 43.113,4.984 43.379,4.816 C43.645,4.648 43.9693333,4.564 44.352,4.564 C44.6693333,4.564 44.947,4.634 45.185,4.774 C45.423,4.914 45.6096667,5.11 45.745,5.362 C45.8803333,5.614 45.948,5.91266667 45.948,6.258 C45.948,6.32333333 45.9316667,6.40266667 45.899,6.496 C45.8663333,6.58933333 45.836,6.664 45.808,6.72 L46.27,6.076 L41.916,6.076 L41.916,7.126 L47.572,7.126 C47.572,7.08866667 47.5743333,7.028 47.579,6.944 C47.5836667,6.86 47.586,6.78066667 47.586,6.706 C47.586,6.01533333 47.46,5.425 47.208,4.935 C46.956,4.445 46.5896667,4.06933333 46.109,3.808 C45.6283333,3.54666667 45.0473333,3.416 44.366,3.416 C43.6846667,3.416 43.092,3.55366667 42.588,3.829 C42.084,4.10433333 41.6943333,4.494 41.419,4.998 C41.1436667,5.502 41.006,6.09466667 41.006,6.776 C41.006,7.448 41.1413333,8.036 41.412,8.54 C41.6826667,9.044 42.0676667,9.436 42.567,9.716 C43.0663333,9.996 43.6426667,10.136 44.296,10.136 Z" id="Path"></path>
                    <path d="M48.146,3.556 L48.146,4.886 L51.8,4.886 L51.8,3.556 L48.146,3.556 Z M49.238,1.316 L49.238,9.996 L50.722,9.996 L50.722,1.316 L49.238,1.316 Z" id="Shape"></path>
                    <path d="M54.39,7.476 L54.39,3.556 L52.836,3.556 L52.836,7.644 C52.836,8.40933333 53.0296667,9.016 53.417,9.464 C53.8043333,9.912 54.3573333,10.136 55.076,10.136 C55.524,10.136 55.909,10.0403333 56.231,9.849 C56.553,9.65766667 56.8166667,9.37533333 57.022,9.002 L57.022,9.996 L58.534,9.996 L58.534,3.556 L57.022,3.556 L57.022,7.476 C57.022,7.76533333 56.9613333,8.01733333 56.84,8.232 C56.7186667,8.44666667 56.5506667,8.61466667 56.336,8.736 C56.1213333,8.85733333 55.874,8.918 55.594,8.918 C55.1833333,8.918 54.88,8.792 54.684,8.54 C54.488,8.288 54.39,7.93333333 54.39,7.476 Z" id="Path"></path>
                    <path d="M61.964,3.556 L60.466,3.556 L60.466,9.996 L61.964,9.996 L61.964,3.556 Z M63.882,5.166 L64.624,3.892 C64.4746667,3.71466667 64.2973333,3.58866667 64.092,3.514 C63.8866667,3.43933333 63.6673333,3.402 63.434,3.402 C63.1073333,3.402 62.7923333,3.521 62.489,3.759 C62.1856667,3.997 61.9383333,4.31433333 61.747,4.711 C61.5556667,5.10766667 61.46,5.56266667 61.46,6.076 L61.964,6.37 C61.964,6.062 61.999,5.79366667 62.069,5.565 C62.139,5.33633333 62.2533333,5.15666667 62.412,5.026 C62.5706667,4.89533333 62.776,4.83 63.028,4.83 C63.2146667,4.83 63.371,4.858 63.497,4.914 C63.623,4.97 63.7513333,5.054 63.882,5.166 Z" id="Shape"></path>
                    <path d="M69.804,6.076 L69.804,9.996 L71.358,9.996 L71.358,5.894 C71.358,5.12866667 71.1666667,4.52433333 70.784,4.081 C70.4013333,3.63766667 69.846,3.416 69.118,3.416 C68.6793333,3.416 68.299,3.50933333 67.977,3.696 C67.655,3.88266667 67.3913333,4.16733333 67.186,4.55 L67.186,3.556 L65.66,3.556 L65.66,9.996 L67.186,9.996 L67.186,6.076 C67.186,5.78666667 67.2443333,5.53233333 67.361,5.313 C67.4776667,5.09366667 67.6433333,4.92566667 67.858,4.809 C68.0726667,4.69233333 68.3246667,4.634 68.614,4.634 C69.0153333,4.634 69.314,4.75533333 69.51,4.998 C69.706,5.24066667 69.804,5.6 69.804,6.076 Z" id="Path"></path>
                    <path d="M73.584,7.868 L72.702,8.764 C72.8886667,9.00666667 73.122,9.23766667 73.402,9.457 C73.682,9.67633333 74.004,9.85366667 74.368,9.989 C74.732,10.1243333 75.138,10.192 75.586,10.192 C76.286,10.192 76.8436667,10.0076667 77.259,9.639 C77.6743333,9.27033333 77.882,8.78266667 77.882,8.176 C77.882,7.784 77.7933333,7.46666667 77.616,7.224 C77.4386667,6.98133333 77.2006667,6.776 76.902,6.608 C76.6033333,6.44 76.272,6.286 75.908,6.146 C75.6466667,6.04333333 75.411,5.94533333 75.201,5.852 C74.991,5.75866667 74.823,5.65366667 74.697,5.537 C74.571,5.42033333 74.508,5.28733333 74.508,5.138 C74.508,4.96066667 74.578,4.82533333 74.718,4.732 C74.858,4.63866667 75.04,4.592 75.264,4.592 C75.5813333,4.592 75.8893333,4.67133333 76.188,4.83 C76.4866667,4.98866667 76.7386667,5.194 76.944,5.446 L77.784,4.55 C77.6066667,4.33533333 77.392,4.144 77.14,3.976 C76.888,3.808 76.6056667,3.67266667 76.293,3.57 C75.9803333,3.46733333 75.6466667,3.416 75.292,3.416 C74.9,3.416 74.5336667,3.479 74.193,3.605 C73.8523333,3.731 73.5816667,3.92466667 73.381,4.186 C73.1803333,4.44733333 73.08,4.774 73.08,5.166 C73.08,5.54866667 73.171,5.866 73.353,6.118 C73.535,6.37 73.7683333,6.573 74.053,6.727 C74.3376667,6.881 74.6246667,7.014 74.914,7.126 C75.2033333,7.22866667 75.4553333,7.329 75.67,7.427 C75.8846667,7.525 76.0526667,7.64166667 76.174,7.777 C76.2953333,7.91233333 76.356,8.07333333 76.356,8.26 C76.356,8.47466667 76.279,8.64266667 76.125,8.764 C75.971,8.88533333 75.7586667,8.946 75.488,8.946 C75.2733333,8.946 75.0586667,8.904 74.844,8.82 C74.6293333,8.736 74.4193333,8.61466667 74.214,8.456 C74.0086667,8.29733333 73.7986667,8.10133333 73.584,7.868 Z" id="Path"></path>
                    <path d="M8.358,26.272 L11.368,26.272 C11.284,26.5986667 11.158,26.9066667 10.99,27.196 C10.822,27.4853333 10.612,27.742 10.36,27.966 C10.108,28.19 9.80933333,28.3626667 9.464,28.484 C9.11866667,28.6053333 8.72666667,28.666 8.288,28.666 C7.644,28.666 7.06533333,28.5166667 6.552,28.218 C6.03866667,27.9193333 5.63266667,27.5016667 5.334,26.965 C5.03533333,26.4283333 4.886,25.8053333 4.886,25.096 C4.886,24.3773333 5.03766667,23.7543333 5.341,23.227 C5.64433333,22.6996667 6.055,22.289 6.573,21.995 C7.091,21.701 7.66266667,21.554 8.288,21.554 C8.96933333,21.554 9.55033333,21.694 10.031,21.974 C10.5116667,22.254 10.8873333,22.6273333 11.158,23.094 L12.502,22.198 C12.2126667,21.7406667 11.8626667,21.351 11.452,21.029 C11.0413333,20.707 10.5723333,20.4573333 10.045,20.28 C9.51766667,20.1026667 8.932,20.014 8.288,20.014 C7.55066667,20.014 6.86933333,20.1376667 6.244,20.385 C5.61866667,20.6323333 5.07266667,20.9823333 4.606,21.435 C4.13933333,21.8876667 3.77766667,22.4243333 3.521,23.045 C3.26433333,23.6656667 3.136,24.3493333 3.136,25.096 C3.136,25.8426667 3.262,26.5286667 3.514,27.154 C3.766,27.7793333 4.123,28.3206667 4.585,28.778 C5.047,29.2353333 5.59066667,29.5876667 6.216,29.835 C6.84133333,30.0823333 7.52266667,30.206 8.26,30.206 C9.044,30.206 9.73933333,30.0636667 10.346,29.779 C10.9526667,29.4943333 11.4613333,29.1046667 11.872,28.61 C12.2826667,28.1153333 12.5906667,27.5483333 12.796,26.909 C13.0013333,26.2696667 13.0946667,25.5906667 13.076,24.872 L8.358,24.872 L8.358,26.272 Z" id="Path"></path>
                    <path d="M16.198,27.476 L16.198,23.556 L14.644,23.556 L14.644,27.644 C14.644,28.4093333 14.8376667,29.016 15.225,29.464 C15.6123333,29.912 16.1653333,30.136 16.884,30.136 C17.332,30.136 17.717,30.0403333 18.039,29.849 C18.361,29.6576667 18.6246667,29.3753333 18.83,29.002 L18.83,29.996 L20.342,29.996 L20.342,23.556 L18.83,23.556 L18.83,27.476 C18.83,27.7653333 18.7693333,28.0173333 18.648,28.232 C18.5266667,28.4466667 18.3586667,28.6146667 18.144,28.736 C17.9293333,28.8573333 17.682,28.918 17.402,28.918 C16.9913333,28.918 16.688,28.792 16.492,28.54 C16.296,28.288 16.198,27.9333333 16.198,27.476 Z" id="Path"></path>
                    <path d="M23.226,27.994 C23.226,27.7886667 23.275,27.616 23.373,27.476 C23.471,27.336 23.618,27.2263333 23.814,27.147 C24.01,27.0676667 24.2666667,27.028 24.584,27.028 C24.948,27.028 25.2933333,27.0746667 25.62,27.168 C25.9466667,27.2613333 26.2546667,27.4106667 26.544,27.616 L26.544,26.846 C26.46,26.7433333 26.3153333,26.629 26.11,26.503 C25.9046667,26.377 25.6456667,26.2673333 25.333,26.174 C25.0203333,26.0806667 24.6493333,26.034 24.22,26.034 C23.4173333,26.034 22.7966667,26.2183333 22.358,26.587 C21.9193333,26.9556667 21.7,27.4526667 21.7,28.078 C21.7,28.5166667 21.8026667,28.89 22.008,29.198 C22.2133333,29.506 22.4886667,29.7393333 22.834,29.898 C23.1793333,30.0566667 23.5526667,30.136 23.954,30.136 C24.3273333,30.136 24.6936667,30.0683333 25.053,29.933 C25.4123333,29.7976667 25.711,29.59 25.949,29.31 C26.187,29.03 26.306,28.6846667 26.306,28.274 L26.082,27.434 C26.082,27.7606667 26.0073333,28.0406667 25.858,28.274 C25.7086667,28.5073333 25.5103333,28.687 25.263,28.813 C25.0156667,28.939 24.738,29.002 24.43,29.002 C24.1966667,29.002 23.989,28.9646667 23.807,28.89 C23.625,28.8153333 23.4826667,28.701 23.38,28.547 C23.2773333,28.393 23.226,28.2086667 23.226,27.994 Z M22.75,25.236 C22.8526667,25.1706667 22.9973333,25.089 23.184,24.991 C23.3706667,24.893 23.597,24.809 23.863,24.739 C24.129,24.669 24.4113333,24.634 24.71,24.634 C24.906,24.634 25.088,24.6526667 25.256,24.69 C25.424,24.7273333 25.571,24.788 25.697,24.872 C25.823,24.956 25.9186667,25.0633333 25.984,25.194 C26.0493333,25.3246667 26.082,25.4926667 26.082,25.698 L26.082,29.996 L27.566,29.996 L27.566,25.404 C27.566,24.9746667 27.4516667,24.6106667 27.223,24.312 C26.9943333,24.0133333 26.6746667,23.787 26.264,23.633 C25.8533333,23.479 25.3866667,23.402 24.864,23.402 C24.2573333,23.402 23.7253333,23.486 23.268,23.654 C22.8106667,23.822 22.4326667,23.9946667 22.134,24.172 L22.75,25.236 Z" id="Shape"></path>
                    <path d="M30.828,23.556 L29.33,23.556 L29.33,29.996 L30.828,29.996 L30.828,23.556 Z M32.746,25.166 L33.488,23.892 C33.3386667,23.7146667 33.1613333,23.5886667 32.956,23.514 C32.7506667,23.4393333 32.5313333,23.402 32.298,23.402 C31.9713333,23.402 31.6563333,23.521 31.353,23.759 C31.0496667,23.997 30.8023333,24.3143333 30.611,24.711 C30.4196667,25.1076667 30.324,25.5626667 30.324,26.076 L30.828,26.37 C30.828,26.062 30.863,25.7936667 30.933,25.565 C31.003,25.3363333 31.1173333,25.1566667 31.276,25.026 C31.4346667,24.8953333 31.64,24.83 31.892,24.83 C32.0786667,24.83 32.235,24.858 32.361,24.914 C32.487,24.97 32.6153333,25.054 32.746,25.166 Z" id="Shape"></path>
                    <path d="M35.476,27.994 C35.476,27.7886667 35.525,27.616 35.623,27.476 C35.721,27.336 35.868,27.2263333 36.064,27.147 C36.26,27.0676667 36.5166667,27.028 36.834,27.028 C37.198,27.028 37.5433333,27.0746667 37.87,27.168 C38.1966667,27.2613333 38.5046667,27.4106667 38.794,27.616 L38.794,26.846 C38.71,26.7433333 38.5653333,26.629 38.36,26.503 C38.1546667,26.377 37.8956667,26.2673333 37.583,26.174 C37.2703333,26.0806667 36.8993333,26.034 36.47,26.034 C35.6673333,26.034 35.0466667,26.2183333 34.608,26.587 C34.1693333,26.9556667 33.95,27.4526667 33.95,28.078 C33.95,28.5166667 34.0526667,28.89 34.258,29.198 C34.4633333,29.506 34.7386667,29.7393333 35.084,29.898 C35.4293333,30.0566667 35.8026667,30.136 36.204,30.136 C36.5773333,30.136 36.9436667,30.0683333 37.303,29.933 C37.6623333,29.7976667 37.961,29.59 38.199,29.31 C38.437,29.03 38.556,28.6846667 38.556,28.274 L38.332,27.434 C38.332,27.7606667 38.2573333,28.0406667 38.108,28.274 C37.9586667,28.5073333 37.7603333,28.687 37.513,28.813 C37.2656667,28.939 36.988,29.002 36.68,29.002 C36.4466667,29.002 36.239,28.9646667 36.057,28.89 C35.875,28.8153333 35.7326667,28.701 35.63,28.547 C35.5273333,28.393 35.476,28.2086667 35.476,27.994 Z M35,25.236 C35.1026667,25.1706667 35.2473333,25.089 35.434,24.991 C35.6206667,24.893 35.847,24.809 36.113,24.739 C36.379,24.669 36.6613333,24.634 36.96,24.634 C37.156,24.634 37.338,24.6526667 37.506,24.69 C37.674,24.7273333 37.821,24.788 37.947,24.872 C38.073,24.956 38.1686667,25.0633333 38.234,25.194 C38.2993333,25.3246667 38.332,25.4926667 38.332,25.698 L38.332,29.996 L39.816,29.996 L39.816,25.404 C39.816,24.9746667 39.7016667,24.6106667 39.473,24.312 C39.2443333,24.0133333 38.9246667,23.787 38.514,23.633 C38.1033333,23.479 37.6366667,23.402 37.114,23.402 C36.5073333,23.402 35.9753333,23.486 35.518,23.654 C35.0606667,23.822 34.6826667,23.9946667 34.384,24.172 L35,25.236 Z" id="Shape"></path>
                    <path d="M45.724,26.076 L45.724,29.996 L47.278,29.996 L47.278,25.894 C47.278,25.1286667 47.0866667,24.5243333 46.704,24.081 C46.3213333,23.6376667 45.766,23.416 45.038,23.416 C44.5993333,23.416 44.219,23.5093333 43.897,23.696 C43.575,23.8826667 43.3113333,24.1673333 43.106,24.55 L43.106,23.556 L41.58,23.556 L41.58,29.996 L43.106,29.996 L43.106,26.076 C43.106,25.7866667 43.1643333,25.5323333 43.281,25.313 C43.3976667,25.0936667 43.5633333,24.9256667 43.778,24.809 C43.9926667,24.6923333 44.2446667,24.634 44.534,24.634 C44.9353333,24.634 45.234,24.7553333 45.43,24.998 C45.626,25.2406667 45.724,25.6 45.724,26.076 Z" id="Path"></path>
                    <path d="M48.314,23.556 L48.314,24.886 L51.968,24.886 L51.968,23.556 L48.314,23.556 Z M49.406,21.316 L49.406,29.996 L50.89,29.996 L50.89,21.316 L49.406,21.316 Z" id="Shape"></path>
                    <path d="M55.804,30.136 C56.5506667,30.136 57.19,29.989 57.722,29.695 C58.254,29.401 58.6926667,28.9646667 59.038,28.386 L57.722,27.868 C57.526,28.2133333 57.274,28.47 56.966,28.638 C56.658,28.806 56.294,28.89 55.874,28.89 C55.482,28.89 55.1506667,28.806 54.88,28.638 C54.6093333,28.47 54.4016667,28.2226667 54.257,27.896 C54.1123333,27.5693333 54.0446667,27.1773333 54.054,26.72 C54.054,26.2533333 54.1263333,25.8613333 54.271,25.544 C54.4156667,25.2266667 54.621,24.984 54.887,24.816 C55.153,24.648 55.4773333,24.564 55.86,24.564 C56.1773333,24.564 56.455,24.634 56.693,24.774 C56.931,24.914 57.1176667,25.11 57.253,25.362 C57.3883333,25.614 57.456,25.9126667 57.456,26.258 C57.456,26.3233333 57.4396667,26.4026667 57.407,26.496 C57.3743333,26.5893333 57.344,26.664 57.316,26.72 L57.778,26.076 L53.424,26.076 L53.424,27.126 L59.08,27.126 C59.08,27.0886667 59.0823333,27.028 59.087,26.944 C59.0916667,26.86 59.094,26.7806667 59.094,26.706 C59.094,26.0153333 58.968,25.425 58.716,24.935 C58.464,24.445 58.0976667,24.0693333 57.617,23.808 C57.1363333,23.5466667 56.5553333,23.416 55.874,23.416 C55.1926667,23.416 54.6,23.5536667 54.096,23.829 C53.592,24.1043333 53.2023333,24.494 52.927,24.998 C52.6516667,25.502 52.514,26.0946667 52.514,26.776 C52.514,27.448 52.6493333,28.036 52.92,28.54 C53.1906667,29.044 53.5756667,29.436 54.075,29.716 C54.5743333,29.996 55.1506667,30.136 55.804,30.136 Z" id="Path"></path>
                    <path d="M63.35,30.136 C64.0966667,30.136 64.736,29.989 65.268,29.695 C65.8,29.401 66.2386667,28.9646667 66.584,28.386 L65.268,27.868 C65.072,28.2133333 64.82,28.47 64.512,28.638 C64.204,28.806 63.84,28.89 63.42,28.89 C63.028,28.89 62.6966667,28.806 62.426,28.638 C62.1553333,28.47 61.9476667,28.2226667 61.803,27.896 C61.6583333,27.5693333 61.5906667,27.1773333 61.6,26.72 C61.6,26.2533333 61.6723333,25.8613333 61.817,25.544 C61.9616667,25.2266667 62.167,24.984 62.433,24.816 C62.699,24.648 63.0233333,24.564 63.406,24.564 C63.7233333,24.564 64.001,24.634 64.239,24.774 C64.477,24.914 64.6636667,25.11 64.799,25.362 C64.9343333,25.614 65.002,25.9126667 65.002,26.258 C65.002,26.3233333 64.9856667,26.4026667 64.953,26.496 C64.9203333,26.5893333 64.89,26.664 64.862,26.72 L65.324,26.076 L60.97,26.076 L60.97,27.126 L66.626,27.126 C66.626,27.0886667 66.6283333,27.028 66.633,26.944 C66.6376667,26.86 66.64,26.7806667 66.64,26.706 C66.64,26.0153333 66.514,25.425 66.262,24.935 C66.01,24.445 65.6436667,24.0693333 65.163,23.808 C64.6823333,23.5466667 64.1013333,23.416 63.42,23.416 C62.7386667,23.416 62.146,23.5536667 61.642,23.829 C61.138,24.1043333 60.7483333,24.494 60.473,24.998 C60.1976667,25.502 60.06,26.0946667 60.06,26.776 C60.06,27.448 60.1953333,28.036 60.466,28.54 C60.7366667,29.044 61.1216667,29.436 61.621,29.716 C62.1203333,29.996 62.6966667,30.136 63.35,30.136 Z" id="Path"></path>
                    <path d="M72.94,19.076 L72.94,29.996 L74.466,29.996 L74.466,19.076 L72.94,19.076 Z M67.606,26.776 C67.606,27.476 67.7506667,28.078 68.04,28.582 C68.3293333,29.086 68.7143333,29.471 69.195,29.737 C69.6756667,30.003 70.1913333,30.136 70.742,30.136 C71.2833333,30.136 71.757,30.0006667 72.163,29.73 C72.569,29.4593333 72.891,29.072 73.129,28.568 C73.367,28.064 73.486,27.4666667 73.486,26.776 C73.486,26.076 73.367,25.4763333 73.129,24.977 C72.891,24.4776667 72.569,24.0926667 72.163,23.822 C71.757,23.5513333 71.2833333,23.416 70.742,23.416 C70.1913333,23.416 69.6756667,23.549 69.195,23.815 C68.7143333,24.081 68.3293333,24.4636667 68.04,24.963 C67.7506667,25.4623333 67.606,26.0666667 67.606,26.776 Z M69.174,26.776 C69.174,26.3466667 69.2626667,25.978 69.44,25.67 C69.6173333,25.362 69.853,25.1286667 70.147,24.97 C70.441,24.8113333 70.7606667,24.732 71.106,24.732 C71.4046667,24.732 71.694,24.8113333 71.974,24.97 C72.254,25.1286667 72.485,25.3596667 72.667,25.663 C72.849,25.9663333 72.94,26.3373333 72.94,26.776 C72.94,27.2146667 72.849,27.5856667 72.667,27.889 C72.485,28.1923333 72.254,28.4233333 71.974,28.582 C71.694,28.7406667 71.4046667,28.82 71.106,28.82 C70.7606667,28.82 70.441,28.7406667 70.147,28.582 C69.853,28.4233333 69.6173333,28.19 69.44,27.882 C69.2626667,27.574 69.174,27.2053333 69.174,26.776 Z" id="Shape"></path>
                </g>
            </g>
            <rect id="Rectangle-Copy" fill="#EFF4EF" opacity="0.5" x="135" y="21" width="1" height="70"></rect>
            <rect id="Rectangle-Copy" fill="#EFF4EF" opacity="0.5" x="277" y="21" width="1" height="70"></rect>
            <rect id="Rectangle" stroke="#EFF4EF" x="0.5" y="0.5" width="399" height="111" rx="10"></rect>
        </g>
    </g>
</svg>