<?xml version="1.0" encoding="UTF-8"?>
<svg width="672px" height="167px" viewBox="0 0 672 167" version="1.1" xmlns="http://www.w3.org/2000/svg" xmlns:xlink="http://www.w3.org/1999/xlink">
    <title>Group 7</title>
    <g id="Page-1" stroke="none" stroke-width="1" fill="none" fill-rule="evenodd">
        <g id="Group-7">
            <g id="Group-5" transform="translate(60.210000, 23.000000)" fill="#EFF4EF">
                <g id="Group-6" fill-rule="nonzero">
                    <g id="artificial-intelligence" transform="translate(25.290000, 0.000000)">
                        <path d="M26.6159396,19.8611111 L22.8471477,19.8611111 C20.9326934,19.8631014 19.3812291,21.3808723 19.3791946,23.25375 L19.3791946,32.3194444 C19.3791946,33.2169072 20.1228827,33.9444444 21.0402685,33.9444444 C21.9576542,33.9444444 22.7013423,33.2169072 22.7013423,32.3194444 L22.7013423,30.3333333 L26.761745,30.3333333 L26.761745,32.3194444 C26.761745,33.2169072 27.505433,33.9444444 28.4228188,33.9444444 C29.3402045,33.9444444 30.0838926,33.2169072 30.0838926,32.3194444 L30.0838926,23.25375 C30.0818581,21.3808723 28.5303938,19.8631014 26.6159396,19.8611111 Z M22.7013423,27.0833333 L22.7013423,23.25375 C22.7023376,23.1753796 22.7670374,23.1120848 22.8471477,23.1111111 L26.6159396,23.1111111 C26.6960498,23.1120848 26.7607497,23.1753796 26.761745,23.25375 L26.761745,27.0833333 L22.7013423,27.0833333 Z" id="Shape"></path>
                        <path d="M33.9597315,19.8611111 C33.0423458,19.8611111 32.2986577,20.5886484 32.2986577,21.4861111 L32.2986577,32.3194444 C32.2986577,33.2169072 33.0423458,33.9444444 33.9597315,33.9444444 C34.8771173,33.9444444 35.6208054,33.2169072 35.6208054,32.3194444 L35.6208054,21.4861111 C35.6208054,20.5886484 34.8771173,19.8611111 33.9597315,19.8611111 Z" id="Path"></path>
                        <path d="M53.3389262,25.2777778 L45.9563758,25.2777778 C45.8941962,25.2863343 45.8325727,25.2983913 45.7718121,25.3138889 L45.7718121,21.2694444 C45.8325727,21.284942 45.8941962,21.296999 45.9563758,21.3055556 L51.4932886,21.3055556 C52.4106743,21.3055556 53.1543624,20.5780183 53.1543624,19.6805556 C53.1543624,18.7830928 52.4106743,18.0555556 51.4932886,18.0555556 L45.9563758,18.0555556 C45.8941962,18.0641121 45.8325727,18.0761691 45.7718121,18.0916667 L45.7718121,14.2747222 C45.7677433,11.3778604 43.3677149,9.0307615 40.4065436,9.02777778 L36.5067114,9.02777778 C36.5229284,8.96842184 36.5352576,8.90811415 36.5436242,8.84722222 L36.5436242,3.43055556 C36.5436242,2.53309284 35.7999361,1.80555556 34.8825503,1.80555556 C33.9651646,1.80555556 33.2214765,2.53309284 33.2214765,3.43055556 L33.2214765,8.84722222 C33.229843,8.90811415 33.2421723,8.96842184 33.2583893,9.02777778 L29.1241611,9.02777778 C29.140378,8.96842184 29.1527073,8.90811415 29.1610738,8.84722222 L29.1610738,1.625 C29.1610738,0.727537282 28.4173857,0 27.5,0 C26.5826143,0 25.8389262,0.727537282 25.8389262,1.625 L25.8389262,8.84722222 C25.8472927,8.90811415 25.859622,8.96842184 25.8758389,9.02777778 L21.7416107,9.02777778 C21.7578277,8.96842184 21.770157,8.90811415 21.7785235,8.84722222 L21.7785235,3.43055556 C21.7785235,2.53309284 21.0348354,1.80555556 20.1174497,1.80555556 C19.2000639,1.80555556 18.4563758,2.53309284 18.4563758,3.43055556 L18.4563758,8.84722222 C18.4647424,8.90811415 18.4770716,8.96842184 18.4932886,9.02777778 L14.5916107,9.02777778 C11.6311602,9.03175602 9.23225448,11.3785643 9.22818792,14.2747222 L9.22818792,18.0916667 C9.16751432,18.0758019 9.10586785,18.0637404 9.04362416,18.0555556 L3.50671141,18.0555556 C2.58932567,18.0555556 1.84563758,18.7830928 1.84563758,19.6805556 C1.84563758,20.5780183 2.58932567,21.3055556 3.50671141,21.3055556 L9.04362416,21.3055556 C9.10586785,21.2973707 9.16751432,21.2853092 9.22818792,21.2694444 L9.22818792,25.3138889 C9.16751432,25.2980241 9.10586785,25.2859626 9.04362416,25.2777778 L1.66107383,25.2777778 C0.743688083,25.2777778 0,26.0053151 0,26.9027778 C0,27.8002405 0.743688083,28.5277778 1.66107383,28.5277778 L9.04362416,28.5277778 C9.10586785,28.519593 9.16751432,28.5075314 9.22818792,28.4916667 L9.22818792,32.5361111 C9.16751432,32.5202464 9.10586785,32.5081848 9.04362416,32.5 L3.50671141,32.5 C2.58932567,32.5 1.84563758,33.2275373 1.84563758,34.125 C1.84563758,35.0224627 2.58932567,35.75 3.50671141,35.75 L9.04362416,35.75 C9.10586785,35.7418152 9.16751432,35.7297536 9.22818792,35.7138889 L9.22818792,39.5308333 C9.23225448,42.4269913 11.6311602,44.7737995 14.5916107,44.7777778 L18.4563758,44.7777778 L18.4563758,48.5694444 C18.4563758,49.4669072 19.2000639,50.1944444 20.1174497,50.1944444 C21.0348354,50.1944444 21.7785235,49.4669072 21.7785235,48.5694444 L21.7785235,44.7777778 L25.8389262,44.7777778 L25.8389262,50.375 C25.8389262,51.2724627 26.5826143,52 27.5,52 C28.4173857,52 29.1610738,51.2724627 29.1610738,50.375 L29.1610738,44.7777778 L33.2214765,44.7777778 L33.2214765,48.5694444 C33.2214765,49.4669072 33.9651646,50.1944444 34.8825503,50.1944444 C35.7999361,50.1944444 36.5436242,49.4669072 36.5436242,48.5694444 L36.5436242,44.7777778 L40.4065436,44.7777778 C43.3677149,44.7747941 45.7677433,42.4276952 45.7718121,39.5308333 L45.7718121,35.7138889 C45.8325727,35.7293864 45.8941962,35.7414435 45.9563758,35.75 L51.4932886,35.75 C52.4106743,35.75 53.1543624,35.0224627 53.1543624,34.125 C53.1543624,33.2275373 52.4106743,32.5 51.4932886,32.5 L45.9563758,32.5 C45.8941962,32.5085565 45.8325727,32.5206136 45.7718121,32.5361111 L45.7718121,28.4916667 C45.8325727,28.5071642 45.8941962,28.5192213 45.9563758,28.5277778 L53.3389262,28.5277778 C54.2563119,28.5277778 55,27.8002405 55,26.9027778 C55,26.0053151 54.2563119,25.2777778 53.3389262,25.2777778 Z M42.4496644,39.5308333 C42.4486458,40.6340073 41.5342077,41.5277778 40.4065436,41.5277778 L14.5916107,41.5277778 C13.4646673,41.5267823 12.5513531,40.6333027 12.5503356,39.5308333 L12.5503356,14.2747222 C12.5513531,13.1722529 13.4646673,12.2787732 14.5916107,12.2777778 L40.4065436,12.2777778 C41.5342077,12.2777778 42.4486458,13.1715483 42.4496644,14.2747222 L42.4496644,39.5308333 Z" id="Shape"></path>
                    </g>
                    <g id="AI-powered-Auto-Crea" transform="translate(0.000000, 67.400000)">
                        <path d="M5.19,12 L12.59,12 L12.15,10 L5.65,10 L5.19,12 Z M8.85,5.56 L11.09,10.76 L11.13,11.34 L13.03,15.6 L15.71,15.6 L8.85,0.82 L2.01,15.6 L4.67,15.6 L6.61,11.22 L6.65,10.7 L8.85,5.56 Z" id="Shape"></path>
                        <polygon id="Path" points="17.31 1.6 17.31 15.6 19.71 15.6 19.71 1.6"></polygon>
                        <polygon id="Path" points="21.35 11.82 25.45 11.82 25.45 9.88 21.35 9.88"></polygon>
                        <path d="M29.03,20 L29.03,6.4 L26.85,6.4 L26.85,20 L29.03,20 Z M36.65,11 C36.65,9.96 36.4433333,9.08333333 36.03,8.37 C35.6166667,7.65666667 35.07,7.10666667 34.39,6.72 C33.71,6.33333333 32.97,6.14 32.17,6.14 C31.3966667,6.14 30.72,6.34 30.14,6.74 C29.56,7.14 29.11,7.7 28.79,8.42 C28.47,9.14 28.31,10 28.31,11 C28.31,11.9866667 28.47,12.8433333 28.79,13.57 C29.11,14.2966667 29.56,14.8566667 30.14,15.25 C30.72,15.6433333 31.3966667,15.84 32.17,15.84 C32.97,15.84 33.71,15.65 34.39,15.27 C35.07,14.89 35.6166667,14.3366667 36.03,13.61 C36.4433333,12.8833333 36.65,12.0133333 36.65,11 Z M34.41,11 C34.41,11.6133333 34.2833333,12.1333333 34.03,12.56 C33.7766667,12.9866667 33.4433333,13.3133333 33.03,13.54 C32.6166667,13.7666667 32.1566667,13.88 31.65,13.88 C31.2233333,13.88 30.81,13.77 30.41,13.55 C30.01,13.33 29.68,13.0066667 29.42,12.58 C29.16,12.1533333 29.03,11.6266667 29.03,11 C29.03,10.3733333 29.16,9.84666667 29.42,9.42 C29.68,8.99333333 30.01,8.67 30.41,8.45 C30.81,8.23 31.2233333,8.12 31.65,8.12 C32.1566667,8.12 32.6166667,8.23 33.03,8.45 C33.4433333,8.67 33.7766667,8.99666667 34.03,9.43 C34.2833333,9.86333333 34.41,10.3866667 34.41,11 Z" id="Shape"></path>
                        <path d="M38.01,11 C38.01,11.9333333 38.2266667,12.7633333 38.66,13.49 C39.0933333,14.2166667 39.6866667,14.7833333 40.44,15.19 C41.1933333,15.5966667 42.0366667,15.8 42.97,15.8 C43.9166667,15.8 44.7633333,15.5966667 45.51,15.19 C46.2566667,14.7833333 46.8466667,14.2166667 47.28,13.49 C47.7133333,12.7633333 47.93,11.9333333 47.93,11 C47.93,10.0533333 47.7133333,9.22 47.28,8.5 C46.8466667,7.78 46.2566667,7.21666667 45.51,6.81 C44.7633333,6.40333333 43.9166667,6.2 42.97,6.2 C42.0366667,6.2 41.1933333,6.40333333 40.44,6.81 C39.6866667,7.21666667 39.0933333,7.78 38.66,8.5 C38.2266667,9.22 38.01,10.0533333 38.01,11 Z M40.23,11 C40.23,10.4266667 40.35,9.92 40.59,9.48 C40.83,9.04 41.1566667,8.7 41.57,8.46 C41.9833333,8.22 42.45,8.1 42.97,8.1 C43.49,8.1 43.9566667,8.22 44.37,8.46 C44.7833333,8.7 45.11,9.04 45.35,9.48 C45.59,9.92 45.71,10.4266667 45.71,11 C45.71,11.5733333 45.59,12.0766667 45.35,12.51 C45.11,12.9433333 44.7833333,13.2833333 44.37,13.53 C43.9566667,13.7766667 43.49,13.9 42.97,13.9 C42.45,13.9 41.9833333,13.7766667 41.57,13.53 C41.1566667,13.2833333 40.83,12.9433333 40.59,12.51 C40.35,12.0766667 40.23,11.5733333 40.23,11 Z" id="Shape"></path>
                        <polygon id="Path" points="48.61 6.4 52.91 16.24 55.67 10.04 58.57 16.24 62.87 6.4 60.51 6.4 58.35 11.9 55.67 5.7 53.11 11.86 50.97 6.4"></polygon>
                        <path d="M68.25,15.8 C69.3166667,15.8 70.23,15.59 70.99,15.17 C71.75,14.75 72.3766667,14.1266667 72.87,13.3 L70.99,12.56 C70.71,13.0533333 70.35,13.42 69.91,13.66 C69.47,13.9 68.95,14.02 68.35,14.02 C67.79,14.02 67.3166667,13.9 66.93,13.66 C66.5433333,13.42 66.2466667,13.0666667 66.04,12.6 C65.8333333,12.1333333 65.7366667,11.5733333 65.75,10.92 C65.75,10.2533333 65.8533333,9.69333333 66.06,9.24 C66.2666667,8.78666667 66.56,8.44 66.94,8.2 C67.32,7.96 67.7833333,7.84 68.33,7.84 C68.7833333,7.84 69.18,7.94 69.52,8.14 C69.86,8.34 70.1266667,8.62 70.32,8.98 C70.5133333,9.34 70.61,9.76666667 70.61,10.26 C70.61,10.3533333 70.5866667,10.4666667 70.54,10.6 C70.4933333,10.7333333 70.45,10.84 70.41,10.92 L71.07,10 L64.85,10 L64.85,11.5 L72.93,11.5 C72.93,11.4466667 72.9333333,11.36 72.94,11.24 C72.9466667,11.12 72.95,11.0066667 72.95,10.9 C72.95,9.91333333 72.77,9.07 72.41,8.37 C72.05,7.67 71.5266667,7.13333333 70.84,6.76 C70.1533333,6.38666667 69.3233333,6.2 68.35,6.2 C67.3766667,6.2 66.53,6.39666667 65.81,6.79 C65.09,7.18333333 64.5333333,7.74 64.14,8.46 C63.7466667,9.18 63.55,10.0266667 63.55,11 C63.55,11.96 63.7433333,12.8 64.13,13.52 C64.5166667,14.24 65.0666667,14.8 65.78,15.2 C66.4933333,15.6 67.3166667,15.8 68.25,15.8 Z" id="Path"></path>
                        <path d="M77.17,6.4 L75.03,6.4 L75.03,15.6 L77.17,15.6 L77.17,6.4 Z M79.91,8.7 L80.97,6.88 C80.7566667,6.62666667 80.5033333,6.44666667 80.21,6.34 C79.9166667,6.23333333 79.6033333,6.18 79.27,6.18 C78.8033333,6.18 78.3533333,6.35 77.92,6.69 C77.4866667,7.03 77.1333333,7.48333333 76.86,8.05 C76.5866667,8.61666667 76.45,9.26666667 76.45,10 L77.17,10.42 C77.17,9.98 77.22,9.59666667 77.32,9.27 C77.42,8.94333333 77.5833333,8.68666667 77.81,8.5 C78.0366667,8.31333333 78.33,8.22 78.69,8.22 C78.9566667,8.22 79.18,8.26 79.36,8.34 C79.54,8.42 79.7233333,8.54 79.91,8.7 Z" id="Shape"></path>
                        <path d="M86.45,15.8 C87.5166667,15.8 88.43,15.59 89.19,15.17 C89.95,14.75 90.5766667,14.1266667 91.07,13.3 L89.19,12.56 C88.91,13.0533333 88.55,13.42 88.11,13.66 C87.67,13.9 87.15,14.02 86.55,14.02 C85.99,14.02 85.5166667,13.9 85.13,13.66 C84.7433333,13.42 84.4466667,13.0666667 84.24,12.6 C84.0333333,12.1333333 83.9366667,11.5733333 83.95,10.92 C83.95,10.2533333 84.0533333,9.69333333 84.26,9.24 C84.4666667,8.78666667 84.76,8.44 85.14,8.2 C85.52,7.96 85.9833333,7.84 86.53,7.84 C86.9833333,7.84 87.38,7.94 87.72,8.14 C88.06,8.34 88.3266667,8.62 88.52,8.98 C88.7133333,9.34 88.81,9.76666667 88.81,10.26 C88.81,10.3533333 88.7866667,10.4666667 88.74,10.6 C88.6933333,10.7333333 88.65,10.84 88.61,10.92 L89.27,10 L83.05,10 L83.05,11.5 L91.13,11.5 C91.13,11.4466667 91.1333333,11.36 91.14,11.24 C91.1466667,11.12 91.15,11.0066667 91.15,10.9 C91.15,9.91333333 90.97,9.07 90.61,8.37 C90.25,7.67 89.7266667,7.13333333 89.04,6.76 C88.3533333,6.38666667 87.5233333,6.2 86.55,6.2 C85.5766667,6.2 84.73,6.39666667 84.01,6.79 C83.29,7.18333333 82.7333333,7.74 82.34,8.46 C81.9466667,9.18 81.75,10.0266667 81.75,11 C81.75,11.96 81.9433333,12.8 82.33,13.52 C82.7166667,14.24 83.2666667,14.8 83.98,15.2 C84.6933333,15.6 85.5166667,15.8 86.45,15.8 Z" id="Path"></path>
                        <path d="M100.15,0 L100.15,15.6 L102.33,15.6 L102.33,0 L100.15,0 Z M92.53,11 C92.53,12 92.7366667,12.86 93.15,13.58 C93.5633333,14.3 94.1133333,14.85 94.8,15.23 C95.4866667,15.61 96.2233333,15.8 97.01,15.8 C97.7833333,15.8 98.46,15.6066667 99.04,15.22 C99.62,14.8333333 100.08,14.28 100.42,13.56 C100.76,12.84 100.93,11.9866667 100.93,11 C100.93,10 100.76,9.14333333 100.42,8.43 C100.08,7.71666667 99.62,7.16666667 99.04,6.78 C98.46,6.39333333 97.7833333,6.2 97.01,6.2 C96.2233333,6.2 95.4866667,6.39 94.8,6.77 C94.1133333,7.15 93.5633333,7.69666667 93.15,8.41 C92.7366667,9.12333333 92.53,9.98666667 92.53,11 Z M94.77,11 C94.77,10.3866667 94.8966667,9.86 95.15,9.42 C95.4033333,8.98 95.74,8.64666667 96.16,8.42 C96.58,8.19333333 97.0366667,8.08 97.53,8.08 C97.9566667,8.08 98.37,8.19333333 98.77,8.42 C99.17,8.64666667 99.5,8.97666667 99.76,9.41 C100.02,9.84333333 100.15,10.3733333 100.15,11 C100.15,11.6266667 100.02,12.1566667 99.76,12.59 C99.5,13.0233333 99.17,13.3533333 98.77,13.58 C98.37,13.8066667 97.9566667,13.92 97.53,13.92 C97.0366667,13.92 96.58,13.8066667 96.16,13.58 C95.74,13.3533333 95.4033333,13.02 95.15,12.58 C94.8966667,12.14 94.77,11.6133333 94.77,11 Z" id="Shape"></path>
                        <path d="M3.18,42 L10.58,42 L10.14,40 L3.64,40 L3.18,42 Z M6.84,35.56 L9.08,40.76 L9.12,41.34 L11.02,45.6 L13.7,45.6 L6.84,30.82 L0,45.6 L2.66,45.6 L4.6,41.22 L4.64,40.7 L6.84,35.56 Z" id="Shape"></path>
                        <path d="M17.34,42 L17.34,36.4 L15.12,36.4 L15.12,42.24 C15.12,43.3333333 15.3966667,44.2 15.95,44.84 C16.5033333,45.48 17.2933333,45.8 18.32,45.8 C18.96,45.8 19.51,45.6633333 19.97,45.39 C20.43,45.1166667 20.8066667,44.7133333 21.1,44.18 L21.1,45.6 L23.26,45.6 L23.26,36.4 L21.1,36.4 L21.1,42 C21.1,42.4133333 21.0133333,42.7733333 20.84,43.08 C20.6666667,43.3866667 20.4266667,43.6266667 20.12,43.8 C19.8133333,43.9733333 19.46,44.06 19.06,44.06 C18.4733333,44.06 18.04,43.88 17.76,43.52 C17.48,43.16 17.34,42.6533333 17.34,42 Z" id="Path"></path>
                        <path d="M24.74,36.4 L24.74,38.3 L29.96,38.3 L29.96,36.4 L24.74,36.4 Z M26.3,33.2 L26.3,45.6 L28.42,45.6 L28.42,33.2 L26.3,33.2 Z" id="Shape"></path>
                        <path d="M30.74,41 C30.74,41.9333333 30.9566667,42.7633333 31.39,43.49 C31.8233333,44.2166667 32.4166667,44.7833333 33.17,45.19 C33.9233333,45.5966667 34.7666667,45.8 35.7,45.8 C36.6466667,45.8 37.4933333,45.5966667 38.24,45.19 C38.9866667,44.7833333 39.5766667,44.2166667 40.01,43.49 C40.4433333,42.7633333 40.66,41.9333333 40.66,41 C40.66,40.0533333 40.4433333,39.22 40.01,38.5 C39.5766667,37.78 38.9866667,37.2166667 38.24,36.81 C37.4933333,36.4033333 36.6466667,36.2 35.7,36.2 C34.7666667,36.2 33.9233333,36.4033333 33.17,36.81 C32.4166667,37.2166667 31.8233333,37.78 31.39,38.5 C30.9566667,39.22 30.74,40.0533333 30.74,41 Z M32.96,41 C32.96,40.4266667 33.08,39.92 33.32,39.48 C33.56,39.04 33.8866667,38.7 34.3,38.46 C34.7133333,38.22 35.18,38.1 35.7,38.1 C36.22,38.1 36.6866667,38.22 37.1,38.46 C37.5133333,38.7 37.84,39.04 38.08,39.48 C38.32,39.92 38.44,40.4266667 38.44,41 C38.44,41.5733333 38.32,42.0766667 38.08,42.51 C37.84,42.9433333 37.5133333,43.2833333 37.1,43.53 C36.6866667,43.7766667 36.22,43.9 35.7,43.9 C35.18,43.9 34.7133333,43.7766667 34.3,43.53 C33.8866667,43.2833333 33.56,42.9433333 33.32,42.51 C33.08,42.0766667 32.96,41.5733333 32.96,41 Z" id="Shape"></path>
                        <path d="M50.66,38.6 C50.66,37.6 50.8833333,36.73 51.33,35.99 C51.7766667,35.25 52.36,34.6766667 53.08,34.27 C53.8,33.8633333 54.5866667,33.66 55.44,33.66 C56.1066667,33.66 56.71,33.7466667 57.25,33.92 C57.79,34.0933333 58.2733333,34.33 58.7,34.63 C59.1266667,34.93 59.5,35.2666667 59.82,35.64 L59.82,32.84 C59.2466667,32.3466667 58.6166667,31.9733333 57.93,31.72 C57.2433333,31.4666667 56.3866667,31.34 55.36,31.34 C54.3333333,31.34 53.3766667,31.5166667 52.49,31.87 C51.6033333,32.2233333 50.8333333,32.7233333 50.18,33.37 C49.5266667,34.0166667 49.0166667,34.7833333 48.65,35.67 C48.2833333,36.5566667 48.1,37.5333333 48.1,38.6 C48.1,39.6533333 48.2833333,40.6233333 48.65,41.51 C49.0166667,42.3966667 49.5266667,43.1666667 50.18,43.82 C50.8333333,44.4733333 51.6033333,44.9733333 52.49,45.32 C53.3766667,45.6666667 54.3333333,45.84 55.36,45.84 C56.3866667,45.84 57.2433333,45.7133333 57.93,45.46 C58.6166667,45.2066667 59.2466667,44.84 59.82,44.36 L59.82,41.54 C59.5,41.9266667 59.1266667,42.27 58.7,42.57 C58.2733333,42.87 57.79,43.1066667 57.25,43.28 C56.71,43.4533333 56.1066667,43.54 55.44,43.54 C54.5866667,43.54 53.8,43.3333333 53.08,42.92 C52.36,42.5066667 51.7766667,41.93 51.33,41.19 C50.8833333,40.45 50.66,39.5866667 50.66,38.6 Z" id="Path"></path>
                        <path d="M64.68,36.4 L62.54,36.4 L62.54,45.6 L64.68,45.6 L64.68,36.4 Z M67.42,38.7 L68.48,36.88 C68.2666667,36.6266667 68.0133333,36.4466667 67.72,36.34 C67.4266667,36.2333333 67.1133333,36.18 66.78,36.18 C66.3133333,36.18 65.8633333,36.35 65.43,36.69 C64.9966667,37.03 64.6433333,37.4833333 64.37,38.05 C64.0966667,38.6166667 63.96,39.2666667 63.96,40 L64.68,40.42 C64.68,39.98 64.73,39.5966667 64.83,39.27 C64.93,38.9433333 65.0933333,38.6866667 65.32,38.5 C65.5466667,38.3133333 65.84,38.22 66.2,38.22 C66.4666667,38.22 66.69,38.26 66.87,38.34 C67.05,38.42 67.2333333,38.54 67.42,38.7 Z" id="Shape"></path>
                        <path d="M73.96,45.8 C75.0266667,45.8 75.94,45.59 76.7,45.17 C77.46,44.75 78.0866667,44.1266667 78.58,43.3 L76.7,42.56 C76.42,43.0533333 76.06,43.42 75.62,43.66 C75.18,43.9 74.66,44.02 74.06,44.02 C73.5,44.02 73.0266667,43.9 72.64,43.66 C72.2533333,43.42 71.9566667,43.0666667 71.75,42.6 C71.5433333,42.1333333 71.4466667,41.5733333 71.46,40.92 C71.46,40.2533333 71.5633333,39.6933333 71.77,39.24 C71.9766667,38.7866667 72.27,38.44 72.65,38.2 C73.03,37.96 73.4933333,37.84 74.04,37.84 C74.4933333,37.84 74.89,37.94 75.23,38.14 C75.57,38.34 75.8366667,38.62 76.03,38.98 C76.2233333,39.34 76.32,39.7666667 76.32,40.26 C76.32,40.3533333 76.2966667,40.4666667 76.25,40.6 C76.2033333,40.7333333 76.16,40.84 76.12,40.92 L76.78,40 L70.56,40 L70.56,41.5 L78.64,41.5 C78.64,41.4466667 78.6433333,41.36 78.65,41.24 C78.6566667,41.12 78.66,41.0066667 78.66,40.9 C78.66,39.9133333 78.48,39.07 78.12,38.37 C77.76,37.67 77.2366667,37.1333333 76.55,36.76 C75.8633333,36.3866667 75.0333333,36.2 74.06,36.2 C73.0866667,36.2 72.24,36.3966667 71.52,36.79 C70.8,37.1833333 70.2433333,37.74 69.85,38.46 C69.4566667,39.18 69.26,40.0266667 69.26,41 C69.26,41.96 69.4533333,42.8 69.84,43.52 C70.2266667,44.24 70.7766667,44.8 71.49,45.2 C72.2033333,45.6 73.0266667,45.8 73.96,45.8 Z" id="Path"></path>
                        <path d="M82.1,42.74 C82.1,42.4466667 82.17,42.2 82.31,42 C82.45,41.8 82.66,41.6433333 82.94,41.53 C83.22,41.4166667 83.5866667,41.36 84.04,41.36 C84.56,41.36 85.0533333,41.4266667 85.52,41.56 C85.9866667,41.6933333 86.4266667,41.9066667 86.84,42.2 L86.84,41.1 C86.72,40.9533333 86.5133333,40.79 86.22,40.61 C85.9266667,40.43 85.5566667,40.2733333 85.11,40.14 C84.6633333,40.0066667 84.1333333,39.94 83.52,39.94 C82.3733333,39.94 81.4866667,40.2033333 80.86,40.73 C80.2333333,41.2566667 79.92,41.9666667 79.92,42.86 C79.92,43.4866667 80.0666667,44.02 80.36,44.46 C80.6533333,44.9 81.0466667,45.2333333 81.54,45.46 C82.0333333,45.6866667 82.5666667,45.8 83.14,45.8 C83.6733333,45.8 84.1966667,45.7033333 84.71,45.51 C85.2233333,45.3166667 85.65,45.02 85.99,44.62 C86.33,44.22 86.5,43.7266667 86.5,43.14 L86.18,41.94 C86.18,42.4066667 86.0733333,42.8066667 85.86,43.14 C85.6466667,43.4733333 85.3633333,43.73 85.01,43.91 C84.6566667,44.09 84.26,44.18 83.82,44.18 C83.4866667,44.18 83.19,44.1266667 82.93,44.02 C82.67,43.9133333 82.4666667,43.75 82.32,43.53 C82.1733333,43.31 82.1,43.0466667 82.1,42.74 Z M81.42,38.8 C81.5666667,38.7066667 81.7733333,38.59 82.04,38.45 C82.3066667,38.31 82.63,38.19 83.01,38.09 C83.39,37.99 83.7933333,37.94 84.22,37.94 C84.5,37.94 84.76,37.9666667 85,38.02 C85.24,38.0733333 85.45,38.16 85.63,38.28 C85.81,38.4 85.9466667,38.5533333 86.04,38.74 C86.1333333,38.9266667 86.18,39.1666667 86.18,39.46 L86.18,45.6 L88.3,45.6 L88.3,39.04 C88.3,38.4266667 88.1366667,37.9066667 87.81,37.48 C87.4833333,37.0533333 87.0266667,36.73 86.44,36.51 C85.8533333,36.29 85.1866667,36.18 84.44,36.18 C83.5733333,36.18 82.8133333,36.3 82.16,36.54 C81.5066667,36.78 80.9666667,37.0266667 80.54,37.28 L81.42,38.8 Z" id="Shape"></path>
                        <path d="M89.54,36.4 L89.54,38.3 L94.76,38.3 L94.76,36.4 L89.54,36.4 Z M91.1,33.2 L91.1,45.6 L93.22,45.6 L93.22,33.2 L91.1,33.2 Z" id="Shape"></path>
                        <path d="M100.24,45.8 C101.306667,45.8 102.22,45.59 102.98,45.17 C103.74,44.75 104.366667,44.1266667 104.86,43.3 L102.98,42.56 C102.7,43.0533333 102.34,43.42 101.9,43.66 C101.46,43.9 100.94,44.02 100.34,44.02 C99.78,44.02 99.3066667,43.9 98.92,43.66 C98.5333333,43.42 98.2366667,43.0666667 98.03,42.6 C97.8233333,42.1333333 97.7266667,41.5733333 97.74,40.92 C97.74,40.2533333 97.8433333,39.6933333 98.05,39.24 C98.2566667,38.7866667 98.55,38.44 98.93,38.2 C99.31,37.96 99.7733333,37.84 100.32,37.84 C100.773333,37.84 101.17,37.94 101.51,38.14 C101.85,38.34 102.116667,38.62 102.31,38.98 C102.503333,39.34 102.6,39.7666667 102.6,40.26 C102.6,40.3533333 102.576667,40.4666667 102.53,40.6 C102.483333,40.7333333 102.44,40.84 102.4,40.92 L103.06,40 L96.84,40 L96.84,41.5 L104.92,41.5 C104.92,41.4466667 104.923333,41.36 104.93,41.24 C104.936667,41.12 104.94,41.0066667 104.94,40.9 C104.94,39.9133333 104.76,39.07 104.4,38.37 C104.04,37.67 103.516667,37.1333333 102.83,36.76 C102.143333,36.3866667 101.313333,36.2 100.34,36.2 C99.3666667,36.2 98.52,36.3966667 97.8,36.79 C97.08,37.1833333 96.5233333,37.74 96.13,38.46 C95.7366667,39.18 95.54,40.0266667 95.54,41 C95.54,41.96 95.7333333,42.8 96.12,43.52 C96.5066667,44.24 97.0566667,44.8 97.77,45.2 C98.4833333,45.6 99.3066667,45.8 100.24,45.8 Z" id="Path"></path>
                    </g>
                </g>
                <g id="Group-3" transform="translate(461.480000, 0.000000)" fill-rule="nonzero">
                    <g id="win-win" transform="translate(19.310000, 0.000000)">
                        <path d="M51.5772551,26.7768516 C51.1017119,25.9120469 50.2769765,25.2919063 49.3144128,25.075375 C47.6267523,24.6955313 45.9147154,25.6340703 45.3316113,27.25775 C44.367524,29.9425547 42.5049628,32.3768047 40.0292331,34.268 C40.0836738,33.9533594 40.1136364,33.6304922 40.1136364,33.3006172 L40.1136364,31.9505469 C40.1136364,28.8283125 37.5734108,26.2882344 34.4510968,26.2882344 C31.3287827,26.2882344 28.7884555,28.8283125 28.7884555,31.9505469 L28.7884555,33.3006172 C28.7884555,34.6814609 29.2859375,35.9479453 30.1103682,36.9316797 L21.8914535,36.9316797 C22.7157826,35.9479453 23.2133662,34.6814609 23.2133662,33.3006172 L23.2133662,31.9505469 C23.2133662,28.8283125 20.6731406,26.2882344 17.5507249,26.2882344 C14.4283093,26.2882344 11.8881852,28.8283125 11.8881852,31.9505469 L11.8881852,33.3006172 C11.8881852,33.6311016 11.9182495,33.9544766 11.9728933,34.2697266 C9.49604633,32.3783281 7.63267252,29.9433672 6.66828059,27.25775 C6.08517643,25.6340703 4.3732411,24.6953281 2.68547904,25.075375 C1.72291535,25.2919063 0.898179963,25.9120469 0.422636729,26.7768516 C-0.0479296544,27.6327188 -0.129692214,28.6484453 0.198170571,29.563625 C2.08886628,34.8409141 5.57306857,39.4554063 9.58593436,42.0314375 L9.58593436,50.984375 C9.58593436,51.5452031 10.0406561,52 10.6016183,52 L41.3971563,52 C41.9581185,52 42.4128402,51.5452031 42.4128402,50.984375 L42.4128402,42.0195547 C46.4333237,39.4329609 49.9172213,34.8243594 51.802026,29.563625 C52.1296856,28.6484453 52.0478215,27.6327188 51.5772551,26.7768516 L51.5772551,26.7768516 Z M30.8197219,31.9506484 C30.8197219,29.9484453 32.4486758,28.3195859 34.4509952,28.3195859 C36.453213,28.3195859 38.0821669,29.9484453 38.0821669,31.9506484 L38.0821669,33.3007188 C38.0821669,35.3029219 36.453213,36.9317813 34.4509952,36.9317813 C32.4486758,36.9317813 30.8197219,35.3029219 30.8197219,33.3007188 L30.8197219,31.9506484 Z M13.91935,31.9506484 C13.91935,29.9484453 15.548304,28.3195859 17.5505218,28.3195859 C19.5528412,28.3195859 21.1817951,29.9484453 21.1817951,31.9506484 L21.1817951,33.3007188 C21.1817951,35.3029219 19.5528412,36.9317813 17.5505218,36.9317813 C15.548304,36.9317813 13.91935,35.3029219 13.91935,33.3007188 L13.91935,31.9506484 Z M21.363501,49.96875 L11.6170992,49.96875 L11.6170992,41.4652266 C11.6170992,41.1067109 11.4280804,40.7748047 11.1198203,40.5917891 C7.29241839,38.3205469 3.92430878,33.9416797 2.11029721,28.8784844 C1.9766332,28.5054453 2.00933823,28.1066094 2.20241975,27.7555078 C2.39763421,27.4004453 2.73616167,27.1458281 3.1310596,27.0569609 C3.82050588,26.9024844 4.51889018,27.2833438 4.75615395,27.9442109 C6.31096297,32.2739219 10.187524,36.0990703 14.8704365,38.2870313 C15.6649045,38.712375 16.5881612,38.9628281 17.5505218,38.9628281 L24.8120527,38.9628281 C22.7108058,40.652625 21.3633994,43.2432813 21.3633994,46.1430938 L21.3633994,49.96875 L21.363501,49.96875 Z M49.8893915,28.8785859 C48.0787317,33.9322344 44.7032076,38.311 40.8597579,40.5918906 C40.4884238,40.8122813 40.299405,41.2412813 40.3811676,41.6596172 L40.3811676,49.96875 L28.5091424,49.96875 L28.5091424,45.4584609 C28.5091424,44.8976328 28.0544207,44.4428359 27.4934584,44.4428359 C26.9324962,44.4428359 26.4777745,44.8976328 26.4777745,45.4584609 L26.4777745,49.96875 L23.3947673,49.96875 L23.3947673,46.1432969 C23.3947673,42.1840859 26.616009,38.9630313 30.5754499,38.9630313 L34.4508936,38.9630313 C35.4118322,38.9630313 36.4836835,38.6685 37.279675,38.2436641 C41.9625875,36.0557031 45.6885226,32.274125 47.2433316,27.9444141 C47.4805954,27.2835469 48.179386,26.9024844 48.868426,27.0571641 C49.2634255,27.1460313 49.601953,27.4006484 49.7971674,27.7557109 C49.9903505,28.1067109 50.0230555,28.5055469 49.8893915,28.8785859 L49.8893915,28.8785859 Z" id="Shape" stroke="#EFF4EF" stroke-width="0.78"></path>
                        <path d="M25.9997936,0 C26.9437803,0 27.7913684,0.517239989 28.223211,1.35310615 L28.2444552,1.39516406 L30.4893199,5.9434375 L35.5089316,6.67275781 C36.4587993,6.81088281 37.2330551,7.463625 37.5295333,8.37636719 C37.82117,9.27389701 37.5914046,10.2393849 36.9301474,10.9082846 L36.8961528,10.9420391 L33.2638638,14.4823047 L34.1213042,19.4814141 C34.2836105,20.4273672 33.902018,21.3653984 33.1255276,21.9294766 C32.3622979,22.4840939 31.3732145,22.5638669 30.5328553,22.1422622 L30.489523,22.1200078 L25.9997936,19.7597969 L21.5100642,22.1201094 C21.1406599,22.3142969 20.7407851,22.4102734 20.3429417,22.4102734 C19.8261617,22.4102734 19.312835,22.2483828 18.8740596,21.9295781 C18.1102985,21.3747472 17.7285941,20.4580251 17.8707386,19.5280251 L17.878283,19.4815156 L18.7357234,14.4824062 L15.1034344,10.9420391 C14.4162226,10.2721328 14.1734741,9.28900781 14.4700539,8.37636719 C14.76185,7.47834665 15.5160377,6.83200665 16.4448374,6.67993857 L16.4906556,6.67285937 L21.5103689,5.9434375 L23.7552336,1.39516406 C24.1799926,0.534625 25.0400738,0 25.9997936,0 Z M25.9997936,2.26086957 C25.9077035,2.26086957 25.8371808,2.30061653 25.7924674,2.37742275 L25.782609,2.39580389 L23.0116964,8.00989188 L16.8157979,8.91022695 C16.7176297,8.9244931 16.6508972,8.98075305 16.6202376,9.07510978 C16.5918446,9.1624813 16.6078382,9.24172002 16.6670597,9.30795571 L16.681493,9.32300783 L21.1649973,13.6930487 L20.1065777,19.8638877 C20.0898469,19.9614207 20.1226997,20.0421876 20.203008,20.1005272 C20.2494588,20.1342774 20.2961201,20.1494039 20.3429417,20.1494039 C20.3736151,20.1494039 20.4052541,20.1428671 20.4381356,20.1284992 L20.4580158,20.1189284 L25.9997709,17.2055515 L31.541323,20.1186962 C31.6293325,20.1649501 31.716443,20.1586583 31.7967377,20.1003105 C31.8711941,20.0462219 31.9048155,19.9727789 31.8958099,19.8842979 L31.8929742,19.8636142 L30.8345864,13.6929267 L35.3181103,9.32299211 C35.3890959,9.25380432 35.4099559,9.16930253 35.3792564,9.07482303 C35.3508529,8.98737939 35.2912926,8.93262849 35.2043915,8.91383255 L35.1838538,8.91013476 L28.9880031,8.00991379 L26.2172007,2.39604896 C26.1732434,2.30701514 26.0990021,2.26086957 25.9997936,2.26086957 Z" id="Path"></path>
                    </g>
                    <g id="4-out-of-5-Winners" transform="translate(0.000000, 67.120000)">
                        <polygon id="Path" points="0 13.3 12.16 13.3 12.16 10.86 9.3 10.86 8.96 11.16 3.96 11.16 7.26 6.44 7.26 12.14 7.02 12.36 7.02 15.88 9.96 15.88 9.96 1.88 8.02 1.88"></polygon>
                        <path d="M19.58,11.28 C19.58,12.2266667 19.8033333,13.0633333 20.25,13.79 C20.6966667,14.5166667 21.3033333,15.08 22.07,15.48 C22.8366667,15.88 23.7066667,16.08 24.68,16.08 C25.6533333,16.08 26.5233333,15.88 27.29,15.48 C28.0566667,15.08 28.6633333,14.5166667 29.11,13.79 C29.5566667,13.0633333 29.78,12.2266667 29.78,11.28 C29.78,10.32 29.5566667,9.48 29.11,8.76 C28.6633333,8.04 28.0566667,7.48 27.29,7.08 C26.5233333,6.68 25.6533333,6.48 24.68,6.48 C23.7066667,6.48 22.8366667,6.68 22.07,7.08 C21.3033333,7.48 20.6966667,8.04 20.25,8.76 C19.8033333,9.48 19.58,10.32 19.58,11.28 Z M22.22,11.28 C22.22,10.76 22.33,10.3 22.55,9.9 C22.77,9.5 23.0666667,9.19333333 23.44,8.98 C23.8133333,8.76666667 24.2266667,8.66 24.68,8.66 C25.1333333,8.66 25.5466667,8.76666667 25.92,8.98 C26.2933333,9.19333333 26.59,9.5 26.81,9.9 C27.03,10.3 27.14,10.76 27.14,11.28 C27.14,11.8 27.03,12.2566667 26.81,12.65 C26.59,13.0433333 26.2933333,13.35 25.92,13.57 C25.5466667,13.79 25.1333333,13.9 24.68,13.9 C24.2266667,13.9 23.8133333,13.79 23.44,13.57 C23.0666667,13.35 22.77,13.0433333 22.55,12.65 C22.33,12.2566667 22.22,11.8 22.22,11.28 Z" id="Shape"></path>
                        <path d="M34.4,12.28 L34.4,6.68 L31.72,6.68 L31.72,12.56 C31.72,13.6533333 31.99,14.5133333 32.53,15.14 C33.07,15.7666667 33.8866667,16.08 34.98,16.08 C35.6333333,16.08 36.1866667,15.9433333 36.64,15.67 C37.0933333,15.3966667 37.4666667,15 37.76,14.48 L37.76,15.88 L40.34,15.88 L40.34,6.68 L37.76,6.68 L37.76,12.28 C37.76,12.6666667 37.6833333,13 37.53,13.28 C37.3766667,13.56 37.1633333,13.7766667 36.89,13.93 C36.6166667,14.0833333 36.2933333,14.16 35.92,14.16 C35.3866667,14.16 35,13.9966667 34.76,13.67 C34.52,13.3433333 34.4,12.88 34.4,12.28 Z" id="Path"></path>
                        <path d="M41.72,6.68 L41.72,8.86 L47.4,8.86 L47.4,6.68 L41.72,6.68 Z M43.3,3.48 L43.3,15.88 L45.8,15.88 L45.8,3.48 L43.3,3.48 Z" id="Shape"></path>
                        <path d="M54.16,11.28 C54.16,12.2266667 54.3833333,13.0633333 54.83,13.79 C55.2766667,14.5166667 55.8833333,15.08 56.65,15.48 C57.4166667,15.88 58.2866667,16.08 59.26,16.08 C60.2333333,16.08 61.1033333,15.88 61.87,15.48 C62.6366667,15.08 63.2433333,14.5166667 63.69,13.79 C64.1366667,13.0633333 64.36,12.2266667 64.36,11.28 C64.36,10.32 64.1366667,9.48 63.69,8.76 C63.2433333,8.04 62.6366667,7.48 61.87,7.08 C61.1033333,6.68 60.2333333,6.48 59.26,6.48 C58.2866667,6.48 57.4166667,6.68 56.65,7.08 C55.8833333,7.48 55.2766667,8.04 54.83,8.76 C54.3833333,9.48 54.16,10.32 54.16,11.28 Z M56.8,11.28 C56.8,10.76 56.91,10.3 57.13,9.9 C57.35,9.5 57.6466667,9.19333333 58.02,8.98 C58.3933333,8.76666667 58.8066667,8.66 59.26,8.66 C59.7133333,8.66 60.1266667,8.76666667 60.5,8.98 C60.8733333,9.19333333 61.17,9.5 61.39,9.9 C61.61,10.3 61.72,10.76 61.72,11.28 C61.72,11.8 61.61,12.2566667 61.39,12.65 C61.17,13.0433333 60.8733333,13.35 60.5,13.57 C60.1266667,13.79 59.7133333,13.9 59.26,13.9 C58.8066667,13.9 58.3933333,13.79 58.02,13.57 C57.6466667,13.35 57.35,13.0433333 57.13,12.65 C56.91,12.2566667 56.8,11.8 56.8,11.28 Z" id="Shape"></path>
                        <path d="M65.52,6.68 L65.52,8.86 L71.28,8.86 L71.28,6.68 L65.52,6.68 Z M71,2.88 L72.1,0.94 C71.98,0.806666667 71.8166667,0.666666667 71.61,0.52 C71.4033333,0.373333333 71.1533333,0.25 70.86,0.15 C70.5666667,0.05 70.2133333,0 69.8,0 C69.1066667,0 68.52,0.13 68.04,0.39 C67.56,0.65 67.2,1.02 66.96,1.5 C66.72,1.98 66.6,2.57333333 66.6,3.28 L66.6,15.88 L69.1,15.88 L69.1,3.86 C69.1,3.51333333 69.14,3.22666667 69.22,3 C69.3,2.77333333 69.41,2.61 69.55,2.51 C69.69,2.41 69.86,2.36 70.06,2.36 C70.22,2.36 70.3833333,2.39666667 70.55,2.47 C70.7166667,2.54333333 70.8666667,2.68 71,2.88 Z" id="Shape"></path>
                        <path d="M89.14,11.36 C89.14,10.4 88.9433333,9.57666667 88.55,8.89 C88.1566667,8.20333333 87.64,7.67333333 87,7.3 C86.36,6.92666667 85.66,6.74 84.9,6.74 C84.4866667,6.74 84.0833333,6.77666667 83.69,6.85 C83.2966667,6.92333333 82.9266667,7.05333333 82.58,7.24 L83.42,4.36 L88.92,4.36 L88.92,1.88 L81.3,1.88 L79.38,9.76 C79.86,9.49333333 80.3166667,9.29 80.75,9.15 C81.1833333,9.01 81.6066667,8.91 82.02,8.85 C82.4333333,8.79 82.8266667,8.76 83.2,8.76 C83.7066667,8.76 84.1766667,8.85 84.61,9.03 C85.0433333,9.21 85.39,9.47333333 85.65,9.82 C85.91,10.1666667 86.04,10.5933333 86.04,11.1 C86.04,11.62 85.9266667,12.0566667 85.7,12.41 C85.4733333,12.7633333 85.15,13.0333333 84.73,13.22 C84.31,13.4066667 83.8,13.5 83.2,13.5 C82.8133333,13.5 82.4066667,13.4233333 81.98,13.27 C81.5533333,13.1166667 81.1433333,12.9066667 80.75,12.64 C80.3566667,12.3733333 79.9933333,12.0733333 79.66,11.74 L78.32,13.96 C78.7066667,14.3466667 79.1533333,14.7033333 79.66,15.03 C80.1666667,15.3566667 80.7566667,15.62 81.43,15.82 C82.1033333,16.02 82.8666667,16.12 83.72,16.12 C84.4,16.12 85.06,16.0266667 85.7,15.84 C86.34,15.6533333 86.92,15.3666667 87.44,14.98 C87.96,14.5933333 88.3733333,14.1 88.68,13.5 C88.9866667,12.9 89.14,12.1866667 89.14,11.36 Z" id="Path"></path>
                        <polygon id="Path" points="21.03 40.58 17.09 31.18 13.19 40.58 10.15 31.88 6.79 31.88 12.67 46.66 17.09 37.46 21.49 46.66 27.39 31.88 24.03 31.88"></polygon>
                        <path d="M28.65,33.12 C28.65,33.5333333 28.8033333,33.88 29.11,34.16 C29.4166667,34.44 29.7833333,34.58 30.21,34.58 C30.6366667,34.58 31,34.44 31.3,34.16 C31.6,33.88 31.75,33.5333333 31.75,33.12 C31.75,32.6933333 31.6,32.3433333 31.3,32.07 C31,31.7966667 30.6366667,31.66 30.21,31.66 C29.7833333,31.66 29.4166667,31.7966667 29.11,32.07 C28.8033333,32.3433333 28.65,32.6933333 28.65,33.12 Z M28.93,36.68 L28.93,45.88 L31.45,45.88 L31.45,36.68 L28.93,36.68 Z" id="Shape"></path>
                        <path d="M40.13,40.28 L40.13,45.88 L42.81,45.88 L42.81,40 C42.81,38.8933333 42.5433333,38.03 42.01,37.41 C41.4766667,36.79 40.6633333,36.48 39.57,36.48 C38.9166667,36.48 38.36,36.6166667 37.9,36.89 C37.44,37.1633333 37.07,37.56 36.79,38.08 L36.79,36.68 L34.19,36.68 L34.19,45.88 L36.79,45.88 L36.79,40.28 C36.79,39.8933333 36.8633333,39.56 37.01,39.28 C37.1566667,39 37.37,38.7833333 37.65,38.63 C37.93,38.4766667 38.25,38.4 38.61,38.4 C39.1433333,38.4 39.53,38.56 39.77,38.88 C40.01,39.2 40.13,39.6666667 40.13,40.28 Z" id="Path"></path>
                        <path d="M51.31,40.28 L51.31,45.88 L53.99,45.88 L53.99,40 C53.99,38.8933333 53.7233333,38.03 53.19,37.41 C52.6566667,36.79 51.8433333,36.48 50.75,36.48 C50.0966667,36.48 49.54,36.6166667 49.08,36.89 C48.62,37.1633333 48.25,37.56 47.97,38.08 L47.97,36.68 L45.37,36.68 L45.37,45.88 L47.97,45.88 L47.97,40.28 C47.97,39.8933333 48.0433333,39.56 48.19,39.28 C48.3366667,39 48.55,38.7833333 48.83,38.63 C49.11,38.4766667 49.43,38.4 49.79,38.4 C50.3233333,38.4 50.71,38.56 50.95,38.88 C51.19,39.2 51.31,39.6666667 51.31,40.28 Z" id="Path"></path>
                        <path d="M60.89,46.08 C61.9966667,46.08 62.9466667,45.8633333 63.74,45.43 C64.5333333,44.9966667 65.17,44.3466667 65.65,43.48 L63.39,42.78 C63.1233333,43.22 62.7866667,43.55 62.38,43.77 C61.9733333,43.99 61.4833333,44.1 60.91,44.1 C60.4033333,44.1 59.97,43.9866667 59.61,43.76 C59.25,43.5333333 58.98,43.2066667 58.8,42.78 C58.62,42.3533333 58.53,41.8333333 58.53,41.22 C58.5433333,40.58 58.64,40.0433333 58.82,39.61 C59,39.1766667 59.26,38.85 59.6,38.63 C59.94,38.41 60.3633333,38.3 60.87,38.3 C61.2833333,38.3 61.6433333,38.3933333 61.95,38.58 C62.2566667,38.7666667 62.4933333,39.02 62.66,39.34 C62.8266667,39.66 62.91,40.0466667 62.91,40.5 C62.91,40.5933333 62.8866667,40.71 62.84,40.85 C62.7933333,40.99 62.7433333,41.1 62.69,41.18 L63.39,40.26 L57.41,40.26 L57.41,41.86 L65.65,41.86 C65.6633333,41.78 65.6733333,41.6733333 65.68,41.54 C65.6866667,41.4066667 65.69,41.28 65.69,41.16 C65.69,40.1733333 65.5033333,39.33 65.13,38.63 C64.7566667,37.93 64.2133333,37.3966667 63.5,37.03 C62.7866667,36.6633333 61.9233333,36.48 60.91,36.48 C59.8966667,36.48 59.0166667,36.6766667 58.27,37.07 C57.5233333,37.4633333 56.9466667,38.0166667 56.54,38.73 C56.1333333,39.4433333 55.93,40.2933333 55.93,41.28 C55.93,42.2533333 56.1333333,43.0966667 56.54,43.81 C56.9466667,44.5233333 57.5233333,45.08 58.27,45.48 C59.0166667,45.88 59.89,46.08 60.89,46.08 Z" id="Path"></path>
                        <path d="M70.19,36.68 L67.65,36.68 L67.65,45.88 L70.19,45.88 L70.19,36.68 Z M72.89,39.38 L74.07,37.18 C73.8833333,36.94 73.64,36.76 73.34,36.64 C73.04,36.52 72.7233333,36.46 72.39,36.46 C71.91,36.46 71.4433333,36.63 70.99,36.97 C70.5366667,37.31 70.17,37.7633333 69.89,38.33 C69.61,38.8966667 69.47,39.5466667 69.47,40.28 L70.19,41 C70.19,40.56 70.2466667,40.1833333 70.36,39.87 C70.4733333,39.5566667 70.6433333,39.3133333 70.87,39.14 C71.0966667,38.9666667 71.37,38.88 71.69,38.88 C71.9566667,38.88 72.18,38.9233333 72.36,39.01 C72.54,39.0966667 72.7166667,39.22 72.89,39.38 Z" id="Shape"></path>
                        <path d="M75.91,42.7 L74.65,44.32 C74.9966667,44.6533333 75.3866667,44.9633333 75.82,45.25 C76.2533333,45.5366667 76.74,45.7666667 77.28,45.94 C77.82,46.1133333 78.4166667,46.2 79.07,46.2 C80.1233333,46.2 80.95,45.9433333 81.55,45.43 C82.15,44.9166667 82.45,44.2 82.45,43.28 C82.45,42.72 82.3233333,42.2666667 82.07,41.92 C81.8166667,41.5733333 81.48,41.2833333 81.06,41.05 C80.64,40.8166667 80.1833333,40.6066667 79.69,40.42 C79.29,40.2466667 78.9333333,40.1 78.62,39.98 C78.3066667,39.86 78.0666667,39.7233333 77.9,39.57 C77.7333333,39.4166667 77.65,39.24 77.65,39.04 C77.65,38.8133333 77.7333333,38.6433333 77.9,38.53 C78.0666667,38.4166667 78.2966667,38.36 78.59,38.36 C79.03,38.36 79.48,38.4733333 79.94,38.7 C80.4,38.9266667 80.7966667,39.22 81.13,39.58 L82.27,37.98 C81.9766667,37.6866667 81.6366667,37.43 81.25,37.21 C80.8633333,36.99 80.4433333,36.8133333 79.99,36.68 C79.5366667,36.5466667 79.05,36.48 78.53,36.48 C77.9166667,36.48 77.36,36.5766667 76.86,36.77 C76.36,36.9633333 75.9633333,37.25 75.67,37.63 C75.3766667,38.01 75.23,38.4733333 75.23,39.02 C75.23,39.5933333 75.36,40.0633333 75.62,40.43 C75.88,40.7966667 76.21,41.09 76.61,41.31 C77.01,41.53 77.4233333,41.72 77.85,41.88 C78.3033333,42.0266667 78.6766667,42.1666667 78.97,42.3 C79.2633333,42.4333333 79.4866667,42.5833333 79.64,42.75 C79.7933333,42.9166667 79.87,43.12 79.87,43.36 C79.87,43.6266667 79.7766667,43.8366667 79.59,43.99 C79.4033333,44.1433333 79.1366667,44.22 78.79,44.22 C78.5233333,44.22 78.24,44.1666667 77.94,44.06 C77.64,43.9533333 77.3233333,43.79 76.99,43.57 C76.6566667,43.35 76.2966667,43.06 75.91,42.7 Z" id="Path"></path>
                    </g>
                </g>
                <g id="Group-4" transform="translate(227.590000, 0.000000)" fill-rule="nonzero">
                    <g id="Group-2" transform="translate(28.200000, 0.000000)">
                        <g id="Group" transform="translate(14.000000, 19.000000)">
                            <path d="M0.663101604,15 L0.663101604,12.5907821 L5.39037433,7.73044693 C5.98930481,7.08798883 6.42067736,6.52583799 6.68449198,6.04399441 C6.9483066,5.56215084 7.0802139,5.07681564 7.0802139,4.58798883 C7.0802139,3.33100559 6.28877005,2.70251397 4.70588235,2.70251397 C4.09269162,2.70251397 3.47950089,2.81773743 2.86631016,3.04818436 C2.25311943,3.27863128 1.65418895,3.63128492 1.06951872,4.10614525 L0,1.71787709 C0.62745098,1.18715084 1.40106952,0.768156425 2.32085561,0.460893855 C3.24064171,0.153631285 4.18538324,0 5.15508021,0 C6.83778966,0 8.12477718,0.366620112 9.01604278,1.09986034 C9.90730838,1.83310056 10.3529412,2.87709497 10.3529412,4.23184358 C10.3529412,5.12569832 10.1426025,5.98114525 9.72192513,6.79818436 C9.30124777,7.61522346 8.61319073,8.49860335 7.65775401,9.44832402 L4.7486631,12.3393855 L10.9090909,12.3393855 L10.9090909,15 L0.663101604,15 Z" id="Path"></path>
                            <path d="M18.3101604,15 C17.311943,15 16.3386809,14.8498603 15.3903743,14.549581 C14.4420677,14.2493017 13.6755793,13.8547486 13.0909091,13.3659218 L14.1390374,10.9148045 C15.4224599,11.8365922 16.7914439,12.297486 18.2459893,12.297486 C19.0588235,12.297486 19.6898396,12.1019553 20.1390374,11.7108939 C20.5882353,11.3198324 20.8128342,10.7960894 20.8128342,10.1396648 C20.8128342,9.46927374 20.5953654,8.93156425 20.1604278,8.52653631 C19.7254902,8.12150838 19.1372549,7.91899441 18.3957219,7.91899441 C17.3262032,7.91899441 16.4135472,8.31703911 15.657754,9.11312849 L13.5187166,9.11312849 L13.5187166,0 L23.0588235,0 L23.0588235,2.66061453 L16.7058824,2.66061453 L16.7058824,5.97067039 C17.4046346,5.52374302 18.2459893,5.30027933 19.2299465,5.30027933 C20.1853832,5.30027933 21.0196078,5.49930168 21.7326203,5.89734637 C22.4456328,6.29539106 23.0017825,6.85055866 23.4010695,7.56284916 C23.8003565,8.27513966 24,9.09916201 24,10.0349162 C24,11.0265363 23.771836,11.8924581 23.315508,12.6326816 C22.85918,13.372905 22.2032086,13.952514 21.3475936,14.3715084 C20.4919786,14.7905028 19.4795009,15 18.3101604,15 Z" id="Path"></path>
                        </g>
                        <path d="M40.153452,16.2806905 L38.1112607,15.0786584 L46.7432034,0.148153482 L48.7643411,1.35018566 L40.153452,16.2806905 Z M38.0270466,9.63788117 C36.8059426,9.63788117 35.8585342,9.22665963 35.1848216,8.40421657 C34.511109,7.5817735 34.1742527,6.47463861 34.1742527,5.08281188 C34.1742527,3.69098515 34.514618,2.58736497 35.1953484,1.77195133 C35.8760788,0.956537692 36.8199782,0.548830873 38.0270466,0.548830873 C39.234115,0.548830873 40.1780145,0.960052406 40.8587449,1.78249547 C41.5394753,2.60493854 41.8798406,3.70504401 41.8798406,5.08281188 C41.8798406,6.47463861 41.5394753,7.5817735 40.8587449,8.40421657 C40.1780145,9.22665963 39.234115,9.63788117 38.0270466,9.63788117 Z M38.0270466,7.61340593 C38.4340813,7.61340593 38.753393,7.41306723 38.9849817,7.01238984 C39.2165704,6.61171245 39.3323648,5.9685198 39.3323648,5.08281188 C39.3323648,4.19710396 39.2165704,3.56094073 38.9849817,3.1743222 C38.753393,2.78770366 38.4340813,2.5943944 38.0270466,2.5943944 C37.6059763,2.5943944 37.2831557,2.78418895 37.0585848,3.16377806 C36.8340139,3.54336717 36.7217285,4.18304511 36.7217285,5.08281188 C36.7217285,5.99663751 36.8340139,6.64685959 37.0585848,7.03347813 C37.2831557,7.42009666 37.6059763,7.61340593 38.0270466,7.61340593 Z M48.8696087,15.8800132 C47.6485047,15.8800132 46.7010963,15.4687916 46.0273837,14.6463486 C45.3536711,13.8239055 45.0168148,12.7097412 45.0168148,11.3038556 C45.0168148,9.91202886 45.35718,8.81192339 46.0379105,8.00353918 C46.7186409,7.19515497 47.6625403,6.79096286 48.8696087,6.79096286 C50.0766771,6.79096286 51.0205766,7.19866968 51.701307,8.01408332 C52.3820374,8.82949696 52.7224026,9.92608771 52.7224026,11.3038556 C52.7224026,12.7097412 52.3855464,13.8239055 51.7118338,14.6463486 C51.0381212,15.4687916 50.0907128,15.8800132 48.8696087,15.8800132 Z M48.8696087,13.8344496 C49.2906791,13.8344496 49.6134997,13.6376257 49.8380706,13.2439777 C50.0626415,12.8503297 50.1749269,12.2036224 50.1749269,11.3038556 C50.1749269,10.4322065 50.0591325,9.79955801 49.8275438,9.40591005 C49.5959551,9.01226208 49.2766434,8.8154381 48.8696087,8.8154381 C48.4485384,8.8154381 48.1257177,9.00523266 47.9011469,9.38482176 C47.676576,9.76441087 47.5642906,10.4040888 47.5642906,11.3038556 C47.5642906,12.2176812 47.676576,12.8679033 47.9011469,13.2545218 C48.1257177,13.6411404 48.4485384,13.8344496 48.8696087,13.8344496 Z" id="Shape"></path>
                        <path d="M51.413541,22.586 C50.6315479,21.804 49.3675592,21.804 48.5855662,22.586 L44.5856019,26.586 C43.8036089,27.368 43.8036089,28.632 44.5856019,29.414 C45.3675949,30.196 46.6315836,30.196 47.4135767,29.414 L47.7595736,29.068 C46.259587,39.748 37.0876689,48 25.9997679,48 C13.8698762,48 3.99996429,38.13 3.99996429,26 C3.99996429,13.87 13.8698762,4 25.9997679,4 C27.105758,4 27.99975,3.104 27.99975,2 C27.99975,0.896 27.105758,0 25.9997679,0 C11.6638959,0 0,11.664 0,26 C0,40.336 11.6638959,52 25.9997679,52 C39.427648,52 50.509549,41.766 51.859537,28.688 L52.5855305,29.414 C52.975527,29.804 53.4875224,30 53.9995179,30 C54.5115133,30 55.0235087,29.804 55.4135052,29.414 C56.1954983,28.632 56.1954983,27.368 55.4135052,26.586 L51.413541,22.586 Z" id="Path"></path>
                    </g>
                    <g id="25%-Returns-Guarante" transform="translate(0.000000, 68.720000)">
                        <path d="M0,14.28 L10.68,14.28 L10.68,12.08 L4.62,12.08 L8.58,8.18 C9.15333333,7.64666667 9.62,7.04 9.98,6.36 C10.34,5.68 10.52,4.97333333 10.52,4.24 C10.52,3.77333333 10.42,3.29333333 10.22,2.8 C10.02,2.30666667 9.72333333,1.85333333 9.33,1.44 C8.93666667,1.02666667 8.44,0.69 7.84,0.43 C7.24,0.17 6.53333333,0.04 5.72,0.04 C4.66666667,0.04 3.76666667,0.263333333 3.02,0.71 C2.27333333,1.15666667 1.71,1.77 1.33,2.55 C0.95,3.33 0.76,4.22 0.76,5.22 L3.1,5.22 C3.1,4.60666667 3.20333333,4.06666667 3.41,3.6 C3.61666667,3.13333333 3.91333333,2.77666667 4.3,2.53 C4.68666667,2.28333333 5.14666667,2.16 5.68,2.16 C6.06666667,2.16 6.40666667,2.22333333 6.7,2.35 C6.99333333,2.47666667 7.24333333,2.64666667 7.45,2.86 C7.65666667,3.07333333 7.81,3.31 7.91,3.57 C8.01,3.83 8.06,4.09333333 8.06,4.36 C8.06,4.73333333 8,5.08666667 7.88,5.42 C7.76,5.75333333 7.58,6.08666667 7.34,6.42 C7.1,6.75333333 6.81333333,7.1 6.48,7.46 L0,14.28 Z" id="Path"></path>
                        <path d="M22.82,9.72 C22.82,8.77333333 22.63,7.95333333 22.25,7.26 C21.87,6.56666667 21.36,6.02666667 20.72,5.64 C20.08,5.25333333 19.3733333,5.06 18.6,5.06 C18.2133333,5.06 17.8333333,5.1 17.46,5.18 C17.0866667,5.26 16.7266667,5.38666667 16.38,5.56 L17.26,2.36 L22.68,2.36 L22.68,0.28 L15.48,0.28 L13.58,7.98 C14.06,7.68666667 14.5033333,7.46 14.91,7.3 C15.3166667,7.14 15.7166667,7.03 16.11,6.97 C16.5033333,6.91 16.9066667,6.88 17.32,6.88 C17.8533333,6.88 18.3466667,6.98666667 18.8,7.2 C19.2533333,7.41333333 19.6133333,7.72 19.88,8.12 C20.1466667,8.52 20.28,9.00666667 20.28,9.58 C20.28,10.14 20.1633333,10.6233333 19.93,11.03 C19.6966667,11.4366667 19.36,11.75 18.92,11.97 C18.48,12.19 17.9466667,12.3 17.32,12.3 C16.88,12.3 16.4366667,12.21 15.99,12.03 C15.5433333,11.85 15.1333333,11.61 14.76,11.31 C14.3866667,11.01 14.06,10.6733333 13.78,10.3 L12.38,12.02 C12.74,12.46 13.16,12.87 13.64,13.25 C14.12,13.63 14.69,13.9333333 15.35,14.16 C16.01,14.3866667 16.7666667,14.5 17.62,14.5 C18.3,14.5 18.9466667,14.4033333 19.56,14.21 C20.1733333,14.0166667 20.7266667,13.7233333 21.22,13.33 C21.7133333,12.9366667 22.1033333,12.44 22.39,11.84 C22.6766667,11.24 22.82,10.5333333 22.82,9.72 Z" id="Path"></path>
                        <path d="M24.22,3.4 C24.22,4.02666667 24.3633333,4.59666667 24.65,5.11 C24.9366667,5.62333333 25.34,6.03333333 25.86,6.34 C26.38,6.64666667 26.9666667,6.8 27.62,6.8 C28.3,6.8 28.8966667,6.64666667 29.41,6.34 C29.9233333,6.03333333 30.3233333,5.62333333 30.61,5.11 C30.8966667,4.59666667 31.04,4.02666667 31.04,3.4 C31.04,2.77333333 30.8966667,2.20333333 30.61,1.69 C30.3233333,1.17666667 29.9233333,0.766666667 29.41,0.46 C28.8966667,0.153333333 28.3,0 27.62,0 C26.9666667,0 26.38,0.153333333 25.86,0.46 C25.34,0.766666667 24.9366667,1.17666667 24.65,1.69 C24.3633333,2.20333333 24.22,2.77333333 24.22,3.4 Z M26.08,3.4 C26.08,3.09333333 26.1433333,2.81333333 26.27,2.56 C26.3966667,2.30666667 26.5766667,2.10666667 26.81,1.96 C27.0433333,1.81333333 27.3133333,1.74 27.62,1.74 C27.9533333,1.74 28.2333333,1.81333333 28.46,1.96 C28.6866667,2.10666667 28.8666667,2.30666667 29,2.56 C29.1333333,2.81333333 29.2,3.09333333 29.2,3.4 C29.2,3.69333333 29.1333333,3.97 29,4.23 C28.8666667,4.49 28.6866667,4.69666667 28.46,4.85 C28.2333333,5.00333333 27.9533333,5.08 27.62,5.08 C27.3133333,5.08 27.0433333,5.00333333 26.81,4.85 C26.5766667,4.69666667 26.3966667,4.49 26.27,4.23 C26.1433333,3.97 26.08,3.69333333 26.08,3.4 Z M32.58,11.14 C32.58,11.7666667 32.7233333,12.34 33.01,12.86 C33.2966667,13.38 33.7,13.79 34.22,14.09 C34.74,14.39 35.3266667,14.54 35.98,14.54 C36.66,14.54 37.2533333,14.39 37.76,14.09 C38.2666667,13.79 38.6666667,13.38 38.96,12.86 C39.2533333,12.34 39.4,11.7666667 39.4,11.14 C39.4,10.5133333 39.2533333,9.94333333 38.96,9.43 C38.6666667,8.91666667 38.2666667,8.50666667 37.76,8.2 C37.2533333,7.89333333 36.66,7.74 35.98,7.74 C35.3266667,7.74 34.74,7.89333333 34.22,8.2 C33.7,8.50666667 33.2966667,8.91666667 33.01,9.43 C32.7233333,9.94333333 32.58,10.5133333 32.58,11.14 Z M34.42,11.14 C34.42,10.8333333 34.4833333,10.5566667 34.61,10.31 C34.7366667,10.0633333 34.9166667,9.86333333 35.15,9.71 C35.3833333,9.55666667 35.66,9.48 35.98,9.48 C36.3133333,9.48 36.5933333,9.55666667 36.82,9.71 C37.0466667,9.86333333 37.2233333,10.0666667 37.35,10.32 C37.4766667,10.5733333 37.54,10.8466667 37.54,11.14 C37.54,11.4333333 37.4766667,11.71 37.35,11.97 C37.2233333,12.23 37.0466667,12.4366667 36.82,12.59 C36.5933333,12.7433333 36.3133333,12.82 35.98,12.82 C35.66,12.82 35.3833333,12.7433333 35.15,12.59 C34.9166667,12.4366667 34.7366667,12.23 34.61,11.97 C34.4833333,11.71 34.42,11.4333333 34.42,11.14 Z M35.58,0.28 L25.88,14.28 L28.04,14.28 L37.74,0.28 L35.58,0.28 Z" id="Shape"></path>
                        <path d="M50.46,7.6 L54.9,14.28 L57.76,14.28 L53,7.6 L50.46,7.6 Z M47.56,0.28 L47.56,14.28 L49.92,14.28 L49.92,0.28 L47.56,0.28 Z M48.96,2.32 L51.78,2.32 C52.3266667,2.32 52.8,2.41333333 53.2,2.6 C53.6,2.78666667 53.9133333,3.05333333 54.14,3.4 C54.3666667,3.74666667 54.48,4.17333333 54.48,4.68 C54.48,5.17333333 54.3666667,5.59666667 54.14,5.95 C53.9133333,6.30333333 53.6,6.57 53.2,6.75 C52.8,6.93 52.3266667,7.02 51.78,7.02 L48.96,7.02 L48.96,8.98 L51.88,8.98 C52.9066667,8.98 53.7933333,8.8 54.54,8.44 C55.2866667,8.08 55.87,7.57333333 56.29,6.92 C56.71,6.26666667 56.92,5.5 56.92,4.62 C56.92,3.74 56.71,2.97666667 56.29,2.33 C55.87,1.68333333 55.2866667,1.18 54.54,0.82 C53.7933333,0.46 52.9066667,0.28 51.88,0.28 L48.96,0.28 L48.96,2.32 Z" id="Shape"></path>
                        <path d="M63.28,14.48 C64.3466667,14.48 65.26,14.27 66.02,13.85 C66.78,13.43 67.4066667,12.8066667 67.9,11.98 L66.02,11.24 C65.74,11.7333333 65.38,12.1 64.94,12.34 C64.5,12.58 63.98,12.7 63.38,12.7 C62.82,12.7 62.3466667,12.58 61.96,12.34 C61.5733333,12.1 61.2766667,11.7466667 61.07,11.28 C60.8633333,10.8133333 60.7666667,10.2533333 60.78,9.6 C60.78,8.93333333 60.8833333,8.37333333 61.09,7.92 C61.2966667,7.46666667 61.59,7.12 61.97,6.88 C62.35,6.64 62.8133333,6.52 63.36,6.52 C63.8133333,6.52 64.21,6.62 64.55,6.82 C64.89,7.02 65.1566667,7.3 65.35,7.66 C65.5433333,8.02 65.64,8.44666667 65.64,8.94 C65.64,9.03333333 65.6166667,9.14666667 65.57,9.28 C65.5233333,9.41333333 65.48,9.52 65.44,9.6 L66.1,8.68 L59.88,8.68 L59.88,10.18 L67.96,10.18 C67.96,10.1266667 67.9633333,10.04 67.97,9.92 C67.9766667,9.8 67.98,9.68666667 67.98,9.58 C67.98,8.59333333 67.8,7.75 67.44,7.05 C67.08,6.35 66.5566667,5.81333333 65.87,5.44 C65.1833333,5.06666667 64.3533333,4.88 63.38,4.88 C62.4066667,4.88 61.56,5.07666667 60.84,5.47 C60.12,5.86333333 59.5633333,6.42 59.17,7.14 C58.7766667,7.86 58.58,8.70666667 58.58,9.68 C58.58,10.64 58.7733333,11.48 59.16,12.2 C59.5466667,12.92 60.0966667,13.48 60.81,13.88 C61.5233333,14.28 62.3466667,14.48 63.28,14.48 Z" id="Path"></path>
                        <path d="M68.78,5.08 L68.78,6.98 L74,6.98 L74,5.08 L68.78,5.08 Z M70.34,1.88 L70.34,14.28 L72.46,14.28 L72.46,1.88 L70.34,1.88 Z" id="Shape"></path>
                        <path d="M77.7,10.68 L77.7,5.08 L75.48,5.08 L75.48,10.92 C75.48,12.0133333 75.7566667,12.88 76.31,13.52 C76.8633333,14.16 77.6533333,14.48 78.68,14.48 C79.32,14.48 79.87,14.3433333 80.33,14.07 C80.79,13.7966667 81.1666667,13.3933333 81.46,12.86 L81.46,14.28 L83.62,14.28 L83.62,5.08 L81.46,5.08 L81.46,10.68 C81.46,11.0933333 81.3733333,11.4533333 81.2,11.76 C81.0266667,12.0666667 80.7866667,12.3066667 80.48,12.48 C80.1733333,12.6533333 79.82,12.74 79.42,12.74 C78.8333333,12.74 78.4,12.56 78.12,12.2 C77.84,11.84 77.7,11.3333333 77.7,10.68 Z" id="Path"></path>
                        <path d="M88.52,5.08 L86.38,5.08 L86.38,14.28 L88.52,14.28 L88.52,5.08 Z M91.26,7.38 L92.32,5.56 C92.1066667,5.30666667 91.8533333,5.12666667 91.56,5.02 C91.2666667,4.91333333 90.9533333,4.86 90.62,4.86 C90.1533333,4.86 89.7033333,5.03 89.27,5.37 C88.8366667,5.71 88.4833333,6.16333333 88.21,6.73 C87.9366667,7.29666667 87.8,7.94666667 87.8,8.68 L88.52,9.1 C88.52,8.66 88.57,8.27666667 88.67,7.95 C88.77,7.62333333 88.9333333,7.36666667 89.16,7.18 C89.3866667,6.99333333 89.68,6.9 90.04,6.9 C90.3066667,6.9 90.53,6.94 90.71,7.02 C90.89,7.1 91.0733333,7.22 91.26,7.38 Z" id="Shape"></path>
                        <path d="M99.72,8.68 L99.72,14.28 L101.94,14.28 L101.94,8.42 C101.94,7.32666667 101.666667,6.46333333 101.12,5.83 C100.573333,5.19666667 99.78,4.88 98.74,4.88 C98.1133333,4.88 97.57,5.01333333 97.11,5.28 C96.65,5.54666667 96.2733333,5.95333333 95.98,6.5 L95.98,5.08 L93.8,5.08 L93.8,14.28 L95.98,14.28 L95.98,8.68 C95.98,8.26666667 96.0633333,7.90333333 96.23,7.59 C96.3966667,7.27666667 96.6333333,7.03666667 96.94,6.87 C97.2466667,6.70333333 97.6066667,6.62 98.02,6.62 C98.5933333,6.62 99.02,6.79333333 99.3,7.14 C99.58,7.48666667 99.72,8 99.72,8.68 Z" id="Path"></path>
                        <path d="M105.12,11.24 L103.86,12.52 C104.126667,12.8666667 104.46,13.1966667 104.86,13.51 C105.26,13.8233333 105.72,14.0766667 106.24,14.27 C106.76,14.4633333 107.34,14.56 107.98,14.56 C108.98,14.56 109.776667,14.2966667 110.37,13.77 C110.963333,13.2433333 111.26,12.5466667 111.26,11.68 C111.26,11.12 111.133333,10.6666667 110.88,10.32 C110.626667,9.97333333 110.286667,9.68 109.86,9.44 C109.433333,9.2 108.96,8.98 108.44,8.78 C108.066667,8.63333333 107.73,8.49333333 107.43,8.36 C107.13,8.22666667 106.89,8.07666667 106.71,7.91 C106.53,7.74333333 106.44,7.55333333 106.44,7.34 C106.44,7.08666667 106.54,6.89333333 106.74,6.76 C106.94,6.62666667 107.2,6.56 107.52,6.56 C107.973333,6.56 108.413333,6.67333333 108.84,6.9 C109.266667,7.12666667 109.626667,7.42 109.92,7.78 L111.12,6.5 C110.866667,6.19333333 110.56,5.92 110.2,5.68 C109.84,5.44 109.436667,5.24666667 108.99,5.1 C108.543333,4.95333333 108.066667,4.88 107.56,4.88 C107,4.88 106.476667,4.97 105.99,5.15 C105.503333,5.33 105.116667,5.60666667 104.83,5.98 C104.543333,6.35333333 104.4,6.82 104.4,7.38 C104.4,7.92666667 104.53,8.38 104.79,8.74 C105.05,9.1 105.383333,9.39 105.79,9.61 C106.196667,9.83 106.606667,10.02 107.02,10.18 C107.433333,10.3266667 107.793333,10.47 108.1,10.61 C108.406667,10.75 108.646667,10.9166667 108.82,11.11 C108.993333,11.3033333 109.08,11.5333333 109.08,11.8 C109.08,12.1066667 108.97,12.3466667 108.75,12.52 C108.53,12.6933333 108.226667,12.78 107.84,12.78 C107.533333,12.78 107.226667,12.72 106.92,12.6 C106.613333,12.48 106.313333,12.3066667 106.02,12.08 C105.726667,11.8533333 105.426667,11.5733333 105.12,11.24 Z" id="Path"></path>
                        <path d="M11.94,38.96 L16.24,38.96 C16.12,39.4266667 15.94,39.8666667 15.7,40.28 C15.46,40.6933333 15.16,41.06 14.8,41.38 C14.44,41.7 14.0133333,41.9466667 13.52,42.12 C13.0266667,42.2933333 12.4666667,42.38 11.84,42.38 C10.92,42.38 10.0933333,42.1666667 9.36,41.74 C8.62666667,41.3133333 8.04666667,40.7166667 7.62,39.95 C7.19333333,39.1833333 6.98,38.2933333 6.98,37.28 C6.98,36.2533333 7.19666667,35.3633333 7.63,34.61 C8.06333333,33.8566667 8.65,33.27 9.39,32.85 C10.13,32.43 10.9466667,32.22 11.84,32.22 C12.8133333,32.22 13.6433333,32.42 14.33,32.82 C15.0166667,33.22 15.5533333,33.7533333 15.94,34.42 L17.86,33.14 C17.4466667,32.4866667 16.9466667,31.93 16.36,31.47 C15.7733333,31.01 15.1033333,30.6533333 14.35,30.4 C13.5966667,30.1466667 12.76,30.02 11.84,30.02 C10.7866667,30.02 9.81333333,30.1966667 8.92,30.55 C8.02666667,30.9033333 7.24666667,31.4033333 6.58,32.05 C5.91333333,32.6966667 5.39666667,33.4633333 5.03,34.35 C4.66333333,35.2366667 4.48,36.2133333 4.48,37.28 C4.48,38.3466667 4.66,39.3266667 5.02,40.22 C5.38,41.1133333 5.89,41.8866667 6.55,42.54 C7.21,43.1933333 7.98666667,43.6966667 8.88,44.05 C9.77333333,44.4033333 10.7466667,44.58 11.8,44.58 C12.92,44.58 13.9133333,44.3766667 14.78,43.97 C15.6466667,43.5633333 16.3733333,43.0066667 16.96,42.3 C17.5466667,41.5933333 17.9866667,40.7833333 18.28,39.87 C18.5733333,38.9566667 18.7066667,37.9866667 18.68,36.96 L11.94,36.96 L11.94,38.96 Z" id="Path"></path>
                        <path d="M23.14,40.68 L23.14,35.08 L20.92,35.08 L20.92,40.92 C20.92,42.0133333 21.1966667,42.88 21.75,43.52 C22.3033333,44.16 23.0933333,44.48 24.12,44.48 C24.76,44.48 25.31,44.3433333 25.77,44.07 C26.23,43.7966667 26.6066667,43.3933333 26.9,42.86 L26.9,44.28 L29.06,44.28 L29.06,35.08 L26.9,35.08 L26.9,40.68 C26.9,41.0933333 26.8133333,41.4533333 26.64,41.76 C26.4666667,42.0666667 26.2266667,42.3066667 25.92,42.48 C25.6133333,42.6533333 25.26,42.74 24.86,42.74 C24.2733333,42.74 23.84,42.56 23.56,42.2 C23.28,41.84 23.14,41.3333333 23.14,40.68 Z" id="Path"></path>
                        <path d="M33.18,41.42 C33.18,41.1266667 33.25,40.88 33.39,40.68 C33.53,40.48 33.74,40.3233333 34.02,40.21 C34.3,40.0966667 34.6666667,40.04 35.12,40.04 C35.64,40.04 36.1333333,40.1066667 36.6,40.24 C37.0666667,40.3733333 37.5066667,40.5866667 37.92,40.88 L37.92,39.78 C37.8,39.6333333 37.5933333,39.47 37.3,39.29 C37.0066667,39.11 36.6366667,38.9533333 36.19,38.82 C35.7433333,38.6866667 35.2133333,38.62 34.6,38.62 C33.4533333,38.62 32.5666667,38.8833333 31.94,39.41 C31.3133333,39.9366667 31,40.6466667 31,41.54 C31,42.1666667 31.1466667,42.7 31.44,43.14 C31.7333333,43.58 32.1266667,43.9133333 32.62,44.14 C33.1133333,44.3666667 33.6466667,44.48 34.22,44.48 C34.7533333,44.48 35.2766667,44.3833333 35.79,44.19 C36.3033333,43.9966667 36.73,43.7 37.07,43.3 C37.41,42.9 37.58,42.4066667 37.58,41.82 L37.26,40.62 C37.26,41.0866667 37.1533333,41.4866667 36.94,41.82 C36.7266667,42.1533333 36.4433333,42.41 36.09,42.59 C35.7366667,42.77 35.34,42.86 34.9,42.86 C34.5666667,42.86 34.27,42.8066667 34.01,42.7 C33.75,42.5933333 33.5466667,42.43 33.4,42.21 C33.2533333,41.99 33.18,41.7266667 33.18,41.42 Z M32.5,37.48 C32.6466667,37.3866667 32.8533333,37.27 33.12,37.13 C33.3866667,36.99 33.71,36.87 34.09,36.77 C34.47,36.67 34.8733333,36.62 35.3,36.62 C35.58,36.62 35.84,36.6466667 36.08,36.7 C36.32,36.7533333 36.53,36.84 36.71,36.96 C36.89,37.08 37.0266667,37.2333333 37.12,37.42 C37.2133333,37.6066667 37.26,37.8466667 37.26,38.14 L37.26,44.28 L39.38,44.28 L39.38,37.72 C39.38,37.1066667 39.2166667,36.5866667 38.89,36.16 C38.5633333,35.7333333 38.1066667,35.41 37.52,35.19 C36.9333333,34.97 36.2666667,34.86 35.52,34.86 C34.6533333,34.86 33.8933333,34.98 33.24,35.22 C32.5866667,35.46 32.0466667,35.7066667 31.62,35.96 L32.5,37.48 Z" id="Shape"></path>
                        <path d="M44.04,35.08 L41.9,35.08 L41.9,44.28 L44.04,44.28 L44.04,35.08 Z M46.78,37.38 L47.84,35.56 C47.6266667,35.3066667 47.3733333,35.1266667 47.08,35.02 C46.7866667,34.9133333 46.4733333,34.86 46.14,34.86 C45.6733333,34.86 45.2233333,35.03 44.79,35.37 C44.3566667,35.71 44.0033333,36.1633333 43.73,36.73 C43.4566667,37.2966667 43.32,37.9466667 43.32,38.68 L44.04,39.1 C44.04,38.66 44.09,38.2766667 44.19,37.95 C44.29,37.6233333 44.4533333,37.3666667 44.68,37.18 C44.9066667,36.9933333 45.2,36.9 45.56,36.9 C45.8266667,36.9 46.05,36.94 46.23,37.02 C46.41,37.1 46.5933333,37.22 46.78,37.38 Z" id="Shape"></path>
                        <path d="M50.68,41.42 C50.68,41.1266667 50.75,40.88 50.89,40.68 C51.03,40.48 51.24,40.3233333 51.52,40.21 C51.8,40.0966667 52.1666667,40.04 52.62,40.04 C53.14,40.04 53.6333333,40.1066667 54.1,40.24 C54.5666667,40.3733333 55.0066667,40.5866667 55.42,40.88 L55.42,39.78 C55.3,39.6333333 55.0933333,39.47 54.8,39.29 C54.5066667,39.11 54.1366667,38.9533333 53.69,38.82 C53.2433333,38.6866667 52.7133333,38.62 52.1,38.62 C50.9533333,38.62 50.0666667,38.8833333 49.44,39.41 C48.8133333,39.9366667 48.5,40.6466667 48.5,41.54 C48.5,42.1666667 48.6466667,42.7 48.94,43.14 C49.2333333,43.58 49.6266667,43.9133333 50.12,44.14 C50.6133333,44.3666667 51.1466667,44.48 51.72,44.48 C52.2533333,44.48 52.7766667,44.3833333 53.29,44.19 C53.8033333,43.9966667 54.23,43.7 54.57,43.3 C54.91,42.9 55.08,42.4066667 55.08,41.82 L54.76,40.62 C54.76,41.0866667 54.6533333,41.4866667 54.44,41.82 C54.2266667,42.1533333 53.9433333,42.41 53.59,42.59 C53.2366667,42.77 52.84,42.86 52.4,42.86 C52.0666667,42.86 51.77,42.8066667 51.51,42.7 C51.25,42.5933333 51.0466667,42.43 50.9,42.21 C50.7533333,41.99 50.68,41.7266667 50.68,41.42 Z M50,37.48 C50.1466667,37.3866667 50.3533333,37.27 50.62,37.13 C50.8866667,36.99 51.21,36.87 51.59,36.77 C51.97,36.67 52.3733333,36.62 52.8,36.62 C53.08,36.62 53.34,36.6466667 53.58,36.7 C53.82,36.7533333 54.03,36.84 54.21,36.96 C54.39,37.08 54.5266667,37.2333333 54.62,37.42 C54.7133333,37.6066667 54.76,37.8466667 54.76,38.14 L54.76,44.28 L56.88,44.28 L56.88,37.72 C56.88,37.1066667 56.7166667,36.5866667 56.39,36.16 C56.0633333,35.7333333 55.6066667,35.41 55.02,35.19 C54.4333333,34.97 53.7666667,34.86 53.02,34.86 C52.1533333,34.86 51.3933333,34.98 50.74,35.22 C50.0866667,35.46 49.5466667,35.7066667 49.12,35.96 L50,37.48 Z" id="Shape"></path>
                        <path d="M65.32,38.68 L65.32,44.28 L67.54,44.28 L67.54,38.42 C67.54,37.3266667 67.2666667,36.4633333 66.72,35.83 C66.1733333,35.1966667 65.38,34.88 64.34,34.88 C63.7133333,34.88 63.17,35.0133333 62.71,35.28 C62.25,35.5466667 61.8733333,35.9533333 61.58,36.5 L61.58,35.08 L59.4,35.08 L59.4,44.28 L61.58,44.28 L61.58,38.68 C61.58,38.2666667 61.6633333,37.9033333 61.83,37.59 C61.9966667,37.2766667 62.2333333,37.0366667 62.54,36.87 C62.8466667,36.7033333 63.2066667,36.62 63.62,36.62 C64.1933333,36.62 64.62,36.7933333 64.9,37.14 C65.18,37.4866667 65.32,38 65.32,38.68 Z" id="Path"></path>
                        <path d="M69.02,35.08 L69.02,36.98 L74.24,36.98 L74.24,35.08 L69.02,35.08 Z M70.58,31.88 L70.58,44.28 L72.7,44.28 L72.7,31.88 L70.58,31.88 Z" id="Shape"></path>
                        <path d="M79.72,44.48 C80.7866667,44.48 81.7,44.27 82.46,43.85 C83.22,43.43 83.8466667,42.8066667 84.34,41.98 L82.46,41.24 C82.18,41.7333333 81.82,42.1 81.38,42.34 C80.94,42.58 80.42,42.7 79.82,42.7 C79.26,42.7 78.7866667,42.58 78.4,42.34 C78.0133333,42.1 77.7166667,41.7466667 77.51,41.28 C77.3033333,40.8133333 77.2066667,40.2533333 77.22,39.6 C77.22,38.9333333 77.3233333,38.3733333 77.53,37.92 C77.7366667,37.4666667 78.03,37.12 78.41,36.88 C78.79,36.64 79.2533333,36.52 79.8,36.52 C80.2533333,36.52 80.65,36.62 80.99,36.82 C81.33,37.02 81.5966667,37.3 81.79,37.66 C81.9833333,38.02 82.08,38.4466667 82.08,38.94 C82.08,39.0333333 82.0566667,39.1466667 82.01,39.28 C81.9633333,39.4133333 81.92,39.52 81.88,39.6 L82.54,38.68 L76.32,38.68 L76.32,40.18 L84.4,40.18 C84.4,40.1266667 84.4033333,40.04 84.41,39.92 C84.4166667,39.8 84.42,39.6866667 84.42,39.58 C84.42,38.5933333 84.24,37.75 83.88,37.05 C83.52,36.35 82.9966667,35.8133333 82.31,35.44 C81.6233333,35.0666667 80.7933333,34.88 79.82,34.88 C78.8466667,34.88 78,35.0766667 77.28,35.47 C76.56,35.8633333 76.0033333,36.42 75.61,37.14 C75.2166667,37.86 75.02,38.7066667 75.02,39.68 C75.02,40.64 75.2133333,41.48 75.6,42.2 C75.9866667,42.92 76.5366667,43.48 77.25,43.88 C77.9633333,44.28 78.7866667,44.48 79.72,44.48 Z" id="Path"></path>
                        <path d="M90.5,44.48 C91.5666667,44.48 92.48,44.27 93.24,43.85 C94,43.43 94.6266667,42.8066667 95.12,41.98 L93.24,41.24 C92.96,41.7333333 92.6,42.1 92.16,42.34 C91.72,42.58 91.2,42.7 90.6,42.7 C90.04,42.7 89.5666667,42.58 89.18,42.34 C88.7933333,42.1 88.4966667,41.7466667 88.29,41.28 C88.0833333,40.8133333 87.9866667,40.2533333 88,39.6 C88,38.9333333 88.1033333,38.3733333 88.31,37.92 C88.5166667,37.4666667 88.81,37.12 89.19,36.88 C89.57,36.64 90.0333333,36.52 90.58,36.52 C91.0333333,36.52 91.43,36.62 91.77,36.82 C92.11,37.02 92.3766667,37.3 92.57,37.66 C92.7633333,38.02 92.86,38.4466667 92.86,38.94 C92.86,39.0333333 92.8366667,39.1466667 92.79,39.28 C92.7433333,39.4133333 92.7,39.52 92.66,39.6 L93.32,38.68 L87.1,38.68 L87.1,40.18 L95.18,40.18 C95.18,40.1266667 95.1833333,40.04 95.19,39.92 C95.1966667,39.8 95.2,39.6866667 95.2,39.58 C95.2,38.5933333 95.02,37.75 94.66,37.05 C94.3,36.35 93.7766667,35.8133333 93.09,35.44 C92.4033333,35.0666667 91.5733333,34.88 90.6,34.88 C89.6266667,34.88 88.78,35.0766667 88.06,35.47 C87.34,35.8633333 86.7833333,36.42 86.39,37.14 C85.9966667,37.86 85.8,38.7066667 85.8,39.68 C85.8,40.64 85.9933333,41.48 86.38,42.2 C86.7666667,42.92 87.3166667,43.48 88.03,43.88 C88.7433333,44.28 89.5666667,44.48 90.5,44.48 Z" id="Path"></path>
                        <path d="M104.2,28.68 L104.2,44.28 L106.38,44.28 L106.38,28.68 L104.2,28.68 Z M96.58,39.68 C96.58,40.68 96.7866667,41.54 97.2,42.26 C97.6133333,42.98 98.1633333,43.53 98.85,43.91 C99.5366667,44.29 100.273333,44.48 101.06,44.48 C101.833333,44.48 102.51,44.2866667 103.09,43.9 C103.67,43.5133333 104.13,42.96 104.47,42.24 C104.81,41.52 104.98,40.6666667 104.98,39.68 C104.98,38.68 104.81,37.8233333 104.47,37.11 C104.13,36.3966667 103.67,35.8466667 103.09,35.46 C102.51,35.0733333 101.833333,34.88 101.06,34.88 C100.273333,34.88 99.5366667,35.07 98.85,35.45 C98.1633333,35.83 97.6133333,36.3766667 97.2,37.09 C96.7866667,37.8033333 96.58,38.6666667 96.58,39.68 Z M98.82,39.68 C98.82,39.0666667 98.9466667,38.54 99.2,38.1 C99.4533333,37.66 99.79,37.3266667 100.21,37.1 C100.63,36.8733333 101.086667,36.76 101.58,36.76 C102.006667,36.76 102.42,36.8733333 102.82,37.1 C103.22,37.3266667 103.55,37.6566667 103.81,38.09 C104.07,38.5233333 104.2,39.0533333 104.2,39.68 C104.2,40.3066667 104.07,40.8366667 103.81,41.27 C103.55,41.7033333 103.22,42.0333333 102.82,42.26 C102.42,42.4866667 102.006667,42.6 101.58,42.6 C101.086667,42.6 100.63,42.4866667 100.21,42.26 C99.79,42.0333333 99.4533333,41.7 99.2,41.26 C98.9466667,40.82 98.82,40.2933333 98.82,39.68 Z" id="Shape"></path>
                    </g>
                </g>
                <rect id="Rectangle-Copy" opacity="0.5" x="165.79" y="10" width="1" height="100"></rect>
                <rect id="Rectangle-Copy" opacity="0.5" x="399.79" y="10" width="1" height="100"></rect>
            </g>
            <rect id="Rectangle" stroke="#EFF4EF" x="0.5" y="0.5" width="671" height="166" rx="10"></rect>
        </g>
    </g>
</svg>