<?xml version="1.0" encoding="UTF-8"?><svg id="a" xmlns="http://www.w3.org/2000/svg" xmlns:xlink="http://www.w3.org/1999/xlink" viewBox="0 0 741.9 595.28"><defs><style>.c{fill:none;}.d{fill:#dadada;}.e{opacity:.8;}.f{clip-path:url(#b);}</style><clipPath id="b"><rect class="c" y="0" width="841.89" height="595.27"/></clipPath></defs><g class="f"><g class="e"><path class="d" d="M-519.84,729.17c.24-5.35,1.99-10.51,5.07-14.92L-20.46,7.25C-16.13,1.05-9.64-3.09-2.18-4.42c7.46-1.32,14.99,.33,21.2,4.65L728.02,493.39c8.01,5.57,12.54,14.72,12.11,24.46-.24,5.35-1.99,10.51-5.07,14.92L240.76,1239.77c-4.33,6.2-10.82,10.34-18.28,11.66-7.46,1.33-14.99-.33-21.2-4.65L-507.72,753.62c-8.01-5.57-12.54-14.71-12.12-24.46Zm1257.7-211.42c.39-8.96-3.78-17.38-11.15-22.5L17.72,2.09C12.01-1.89,5.08-3.41-1.78-2.19-8.64-.97-14.61,2.84-18.6,8.54l-494.31,707c-2.84,4.06-4.45,8.8-4.66,13.72-.39,8.97,3.78,17.38,11.14,22.51L202.58,1244.93c5.72,3.98,12.64,5.5,19.51,4.28,6.86-1.22,12.83-5.03,16.82-10.73l494.3-707c2.84-4.06,4.45-8.81,4.66-13.72Z"/><path class="d" d="M-523.61,701.81c.23-5.34,2.01-10.47,5.15-14.84L-27.88,3.96C-23.58-2.03-17.19-5.99-9.9-7.19c7.29-1.2,14.62,.5,20.63,4.8L695.66,487.05c7.63,5.45,11.94,14.3,11.54,23.66-.24,5.34-2.01,10.48-5.15,14.85L211.46,1208.56c-8.88,12.37-26.21,15.22-38.61,6.36l-684.94-489.44c-7.63-5.45-11.94-14.3-11.53-23.67ZM704.93,510.61c.38-8.6-3.58-16.72-10.59-21.73L9.4-.55C3.89-4.5-2.83-6.06-9.53-4.96-16.22-3.86-22.09-.22-26.04,5.28l-490.58,683.01c-2.88,4.01-4.51,8.72-4.73,13.62-.38,8.6,3.58,16.72,10.59,21.72L174.18,1213.08c11.39,8.13,27.29,5.52,35.44-5.83l490.58-683.01c2.88-4.01,4.52-8.72,4.73-13.62Z"/><path class="d" d="M-527.4,674.46c.23-5.34,2.04-10.45,5.24-14.77L-35.3,.68C-26.48-11.26-9.55-13.82,2.43-5.01L663.31,480.71c7.26,5.33,11.35,13.88,10.96,22.87-.23,5.34-2.04,10.45-5.23,14.77L182.17,1177.36c-4.28,5.79-10.56,9.57-17.69,10.64-7.13,1.08-14.25-.68-20.05-4.94l-660.88-485.73c-7.25-5.33-11.35-13.88-10.96-22.87ZM672,503.48c.36-8.23-3.39-16.07-10.03-20.95L1.09-3.19C-9.89-11.26-25.39-8.92-33.48,2.03l-486.86,659.01c-2.93,3.96-4.59,8.64-4.8,13.53-.36,8.23,3.39,16.06,10.04,20.94L145.77,1181.24c5.32,3.91,11.84,5.51,18.37,4.53,6.53-.98,12.28-4.45,16.2-9.75l486.86-659.01c2.92-3.96,4.58-8.63,4.8-13.53Z"/><path class="d" d="M-531.19,647.12c.23-5.34,2.07-10.42,5.33-14.7L-42.73-2.6c4.25-5.58,10.42-9.18,17.38-10.13,6.96-.95,13.88,.86,19.48,5.1L630.96,474.38c6.88,5.21,10.76,13.46,10.38,22.07-.24,5.34-2.07,10.42-5.33,14.7L152.87,1146.16c-8.77,11.52-25.31,13.79-36.86,5.04l-636.82-482.01c-6.88-5.21-10.76-13.45-10.38-22.07ZM639.08,496.35c.34-7.87-3.21-15.41-9.49-20.17L-7.23-5.83c-5.12-3.87-11.44-5.53-17.8-4.66-6.36,.87-12,4.16-15.88,9.26l-483.14,635.02c-2.97,3.91-4.66,8.55-4.87,13.43-.34,7.87,3.2,15.41,9.49,20.17L117.38,1149.39c10.56,7.99,25.67,5.93,33.68-4.6L634.21,509.78c2.97-3.91,4.65-8.55,4.87-13.43Z"/><path class="d" d="M-534.99,619.76c.24-5.34,2.11-10.4,5.42-14.63L-50.15-5.88c4.22-5.38,10.29-8.8,17.08-9.62,6.8-.83,13.51,1.04,18.91,5.25L598.6,468.04c6.51,5.08,10.18,13.03,9.82,21.27-.23,5.34-2.11,10.4-5.42,14.63L123.58,1114.96c-4.22,5.38-10.29,8.8-17.09,9.62-6.8,.83-13.51-1.03-18.9-5.24l-612.76-478.29c-6.51-5.08-10.17-13.04-9.82-21.28ZM606.15,489.22c.33-7.52-3.02-14.77-8.95-19.4L-15.55-8.47c-4.92-3.84-11.04-5.54-17.23-4.78-6.2,.75-11.73,3.87-15.58,8.77l-479.42,611.02c-3.02,3.85-4.73,8.46-4.94,13.33-.33,7.51,3.02,14.76,8.95,19.4L88.98,1117.55c4.92,3.83,11.04,5.53,17.23,4.78,6.2-.75,11.73-3.87,15.58-8.77L601.21,502.54c3.02-3.85,4.73-8.46,4.94-13.33Z"/><path class="d" d="M-538.79,592.41c.23-5.35,2.14-10.38,5.53-14.55L-57.57-9.16c8.65-10.68,24.41-12.34,35.12-3.71L566.25,461.71c6.14,4.94,9.59,12.6,9.25,20.47-.23,5.35-2.14,10.38-5.52,14.55L94.28,1083.76c-4.19,5.18-10.16,8.41-16.79,9.11-6.64,.7-13.15-1.21-18.33-5.4l-588.7-474.58c-6.14-4.95-9.6-12.6-9.25-20.48Zm1112.03-110.33c.31-7.16-2.83-14.12-8.41-18.62L-23.87-11.11c-9.74-7.85-24.06-6.34-31.93,3.37l-475.71,587.03c-3.07,3.79-4.81,8.36-5.02,13.22-.31,7.16,2.83,14.12,8.41,18.62L60.58,1085.71c4.72,3.81,10.64,5.55,16.66,4.91,6.03-.64,11.46-3.58,15.26-8.28L568.21,495.31c3.07-3.79,4.81-8.37,5.02-13.23Z"/><path class="d" d="M-542.6,565.06c.23-5.35,2.18-10.35,5.63-14.48L-64.99-12.45c4.17-4.97,10.02-8.02,16.49-8.6,6.47-.58,12.78,1.4,17.76,5.55L533.9,455.37c5.86,4.89,9.03,12.06,8.7,19.68-.23,5.36-2.18,10.36-5.64,14.48L64.98,1052.56c-8.6,10.26-23.96,11.62-34.25,3.05l-564.64-470.86c-5.86-4.89-9.03-12.06-8.7-19.69Zm1082.93-90.11c.3-6.91-2.57-13.41-7.88-17.84L-32.19-13.76c-4.52-3.77-10.24-5.55-16.1-5.03-5.87,.52-11.17,3.29-14.95,7.8l-471.98,563.03c-3.13,3.74-4.9,8.27-5.11,13.12-.3,6.91,2.58,13.42,7.89,17.84L32.19,1053.87c9.33,7.78,23.25,6.54,31.05-2.76L535.22,488.08c3.13-3.73,4.9-8.27,5.11-13.13Z"/><path class="d" d="M-546.42,537.71c.23-5.36,2.23-10.34,5.76-14.41L-72.4-15.73c4.14-4.76,9.89-7.63,16.19-8.08,6.31-.45,12.41,1.58,17.18,5.71L501.55,449.04c5.5,4.75,8.46,11.63,8.15,18.88-.24,5.36-2.22,10.34-5.75,14.41L35.68,1021.36c-4.13,4.77-9.89,7.64-16.19,8.09-6.3,.44-12.41-1.58-17.18-5.71l-540.58-467.15c-5.5-4.75-8.46-11.63-8.15-18.88ZM507.43,467.82c.29-6.56-2.4-12.78-7.36-17.07L-40.51-16.4c-4.32-3.74-9.84-5.57-15.54-5.16-5.7,.41-10.9,3-14.64,7.31l-468.26,539.04c-3.19,3.68-4.99,8.18-5.2,13.03-.29,6.56,2.4,12.78,7.36,17.07L3.79,1022.03c4.32,3.73,9.84,5.56,15.54,5.16,5.7-.4,10.89-3,14.64-7.3L502.22,480.84c3.19-3.67,5-8.18,5.2-13.02Z"/><path class="d" d="M-550.24,510.36c.23-5.3,2.32-10.39,5.88-14.34L-79.82-19.02c4.11-4.56,9.76-7.25,15.9-7.57,6.14-.32,12.04,1.76,16.61,5.86L469.2,442.71c5.13,4.6,7.9,11.19,7.6,18.08-.23,5.3-2.32,10.39-5.88,14.34L6.38,990.16c-4.11,4.55-9.75,7.24-15.9,7.57-6.14,.32-12.04-1.76-16.61-5.86l-516.52-463.43c-5.13-4.6-7.9-11.19-7.6-18.07Zm1024.78-49.68c.27-6.21-2.23-12.15-6.85-16.3L-48.84-19.05c-4.12-3.7-9.43-5.57-14.97-5.28-5.53,.29-10.62,2.71-14.33,6.82L-542.68,497.54c-3.21,3.56-5.09,8.15-5.3,12.92-.27,6.21,2.23,12.15,6.85,16.3L-24.61,990.19c4.12,3.69,9.43,5.57,14.97,5.28,5.53-.29,10.62-2.71,14.33-6.82L469.23,473.61c3.21-3.56,5.1-8.15,5.3-12.92Z"/><path class="d" d="M-554.08,483.01c.23-5.31,2.37-10.38,6.02-14.27L-87.24-22.3c4.08-4.35,9.62-6.86,15.6-7.05s11.67,1.94,16.03,6.01L436.85,436.38c4.78,4.46,7.35,10.75,7.07,17.28-.23,5.31-2.37,10.38-6.02,14.27L-22.93,958.97c-8.43,8.98-22.62,9.45-31.63,1.04l-492.46-459.71c-4.77-4.46-7.35-10.76-7.06-17.28Zm995.73-29.46c.25-5.86-2.06-11.52-6.35-15.53L-57.16-21.69c-3.92-3.66-9.04-5.58-14.41-5.4-5.37,.18-10.35,2.43-14.02,6.34l-460.82,491.04c-3.28,3.49-5.2,8.04-5.41,12.82-.25,5.86,2.06,11.52,6.35,15.53L-53,958.35c8.09,7.56,20.85,7.14,28.42-.93L436.24,466.37c3.28-3.49,5.2-8.04,5.41-12.82Z"/><path class="d" d="M-557.92,455.65c.23-5.33,2.42-10.37,6.16-14.19L-94.65-25.59c8.38-8.56,22.17-8.72,30.75-.37L404.5,430.04c4.42,4.31,6.81,10.31,6.54,16.48-.23,5.33-2.42,10.38-6.16,14.2L-52.23,927.76c-8.37,8.56-22.17,8.73-30.75,.37l-468.39-456c-4.42-4.3-6.81-10.31-6.54-16.48Zm966.68-9.23c.24-5.52-1.89-10.9-5.85-14.76L-65.48-24.34c-7.69-7.48-20.05-7.33-27.55,.33l-457.1,467.05c-3.35,3.42-5.31,7.94-5.52,12.71-.24,5.53,1.89,10.9,5.86,14.76L-81.4,926.52c7.69,7.48,20.05,7.33,27.55-.33L403.25,459.14c3.35-3.42,5.31-7.94,5.52-12.72Z"/><path class="d" d="M-561.77,428.3c.24-5.36,2.48-10.37,6.32-14.13L-102.07-28.88c8.32-8.13,21.73-7.99,29.88,.31L372.15,423.72c4.08,4.15,6.27,9.86,6.02,15.67-.23,5.36-2.48,10.38-6.32,14.13L-81.53,896.57c-8.32,8.13-21.73,7.99-29.88-.31l-444.34-452.28c-4.08-4.15-6.27-9.87-6.02-15.68Zm937.67,10.98c.23-5.19-1.73-10.28-5.37-13.99L-73.8-26.99c-7.28-7.41-19.25-7.53-26.67-.27l-453.38,443.05c-3.43,3.35-5.43,7.83-5.64,12.61-.22,5.18,1.74,10.28,5.38,13.99L-109.8,894.68c7.28,7.41,19.25,7.53,26.68,.26L370.26,451.9c3.43-3.35,5.43-7.83,5.64-12.61Z"/><path class="d" d="M-565.63,400.95c.24-5.39,2.54-10.37,6.49-14.05L-109.48-32.16c4.01-3.73,9.23-5.69,14.71-5.5,5.48,.19,10.55,2.49,14.3,6.48L339.8,417.39c3.8,4.05,5.75,9.33,5.51,14.87-.24,5.39-2.54,10.38-6.49,14.06L-110.84,865.37c-8.26,7.7-21.28,7.26-29-.98l-420.27-448.57c-3.79-4.05-5.75-9.33-5.51-14.87Zm908.67,31.21c.21-4.93-1.52-9.62-4.9-13.23L-82.13-29.63c-3.32-3.55-7.84-5.6-12.71-5.77-4.87-.17-9.52,1.57-13.08,4.89l-449.66,419.06c-3.52,3.28-5.56,7.71-5.77,12.51-.21,4.92,1.52,9.62,4.9,13.22L-138.19,862.84c6.87,7.33,18.44,7.72,25.8,.87L337.27,444.66c3.51-3.27,5.56-7.71,5.77-12.5Z"/><path class="d" d="M-569.5,373.6c.24-5.42,2.61-10.39,6.68-13.99L-116.89-35.45c8.21-7.27,20.83-6.53,28.13,1.66L307.46,411.07c3.45,3.88,5.24,8.87,5.01,14.06-.24,5.42-2.61,10.39-6.67,13.99L-140.15,834.19c-8.21,7.27-20.83,6.52-28.13-1.67l-396.21-444.85c-3.46-3.88-5.24-8.88-5.01-14.07Zm879.7,51.42c.2-4.6-1.37-9.02-4.44-12.46L-90.46-32.28c-6.47-7.26-17.65-7.92-24.93-1.48l-445.94,395.06c-3.6,3.19-5.7,7.59-5.91,12.4-.2,4.59,1.38,9.02,4.44,12.46L-166.58,831.01c6.47,7.26,17.64,7.92,24.93,1.47L304.29,437.42c3.6-3.19,5.71-7.6,5.91-12.4Z"/><path class="d" d="M-573.39,346.25c.24-5.39,2.74-10.46,6.87-13.92L-124.3-38.74c3.96-3.31,8.97-4.9,14.11-4.46,5.15,.44,9.81,2.86,13.14,6.8L275.11,404.74c3.13,3.71,4.74,8.42,4.53,13.25-.23,5.38-2.74,10.46-6.87,13.93L-169.46,802.98c-8.16,6.85-20.38,5.79-27.25-2.34l-372.15-441.14c-3.13-3.71-4.74-8.41-4.53-13.25Zm850.75,71.65c.19-4.27-1.23-8.43-3.99-11.7L-98.78-34.94c-2.93-3.48-7.05-5.61-11.59-6-4.55-.39-8.97,1-12.46,3.93l-442.22,371.07c-3.64,3.06-5.85,7.54-6.06,12.29-.19,4.27,1.23,8.42,3.99,11.7L-194.97,799.18c6.06,7.18,16.85,8.11,24.05,2.07L271.3,430.19c3.65-3.06,5.86-7.54,6.06-12.29Z"/><path class="d" d="M-577.29,318.89c.23-5.43,2.82-10.48,7.09-13.85L-131.7-42.03c3.93-3.11,8.83-4.5,13.81-3.93,4.98,.57,9.44,3.04,12.56,6.96L242.76,398.42c2.81,3.53,4.25,7.95,4.05,12.44-.24,5.43-2.82,10.48-7.08,13.85L-198.77,771.79c-8.1,6.41-19.93,5.05-26.37-3.03l-348.1-437.42c-2.81-3.54-4.25-7.96-4.05-12.45ZM244.55,410.76c.17-3.95-1.09-7.84-3.56-10.94L-107.11-37.59c-2.74-3.44-6.66-5.62-11.04-6.12-4.38-.5-8.69,.72-12.14,3.45l-438.5,347.07c-3.75,2.97-6.02,7.4-6.23,12.18-.17,3.95,1.09,7.83,3.56,10.94L-223.37,767.35c5.66,7.11,16.06,8.31,23.19,2.66L238.32,422.95c3.75-2.97,6.02-7.41,6.23-12.18Z"/><path class="d" d="M-581.2,291.54c.24-5.49,2.91-10.51,7.32-13.79L-139.11-45.32c8.05-5.98,19.49-4.31,25.49,3.72L210.42,392.1c2.5,3.34,3.78,7.48,3.59,11.63-.24,5.49-2.91,10.51-7.32,13.79L-228.08,740.6c-8.05,5.98-19.49,4.31-25.49-3.71l-324.04-433.7c-2.5-3.35-3.77-7.48-3.59-11.64ZM211.74,403.64c.16-3.64-.96-7.26-3.14-10.19L-115.44-40.25c-5.25-7.03-15.26-8.49-22.32-3.25l-434.77,323.08c-3.86,2.87-6.2,7.27-6.41,12.07-.16,3.64,.96,7.25,3.15,10.19L-251.75,735.53c5.25,7.03,15.26,8.49,22.31,3.25L205.34,415.71c3.86-2.87,6.19-7.27,6.4-12.07Z"/><path class="d" d="M-585.13,264.18c.24-5.54,3-10.55,7.57-13.71L-146.51-48.61c8-5.55,19.04-3.57,24.61,4.41L178.07,385.79c2.23,3.2,3.32,6.94,3.15,10.82-.24,5.55-3,10.55-7.56,13.72l-431.07,299.08c-8,5.55-19.04,3.57-24.6-4.41l-299.98-429.99c-2.23-3.2-3.32-6.94-3.15-10.83ZM178.96,396.51c.15-3.38-.8-6.65-2.74-9.43L-123.76-42.91c-4.85-6.96-14.47-8.68-21.45-3.84L-576.27,252.33c-3.98,2.76-6.38,7.12-6.59,11.95-.15,3.38,.8,6.64,2.75,9.43l299.97,429.99c4.85,6.96,14.47,8.68,21.45,3.84L172.37,408.47c3.98-2.76,6.38-7.12,6.59-11.96Z"/><path class="d" d="M-589.08,236.83c.24-5.54,3.17-10.64,7.84-13.64L-153.91-51.9c7.95-5.12,18.59-2.83,23.72,5.1L145.73,379.47c1.94,3,2.89,6.46,2.73,10.01-.24,5.54-3.17,10.64-7.84,13.64l-427.34,275.09c-7.95,5.11-18.59,2.83-23.72-5.1L-586.36,246.84c-1.94-3-2.88-6.46-2.73-10.01ZM146.19,389.39c.14-3.08-.68-6.08-2.37-8.69L-132.09-45.58c-4.45-6.88-13.69-8.86-20.58-4.42L-580.01,225.08c-4.05,2.61-6.59,7.04-6.8,11.84-.13,3.08,.69,6.08,2.37,8.68l275.91,426.28c4.45,6.87,13.68,8.86,20.58,4.42L139.39,401.22c4.05-2.61,6.59-7.03,6.8-11.84Z"/><path class="d" d="M-593.05,209.47c.25-5.63,3.28-10.7,8.13-13.57L-161.3-55.19c7.9-4.68,18.14-2.08,22.83,5.8L113.38,373.16c1.66,2.79,2.47,5.97,2.33,9.2-.25,5.62-3.29,10.7-8.13,13.57l-423.62,251.09c-7.89,4.68-18.14,2.08-22.83-5.8l-251.86-422.56c-1.66-2.79-2.46-5.97-2.32-9.2ZM113.44,382.26c.12-2.78-.57-5.53-2.01-7.94L-140.42-48.24c-4.06-6.8-12.9-9.05-19.72-5.01l-423.62,251.09c-4.19,2.48-6.82,6.87-7.03,11.73-.12,2.79,.57,5.53,2.01,7.94l251.86,422.56c4.06,6.8,12.9,9.05,19.72,5L106.42,393.98c4.19-2.48,6.81-6.86,7.02-11.73Z"/><path class="d" d="M-597.05,182.11c.25-5.64,3.48-10.81,8.45-13.5L-168.69-58.48c7.84-4.24,17.69-1.33,21.94,6.5L81.04,366.85c1.4,2.58,2.07,5.47,1.94,8.38-.25,5.64-3.49,10.81-8.45,13.5l-419.9,227.09c-7.84,4.24-17.68,1.33-21.94-6.5l-227.79-418.84c-1.4-2.58-2.07-5.47-1.95-8.38ZM80.72,375.14c.11-2.5-.47-4.99-1.67-7.2L-148.75-50.91c-3.66-6.73-12.12-9.23-18.87-5.59l-419.9,227.09c-4.34,2.35-7.05,6.68-7.27,11.61-.11,2.5,.47,4.99,1.67,7.21l227.8,418.84c3.66,6.72,12.12,9.23,18.86,5.58L73.45,386.74c4.34-2.35,7.05-6.68,7.27-11.61Z"/><path class="d" d="M-601.06,154.74c.25-5.75,3.63-10.89,8.8-13.42L-176.08-61.77c7.79-3.8,17.23-.57,21.05,7.2L48.7,360.55c1.15,2.35,1.7,4.97,1.59,7.56-.25,5.75-3.62,10.9-8.81,13.42l-416.18,203.1c-7.79,3.8-17.23,.58-21.04-7.2l-203.74-415.13c-1.15-2.35-1.7-4.97-1.59-7.57ZM48.02,368.02c.1-2.22-.38-4.46-1.37-6.47L-157.08-53.58c-3.26-6.65-11.34-9.41-18.01-6.16l-416.18,203.1c-4.43,2.16-7.32,6.56-7.53,11.48-.1,2.22,.37,4.46,1.36,6.47l203.73,415.13c3.26,6.65,11.34,9.41,18.01,6.16L40.49,379.51c4.43-2.17,7.32-6.57,7.54-11.49Z"/></g></g></svg>