<?xml version="1.0" encoding="UTF-8"?><svg id="a" xmlns="http://www.w3.org/2000/svg" xmlns:xlink="http://www.w3.org/1999/xlink" viewBox="0 0 354.01 851"><defs><style>.c{fill:none;}.d{opacity:.1;}.e{fill:#70ed7d;fill-rule:evenodd;}.f{clip-path:url(#b);}</style><clipPath id="b"><rect class="c" x="-.21" width="354.21" height="851"/></clipPath></defs><g class="f"><g class="d"><path class="e" d="M266.04,167.73c6.39,6.4,15.26,10.36,25.03,10.36s18.63-3.96,25.03-10.36c6.41-6.4,10.37-15.26,10.37-25.04s-3.96-18.63-10.37-25.04c-6.39-6.4-15.26-10.36-25.03-10.36s-18.63,3.96-25.03,10.36c-6.41,6.41-10.37,15.26-10.37,25.04s3.96,18.63,10.37,25.04"/><path class="e" d="M126.76,63.13c6.41-6.41,10.37-15.26,10.37-25.04s-3.96-18.62-10.37-25.03c-6.41-6.4-15.26-10.37-25.03-10.37s-18.63,3.97-25.05,10.37c-6.39,6.41-10.37,15.26-10.37,25.03s3.98,18.63,10.37,25.04c6.41,6.4,15.26,10.37,25.05,10.37s18.61-3.97,25.03-10.37Z"/><path class="e" d="M186.21,611.99c17.24-23.36,33.36-47.51,48.29-72.37,14.98-24.97,28.71-50.54,41.16-76.61,1.75-3.67,.19-8.06-3.48-9.8-3.67-1.75-8.05-.19-9.79,3.48-12.36,25.89-25.87,51.05-40.49,75.39-14.66,24.45-30.5,48.2-47.47,71.17-2.4,3.26-1.73,7.85,1.52,10.26,3.26,2.41,7.85,1.73,10.25-1.52h0Z"/><path class="e" d="M245.71,376.78c.38,32.49,19.61,44.33,41,57.49,16.3,10.03,33.67,20.72,46.56,39.48-9.99-32.6-29.91-46.99-49.2-60.92-14.19-10.25-28.08-20.3-38.37-36.04h.01Z"/><path class="e" d="M292.64,400.94c17.45,12.61,35.35,25.55,47.4,49.26-2.64-13.05-6.58-24.75-11.84-35.12-14.59-28.75-39.72-47.36-75.36-55.81,9.05,19.46,24.22,30.42,39.8,41.67Z"/><path class="e" d="M351.71,202.44c-2.95-2.79-7.59-2.67-10.37,.26-15.84,16.56-35.64,28.02-57,33.74-19.63,5.25-40.54,5.67-60.87,.71,.92-51.67-2.79-103.73-11.35-155.57-.27-2.27-1.59-4.39-3.75-5.57-3.57-1.95-8.02-.66-9.98,2.9-14.35,26.2-35.22,47.49-59.98,62.29-23.43,14.01-50.35,22.21-78.49,23.25C44.89,131.17,26.87,98.86,5.92,67.91c-1.23-2.3-3.67-3.85-6.46-3.85s-5.23,1.55-6.46,3.85c-20.96,30.94-38.96,63.25-54.01,96.54-28.13-1.04-55.04-9.23-78.48-23.25-24.75-14.79-45.63-36.08-60-62.29-1.95-3.56-6.41-4.85-9.96-2.9-2.16,1.18-3.5,3.3-3.76,5.57-8.55,51.84-12.27,103.9-11.37,155.57-20.31,4.95-41.23,4.54-60.85-.71-21.36-5.73-41.16-17.19-57-33.74-2.79-2.93-7.44-3.05-10.37-.26-6.72,6.38,9.46,68.49,12.14,79.69,5.78,24.2,12.55,48.17,20.3,71.85,1.25,3.86,5.4,5.96,9.25,4.71,3.86-1.26,5.97-5.4,4.72-9.26-7.58-23.14-14.25-46.73-19.97-70.7-4.06-17.07-7.64-34.29-10.73-51.64,14.4,11,30.7,18.93,47.88,23.53,20.95,5.62,43.25,6.27,65.06,1.48,2.5,71.32,13.85,141.81,33.58,209.87,36.8,126.95,90.12,202.96,157.23,311.2-15.25,.66-29.79,1.77-43.33,3.26h-.05c-57.05,6.28-96.3,19.4-96.3,34.57,0,21.27,77.22,38.52,172.5,38.52s172.5-17.25,172.5-38.52c0-18.77-60.12-34.4-139.69-37.82,67.11-108.24,120.42-184.25,157.23-311.2,19.73-68.06,31.08-138.55,33.58-209.87,21.8,4.79,44.11,4.14,65.05-1.48,17.18-4.6,33.46-12.53,47.86-23.53-3.07,17.35-6.65,34.57-10.73,51.64-5.71,23.97-12.38,47.56-19.95,70.7-1.25,3.86,.86,8,4.71,9.26,3.86,1.24,8.01-.86,9.24-4.71,7.75-23.68,14.54-47.65,20.31-71.85,5.76-24.11,10.54-48.56,14.34-73.29,.33-2.29-.41-4.7-2.21-6.4h-.01ZM-14.29,293.79v324.13c-9.64-.79-19.05-2.39-28.16-4.72V313.42c-7.32,2.28-14.39,5.15-21.15,8.53-2.38,1.19-4.72,2.45-7.02,3.77v277.54c-9.94-4.53-19.36-10-28.16-16.28v-240.06c-1.08,1.05-2.15,2.11-3.19,3.19-8.18,8.44-15.31,17.9-21.2,28.16-1.32,2.3-2.58,4.64-3.77,7.02-3.39,6.76-6.25,13.82-8.53,21.14-2.82,9.03-4.76,18.45-5.72,28.16-.45,4.63-.69,9.33-.69,14.08s.23,9.45,.69,14.08c.96,9.71,2.9,19.13,5.72,28.16,2.28,7.32,5.14,14.39,8.53,21.14v49.67c-4.11-4.61-7.99-9.45-11.58-14.49-6.28-8.8-11.75-18.22-16.28-28.16l-.3-.66c-3.97-8.8-7.21-17.99-9.64-27.5-2.33-9.11-3.93-18.52-4.72-28.16-.38-4.64-.58-9.34-.58-14.08s.2-9.44,.58-14.08c.79-9.64,2.39-19.05,4.72-28.16,2.44-9.52,5.68-18.71,9.64-27.5l.3-.66c4.53-9.94,10-19.36,16.28-28.16,3.6-5.04,7.47-9.88,11.58-14.49,4.3-4.81,8.86-9.38,13.67-13.67,4.61-4.12,9.45-7.99,14.49-11.59,8.8-6.28,18.22-11.74,28.16-16.28l.66-.3c8.8-3.97,17.99-7.21,27.5-9.64,9.11-2.33,18.52-3.93,28.16-4.72v14.36h0Zm183.33,168.97c-.79,9.64-2.39,19.05-4.72,28.16-2.44,9.52-5.68,18.71-9.64,27.51l-.3,.66c-4.53,9.94-10,19.36-16.28,28.16-3.6,5.04-7.47,9.88-11.59,14.49-4.3,4.81-8.86,9.38-13.67,13.67-4.61,4.12-9.45,7.99-14.49,11.58-8.8,6.28-18.22,11.74-28.16,16.28-.22,.1-.44,.2-.65,.3-8.8,3.97-17.99,7.21-27.51,9.64-9.11,2.33-18.52,3.93-28.16,4.72V279.43c9.64,.79,19.05,2.39,28.16,4.72v299.78c7.32-2.28,14.39-5.15,21.15-8.53,2.38-1.19,4.72-2.45,7.02-3.77V294.09c9.94,4.53,19.36,10,28.16,16.28v240.06c1.08-1.05,2.14-2.11,3.19-3.19,8.18-8.44,15.32-17.9,21.21-28.16,1.32-2.3,2.57-4.64,3.77-7.02,3.39-6.76,6.25-13.82,8.53-21.14,2.82-9.03,4.76-18.45,5.71-28.16,.46-4.63,.69-9.33,.69-14.08s-.23-9.45-.69-14.08c-.96-9.71-2.89-19.13-5.71-28.16-2.29-7.32-5.15-14.39-8.53-21.14v-49.67c4.12,4.61,7.99,9.45,11.59,14.49,6.28,8.8,11.74,18.22,16.28,28.16l.3,.66c3.97,8.79,7.21,17.99,9.64,27.5,2.33,9.12,3.93,18.52,4.72,28.16,.38,4.64,.58,9.34,.58,14.08s-.2,9.44-.57,14.08h-.03Z"/></g></g></svg>