<?xml version="1.0" encoding="UTF-8"?>
<svg width="249px" height="62px" viewBox="0 0 249 62" version="1.1" xmlns="http://www.w3.org/2000/svg" xmlns:xlink="http://www.w3.org/1999/xlink">
    <title>logo@2x</title>
    <defs>
        <path d="M10.3797834,0 C4.6472366,0 0,4.62644 0,10.3333333 L0,10.3333333 L0,51.6666667 C0,57.37356 4.6472366,62 10.3797834,62 L10.3797834,62 L51.8989168,62 C57.6314635,62 62.2787001,57.37356 62.2787001,51.6666667 L62.2787001,51.6666667 L62.2787001,10.3333333 C62.2787001,4.62644 57.6314635,0 51.8989168,0 L51.8989168,0 L10.3797834,0 Z" id="path-1"></path>
        <linearGradient x1="4.88155363%" y1="94.7155356%" x2="95.1184412%" y2="5.2844695%" id="linearGradient-3">
            <stop stop-color="#31BC41" offset="0%"></stop>
            <stop stop-color="#70ED7C" offset="100%"></stop>
        </linearGradient>
        <polygon id="path-4" points="0 62 249 62 249 0 0 0"></polygon>
        <path d="M41.9139804,3.01506 L41.7929521,0.42222 L36.6445795,0.42222 L36.6445795,30.3909533 L41.9139804,30.3909533 L41.9139804,6.03012 C43.0044804,5.12554 43.5496266,4.82422 44.2766266,4.82422 L44.2766266,4.82422 C45.1850653,4.82422 45.6089756,5.54776 45.6089756,7.05518667 L45.6089756,7.05518667 L45.6089756,30.3909533 L50.878584,30.3909533 L50.878584,6.87414667 C50.878584,3.85908667 50.6967302,2.71353333 50.0305557,1.68846667 L50.0305557,1.68846667 C49.4249992,0.723746667 48.092235,0 46.8200888,0 L46.8200888,0 C45.3060936,0 44.0947728,0.723746667 41.9139804,3.01506 L41.9139804,3.01506 Z M26.8927731,30.3909533 L32.1623815,30.3909533 L32.1623815,0.42222 L26.8927731,0.42222 L26.8927731,30.3909533 Z M18.5951743,0.42222 L16.2329432,16.76356 L13.56783,0.42222 L9.69139612,0.42222 L7.14731122,16.4620333 L4.72446219,0.42222 L0,0.42222 L4.72446219,30.3909533 L8.72213195,30.3909533 L11.6901272,13.2055867 L14.536679,30.3909533 L18.5951743,30.3909533 L23.1984006,0.42222 L18.5951743,0.42222 Z" id="path-6"></path>
        <linearGradient x1="14.8511532%" y1="71.1491072%" x2="87.8109891%" y2="27.7635373%" id="linearGradient-8">
            <stop stop-color="#31BC41" offset="0%"></stop>
            <stop stop-color="#70ED7C" offset="100%"></stop>
        </linearGradient>
    </defs>
    <g id="📱MMW-App" stroke="none" stroke-width="1" fill="none" fill-rule="evenodd">
        <g id="bg-1" transform="translate(-262.000000, -170.000000)">
            <g id="logo" transform="translate(262.000000, 170.000000)">
                <g id="Group-3">
                    <mask id="mask-2" fill="white">
                        <use xlink:href="#path-1"></use>
                    </mask>
                    <g id="Clip-2"></g>
                    <path d="M10.3797834,0 C4.6472366,0 0,4.62644 0,10.3333333 L0,10.3333333 L0,51.6666667 C0,57.37356 4.6472366,62 10.3797834,62 L10.3797834,62 L51.8989168,62 C57.6314635,62 62.2787001,57.37356 62.2787001,51.6666667 L62.2787001,51.6666667 L62.2787001,10.3333333 C62.2787001,4.62644 57.6314635,0 51.8989168,0 L51.8989168,0 L10.3797834,0 Z" id="Fill-1" fill="url(#linearGradient-3)" mask="url(#mask-2)"></path>
                </g>
                <g id="Group-40">
                    <path d="M46.5796307,16.0833993 C46.9503966,16.453126 47.4644034,16.6816993 48.0311396,16.6816993 C48.5976682,16.6816993 49.111675,16.453126 49.4824409,16.0833993 C49.8542447,15.7136727 50.0840532,15.202586 50.0840532,14.6379727 C50.0840532,14.0737727 49.8542447,13.562686 49.4824409,13.192546 C49.111675,12.8228193 48.5976682,12.594246 48.0311396,12.594246 C47.4644034,12.594246 46.9503966,12.8228193 46.5796307,13.192546 C46.2078269,13.562686 45.9780185,14.0737727 45.9780185,14.6379727 C45.9780185,15.202586 46.2078269,15.7136727 46.5796307,16.0833993" id="Fill-4" fill="#0F0F0F"></path>
                    <path d="M38.5024985,10.044372 C38.8740947,9.674232 39.1039031,9.16314533 39.1039031,8.598532 C39.1039031,8.034332 38.8740947,7.52365867 38.5024985,7.15351867 C38.130487,6.78399867 37.6177258,6.55480533 37.0509896,6.55480533 C36.483423,6.55480533 35.9704541,6.78399867 35.5984427,7.15351867 C35.2276768,7.52365867 34.9972456,8.034332 34.9972456,8.598532 C34.9972456,9.16314533 35.2276768,9.674232 35.5984427,10.044372 C35.9704541,10.4140987 36.483423,10.6430853 37.0509896,10.6430853 C37.6177258,10.6430853 38.130487,10.4140987 38.5024985,10.044372" id="Fill-6" fill="#0F0F0F"></path>
                    <path d="M26.6414785,10.044372 C27.0122444,9.674232 27.2418452,9.16314533 27.2418452,8.598532 C27.2418452,8.034332 27.0122444,7.52365867 26.6414785,7.15351867 C26.2698823,6.78399867 25.7558754,6.55480533 25.1891392,6.55480533 C24.6224031,6.55480533 24.1086038,6.78399867 23.7378379,7.15351867 C23.3658265,7.52365867 23.1362257,8.034332 23.1362257,8.598532 C23.1362257,9.16314533 23.3658265,9.674232 23.7378379,10.044372 C24.1086038,10.4140987 24.6224031,10.6430853 25.1891392,10.6430853 C25.7558754,10.6430853 26.2698823,10.4140987 26.6414785,10.044372" id="Fill-8" fill="#0F0F0F"></path>
                    <path d="M16.2619028,14.6379727 C16.2619028,14.0737727 16.032302,13.562686 15.6602905,13.192546 C15.2886943,12.8228193 14.7757254,12.594246 14.2089892,12.594246 C13.6422531,12.594246 13.1284538,12.8228193 12.7566499,13.192546 C12.3858841,13.562686 12.1552453,14.0737727 12.1552453,14.6379727 C12.1552453,15.202586 12.3858841,15.7136727 12.7566499,16.0833993 C13.1284538,16.453126 13.6422531,16.6816993 14.2089892,16.6816993 C14.7757254,16.6816993 15.2886943,16.453126 15.6602905,16.0833993 C16.032302,15.7136727 16.2619028,15.202586 16.2619028,14.6379727" id="Fill-10" fill="#0F0F0F"></path>
                    <path d="M16.4260487,27.1410373 C14.3592262,27.6289773 12.901697,28.7032307 12.0557447,30.3629707 C11.7505791,30.961684 11.5209783,31.6376907 11.3688106,32.3911973 C12.0675776,31.0220307 13.105556,30.2749307 14.1175849,29.546844 C15.0212488,28.8972907 15.9000013,28.2642707 16.4260487,27.1410373" id="Fill-12" fill="#0F0F0F"></path>
                    <path d="M14.6135932,30.2332253 C13.4952753,31.0377787 12.3410434,31.8685787 11.7606059,33.7504853 C12.5081579,32.6673453 13.5160349,32.0502387 14.4605952,31.4713653 C15.7022249,30.7116587 16.8165984,30.0284187 16.8394339,28.1525053 C16.2430116,29.0614253 15.4379556,29.641332 14.6135932,30.2332253" id="Fill-14" fill="#0F0F0F"></path>
                    <path d="M15.1027716,33.1305267 C15.8245817,34.6358867 16.6207111,36.1119 17.4897066,37.5534 C18.3555881,38.9889067 19.2899762,40.3832867 20.2889266,41.7317867 C20.4292612,41.9192333 20.6956065,41.9582933 20.8845185,41.8194133 C21.0723926,41.6803267 21.112251,41.4149667 20.9721239,41.2271067 C19.9887432,39.90134 19.07034,38.5301067 18.2194054,37.1183667 C17.3713771,35.7130333 16.5881186,34.2601667 15.8723287,32.76576 C15.7708145,32.5539267 15.5165098,32.4640267 15.3035166,32.56488 C15.091769,32.66532 15.0012573,32.9186933 15.1027716,33.1305267" id="Fill-16" fill="#0F0F0F"></path>
                    <path d="M41.9500397,41.731766 C42.9500281,40.383266 43.8846237,38.988886 44.7505053,37.5533793 C45.6192931,36.1118793 46.4156301,34.635866 47.1374403,33.130506 C47.2387469,32.9186727 47.1482352,32.6652993 46.9354497,32.5648593 C46.7228717,32.464006 46.4683594,32.553906 46.3678831,32.7657393 C45.6512629,34.260146 44.8677968,35.7130127 44.0197685,37.118346 C43.1698719,38.530086 42.251261,39.9013193 41.26705,41.227086 C41.1277533,41.414946 41.1665737,41.680306 41.3554857,41.8193927 C41.5443978,41.9582727 41.810743,41.9192127 41.9500397,41.731766" id="Fill-18" fill="#0F0F0F"></path>
                    <path d="M45.4005911,28.152464 C45.4223887,30.0283773 46.5380078,30.7116173 47.7785995,31.471324 C48.7239901,32.0501973 49.7308291,32.667304 50.4785887,33.750444 C49.8989816,31.868744 48.7439193,31.0377373 47.6253939,30.233184 C46.8024846,29.6412907 45.9970135,29.061384 45.4005911,28.152464" id="Fill-20" fill="#0F0F0F"></path>
                    <path d="M48.122544,29.5469267 C49.1345728,30.2748067 50.1723436,31.0219067 50.8713182,32.39066 C50.7183202,31.6375667 50.4895498,30.96156 50.1843841,30.3628467 C49.3382242,28.7031067 47.8809026,27.6288533 45.8142878,27.14112 C46.3390896,28.2643533 47.2186724,28.8971667 48.122544,29.5469267" id="Fill-22" fill="#0F0F0F"></path>
                    <path d="M40.9544732,33.115874 C40.9083869,33.6722207 40.8160069,34.2155473 40.6806545,34.7417207 C40.5394894,35.2910407 40.3514078,35.8217607 40.1215994,36.3295407 C40.1157867,36.3421473 40.1101816,36.3549607 40.1043689,36.3675673 C39.8413452,36.941274 39.5245542,37.4852207 39.1602238,37.993414 C38.9513826,38.2844007 38.7271793,38.5636073 38.4884443,38.829794 C38.2393295,39.107554 37.974645,39.3712607 37.6954288,39.619054 C37.4282532,39.8567207 37.1477914,40.0801273 36.8552891,40.288034 C36.345019,40.650734 35.7984196,40.9661073 35.222134,41.2277473 C35.2094707,41.233534 35.1968074,41.2393207 35.184144,41.2449007 C34.6740815,41.4738873 34.1407682,41.6609207 33.5889789,41.8016607 C33.0604404,41.9364073 32.5146713,42.028374 31.9558238,42.0740473 L31.9558238,41.2449007 L31.9558238,40.4415873 L31.9558238,39.619054 L31.9558238,38.8058207 L31.9558238,37.993414 L31.9558238,37.163234 L31.9558238,36.3675673 L31.9558238,35.5032873 L31.9558238,34.7417207 L31.9558238,33.768114 L31.9558238,33.115874 L31.9558238,31.4900273 L31.9558238,30.8377873 L31.9558238,29.8641807 L31.9558238,29.1028207 L31.9558238,28.238334 L31.9558238,27.442874 L31.9558238,26.612694 L31.9558238,25.8002873 L31.9558238,24.9868473 L31.9558238,24.164314 L31.9558238,23.3610007 L31.9558238,22.531854 C32.5146713,22.5775273 33.0604404,22.6697007 33.5889789,22.8044473 L33.5889789,23.3610007 L33.5889789,24.494154 L33.5889789,24.9868473 L33.5889789,26.218994 L33.5889789,26.612694 L33.5889789,28.0209207 L33.5889789,28.238334 L33.5889789,29.8641807 L33.5889789,30.0780807 L33.5889789,31.4900273 L33.5889789,33.115874 L33.5889789,34.5278207 L33.5889789,34.7417207 L33.5889789,36.3675673 L33.5889789,36.5849807 L33.5889789,37.993414 L33.5889789,38.3869073 L33.5889789,39.619054 L33.5889789,40.1117473 C34.0137197,39.979894 34.4235135,39.8145607 34.8152465,39.619054 C34.95309,39.550234 35.0888576,39.4779007 35.222134,39.4016407 L35.222134,37.993414 L35.222134,37.4430607 L35.222134,36.3675673 L35.222134,35.0885073 L35.222134,34.7417207 L35.222134,33.115874 L35.222134,31.4900273 L35.222134,29.8641807 L35.222134,29.5176007 L35.222134,28.238334 L35.222134,27.1628407 L35.222134,26.612694 L35.222134,25.2042607 L35.222134,24.9868473 L35.222134,23.378154 C35.7984196,23.6400007 36.345019,23.955374 36.8552891,24.318074 L36.8552891,24.9868473 L36.8552891,26.428554 L36.8552891,26.612694 L36.8552891,28.238334 L36.8552891,29.0515673 L36.8552891,29.8641807 L36.8552891,31.4900273 L36.8552891,33.115874 L36.8552891,34.7417207 L36.8552891,35.5545407 L36.8552891,36.3675673 L36.8552891,37.993414 L36.8552891,38.1773473 C36.9177754,38.1170007 36.979639,38.0556207 37.0400493,37.993414 C37.5144054,37.5058873 37.9283511,36.9600807 38.269846,36.3675673 C38.3464488,36.2346807 38.4193149,36.0997273 38.4884443,35.9625007 C38.6848298,35.572314 38.8506987,35.164354 38.9833523,34.7417207 C39.1467301,34.2203007 39.2590394,33.676354 39.3144674,33.115874 C39.3410397,32.8484473 39.354741,32.5773007 39.354741,32.303054 C39.354741,32.0286007 39.3410397,31.757454 39.3144674,31.4900273 C39.2590394,30.9295473 39.1467301,30.3856007 38.9833523,29.8641807 C38.8506987,29.4415473 38.6848298,29.0335873 38.4884443,28.6436073 L38.4884443,28.238334 L38.4884443,26.612694 L38.4884443,25.7761073 C38.7271793,26.042294 38.9513826,26.3215007 39.1602238,26.612694 C39.5245542,27.1206807 39.8413452,27.6646273 40.1043689,28.238334 C40.1101816,28.2511473 40.1157867,28.263754 40.1215994,28.2763607 C40.3514078,28.7841407 40.5394894,29.3148607 40.6806545,29.8641807 C40.8160069,30.3905607 40.9083869,30.9336807 40.9542656,31.4900273 C40.9764783,31.758074 40.9876885,32.0292207 40.9876885,32.303054 C40.9876885,32.5766807 40.9764783,32.8478273 40.9544732,33.115874 L40.9544732,33.115874 Z M30.3228763,23.3610007 L30.3228763,24.164314 L30.3228763,24.9868473 L30.3228763,25.8002873 L30.3228763,26.612694 L30.3228763,27.442874 L30.3228763,28.2385407 L30.3228763,29.1028207 L30.3228763,29.8643873 L30.3228763,30.8377873 L30.3228763,31.4900273 L30.3228763,33.115874 L30.3228763,33.768114 L30.3228763,34.7417207 L30.3228763,35.5032873 L30.3228763,36.3675673 L30.3228763,37.163234 L30.3228763,37.993414 L30.3228763,38.8058207 L30.3228763,39.6192607 L30.3228763,40.4415873 L30.3228763,41.2449007 L30.3228763,42.0740473 C29.7640288,42.028374 29.2182597,41.9364073 28.6897212,41.8016607 L28.6897212,41.2449007 L28.6897212,40.1117473 L28.6897212,39.6192607 L28.6897212,38.3869073 L28.6897212,37.993414 L28.6897212,36.5849807 L28.6897212,36.3675673 L28.6897212,34.7417207 L28.6897212,34.5278207 L28.6897212,33.115874 L28.6897212,31.4900273 L28.6897212,30.0780807 L28.6897212,29.8643873 L28.6897212,28.2385407 L28.6897212,28.0209207 L28.6897212,26.612694 L28.6897212,26.218994 L28.6897212,24.9868473 L28.6897212,24.494154 C28.2649804,24.6260073 27.8553942,24.7913407 27.4634536,24.9868473 C27.3256101,25.0556673 27.1898425,25.1282073 27.0565661,25.2042607 L27.0565661,26.612694 L27.0565661,27.1628407 L27.0565661,28.2385407 L27.0565661,29.5176007 L27.0565661,29.8643873 L27.0565661,31.4900273 L27.0565661,33.115874 L27.0565661,34.7417207 L27.0565661,35.0885073 L27.0565661,36.3675673 L27.0565661,37.4430607 L27.0565661,37.993414 L27.0565661,39.4016407 L27.0565661,39.6192607 L27.0565661,41.2277473 C26.4802805,40.9661073 25.9336811,40.650734 25.4236186,40.288034 L25.4236186,39.6192607 L25.4236186,38.1773473 L25.4236186,37.993414 L25.4236186,36.3675673 L25.4236186,35.5545407 L25.4236186,34.7417207 L25.4236186,33.115874 L25.4236186,31.4900273 L25.4236186,29.8643873 L25.4236186,29.0515673 L25.4236186,28.2385407 L25.4236186,26.612694 L25.4236186,26.428554 C25.3609247,26.4889007 25.2990612,26.5502807 25.2384432,26.612694 C24.7640871,27.100014 24.350349,27.6458207 24.0088541,28.2385407 C23.9322513,28.3712207 23.8593852,28.506174 23.7902558,28.6436073 C23.5938703,29.0335873 23.4277938,29.4415473 23.2955554,29.8643873 C23.1321776,30.3858073 23.0196607,30.9295473 22.9640251,31.4900273 C22.9376604,31.757454 22.9239591,32.0286007 22.9239591,32.303054 C22.9239591,32.5773007 22.9376604,32.8484473 22.9640251,33.115874 C23.0196607,33.676354 23.1321776,34.2203007 23.2955554,34.7417207 C23.4277938,35.164354 23.5938703,35.572314 23.7902558,35.9625007 L23.7902558,36.3675673 L23.7902558,37.993414 L23.7902558,38.829794 C23.5517284,38.5636073 23.3271099,38.2844007 23.1184763,37.993414 C22.7541459,37.4852207 22.4373549,36.941274 22.1745388,36.3675673 C22.1687261,36.3549607 22.1629134,36.3421473 22.1573083,36.3295407 C21.9270847,35.8217607 21.7394182,35.2910407 21.5980456,34.7417207 C21.4629008,34.2155473 21.3701056,33.6722207 21.3242269,33.115874 C21.3022218,32.8478273 21.2910116,32.5766807 21.2910116,32.303054 C21.2910116,32.0292207 21.3022218,31.7582807 21.3242269,31.4900273 C21.3701056,30.9336807 21.4629008,30.3905607 21.5980456,29.8643873 C21.7394182,29.3148607 21.9270847,28.7841407 22.1573083,28.2763607 C22.1629134,28.263754 22.1687261,28.2511473 22.1745388,28.2385407 C22.4373549,27.664834 22.7541459,27.1206807 23.1184763,26.612694 C23.3271099,26.3215007 23.5517284,26.042294 23.7902558,25.7761073 C24.0393706,25.4983473 24.3040551,25.2348473 24.5830637,24.9868473 C24.8504469,24.7491807 25.1311163,24.525774 25.4236186,24.318074 C25.9336811,23.955374 26.4802805,23.6400007 27.0565661,23.378154 C27.069437,23.372574 27.0818927,23.3667873 27.0945561,23.3610007 C27.6048262,23.132014 28.1377243,22.9449807 28.6897212,22.8044473 C29.2182597,22.6697007 29.7640288,22.5775273 30.3228763,22.531854 L30.3228763,23.3610007 Z M51.5482877,18.087074 C51.3772288,17.9256673 51.1079773,17.932694 50.946883,18.1017473 C50.0282722,19.0577873 48.8800606,19.7193273 47.6413372,20.049994 C46.5030902,20.3533807 45.2903163,20.3771473 44.1111729,20.0911207 C44.1649402,17.1083007 43.9492483,14.1025407 43.4530946,11.1098007 C43.4371098,10.9785673 43.3607146,10.8564273 43.2353268,10.7882273 C43.0285615,10.6753873 42.7701049,10.749994 42.6567577,10.9554207 C41.8247142,12.4682207 40.6140163,13.6972673 39.1784923,14.5514207 C37.819571,15.3605207 36.2586592,15.8335807 34.6263345,15.8933073 C33.7544327,13.9719273 32.7096037,12.1069673 31.4947538,10.3199207 C31.4233409,10.1874473 31.2821759,10.097754 31.1202512,10.097754 C30.9579114,10.097754 30.816954,10.1874473 30.7453335,10.3199207 C29.5294457,12.1063473 28.4856546,13.9719273 27.6127149,15.8933073 C25.9814281,15.8335807 24.4207239,15.3605207 23.0615951,14.5514207 C21.6262786,13.6972673 20.4153731,12.4682207 19.5822917,10.9554207 C19.4689444,10.749994 19.2104878,10.6753873 19.0047605,10.7882273 C18.8795803,10.8564273 18.8019396,10.9785673 18.7869927,11.1098007 C18.290839,14.1025407 18.0751471,17.1083007 18.1278764,20.0911207 C16.949771,20.3771473 15.7369971,20.3533807 14.5987501,20.049994 C13.3600267,19.7193273 12.2120227,19.0577873 11.2932043,18.1017473 C11.1312797,17.932694 10.8620281,17.9256673 10.6917996,18.087074 C10.3021426,18.4555607 11.2406826,22.0412273 11.3957565,22.6878873 C11.730816,24.0853673 12.1233794,25.4690007 12.572824,26.8361007 C12.6452749,27.0588873 12.8858782,27.1802007 13.1094588,27.1082807 C13.3332469,27.035534 13.4555208,26.7966273 13.3830699,26.5738407 C12.9435898,25.2379473 12.5568391,23.876014 12.224686,22.4919673 C11.989065,21.506374 11.7814693,20.5121007 11.6025218,19.510594 C12.4374716,20.145474 13.3830699,20.6032407 14.3791139,20.869014 C15.5939637,21.1934807 16.8870771,21.231094 18.1517499,20.954574 C18.2968593,25.071994 18.9551452,29.141674 20.0992049,33.0710273 C22.2337035,40.400254 25.3254258,44.7888207 29.2172218,51.037594 C28.3326566,51.0756207 27.4896106,51.1394807 26.7042762,51.2256607 L26.7011623,51.2256607 C23.3929177,51.5883607 21.1164237,52.3453807 21.1164237,53.2214407 C21.1164237,54.449454 25.5946774,55.445174 31.1202512,55.445174 C36.6454099,55.445174 41.1240788,54.449454 41.1240788,53.2214407 C41.1240788,52.1376807 37.6375096,51.2351673 33.0228655,51.037594 C36.9146615,44.7888207 40.0065914,40.400254 42.1408824,33.0710273 C43.2851497,29.141674 43.943228,25.071994 44.0883374,20.954574 C45.3528026,21.231094 46.6461236,21.1934807 47.8609734,20.869014 C48.8574326,20.6032407 49.8015777,20.145474 50.6367351,19.510594 C50.458618,20.5121007 50.2510223,21.506374 50.0143633,22.4919673 C49.6832482,23.876014 49.2964975,25.2379473 48.8574326,26.5738407 C48.7845666,26.7966273 48.907048,27.035534 49.1306285,27.1082807 C49.3542091,27.1802007 49.5948124,27.0588873 49.6664329,26.8361007 C50.11567,25.4690007 50.509479,24.0853673 50.8445384,22.6878873 C51.1785598,21.2959873 51.4559076,19.8842473 51.6763742,18.456594 C51.695473,18.324534 51.6527083,18.1854473 51.5482877,18.087074 L51.5482877,18.087074 Z" id="Fill-24" fill="#0F0F0F"></path>
                    <path d="M70.7399051,16.2307527 L75.88807,16.2307527 L76.0093059,19.0647727 C78.1292728,16.592626 79.4014191,15.8087393 81.2185039,15.8087393 C83.0355888,15.8087393 84.0046454,16.652766 84.913084,19.0647727 C86.3668765,16.7734593 87.8206689,15.8087393 89.7587821,15.8087393 C91.1519566,15.8087393 92.4845132,16.4719327 93.1508953,17.5575527 C93.8168622,18.5826193 93.9989236,19.7281727 93.9989236,22.8637193 L93.9989236,46.199486 L88.7291076,46.199486 L88.7291076,22.8637193 C88.7291076,21.4166393 88.2447869,20.632546 87.3359331,20.632546 C86.6091406,20.632546 86.0639944,20.9340727 85.0343199,21.8386527 L85.0343199,46.199486 L79.7647115,46.199486 L79.7647115,22.8637193 C79.7647115,21.3562927 79.3408011,20.632546 78.4321549,20.632546 C77.7053625,20.632546 77.0995983,20.9340727 76.0093059,21.8386527 L76.0093059,46.199486 L70.7399051,46.199486 L70.7399051,16.2307527 Z" id="Fill-26" fill="#0F0F0F"></path>
                    <path d="M107.203835,30.823114 C104.357075,33.1749807 103.387811,35.1647673 103.387811,38.6018407 C103.387811,40.651974 103.932958,41.7373873 105.023458,41.7373873 C105.81066,41.7373873 106.477042,41.2548207 107.203835,40.169614 L107.203835,30.823114 Z M107.567127,46.1995273 C107.385481,45.596474 107.264245,44.691894 107.203835,43.7875207 C105.931896,45.7171673 104.478104,46.6215407 102.721637,46.6215407 C99.6932312,46.6215407 98.1184105,44.0287007 98.1184105,39.023854 C98.1184105,35.8279607 98.9056133,33.5366473 100.66208,31.546654 C101.934226,30.1599207 101.934226,30.1599207 106.17416,27.3860407 C106.295396,27.3259007 106.658689,27.084514 107.203835,26.7228473 L107.203835,23.3461207 C107.203835,21.0548073 106.961571,20.6325873 105.568604,20.6325873 C103.993783,20.6325873 103.630075,21.4166807 103.387811,25.0345873 L98.3000567,25.0345873 C98.6029388,21.7783473 98.9056133,20.3914073 99.6932312,19.004674 C100.844142,16.894194 102.903283,15.808574 105.629014,15.808574 C110.050594,15.808574 112.473443,18.341274 112.473443,22.984454 L112.473443,41.375514 C112.473443,43.908214 112.534061,44.691894 113.018382,46.1995273 L107.567127,46.1995273 Z" id="Fill-28" fill="#0F0F0F"></path>
                    <polygon id="Fill-30" fill="#0F0F0F" points="132.401382 46.1994653 127.192391 46.1994653 124.04275 31.6672853 122.346693 35.8278987 122.346693 46.1994653 117.077292 46.1994653 117.077292 5.98006533 122.346693 5.98006533 122.346693 27.8081987 126.344363 16.230732 131.311297 16.230732 127.434863 25.8182053"></polygon>
                    <path d="M144.516478,27.9288093 L144.516478,22.8638227 C144.516478,21.416536 143.850096,20.6326493 142.638775,20.6326493 C141.427454,20.6326493 140.700454,21.4768827 140.700454,22.8638227 L140.700454,27.9288093 L144.516478,27.9288093 Z M149.786086,35.707536 C149.846704,37.7576693 149.846704,37.7576693 149.846704,38.4812093 C149.846704,43.727236 147.242209,46.6216027 142.517747,46.6216027 C140.215926,46.6216027 138.398841,45.7773693 137.066285,44.0889027 C135.854964,42.5816827 135.431054,40.953356 135.431054,38.1796827 L135.431054,24.1902093 C135.431054,18.582516 137.853903,15.808636 142.699393,15.808636 C147.120973,15.808636 149.786086,18.642656 149.786086,23.285836 L149.786086,32.0894227 L140.700454,32.0894227 L140.700454,38.7223893 C140.700454,40.893216 141.245601,41.7975893 142.578365,41.7975893 C143.971332,41.7975893 144.576888,40.7123827 144.576888,38.2398227 L144.576888,36.913436 L144.576888,35.707536 L149.786086,35.707536 Z" id="Fill-32" fill="#0F0F0F"></path>
                    <path d="M154.268284,16.2307527 L159.416449,16.2307527 L159.537685,19.0647727 C161.657652,16.592626 162.929798,15.8087393 164.746883,15.8087393 C166.563968,15.8087393 167.533025,16.652766 168.441463,19.0647727 C169.895256,16.7734593 171.349048,15.8087393 173.287162,15.8087393 C174.680336,15.8087393 176.012893,16.4719327 176.679275,17.5575527 C177.345242,18.5826193 177.527303,19.7281727 177.527303,22.8637193 L177.527303,46.199486 L172.257487,46.199486 L172.257487,22.8637193 C172.257487,21.4166393 171.773166,20.632546 170.864312,20.632546 C170.13752,20.632546 169.592374,20.9340727 168.562699,21.8386527 L168.562699,46.199486 L163.293091,46.199486 L163.293091,22.8637193 C163.293091,21.3562927 162.869181,20.632546 161.960534,20.632546 C161.233742,20.632546 160.627978,20.9340727 159.537685,21.8386527 L159.537685,46.199486 L154.268284,46.199486 L154.268284,16.2307527 Z" id="Fill-34" fill="#0F0F0F"></path>
                    <path d="M190.610584,50.2998767 C189.944202,54.5811833 187.279089,56.8724967 182.918127,56.8724967 C182.433598,56.8724967 182.009688,56.81215 181.343306,56.6914567 L181.343306,51.68661 L181.827626,51.68661 C184.614183,51.68661 185.64365,50.48071 185.64365,47.1037767 C185.64365,45.35517 185.58324,44.9935033 185.098504,41.8579567 L180.919188,16.23067 L186.067768,16.23067 L188.490617,33.8382567 L191.034494,16.23067 L196.122457,16.23067 L190.610584,50.2998767 Z" id="Fill-36" fill="#0F0F0F"></path>
                    <mask id="mask-5" fill="white">
                        <use xlink:href="#path-4"></use>
                    </mask>
                    <g id="Clip-39"></g>
                    <polygon id="Fill-38" fill="#0F0F0F" mask="url(#mask-5)" points="225.014397 11.34662 230.283797 11.34662 230.283797 5.98010667 225.014397 5.98010667"></polygon>
                </g>
                <g id="Group-43" transform="translate(198.121416, 15.808553)">
                    <mask id="mask-7" fill="white">
                        <use xlink:href="#path-6"></use>
                    </mask>
                    <g id="Clip-42"></g>
                    <path d="M41.9139804,3.01506 L41.7929521,0.42222 L36.6445795,0.42222 L36.6445795,30.3909533 L41.9139804,30.3909533 L41.9139804,6.03012 C43.0044804,5.12554 43.5496266,4.82422 44.2766266,4.82422 L44.2766266,4.82422 C45.1850653,4.82422 45.6089756,5.54776 45.6089756,7.05518667 L45.6089756,7.05518667 L45.6089756,30.3909533 L50.878584,30.3909533 L50.878584,6.87414667 C50.878584,3.85908667 50.6967302,2.71353333 50.0305557,1.68846667 L50.0305557,1.68846667 C49.4249992,0.723746667 48.092235,0 46.8200888,0 L46.8200888,0 C45.3060936,0 44.0947728,0.723746667 41.9139804,3.01506 L41.9139804,3.01506 Z M26.8927731,30.3909533 L32.1623815,30.3909533 L32.1623815,0.42222 L26.8927731,0.42222 L26.8927731,30.3909533 Z M18.5951743,0.42222 L16.2329432,16.76356 L13.56783,0.42222 L9.69139612,0.42222 L7.14731122,16.4620333 L4.72446219,0.42222 L0,0.42222 L4.72446219,30.3909533 L8.72213195,30.3909533 L11.6901272,13.2055867 L14.536679,30.3909533 L18.5951743,30.3909533 L23.1984006,0.42222 L18.5951743,0.42222 Z" id="Fill-41" fill="url(#linearGradient-8)" mask="url(#mask-7)"></path>
                </g>
            </g>
        </g>
    </g>
</svg>