<?xml version="1.0" encoding="UTF-8"?>
<svg width="512px" height="512px" viewBox="0 0 512 512" version="1.1" xmlns="http://www.w3.org/2000/svg" xmlns:xlink="http://www.w3.org/1999/xlink">
    <title>sent</title>
    <g id="App-Steps" stroke="none" stroke-width="1" fill="none" fill-rule="evenodd">
        <g id="sent" fill="#32BC41" fill-rule="nonzero">
            <path d="M256,210 C313.99,210 361,162.99 361,105 C361,47.01 313.99,0 256,0 C198.01,0 151,47.01 151,105 C151,162.99 198.01,210 256,210 Z M200.419,99.443 C206.277,93.586 215.775,93.586 221.632,99.443 L240.975,118.786 L286.343,73.419 C292.201,67.561 301.699,67.562 307.556,73.419 C313.414,79.277 313.414,88.774 307.556,94.632 L251.581,150.605 C245.727,156.46 236.224,156.462 230.368,150.605 L200.419,120.655 C194.561,114.798 194.561,105.301 200.419,99.443 Z" id="Shape"></path>
            <path d="M497,120 L390.163,120 C382.676,187.406 325.37,240 256,240 C186.63,240 129.324,187.406 121.838,120 L15,120 C6.716,120 0,126.716 0,135 L0,497 C0,510.311 16.201,517.015 25.606,507.606 L112.213,421 L497,421 C505.284,421 512,414.284 512,406 L512,135 C512,126.716 505.285,120 497,120 Z M106,270 L136,270 C144.284,270 151,276.716 151,285 C151,293.284 144.284,300 136,300 L106,300 C97.716,300 91,293.284 91,285 C91,276.716 97.716,270 106,270 Z M406,360 L106,360 C97.716,360 91,353.284 91,345 C91,336.716 97.716,330 106,330 L406,330 C414.284,330 421,336.716 421,345 C421,353.284 414.285,360 406,360 Z M406,300 L196,300 C187.716,300 181,293.284 181,285 C181,276.716 187.716,270 196,270 L406,270 C414.284,270 421,276.716 421,285 C421,293.284 414.285,300 406,300 Z" id="Shape"></path>
        </g>
    </g>
</svg>