<?xml version="1.0" encoding="UTF-8"?>
<svg width="454px" height="258px" viewBox="0 0 454 258" version="1.1" xmlns="http://www.w3.org/2000/svg" xmlns:xlink="http://www.w3.org/1999/xlink">
    <title>Step-3</title>
    <g id="Step-3" stroke="none" stroke-width="1" fill="none" fill-rule="evenodd">
        <path d="M20,32 L434,32 C445.045695,32 454,40.954305 454,52 L454,258 L454,258 L0,258 L0,52 C-1.3527075e-15,40.954305 8.954305,32 20,32 Z" id="Rectangle" fill="#0F0F0F" opacity="0.886252267"></path>
        <g id="Group" transform="translate(20.000000, 52.000000)">
            <path d="M20,0 L394,0 C405.045695,-2.02906125e-15 414,8.954305 414,20 L414,206 L414,206 L0,206 L0,20 C-1.3527075e-15,8.954305 8.954305,2.02906125e-15 20,0 Z" id="Rectangle" fill="#FFFFFF"></path>
            <rect id="Rectangle" fill="#F4F7FA" x="20" y="93" width="374" height="50" rx="10"></rect>
            <g id="Group-2" transform="translate(339.000000, 108.000000)" fill="#007FF3">
                <rect id="Rectangle" fill-opacity="0.289216155" x="0" y="1" width="40" height="18" rx="9"></rect>
                <rect id="Rectangle" x="20" y="0" width="20" height="20" rx="10"></rect>
            </g>
            <g id="Chrome" transform="translate(72.902000, 23.622000)" fill="#272829" fill-rule="nonzero">
                <path d="M8.03,15.642 C10.318,15.642 12.43,14.652 13.904,13.112 L11.55,11 C10.67,12.012 9.416,12.694 8.03,12.694 C5.5,12.694 3.344,10.45 3.344,7.81 C3.344,5.192 5.5,2.948 8.03,2.948 C9.416,2.948 10.67,3.63 11.55,4.642 L13.904,2.53 C12.43,0.968 10.318,0 8.03,0 C3.696,0 0,3.564 0,7.81 C0,12.056 3.696,15.642 8.03,15.642 Z" id="Path"></path>
                <path d="M22.396,3.74 C20.944,3.74 19.69,4.4 18.986,5.39 L18.986,0 L15.774,0 L15.774,15.378 L18.986,15.378 L18.986,8.646 C18.986,7.414 20.02,6.446 21.362,6.446 C22.638,6.446 23.518,7.414 23.518,8.822 L23.518,15.378 L26.62,15.378 L26.62,8.14 C26.62,5.566 24.86,3.74 22.396,3.74 Z" id="Path"></path>
                <path d="M32.538,6.116 L32.538,4.004 L29.326,4.004 L29.326,15.378 L32.538,15.378 L32.538,9.944 C32.538,7.81 34.056,6.446 36.432,6.446 L36.432,3.74 C34.694,3.74 33.286,4.642 32.538,6.116 Z" id="Path"></path>
                <path d="M43.868,15.642 C47.234,15.642 50.05,12.914 50.05,9.68 C50.05,6.446 47.234,3.74 43.868,3.74 C40.48,3.74 37.642,6.446 37.642,9.68 C37.642,12.914 40.48,15.642 43.868,15.642 Z M43.868,12.936 C42.152,12.936 40.722,11.44 40.722,9.68 C40.722,7.92 42.152,6.446 43.868,6.446 C45.562,6.446 46.992,7.92 46.992,9.68 C46.992,11.44 45.562,12.936 43.868,12.936 Z" id="Shape"></path>
                <path d="M65.758,3.74 C64.064,3.74 62.656,4.554 62.062,5.808 C61.358,4.532 60.016,3.74 58.454,3.74 C57.046,3.74 55.924,4.422 55.374,5.5 L55.374,4.004 L52.162,4.004 L52.162,15.378 L55.374,15.378 L55.374,8.514 C55.374,7.304 56.276,6.446 57.574,6.446 C58.74,6.446 59.576,7.37 59.576,8.69 L59.576,15.4 L62.656,15.4 L62.656,8.514 C62.656,7.304 63.58,6.446 64.856,6.446 C66.044,6.446 66.88,7.37 66.88,8.69 L66.88,15.4 L69.96,15.4 L69.96,8.14 C69.96,5.566 68.134,3.74 65.758,3.74 Z" id="Path"></path>
                <path d="M78.034,12.804 C76.692,12.804 75.702,11.968 75.328,10.736 L83.534,10.736 C83.534,6.446 81.444,3.74 77.88,3.74 C74.558,3.74 72.028,6.226 72.028,9.658 C72.028,13.156 74.668,15.642 78.056,15.642 C79.728,15.642 81.686,14.938 82.698,13.882 L80.652,11.792 C80.036,12.386 78.936,12.804 78.034,12.804 Z M78.012,6.578 C79.31,6.578 80.146,7.304 80.454,8.426 L75.372,8.426 C75.79,7.282 76.802,6.578 78.012,6.578 Z" id="Shape"></path>
            </g>
            <g id="Allow-from-this-sour" transform="translate(35.266000, 111.724000)" fill="#272829" fill-rule="nonzero">
                <path d="M8.05,10.276 L9.982,10.276 L5.964,0.658 L4.018,0.658 L0,10.276 L1.946,10.276 L2.674,8.54 L7.322,8.54 L8.05,10.276 Z M3.304,7.028 L4.998,2.982 L6.692,7.028 L3.304,7.028 Z" id="Shape"></path>
                <polygon id="Path" points="11.2 10.276 12.908 10.276 12.908 0.49 11.2 0.49"></polygon>
                <polygon id="Path" points="14.798 10.276 16.506 10.276 16.506 0.49 14.798 0.49"></polygon>
                <path d="M21.896,10.444 C23.996,10.444 25.774,8.708 25.774,6.65 C25.774,4.592 23.996,2.87 21.896,2.87 C19.796,2.87 18.018,4.592 18.018,6.65 C18.018,8.708 19.796,10.444 21.896,10.444 Z M21.896,8.988 C20.692,8.988 19.684,7.924 19.684,6.65 C19.684,5.39 20.692,4.326 21.896,4.326 C23.086,4.326 24.094,5.39 24.094,6.65 C24.094,7.924 23.086,8.988 21.896,8.988 Z" id="Shape"></path>
                <polygon id="Path" points="29.106 10.276 30.66 10.276 32.2 5.32 33.754 10.276 35.308 10.276 37.744 3.038 36.036 3.038 34.538 7.98 32.914 3.038 31.486 3.038 29.876 7.98 28.364 3.038 26.656 3.038"></polygon>
                <path d="M45.15,2.436 C45.15,1.946 45.458,1.596 45.864,1.596 C46.158,1.596 46.424,1.708 46.578,1.862 L47.068,0.77 C46.662,0.42 46.074,0.196 45.528,0.196 C44.324,0.196 43.484,1.064 43.484,2.282 L43.484,3.038 L42.434,3.038 L42.434,4.452 L43.484,4.452 L43.484,10.276 L45.15,10.276 L45.15,4.452 L46.788,4.452 L46.788,3.038 L45.15,3.038 L45.15,2.436 Z" id="Path"></path>
                <path d="M49.896,4.438 L49.896,3.038 L48.188,3.038 L48.188,10.276 L49.896,10.276 L49.896,6.622 C49.896,5.25 50.932,4.326 52.486,4.326 L52.486,2.87 C51.296,2.87 50.358,3.472 49.896,4.438 Z" id="Path"></path>
                <path d="M57.246,10.444 C59.346,10.444 61.124,8.708 61.124,6.65 C61.124,4.592 59.346,2.87 57.246,2.87 C55.146,2.87 53.368,4.592 53.368,6.65 C53.368,8.708 55.146,10.444 57.246,10.444 Z M57.246,8.988 C56.042,8.988 55.034,7.924 55.034,6.65 C55.034,5.39 56.042,4.326 57.246,4.326 C58.436,4.326 59.444,5.39 59.444,6.65 C59.444,7.924 58.436,8.988 57.246,8.988 Z" id="Shape"></path>
                <path d="M70.966,2.87 C69.888,2.87 68.978,3.402 68.628,4.242 C68.18,3.388 67.34,2.87 66.318,2.87 C65.408,2.87 64.666,3.318 64.302,4.018 L64.302,3.038 L62.594,3.038 L62.594,10.276 L64.302,10.276 L64.302,5.838 C64.302,4.956 64.96,4.326 65.884,4.326 C66.724,4.326 67.298,4.998 67.298,5.95 L67.298,10.276 L68.964,10.276 L68.964,5.838 C68.964,4.956 69.608,4.326 70.546,4.326 C71.372,4.326 71.946,4.998 71.946,5.95 L71.946,10.276 L73.612,10.276 L73.612,5.67 C73.612,4.032 72.478,2.87 70.966,2.87 Z" id="Path"></path>
                <path d="M83.034,8.722 C82.88,8.876 82.614,8.988 82.32,8.988 C81.914,8.988 81.606,8.638 81.606,8.148 L81.606,4.452 L83.244,4.452 L83.244,3.038 L81.606,3.038 L81.606,1.05 L79.94,1.05 L79.94,3.038 L78.89,3.038 L78.89,4.452 L79.94,4.452 L79.94,8.358 C79.94,9.576 80.78,10.444 81.984,10.444 C82.53,10.444 83.118,10.22 83.524,9.87 L83.034,8.722 Z" id="Path"></path>
                <path d="M88.802,2.87 C87.836,2.87 86.982,3.332 86.548,4.032 L86.548,0.49 L84.84,0.49 L84.84,10.276 L86.548,10.276 L86.548,5.894 C86.548,5.026 87.346,4.326 88.312,4.326 C89.208,4.326 89.838,5.026 89.838,6.006 L89.838,10.276 L91.49,10.276 L91.49,5.67 C91.49,4.032 90.384,2.87 88.802,2.87 Z" id="Path"></path>
                <path d="M94.206,1.946 C94.738,1.946 95.172,1.484 95.172,0.966 C95.172,0.448 94.738,0 94.206,0 C93.66,0 93.226,0.448 93.226,0.966 C93.226,1.484 93.66,1.946 94.206,1.946 Z M93.338,10.276 L95.046,10.276 L95.046,3.038 L93.338,3.038 L93.338,10.276 Z" id="Shape"></path>
                <path d="M99.61,10.444 C101.304,10.444 102.452,9.548 102.452,8.162 C102.452,6.65 101.136,6.23 99.918,5.894 C98.812,5.572 98.434,5.432 98.434,4.97 C98.434,4.564 98.896,4.326 99.498,4.326 C100.128,4.326 100.87,4.55 101.556,4.984 L102.27,3.738 C101.486,3.22 100.492,2.87 99.498,2.87 C97.888,2.87 96.768,3.794 96.768,5.152 C96.782,6.44 97.776,6.888 99.344,7.294 C100.17,7.518 100.8,7.7 100.8,8.26 C100.8,8.708 100.324,9.002 99.638,9.002 C98.728,9.002 97.916,8.666 97.216,8.162 L96.446,9.352 C97.314,10.052 98.504,10.444 99.61,10.444 Z" id="Path"></path>
                <path d="M110.572,10.444 C112.266,10.444 113.414,9.548 113.414,8.162 C113.414,6.65 112.098,6.23 110.88,5.894 C109.774,5.572 109.396,5.432 109.396,4.97 C109.396,4.564 109.858,4.326 110.46,4.326 C111.09,4.326 111.832,4.55 112.518,4.984 L113.232,3.738 C112.448,3.22 111.454,2.87 110.46,2.87 C108.85,2.87 107.73,3.794 107.73,5.152 C107.744,6.44 108.738,6.888 110.306,7.294 C111.132,7.518 111.762,7.7 111.762,8.26 C111.762,8.708 111.286,9.002 110.6,9.002 C109.69,9.002 108.878,8.666 108.178,8.162 L107.408,9.352 C108.276,10.052 109.466,10.444 110.572,10.444 Z" id="Path"></path>
                <path d="M118.398,10.444 C120.498,10.444 122.276,8.708 122.276,6.65 C122.276,4.592 120.498,2.87 118.398,2.87 C116.298,2.87 114.52,4.592 114.52,6.65 C114.52,8.708 116.298,10.444 118.398,10.444 Z M118.398,8.988 C117.194,8.988 116.186,7.924 116.186,6.65 C116.186,5.39 117.194,4.326 118.398,4.326 C119.588,4.326 120.596,5.39 120.596,6.65 C120.596,7.924 119.588,8.988 118.398,8.988 Z" id="Shape"></path>
                <path d="M128.66,3.038 L128.66,7.616 C128.548,8.386 127.806,8.988 126.91,8.988 C126.014,8.988 125.384,8.288 125.384,7.308 L125.384,3.038 L123.732,3.038 L123.732,7.644 C123.732,9.282 124.838,10.444 126.42,10.444 C127.372,10.444 128.212,9.982 128.66,9.31 L128.66,10.276 L130.368,10.276 L130.368,3.038 L128.66,3.038 Z" id="Path"></path>
                <path d="M133.994,4.438 L133.994,3.038 L132.286,3.038 L132.286,10.276 L133.994,10.276 L133.994,6.622 C133.994,5.25 135.03,4.326 136.584,4.326 L136.584,2.87 C135.394,2.87 134.456,3.472 133.994,4.438 Z" id="Path"></path>
                <path d="M141.33,10.444 C142.478,10.444 143.444,9.968 144.144,9.226 L142.996,8.232 C142.59,8.694 141.974,8.988 141.344,8.988 C140.154,8.988 139.16,7.924 139.16,6.65 C139.16,5.39 140.154,4.326 141.344,4.326 C141.96,4.326 142.562,4.62 142.954,5.054 L144.102,4.046 C143.416,3.332 142.45,2.87 141.358,2.87 C139.244,2.87 137.466,4.592 137.466,6.65 C137.466,8.708 139.244,10.444 141.33,10.444 Z" id="Path"></path>
                <path d="M148.862,8.932 C147.826,8.932 147.07,8.232 146.86,7.238 L152.32,7.238 C152.32,4.564 151.018,2.87 148.778,2.87 C146.72,2.87 145.096,4.466 145.096,6.636 C145.096,8.862 146.804,10.444 148.876,10.444 C149.926,10.444 151.186,9.996 151.816,9.324 L150.738,8.204 C150.332,8.624 149.534,8.932 148.862,8.932 Z M148.848,4.382 C149.87,4.382 150.486,5.026 150.682,5.936 L146.874,5.936 C147.126,4.984 147.896,4.382 148.848,4.382 Z" id="Shape"></path>
            </g>
            <g id="100.0.4896.75" transform="translate(72.252000, 52.214000)" fill="#272829" fill-rule="nonzero">
                <polygon id="Path" points="2.366 9.786 4.102 9.786 4.102 0.168 2.702 0.168 0 2.002 0.714 3.234 2.366 2.184"></polygon>
                <path d="M10.178,9.954 C12.642,9.954 14.378,7.896 14.378,4.97 C14.378,2.058 12.642,0 10.178,0 C7.7,0 5.95,2.058 5.95,4.97 C5.95,7.896 7.7,9.954 10.178,9.954 Z M10.178,8.358 C8.75,8.358 7.742,6.958 7.742,4.97 C7.742,2.982 8.75,1.596 10.178,1.596 C11.592,1.596 12.6,2.982 12.6,4.97 C12.6,6.958 11.592,8.358 10.178,8.358 Z" id="Shape"></path>
                <path d="M19.992,9.954 C22.456,9.954 24.192,7.896 24.192,4.97 C24.192,2.058 22.456,0 19.992,0 C17.514,0 15.764,2.058 15.764,4.97 C15.764,7.896 17.514,9.954 19.992,9.954 Z M19.992,8.358 C18.564,8.358 17.556,6.958 17.556,4.97 C17.556,2.982 18.564,1.596 19.992,1.596 C21.406,1.596 22.414,2.982 22.414,4.97 C22.414,6.958 21.406,8.358 19.992,8.358 Z" id="Shape"></path>
                <path d="M26.866,9.954 C27.454,9.954 27.944,9.45 27.944,8.834 C27.944,8.26 27.454,7.756 26.866,7.756 C26.222,7.756 25.746,8.26 25.746,8.834 C25.746,9.45 26.222,9.954 26.866,9.954 Z" id="Path"></path>
                <path d="M33.684,9.954 C36.148,9.954 37.884,7.896 37.884,4.97 C37.884,2.058 36.148,0 33.684,0 C31.206,0 29.456,2.058 29.456,4.97 C29.456,7.896 31.206,9.954 33.684,9.954 Z M33.684,8.358 C32.256,8.358 31.248,6.958 31.248,4.97 C31.248,2.982 32.256,1.596 33.684,1.596 C35.098,1.596 36.106,2.982 36.106,4.97 C36.106,6.958 35.098,8.358 33.684,8.358 Z" id="Shape"></path>
                <path d="M40.558,9.954 C41.146,9.954 41.636,9.45 41.636,8.834 C41.636,8.26 41.146,7.756 40.558,7.756 C39.914,7.756 39.438,8.26 39.438,8.834 C39.438,9.45 39.914,9.954 40.558,9.954 Z" id="Path"></path>
                <path d="M47.796,9.786 L49.532,9.786 L49.532,7.7 L50.862,7.7 L50.862,6.202 L49.532,6.202 L49.532,0.168 L47.446,0.168 L42.882,6.342 L43.05,7.7 L47.796,7.7 L47.796,9.786 Z M44.744,6.202 L47.796,2.072 L47.796,6.202 L44.744,6.202 Z" id="Shape"></path>
                <path d="M55.748,9.954 C57.82,9.954 59.5,8.946 59.5,7.224 C59.5,6.09 58.674,5.25 57.54,4.816 C58.506,4.424 59.248,3.71 59.248,2.59 C59.248,0.966 57.61,0 55.748,0 C53.942,0 52.262,0.938 52.262,2.59 C52.262,3.682 52.976,4.396 53.97,4.816 C52.85,5.222 52.01,6.062 52.01,7.224 C52.01,8.932 53.662,9.954 55.748,9.954 Z M55.748,4.186 C54.95,4.144 53.984,3.668 53.984,2.814 C53.984,2.058 54.74,1.484 55.748,1.484 C56.756,1.484 57.526,2.058 57.526,2.814 C57.526,3.654 56.574,4.144 55.748,4.186 Z M55.748,8.456 C54.614,8.456 53.76,7.896 53.76,7.056 C53.76,6.16 54.866,5.628 55.748,5.586 C56.644,5.628 57.736,6.16 57.736,7.056 C57.736,7.896 56.868,8.456 55.748,8.456 Z" id="Shape"></path>
                <path d="M64.358,0 C62.286,0 60.774,1.372 60.774,3.276 C60.774,5.194 62.244,6.314 64.008,6.314 C64.988,6.314 65.912,5.908 66.5,5.222 C66.388,7.112 65.422,8.414 64.064,8.414 C63.21,8.414 62.622,8.064 62.034,7.546 L61.18,8.876 C61.95,9.534 62.86,9.954 64.05,9.954 C66.556,9.954 68.306,7.784 68.306,4.816 C68.306,2.044 67.088,0 64.358,0 Z M64.47,4.886 C63.42,4.886 62.552,4.256 62.552,3.206 C62.552,2.324 63.266,1.484 64.442,1.484 C65.604,1.484 66.206,2.282 66.416,3.556 C66.136,4.368 65.394,4.886 64.47,4.886 Z" id="Shape"></path>
                <path d="M73.948,3.64 C72.968,3.64 72.044,4.046 71.456,4.732 C71.568,2.842 72.534,1.54 73.892,1.54 C74.746,1.54 75.334,1.89 75.922,2.408 L76.776,1.078 C76.006,0.42 75.096,0 73.906,0 C71.4,0 69.65,2.17 69.65,5.138 C69.65,7.91 70.868,9.954 73.598,9.954 C75.67,9.954 77.182,8.582 77.182,6.678 C77.182,4.76 75.712,3.64 73.948,3.64 Z M73.514,8.47 C72.352,8.47 71.75,7.672 71.54,6.398 C71.82,5.586 72.562,5.068 73.486,5.068 C74.536,5.068 75.404,5.698 75.404,6.748 C75.404,7.63 74.69,8.47 73.514,8.47 Z" id="Shape"></path>
                <path d="M79.856,9.954 C80.444,9.954 80.934,9.45 80.934,8.834 C80.934,8.26 80.444,7.756 79.856,7.756 C79.212,7.756 78.736,8.26 78.736,8.834 C78.736,9.45 79.212,9.954 79.856,9.954 Z" id="Path"></path>
                <polygon id="Path" points="83.468 9.786 85.442 9.786 89.418 1.484 89.418 0.168 82.474 0.168 82.474 1.764 87.388 1.764"></polygon>
                <path d="M94.388,9.954 C96.586,9.954 98.084,8.666 98.084,6.678 C98.084,4.746 96.614,3.654 94.906,3.654 C94.08,3.654 93.45,3.906 92.96,4.242 L93.044,1.764 L97.566,1.764 L97.566,0.168 L91.406,0.168 L91.266,5.278 L92.456,5.782 C93.002,5.362 93.66,5.11 94.416,5.11 C95.564,5.11 96.334,5.768 96.334,6.748 C96.334,7.686 95.592,8.442 94.416,8.442 C93.45,8.442 92.568,7.952 91.826,7.224 L90.79,8.47 C91.644,9.366 92.82,9.954 94.388,9.954 Z" id="Path"></path>
            </g>
            <g id="chrome" transform="translate(20.000000, 20.000000)" fill-rule="nonzero">
                <path d="M4.46725995,6.445428 C13.067403,-3.56376594 29.0143206,-1.58875401 34.9736023,10.1040566 C30.7764365,10.1063693 24.2066579,10.101744 20.6477388,10.1040566 C18.0670022,10.1040566 16.3996983,10.0462401 14.5959576,10.9967435 C12.4754061,12.1137585 10.8728518,14.1835895 10.3155422,16.6165082 L4.46725995,6.445428 Z" id="Path" fill="#F44336"></path>
                <path d="M12.3459067,18.5013263 C12.3459067,21.893999 15.104705,24.6530028 18.4948124,24.6530028 C21.8849199,24.6530028 24.6437182,21.893999 24.6437182,18.5013263 C24.6437182,15.1086536 21.8849199,12.3496484 18.4948124,12.3496484 C15.1023925,12.3473372 12.3459067,15.1086536 12.3459067,18.5013263 Z" id="Path" fill="#2196F3"></path>
                <path d="M20.8789876,26.5540096 C17.4287555,27.5785181 13.3888388,26.4430019 11.1781003,22.622487 C9.48998399,19.708535 5.02688205,11.9356836 3.00114252,8.39962598 C-4.10282076,19.2876308 2.0183351,34.1233469 14.9127685,36.65571 L20.8789876,26.5540096 Z" id="Path" fill="#4CAF50"></path>
                <path d="M24.2043454,12.3473372 C27.0787681,15.0207725 27.7054523,19.3500727 25.7583374,22.7057428 C24.29222,25.2357932 19.6094317,33.1381536 17.3408809,36.9632938 C30.6261248,37.7819755 40.3108247,24.7616979 35.9355973,12.3450245 L24.2043454,12.3473372 Z" id="Path" fill="#FFC107"></path>
            </g>
        </g>
        <g id="Group-2" transform="translate(172.000000, 0.000000)">
            <path d="M10,0 L100,0 C105.522847,-1.01453063e-15 110,4.4771525 110,10 L110,32 L110,32 L0,32 L0,10 C-6.76353751e-16,4.4771525 4.4771525,1.01453063e-15 10,0 Z" id="Rectangle" fill="#0F0F0F"></path>
            <g id="STEP-3" transform="translate(24.558000, 10.400000)" fill="#EFF4EF" fill-rule="nonzero">
                <path d="M5.292,12.798 C8.244,12.798 9.936,11.232 9.936,9.018 C9.936,6.768 8.208,5.94 5.634,5.364 C3.672,4.914 2.754,4.554 2.754,3.546 C2.754,2.682 3.6,1.926 4.842,1.926 C6.066,1.926 7.308,2.448 8.388,3.384 L9.612,1.728 C8.37,0.666 6.894,0 4.932,0 C2.322,0 0.486,1.584 0.486,3.744 C0.486,6.066 2.268,6.804 4.824,7.398 C6.804,7.866 7.686,8.208 7.686,9.234 C7.686,10.116 6.894,10.872 5.364,10.872 C3.744,10.872 2.43,10.224 1.296,9.198 L0,10.8 C1.368,12.078 3.168,12.798 5.292,12.798 Z" id="Path"></path>
                <polygon id="Path" points="15.318 12.6 17.55 12.6 17.55 2.286 21.51 2.286 21.51 0.234 11.358 0.234 11.358 2.286 15.318 2.286"></polygon>
                <polygon id="Path" points="32.742 2.286 32.742 0.234 23.436 0.234 23.436 12.6 32.742 12.6 32.742 10.548 25.686 10.548 25.686 7.326 32.076 7.326 32.076 5.274 25.686 5.274 25.686 2.286"></polygon>
                <path d="M34.902,12.6 L37.152,12.6 L37.152,8.442 L40.284,8.442 C42.93,8.442 44.91,6.75 44.91,4.338 C44.91,1.926 42.93,0.234 40.284,0.234 L34.902,0.234 L34.902,12.6 Z M37.152,6.372 L37.152,2.304 L40.032,2.304 C41.562,2.304 42.624,3.078 42.624,4.338 C42.624,5.598 41.562,6.372 40.032,6.372 L37.152,6.372 Z" id="Shape"></path>
                <path d="M55.854,12.816 C58.644,12.816 60.462,11.304 60.462,9.18 C60.462,7.506 59.166,6.552 57.852,6.246 C59.184,5.85 60.192,4.878 60.192,3.384 C60.192,1.422 58.446,0.018 55.818,0.018 C53.712,0.018 52.272,0.954 51.282,2.196 L52.614,3.564 C53.46,2.628 54.396,2.034 55.62,2.034 C56.952,2.034 57.924,2.736 57.924,3.744 C57.924,4.824 56.97,5.418 55.512,5.4 L54.126,5.4 L54.126,7.344 L55.512,7.326 C57.258,7.326 58.176,7.902 58.176,9 C58.176,10.08 57.258,10.818 55.782,10.818 C54.45,10.818 53.262,10.224 52.398,9.252 L51.03,10.728 C52.038,11.934 53.694,12.816 55.854,12.816 Z" id="Path"></path>
            </g>
        </g>
    </g>
</svg>