<?xml version="1.0"?>
<svg xmlns="http://www.w3.org/2000/svg" xmlns:xlink="http://www.w3.org/1999/xlink" xmlns:svgjs="http://svgjs.com/svgjs" version="1.1" width="512" height="512" x="0" y="0" viewBox="0 0 512 512" style="enable-background:new 0 0 512 512" xml:space="preserve"><g><g xmlns="http://www.w3.org/2000/svg"><path d="m361 226c0-57.9-47.1-105-105-105s-105 47.1-105 105 47.1 105 105 105 105-47.1 105-105zm-175.499 10.499 20.999-21 34.501 34.2 64.501-64.2 20.999 21-85.501 85.8z" fill="#32bc41" data-original="#000000"/><path d="m256 512 4.2-1.201c9-2.399 220.8-67.599 220.8-434.799v-15h-15c-99.901 0-201.599-56.501-202.8-57.1l-7.2-3.9-7.2 3.9c-1.201.599-102.899 57.1-202.8 57.1h-15v15c0 367.2 211.8 432.4 220.8 434.799zm-135-286c0-74.401 60.601-135 135-135s135 60.599 135 135c0 74.399-60.601 135-135 135s-135-60.601-135-135z" fill="#32bc41" data-original="#000000"/></g></g></svg>
