<svg id="Layer_1" data-name="Layer 1" xmlns="http://www.w3.org/2000/svg" viewBox="0 0 655 137"><defs><style>.cls-1{fill:#32bc41;}.cls-2{fill:#0f0f0f;}.cls-3{fill:#fff;}</style></defs><circle class="cls-1" cx="68.52" cy="68.48" r="62.48"/><path class="cls-1" d="M68.52,137.41a68.93,68.93,0,1,1,68.93-68.93A69,69,0,0,1,68.52,137.41Zm0-135.85a66.93,66.93,0,1,0,66.93,66.92A67,67,0,0,0,68.52,1.56Z"/><path class="cls-2" d="M83.32,44.63a0,0,0,0,0,0,0L68.53,58.73h0L53.75,44.63s0,0,0,0L16.81,81.55v0L24,88.89h0L53.73,59.18h0L68.51,73.94s0,0,0,0L83.3,59.18h0L113,88.89h0l7.19-7.32v0Z"/><polygon class="cls-2" points="83.73 104.38 91.33 96.77 76.12 81.56 83.73 73.95 105.72 96.21 83.04 118.89 68.52 104.38 54.01 118.89 31.32 96.21 53.32 73.95 60.92 81.56 45.71 96.77 53.32 104.38 68.52 89.18 83.73 104.38"/><path class="cls-2" d="M68.52,25.4c-1.77-4.78-.62-3.64-5.41-5.41,4.79-1.77,3.64-.62,5.41-5.41,1.77,4.79.63,3.64,5.41,5.41C69.15,21.76,70.29,20.62,68.52,25.4Z"/><path class="cls-2" d="M83.57,37c-1.32-3.59-.47-2.73-4-4.06,3.58-1.33,2.73-.47,4-4.06,1.33,3.59.48,2.73,4.06,4.06C84.05,34.29,84.9,33.43,83.57,37Z"/><path class="cls-2" d="M53.47,37c-1.33-3.59-.47-2.73-4-4.06,3.58-1.33,2.72-.47,4-4.06,1.33,3.59.47,2.73,4.06,4.06C53.94,34.29,54.8,33.43,53.47,37Z"/><circle class="cls-2" cx="68.52" cy="37.02" r="7.78"/><polygon class="cls-3" points="193.62 75.17 167.2 37.55 157.82 100.69 171.25 100.69 175.31 65.25 193.62 94.83 211.93 65.25 215.99 100.69 229.43 100.69 220.05 37.55 193.62 75.17"/><path class="cls-3" d="M266.56,59.85a27.76,27.76,0,0,0-9.47-1.5,33.27,33.27,0,0,0-10.46,1.54,56.1,56.1,0,0,0-7.94,3.21L243,70.84a20.81,20.81,0,0,1,2.8-1.5,24.91,24.91,0,0,1,10-2.11,15.73,15.73,0,0,1,3.43.35,7.64,7.64,0,0,1,2.66,1.15,4.8,4.8,0,0,1,1.66,2,6.83,6.83,0,0,1,.55,2.85v4.31a22.78,22.78,0,0,0-5.1-1.93,27.68,27.68,0,0,0-7-.79q-7.75,0-12,3.43a11.35,11.35,0,0,0-4.23,9.32,11.76,11.76,0,0,0,2,7,12.91,12.91,0,0,0,5.37,4.35,17.38,17.38,0,0,0,7.22,1.5,20.3,20.3,0,0,0,7.26-1.32,13.58,13.58,0,0,0,5.68-4,11.6,11.6,0,0,0,.77-1.07v5.47H275.4V71.19a10.61,10.61,0,0,0-2.35-7A14.44,14.44,0,0,0,266.56,59.85Zm-3.79,28.8a9,9,0,0,1-3.51,3.16,10.54,10.54,0,0,1-4.87,1.1,8.92,8.92,0,0,1-3.48-.66,5.6,5.6,0,0,1-2.48-1.93,5.66,5.66,0,0,1-.09-6,5.19,5.19,0,0,1,2.53-1.85,12.44,12.44,0,0,1,4.42-.66,22.81,22.81,0,0,1,6.35.88,18.49,18.49,0,0,1,2.49.93v0A8.91,8.91,0,0,1,262.77,88.65Z"/><polygon class="cls-3" points="322.51 58.35 308.53 58.35 293.29 73.29 293.29 37.34 282.01 37.34 282.01 100.6 293.29 100.6 293.29 79.15 310.42 100.74 324.31 100.74 304.65 75.86 322.51 58.35"/><path class="cls-3" d="M358.86,60.78a28.87,28.87,0,0,0-23.59.18,18.83,18.83,0,0,0-7.8,7.32,22.08,22.08,0,0,0-2.75,11.26,21.88,21.88,0,0,0,2.75,11.18,19.13,19.13,0,0,0,7.8,7.37,25.07,25.07,0,0,0,11.82,2.65,26.94,26.94,0,0,0,12.85-2.87,21.36,21.36,0,0,0,8.61-8.61l-10.19-3.09a11.88,11.88,0,0,1-4.55,4.37A14,14,0,0,1,347.18,92a10.85,10.85,0,0,1-5.86-1.51,9.17,9.17,0,0,1-3.66-4.32,15.09,15.09,0,0,1-1-4.06h31.92a12.77,12.77,0,0,0,.14-1.42c0-.59.05-1.15.05-1.68a23.1,23.1,0,0,0-2.53-11.17A16.73,16.73,0,0,0,358.86,60.78Zm-17.59,7.06A10.53,10.53,0,0,1,347,66.39a9.37,9.37,0,0,1,4.87,1.23,8.54,8.54,0,0,1,3.2,3.36A10.29,10.29,0,0,1,356.15,75H336.9a14.62,14.62,0,0,1,.86-2.87A9.2,9.2,0,0,1,341.27,67.84Z"/><polygon class="cls-3" points="410.06 75.17 383.64 37.55 374.26 100.69 387.7 100.69 391.76 65.25 410.06 94.83 428.37 65.25 432.43 100.69 445.87 100.69 436.49 37.55 410.06 75.17"/><polygon class="cls-3" points="471.99 87.57 460.14 58.37 445.34 58.37 464.97 100.64 454.84 122.93 468.51 122.93 497.54 58.37 483.67 58.37 471.99 87.57"/><polygon class="cls-1" points="559.63 76.56 541.86 37.55 524.27 76.56 510.56 37.56 495.41 36.77 521.92 99.9 541.86 62.58 561.7 100.69 588.3 37.56 573.15 37.56 559.63 76.56"/><path class="cls-3" d="M601.22,37.38a5.68,5.68,0,0,0-4,1.59,5.76,5.76,0,0,0,0,8.13,5.61,5.61,0,0,0,4,1.64,5.74,5.74,0,0,0,4-9.77A5.55,5.55,0,0,0,601.22,37.38Z"/><rect class="cls-1" x="594.67" y="58.35" width="11.36" height="42.39"/><path class="cls-1" d="M651.3,62.54q-3.62-4.18-11-4.19a14.49,14.49,0,0,0-7.53,1.85,13.57,13.57,0,0,0-5,5.37V59.25H616v41.49h11.72V75.49a9.59,9.59,0,0,1,1-4.51,6.9,6.9,0,0,1,2.88-2.93A8.81,8.81,0,0,1,636,67q3.62,0,5.23,2.16c1.09,1.45,1.63,3.55,1.63,6.32v25.25H654.9V74.22Q654.9,66.74,651.3,62.54Z"/></svg>